<svg xmlns="http://www.w3.org/2000/svg" width="20" height="20" viewBox="0 0 20 20">
  <path id="agreement_2_" data-name="agreement (2)" d="M16.531,20H2.231a.405.405,0,0,1-.406-.4V.4A.405.405,0,0,1,2.231,0H13.489V2.205a1.223,1.223,0,0,0,1.226,1.217h2.222v6.744a2.546,2.546,0,0,0-.928.339l-.456-.158a2.717,2.717,0,0,0-1.633.017,1.452,1.452,0,0,1-1.045.006l-.02-.011-.966-.443a1.028,1.028,0,0,0-1.354.49L9.473,12.654a1.013,1.013,0,0,0,.506,1.358c.32.143.657.3.983.43.094.036.118.155.139.241l.147.611-.229.424a.989.989,0,0,0,.882,1.455.99.99,0,0,0,1.275,1.077,1.025,1.025,0,0,0,.171-.069.988.988,0,0,0,.427.441,1,1,0,0,0,.759.074q.045-.014.088-.031a.989.989,0,0,0,.454.5,1,1,0,0,0,1.257-.266l.3.162a1,1,0,0,0,.307.107V19.6A.405.405,0,0,1,16.531,20Zm-4.982-3.708a.363.363,0,0,0,.177.216.373.373,0,0,0,.5-.148l.447-.83a.368.368,0,0,0-.15-.493.374.374,0,0,0-.5.149l-.446.829A.361.361,0,0,0,11.548,16.291Zm.079-5.806a.4.4,0,0,0-.521.189L10.043,12.92a.389.389,0,0,0,.195.522c.389.173.85.378.952.418a.871.871,0,0,1,.524.679,1.051,1.051,0,0,1,.33-.168,1.039,1.039,0,0,1,.791.077,1.025,1.025,0,0,1,.5.609c.01.035.019.07.026.1a1.036,1.036,0,0,1,.62.113,1.022,1.022,0,0,1,.489.571,1.037,1.037,0,0,1,.751.088,1.021,1.021,0,0,1,.489.571,1.038,1.038,0,0,1,.751.088,1.027,1.027,0,0,1,.294.233l1.054.579a.365.365,0,1,0,.351-.641l-1.5-.839a.332.332,0,0,1-.128-.454.337.337,0,0,1,.457-.127l1.9,1.053a.365.365,0,1,0,.351-.641l-1.5-.843a.332.332,0,0,1-.127-.454.337.337,0,0,1,.458-.126l1.743.978a.365.365,0,1,0,.346-.643L17.727,13.29c-.38-.215-.879-.014-1.457.218-.881.354-2.088.839-3.078-.514a.332.332,0,0,1,.1-.485,8.323,8.323,0,0,0,1.784-1.322q.132-.132.265-.249a2.172,2.172,0,0,0-1.281.035,1.961,1.961,0,0,1-1.493-.055Zm6.674.558a1.936,1.936,0,0,0-2.157.118,4.157,4.157,0,0,0-.585.495,8.6,8.6,0,0,1-1.582,1.227c.571.554,1.172.357,2.042.008a3.754,3.754,0,0,1,1.342-.361,1.389,1.389,0,0,1,.7.181l2.432,1.376a1.057,1.057,0,0,1,.251.2l.843-.357a.39.39,0,0,0,.213-.5l-.912-2.335a.394.394,0,0,0-.552-.2l-.513.272a1.712,1.712,0,0,1-1.52-.119Zm-.87,7.33a.365.365,0,0,0-.145-.5l-.3-.162a1.027,1.027,0,0,1-.1.271l-.211.391.254.139a.369.369,0,0,0,.5-.144Zm-1.78.271a.362.362,0,0,0,.217-.176l.428-.795a.369.369,0,0,0-.15-.493.374.374,0,0,0-.5.149l-.428.795a.365.365,0,0,0,.43.52Zm-1.3-.545a.363.363,0,0,0,.217-.176l.489-.908a.369.369,0,0,0-.15-.493.374.374,0,0,0-.5.149l-.489.908a.365.365,0,0,0,.43.52Zm-1.357-.446a.366.366,0,0,0,.219-.173l.6-1.123a.367.367,0,0,0-.647-.345l-.606,1.124a.362.362,0,0,0,.429.518ZM14.118.034V2.205a.6.6,0,0,0,.6.592H16.9a.4.4,0,0,0-.084-.118L14.234.114a.405.405,0,0,0-.115-.08ZM4.16,5.2l.36-.26V8.188a.848.848,0,0,0,.849.843H6.456v-2.8a.4.4,0,0,1,.4-.4H7.7a.4.4,0,0,1,.4.4v2.8H9.189a.849.849,0,0,0,.849-.843V4.945l.36.26a.6.6,0,0,0,.829-.131.587.587,0,0,0-.132-.823L7.638,1.756a.6.6,0,0,0-.707-.007l-3.467,2.5a.587.587,0,0,0-.132.823A.6.6,0,0,0,4.16,5.2Zm.36,12.039H9.352a.323.323,0,1,0,0-.645H4.52a.323.323,0,1,0,0,.645Zm0-3.871H8.012a.323.323,0,1,0,0-.645H4.52a.323.323,0,1,0,0,.645Zm0-1.936H8.012a.323.323,0,1,0,0-.645H4.52a.323.323,0,1,0,0,.645Zm0,3.871H9.352a.323.323,0,1,0,0-.645H4.52a.323.323,0,1,0,0,.645Z" transform="translate(-1.825 0.001)" fill="#fff" fill-rule="evenodd"/>
</svg>
