<svg id="buildings" xmlns="http://www.w3.org/2000/svg" width="40" height="40" viewBox="0 0 40 40">
  <path id="Path_21312" data-name="Path 21312" d="M17,14.72V10.93a4.14,4.14,0,0,1,2.108-3.719A3.638,3.638,0,1,1,23.636,7.2a4.425,4.425,0,0,1,.819.635,4.365,4.365,0,0,1,1.278,3.093V14.72a8,8,0,1,0-8.731,0Zm0,0" transform="translate(10.629 -0.008)" fill="#00adee"/>
  <path id="Path_21313" data-name="Path 21313" d="M16.111,7.233V11.77a7.9,7.9,0,0,0,5.821,0V7.233a2.922,2.922,0,0,0-.852-2.065,2.977,2.977,0,0,0-3.812-.257,2.879,2.879,0,0,0-1.157,2.321Zm0,0" transform="translate(12.974 3.505)" fill="#00adee"/>
  <path id="Path_21314" data-name="Path 21314" d="M20.869,3.373A2.183,2.183,0,1,1,18.687,1.19,2.183,2.183,0,0,1,20.869,3.373Zm0,0" transform="translate(13.309 1.001)" fill="#00adee"/>
  <path id="Path_21315" data-name="Path 21315" d="M14.594,5.119,14.61.026l-1.455,0-.01,2.845a.728.728,0,0,1-1.189.56L8.042.2l-8,5.966L0,18.173l3.638.012.016-5.093a2.187,2.187,0,0,1,2.19-2.176l4.366.015a2.183,2.183,0,0,1,2.175,2.19l-.016,5.093,3.638.012L16.045,6.3l-1.051-.53a.727.727,0,0,1-.4-.655Zm0,0" transform="translate(0 0.003)" fill="#00adee"/>
  <path id="Path_21316" data-name="Path 21316" d="M8.585,7.425A.728.728,0,0,0,7.857,6.7L3.492,6.683a.728.728,0,0,0-.728.728L2.748,12.5l5.821.019Zm0,0" transform="translate(2.345 5.422)" fill="#00adee"/>
  <path id="Path_21317" data-name="Path 21317" d="M8.019,13.36a8,8,0,1,0,8,8A8,8,0,0,0,8.019,13.36Zm0,7.276a2.9,2.9,0,0,1,.728,5.717v1.559H7.292V26.353a2.91,2.91,0,0,1-2.183-2.807H6.564a1.455,1.455,0,1,0,1.455-1.455,2.9,2.9,0,0,1-.728-5.718V14.815H8.747v1.558a2.91,2.91,0,0,1,2.183,2.807H9.475a1.455,1.455,0,1,0-1.455,1.455Zm0,0" transform="translate(0.013 10.633)" fill="#00adee"/>
  <path id="Path_21318" data-name="Path 21318" d="M13.363,18.283V30.289h1.455V19.374a.728.728,0,0,1,.291-.582l5.821-4.366a.728.728,0,0,1,.873,0l5.821,4.366a.729.729,0,0,1,.291.582V30.289H29.37V18.283l-8-6Zm0,0" transform="translate(10.629 9.711)" fill="#00adee"/>
  <path id="Path_21319" data-name="Path 21319" d="M16.5,18.071h4.366v7.276H16.5Zm0,0" transform="translate(13.309 14.653)" fill="#00adee"/>
  <path id="Path_21320" data-name="Path 21320" d="M14.933,18.063v10.55h1.455v-8a.728.728,0,0,1,.728-.728h5.821a.728.728,0,0,1,.728.728v8H25.12V18.063l-5.093-3.82Zm0,0" transform="translate(11.969 11.387)" fill="#00adee"/>
  <path id="Path_21321" data-name="Path 21321" d="M9.476,19.06a8.556,8.556,0,0,1-.5,1.375,16.759,16.759,0,0,0,6.68.175V19.125a15.5,15.5,0,0,1-6.178-.065Zm0,0" transform="translate(7.28 15.497)" fill="#00adee"/>
  <path id="Path_21322" data-name="Path 21322" d="M20.489,16.276a16.738,16.738,0,0,0-.051-7.305,9.148,9.148,0,0,1-1.375.5,15.879,15.879,0,0,1,.349,3.267,14.265,14.265,0,0,1-.226,2.561Zm0,0" transform="translate(15.494 7.267)" fill="#00adee"/>
  <path id="Path_21323" data-name="Path 21323" d="M1.979,11.34a16.778,16.778,0,0,0,.429,3.769,8.606,8.606,0,0,1,1.375-.5,15.876,15.876,0,0,1-.349-3.267c0-.248.007-.488.015-.728H1.993c-.007.24-.015.48-.015.728Zm0,0" transform="translate(1.689 8.633)" fill="#00adee"/>
  <path id="Path_21324" data-name="Path 21324" d="M9.045,2.374V3.866a15.572,15.572,0,0,1,6.9-.087,9.137,9.137,0,0,1,.5-1.375,16.855,16.855,0,0,0-7.407-.029Zm0,0" transform="translate(7.33 1.672)" fill="#00adee"/>
</svg>
