<svg id="chat_2_" data-name="chat (2)" xmlns="http://www.w3.org/2000/svg" width="20" height="17.576" viewBox="0 0 20 17.576">
  <g id="Group_35338" data-name="Group 35338">
    <g id="Group_35337" data-name="Group 35337">
      <path id="Path_24189" data-name="Path 24189" d="M12.519,31.022H1.777A1.775,1.775,0,0,0,0,32.8v7.108a1.775,1.775,0,0,0,1.777,1.777h.592v1.777a.592.592,0,0,0,.877.521c.012-.012.036-.012.047-.024,3.259-2.185,2.528-1.7,3.258-2.18a.6.6,0,0,1,.32-.095h5.647A1.775,1.775,0,0,0,14.3,39.907V32.8A1.775,1.775,0,0,0,12.519,31.022ZM7.78,38.13H2.962a.592.592,0,0,1,0-1.185H7.78A.592.592,0,0,1,7.78,38.13Zm3.554-2.369H2.962a.592.592,0,0,1,0-1.185h8.372A.592.592,0,0,1,11.334,35.761Z" transform="translate(0 -31.022)" fill="#00adee"/>
    </g>
  </g>
  <g id="Group_35340" data-name="Group 35340" transform="translate(5.704 4.546)">
    <g id="Group_35339" data-name="Group 35339">
      <path id="Path_24190" data-name="Path 24190" d="M162.519,151.022h-2.962v4.147a2.963,2.963,0,0,1-2.962,2.962h-5.469l-1.125.746v1.031a1.775,1.775,0,0,0,1.777,1.777H157.6l3.4,2.275a.6.6,0,0,0,.924-.5v-1.777h.592a1.775,1.775,0,0,0,1.777-1.777V152.8A1.775,1.775,0,0,0,162.519,151.022Z" transform="translate(-150 -151.022)" fill="#00adee"/>
    </g>
  </g>
</svg>
