<svg id="coin" xmlns="http://www.w3.org/2000/svg" width="24" height="24" viewBox="0 0 24 24">
  <g id="Group_11582" data-name="Group 11582" transform="translate(0 12.865)">
    <path id="Path_22760" data-name="Path 22760" d="M105.323,263.439a4.651,4.651,0,0,0-3.8.286l-4.569,2.065a1.8,1.8,0,0,1-1.085.37H93.006a.644.644,0,1,1,0-1.287h2.865c.9,0,.915-1.843.038-1.916l-3.993-.046c-.7-.008-1.41-.461-2.153-.478a3.658,3.658,0,0,0-2.107.588,5.3,5.3,0,0,0-1.894,2.443l2.16,5.456h6.212a3.229,3.229,0,0,0,1.6-.426l9.641-5.515a.953.953,0,0,0,.42-.984A.772.772,0,0,0,105.323,263.439Z" transform="translate(-81.82 -262.433)" fill="#fff"/>
    <path id="Path_22761" data-name="Path 22761" d="M11.949,308.081l2.944,7.435,2.363-1.3-2.944-7.435Z" transform="translate(-11.949 -304.381)" fill="#fff"/>
  </g>
  <g id="Group_11583" data-name="Group 11583" transform="translate(11.962)">
    <path id="Path_22762" data-name="Path 22762" d="M239.544,0a5.763,5.763,0,0,0-5.723,5.8,5.724,5.724,0,1,0,11.447,0A5.763,5.763,0,0,0,239.544,0Zm.65,8.7v.962H238.87V8.775a2.853,2.853,0,0,1-1.359-.588l.475-1.332a2.526,2.526,0,0,0,1.409.579c.363,0,.6-.167.6-.424,0-.168-.054-.368-.7-.631-.805-.318-1.63-.784-1.63-1.828a1.72,1.72,0,0,1,1.264-1.671V1.944h1.316V2.8a3.215,3.215,0,0,1,1.181.485l-.494,1.311a2.568,2.568,0,0,0-1.262-.466c-.441,0-.489.226-.489.323,0,.152.057.284.792.589a2.051,2.051,0,0,1,1.544,1.911A1.824,1.824,0,0,1,240.195,8.7Z" transform="translate(-233.821)" fill="#fff"/>
  </g>
</svg>
