<svg xmlns="http://www.w3.org/2000/svg" xmlns:xlink="http://www.w3.org/1999/xlink" width="35" height="35" viewBox="0 0 35 35">
  <defs>
    <clipPath id="clip-path">
      <rect id="Rectangle_9592" data-name="Rectangle 9592" width="35" height="35" fill="#202020" stroke="#01acf0" strokeWidth="0.5"/>
    </clipPath>
  </defs>
  <g id="HDB" clip-path="url(#clip-path)">
    <g id="building">
      <g id="Group_10971" data-name="Group 10971">
        <g id="Group_10970" data-name="Group 10970">
          <path id="Path_20801" data-name="Path 20801" d="M26.011,37.333H9.908a.575.575,0,0,0-.575.575v1.15a.575.575,0,0,0,1.15,0v-.575H26.011a.575.575,0,0,0,0-1.15Z" transform="translate(-1.282 -5.128)" fill="#202020"/>
          <path id="Path_20802" data-name="Path 20802" d="M14.667,16.026a.575.575,0,0,0,.575.575h2.3a.575.575,0,0,0,.575-.575V12.575A.575.575,0,0,0,17.542,12h-2.3a.575.575,0,0,0-.575.575v3.451Zm1.15-2.875h1.15v2.3h-1.15Z" transform="translate(-2.014 -1.648)" fill="#202020"/>
          <path id="Path_20803" data-name="Path 20803" d="M7.476,8H.575A.575.575,0,0,0,0,8.575v11.5a.575.575,0,0,0,1.15,0V9.15H7.476a.575.575,0,0,0,0-1.15Z" transform="translate(0 -1.099)" fill="#202020"/>
          <path id="Path_20804" data-name="Path 20804" d="M32,32.026a.575.575,0,0,0,.575.575h2.3a.575.575,0,0,0,.575-.575V28.575A.575.575,0,0,0,34.875,28h-2.3a.575.575,0,0,0-.575.575Zm1.15-2.875H34.3v2.3H33.15Z" transform="translate(-4.395 -3.846)" fill="#202020"/>
          <path id="Path_20805" data-name="Path 20805" d="M2.876,24C.033,24,0,31.4,0,31.476a2.88,2.88,0,0,0,2.3,2.817v2.934a.575.575,0,0,0,1.15,0V34.294a2.88,2.88,0,0,0,2.3-2.817C5.751,31.4,5.718,24,2.876,24Zm0,9.2A1.727,1.727,0,0,1,1.15,31.476c0-2.865.77-6.326,1.725-6.326S4.6,28.611,4.6,31.476A1.727,1.727,0,0,1,2.876,33.2Z" transform="translate(0 -3.296)" fill="#202020"/>
          <path id="Path_20806" data-name="Path 20806" d="M6.876,20h-2.3A.575.575,0,0,0,4,20.575v1.15a.575.575,0,0,0,1.15,0V21.15H6.3v2.876a.575.575,0,0,0,1.15,0V20.575A.575.575,0,0,0,6.876,20Z" transform="translate(-0.549 -2.747)" fill="#202020"/>
          <path id="Path_20807" data-name="Path 20807" d="M32.575,16.6h2.3a.575.575,0,0,0,.575-.575V12.575A.575.575,0,0,0,34.875,12h-2.3a.575.575,0,0,0-.575.575v3.451A.575.575,0,0,0,32.575,16.6Zm.575-3.451H34.3v2.3H33.15Z" transform="translate(-4.395 -1.648)" fill="#202020"/>
          <path id="Path_20808" data-name="Path 20808" d="M6.876,12h-2.3A.575.575,0,0,0,4,12.575v3.451a.575.575,0,0,0,.575.575h2.3a.575.575,0,0,0,.575-.575V12.575A.575.575,0,0,0,6.876,12ZM6.3,15.451H5.15v-2.3H6.3v2.3Z" transform="translate(-0.549 -1.648)" fill="#202020"/>
          <path id="Path_20809" data-name="Path 20809" d="M21.333,16.026a.575.575,0,0,0,.575.575h2.3a.575.575,0,0,0,.575-.575V12.575A.575.575,0,0,0,24.209,12h-2.3a.575.575,0,0,0-.575.575Zm1.15-2.875h1.15v2.3h-1.15v-2.3Z" transform="translate(-2.93 -1.648)" fill="#202020"/>
          <path id="Path_20810" data-name="Path 20810" d="M38.143,8h-6.9a.575.575,0,0,0,0,1.15h6.326V32.26a1.643,1.643,0,0,0-.871-.08,2.3,2.3,0,0,0-4.01,0,1.691,1.691,0,0,0-.3-.026,1.725,1.725,0,1,0,0,3.451h4.6a1.727,1.727,0,0,0,1.725-1.725V8.575A.575.575,0,0,0,38.143,8Zm-1.15,26.455h-4.6a.575.575,0,1,1,0-1.15.568.568,0,0,1,.312.094.575.575,0,0,0,.872-.354,1.146,1.146,0,0,1,2.234,0,.575.575,0,0,0,.872.354.586.586,0,0,1,.887.481A.576.576,0,0,1,36.993,34.455Z" transform="translate(-4.212 -1.099)" fill="#202020"/>
          <path id="Path_20811" data-name="Path 20811" d="M21.908,8.6h2.3a.575.575,0,0,0,.575-.575V4.575A.575.575,0,0,0,24.209,4h-2.3a.575.575,0,0,0-.575.575V8.026A.575.575,0,0,0,21.908,8.6Zm.575-3.451h1.15v2.3h-1.15V5.15Z" transform="translate(-2.93 -0.549)" fill="#202020"/>
          <path id="Path_20812" data-name="Path 20812" d="M21.333,24.026a.575.575,0,0,0,.575.575h2.3a.575.575,0,0,0,.575-.575V20.575A.575.575,0,0,0,24.209,20h-2.3a.575.575,0,0,0-.575.575Zm1.15-2.875h1.15v2.3h-1.15v-2.3Z" transform="translate(-2.93 -2.747)" fill="#202020"/>
          <path id="Path_20813" data-name="Path 20813" d="M15.242,8.6h2.3a.575.575,0,0,0,.575-.575V4.575A.575.575,0,0,0,17.542,4h-2.3a.575.575,0,0,0-.575.575V8.026A.575.575,0,0,0,15.242,8.6Zm.575-3.451h1.15v2.3h-1.15Z" transform="translate(-2.014 -0.549)" fill="#202020"/>
          <path id="Path_20814" data-name="Path 20814" d="M19.5,32.168a.575.575,0,1,0,.817,0A.6.6,0,0,0,19.5,32.168Z" transform="translate(-2.655 -4.396)" fill="#202020"/>
          <path id="Path_20815" data-name="Path 20815" d="M14.667,24.026a.575.575,0,0,0,.575.575h2.3a.575.575,0,0,0,.575-.575V20.575A.575.575,0,0,0,17.542,20h-2.3a.575.575,0,0,0-.575.575v3.451Zm1.15-2.875h1.15v2.3h-1.15Z" transform="translate(-2.014 -2.747)" fill="#202020"/>
          <path id="Path_20816" data-name="Path 20816" d="M13.333,28.575a.575.575,0,0,0,.575.575h1.725v5.176a.575.575,0,0,0,1.15,0V29.15h4.6v5.176a.575.575,0,0,0,1.15,0V29.15H24.26a.575.575,0,1,0,0-1.15H13.908A.575.575,0,0,0,13.333,28.575Z" transform="translate(-1.831 -3.846)" fill="#202020"/>
          <path id="Path_20817" data-name="Path 20817" d="M32,24.026a.575.575,0,0,0,.575.575h2.3a.575.575,0,0,0,.575-.575V20.575A.575.575,0,0,0,34.875,20h-2.3a.575.575,0,0,0-.575.575Zm1.15-2.875H34.3v2.3H33.15Z" transform="translate(-4.395 -2.747)" fill="#202020"/>
          <path id="Path_20818" data-name="Path 20818" d="M26.194,0H11.242a.575.575,0,0,0-.575.575V30.48a.575.575,0,0,0,1.15,0V1.15h13.8V30.48a.575.575,0,0,0,1.15,0V.575A.575.575,0,0,0,26.194,0Z" transform="translate(-1.465)" fill="#202020"/>
        </g>
      </g>
    </g>
  </g>
</svg>
