<svg xmlns="http://www.w3.org/2000/svg" width="20" height="20" viewBox="0 0 20 20">
  <g id="Group_11629" data-name="Group 11629" transform="translate(-6135 3745.214)">
    <path id="Exclusion_2" data-name="Exclusion 2" d="M15.854,20A4.037,4.037,0,1,1,20,15.964,4.1,4.1,0,0,1,15.854,20Zm-.522-3.293h.857V18.1h1.284a.2.2,0,0,0,.151-.069.232.232,0,0,0,.064-.164v-1.74a.044.044,0,0,0,0-.021l-1.923-1.72-1.923,1.72a.025.025,0,0,1,0,.01v0a.028.028,0,0,0,0,.007v1.74a.229.229,0,0,0,.064.164.2.2,0,0,0,.15.069h1.284V16.708Zm.428-3.153a.385.385,0,0,0-.259.1l-2.463,2.172A.107.107,0,0,0,13,15.9a.125.125,0,0,0,.024.085l.212.269a.121.121,0,0,0,.072.039h.01a.126.126,0,0,0,.072-.026l2.37-2.092h0l2.37,2.092a.1.1,0,0,0,.072.026h.011a.115.115,0,0,0,.072-.041l.212-.268a.123.123,0,0,0,.023-.085.105.105,0,0,0-.038-.078l-.75-.66V13.682A.12.12,0,0,0,17.7,13.6a.107.107,0,0,0-.079-.032h-.658a.105.105,0,0,0-.079.032.116.116,0,0,0-.031.084v.706l-.837-.739A.386.386,0,0,0,15.761,13.554ZM13.374,20H0V0H12.943V2.5a.338.338,0,0,0,.342.333h2.569v8.429h0a4.9,4.9,0,0,0-1.845.357.338.338,0,0,0-.341-.3H7.71a.333.333,0,1,0,0,.667h5.568a4.81,4.81,0,0,0-.871.684H7.71a.333.333,0,1,0,0,.667h4.137a4.585,4.585,0,0,0-.825,2.628c-.011.01-.92.012-1.681.012H7.71a.333.333,0,1,0,0,.667h3.363a4.663,4.663,0,0,0,.156.684H7.71a.333.333,0,1,0,0,.667h3.784A4.754,4.754,0,0,0,13.372,20ZM2.54,15.336a.346.346,0,0,0-.35.341v2.611a.345.345,0,0,0,.35.341H5.222a.346.346,0,0,0,.35-.341V15.677a.346.346,0,0,0-.35-.341Zm0-4.655a.346.346,0,0,0-.35.341v2.611a.346.346,0,0,0,.35.341H5.222a.346.346,0,0,0,.35-.341V11.022a.346.346,0,0,0-.35-.341Zm0-4.655a.346.346,0,0,0-.35.341V8.977a.346.346,0,0,0,.35.341H5.222a.346.346,0,0,0,.35-.341V6.366a.346.346,0,0,0-.35-.341ZM7.71,8.014a.333.333,0,1,0,0,.667h5.954a.333.333,0,1,0,0-.667Zm0-1.351a.334.334,0,1,0,0,.667h5.954a.334.334,0,1,0,0-.667ZM2.54,1.37a.346.346,0,0,0-.35.341V4.322a.346.346,0,0,0,.35.341H5.222a.346.346,0,0,0,.35-.341V1.711a.346.346,0,0,0-.35-.341ZM7.71,3.359a.333.333,0,1,0,0,.667h5.954a.333.333,0,1,0,0-.667Zm0-1.351a.334.334,0,1,0,0,.667h3.682a.334.334,0,1,0,0-.667ZM3.756,8.51a.343.343,0,0,1-.241-.1L2.926,7.84a.326.326,0,0,1,0-.471.348.348,0,0,1,.484,0l.32.31.6-.722a.345.345,0,0,1,.266-.123.35.35,0,0,1,.216.074.328.328,0,0,1,.125.225.324.324,0,0,1-.074.244L4.024,8.385A.344.344,0,0,1,3.756,8.51Zm0-4.655a.343.343,0,0,1-.241-.1l-.588-.573a.326.326,0,0,1,0-.471.348.348,0,0,1,.484,0l.32.31.6-.722a.344.344,0,0,1,.266-.123.352.352,0,0,1,.216.074.328.328,0,0,1,.125.225.325.325,0,0,1-.074.245L4.024,3.729A.345.345,0,0,1,3.756,3.855ZM15.512,2.166H13.628V.333l1.883,1.832Z" transform="translate(6135 -3745.214)" fill="#fff"/>
  </g>
</svg>
