<svg xmlns="http://www.w3.org/2000/svg" width="20" height="17.759" viewBox="0 0 20 17.759">
  <g id="pay-day" transform="translate(-3 -7)">
    <path id="Path_24198" data-name="Path 24198" d="M24.346,9.141a.352.352,0,0,0,.346-.357V7.357a.347.347,0,1,0-.693,0V8.784A.352.352,0,0,0,24.346,9.141Z" transform="translate(-13.76 0)" fill="#fff"/>
    <path id="Path_24199" data-name="Path 24199" d="M38.346,9.141a.352.352,0,0,0,.346-.357V7.357a.347.347,0,1,0-.693,0V8.784A.352.352,0,0,0,38.346,9.141Z" transform="translate(-22.933 0)" fill="#fff"/>
    <path id="Path_24200" data-name="Path 24200" d="M50.346,9.141a.352.352,0,0,0,.346-.357V7.357a.347.347,0,1,0-.693,0V8.784A.352.352,0,0,0,50.346,9.141Z" transform="translate(-30.81 0)" fill="#fff"/>
    <path id="Path_24201" data-name="Path 24201" d="M21.621,11H20.586v.357a1.035,1.035,0,1,1-2.069,0V11H16.448v.357a1.035,1.035,0,1,1-2.069,0V11H11.621v.357a1.035,1.035,0,1,1-2.069,0V11H7.483v.357a1.035,1.035,0,1,1-2.069,0V11H4.379A1.405,1.405,0,0,0,3,12.427v.714H23v-.714A1.405,1.405,0,0,0,21.621,11Z" transform="translate(0 -2.573)" fill="#fff"/>
    <path id="Path_24202" data-name="Path 24202" d="M12.346,9.141a.352.352,0,0,0,.346-.357V7.357a.347.347,0,1,0-.693,0V8.784A.352.352,0,0,0,12.346,9.141Z" transform="translate(-5.883 0)" fill="#fff"/>
    <path id="Path_24203" data-name="Path 24203" d="M29.771,28.708A2.855,2.855,0,1,0,27,25.854,2.817,2.817,0,0,0,29.771,28.708Zm0-2.5a1.056,1.056,0,0,1-1.039-1.07,1.067,1.067,0,0,1,.693-1v-.422h.693v.422a1.067,1.067,0,0,1,.693,1h-.693a.347.347,0,1,0-.346.357,1.056,1.056,0,0,1,1.039,1.07,1.067,1.067,0,0,1-.693,1v.422h-.693v-.422a1.067,1.067,0,0,1-.693-1h.693a.347.347,0,1,0,.346-.357Z" transform="translate(-15.738 -10.329)" fill="#fff"/>
    <path id="Path_24204" data-name="Path 24204" d="M3,31.059a1.4,1.4,0,0,0,1.379,1.419H21.621A1.4,1.4,0,0,0,23,31.059V19H3Zm11.034-11.35a3.548,3.548,0,1,1-3.448,3.547A3.5,3.5,0,0,1,14.034,19.709Zm-6.9,6.384a.35.35,0,0,1,.345-.355H9.552a.35.35,0,0,1,.345.355v.363A9.031,9.031,0,0,1,13,27.133l.062.025h1.313a1.051,1.051,0,0,1,1.034,1.064,1.1,1.1,0,0,1-.018.2c.066-.021.132-.044.2-.07l2.014-.777a.911.911,0,0,1,.326-.061.943.943,0,0,1,.929.955,1.135,1.135,0,0,1-.578,1l-3.556,1.97a2.664,2.664,0,0,1-2.254.157l-1.708-.659a3.367,3.367,0,0,0-.869-.207v.336a.35.35,0,0,1-.345.355H7.483a.35.35,0,0,1-.345-.355V26.094Z" transform="translate(0 -7.719)" fill="#fff"/>
    <path id="Path_24205" data-name="Path 24205" d="M17,40h1.385v4.281H17Z" transform="translate(-9.174 -21.306)" fill="#fff"/>
    <path id="Path_24206" data-name="Path 24206" d="M25.832,45.82a2.02,2.02,0,0,0,1.693-.118L31.1,43.721a.426.426,0,0,0,.216-.374.246.246,0,0,0-.325-.231l-2.022.781a4.053,4.053,0,0,1-1.463.273H25.425v-.714H27.5a.357.357,0,0,0,0-.714H26.117a.335.335,0,0,1-.129-.026l-.124-.051A8.386,8.386,0,0,0,23,42.047V44.9a4.05,4.05,0,0,1,1.117.257Z" transform="translate(-13.125 -22.622)" fill="#fff"/>
  </g>
</svg>
