<svg id="pay_2_" data-name="pay (2)" xmlns="http://www.w3.org/2000/svg" width="20" height="20" viewBox="0 0 20 20">
  <path id="Path_22771" data-name="Path 22771" d="M72.946,330.6a1.432,1.432,0,0,1-1.38-1.06c-.006-.022-.006-.043-.01-.065l-3.93-2.13a.7.7,0,0,0-.35-.093.73.73,0,0,0-.137.013.667.667,0,0,0-.178.058.7.7,0,0,0-.306.284.728.728,0,0,0-.1.358.712.712,0,0,0,.355.621l6.505,3.9a1.072,1.072,0,0,0,.569.164h5.028a1.073,1.073,0,0,0,.393-.075l1.31-.519V328.2l-1.276-.766a1.068,1.068,0,0,0-.55-.153H77.524a2.488,2.488,0,0,0-.645.085l-4.119,1.105a.723.723,0,0,0-.526.631v.117a.655.655,0,0,0,.021.132.714.714,0,0,0,.69.527c.043,0,.253-.047.416-.084l3.7-.992.184.692-3.707.995a3.484,3.484,0,0,1-.588.105Zm0,0" transform="translate(-63.581 -312.652)" fill="#fff"/>
  <path id="Path_22772" data-name="Path 22772" d="M400,320h2.147v5.727H400Zm0,0" transform="translate(-382.148 -305.727)" fill="#fff"/>
  <path id="Path_22773" data-name="Path 22773" d="M0,0H2.148V6.443H0ZM0,0" fill="#fff"/>
  <path id="Path_22774" data-name="Path 22774" d="M65.221,5.632a3.228,3.228,0,0,0,1.642.535V4.438a2.6,2.6,0,0,1-.732-.411l-.21-.17.451-.556.208.168a1.9,1.9,0,0,0,2.412-.036l.25-.215,2.112,2.112a.718.718,0,1,0,1.013-1.017L69.842,1.785l.506-.506.869.869h2.954L72.757.734A2.489,2.489,0,0,0,70.985,0h-4.5a1.074,1.074,0,0,0-.48.113l-.8.4A1.8,1.8,0,0,1,64.337.7L64,.69V5.369h.823Zm0,0" transform="translate(-61.137 0)" fill="#fff"/>
  <path id="Path_22775" data-name="Path 22775" d="M144,65.725v6.149h13.6V64h-9.247l.716.716H155.1v.358a1.432,1.432,0,0,0,1.432,1.432h.358v2.863h-.358A1.432,1.432,0,0,0,155.1,70.8v.358h-8.59V70.8a1.432,1.432,0,0,0-1.432-1.432h-.358V66.505h.358a1.428,1.428,0,0,0,1.149-.582l-.611-.611a2.6,2.6,0,0,1-1.612.412Zm0,0" transform="translate(-137.601 -61.137)" fill="#fff"/>
  <path id="Path_22776" data-name="Path 22776" d="M178.853,97.958a1.432,1.432,0,0,1-1.012-.415L177.3,97a2.137,2.137,0,0,1-1.3.758v1.491a2.154,2.154,0,0,1,1.76,1.76h7.218a2.154,2.154,0,0,1,1.76-1.76V97.76a2.154,2.154,0,0,1-1.76-1.76h-4.793a1.407,1.407,0,0,1-.117,1.285,1.789,1.789,0,1,1-.2.26,1.441,1.441,0,0,1-1.011.413Zm0,0" transform="translate(-168.169 -91.718)" fill="#fff"/>
  <path id="Path_22777" data-name="Path 22777" d="M274.148,129.074A1.074,1.074,0,1,1,273.074,128,1.074,1.074,0,0,1,274.148,129.074Zm0,0" transform="translate(-259.86 -122.287)" fill="#fff"/>
</svg>
