<svg xmlns="http://www.w3.org/2000/svg" width="20" height="20" viewBox="0 0 20 20">
  <g id="report_1_" data-name="report (1)" transform="translate(-4 -4)">
    <path id="Path_22834" data-name="Path 22834" d="M33.749,10H31.578v1.783a1.081,1.081,0,0,1-1.085,1.07H23.98a1.081,1.081,0,0,1-1.085-1.07V10H20.724a.721.721,0,0,0-.724.713V14l.362-.314,7.171,6.237-1.744,1.951v5.245a1.407,1.407,0,0,1-.2.713h8.155a.721.721,0,0,0,.724-.713v-16.4A.721.721,0,0,0,33.749,10ZM32.3,26.046H27.236a.357.357,0,1,1,0-.713H32.3a.357.357,0,1,1,0,.713Zm0-1.783H27.236a.357.357,0,1,1,0-.713H32.3a.357.357,0,1,1,0,.713Zm0-1.783H27.493a.357.357,0,1,1,0-.713H32.3a.357.357,0,1,1,0,.713Zm0-1.783H29.089a.357.357,0,1,1,0-.713H32.3a.357.357,0,1,1,0,.713Zm0-1.783H28.155a.357.357,0,1,1,0-.713H32.3a.357.357,0,1,1,0,.713Zm0-1.783H26.1a.357.357,0,1,1,0-.713h6.2a.357.357,0,1,1,0,.713Zm0-1.783H24.052a.357.357,0,1,1,0-.713H32.3a.357.357,0,1,1,0,.713Z" transform="translate(-10.472 -3.829)" fill="#fff"/>
    <path id="Path_22835" data-name="Path 22835" d="M35.427,5.447A1.447,1.447,0,0,0,33.98,4h-.724a1.447,1.447,0,0,0-1.447,1.447H30.362A.363.363,0,0,0,30,5.809V7.98a.363.363,0,0,0,.362.362h6.513a.363.363,0,0,0,.362-.362V5.809a.363.363,0,0,0-.362-.362Z" transform="translate(-16.782)" fill="#fff"/>
    <path id="Path_22836" data-name="Path 22836" d="M12.7,31,8,35.15v5.619a.726.726,0,0,0,.724.724h2.171V37.151h3.618v4.342h2.171a.726.726,0,0,0,.724-.724V35.15Zm0,3.98a1.085,1.085,0,1,1,1.085-1.085A1.084,1.084,0,0,1,12.7,34.98Z" transform="translate(-2.553 -17.492)" fill="#fff"/>
    <path id="Path_22837" data-name="Path 22837" d="M16.3,28.427l-.959,1.085-5.192-4.584L4.959,29.513,4,28.427,10.151,23Z" transform="translate(0 -12.256)" fill="#fff"/>
  </g>
</svg>
