<svg xmlns="http://www.w3.org/2000/svg" width="20.285" height="20" viewBox="0 0 20.285 20">
  <g id="house_5_" data-name="house (5)" transform="translate(-21.999 -32.76)">
    <g id="Group_11616" data-name="Group 11616" transform="translate(22 32.76)">
      <g id="Group_11615" data-name="Group 11615" transform="translate(0 0)">
        <g id="XMLID_1_">
          <path id="Path_22808" data-name="Path 22808" d="M1308.382,413.924a.493.493,0,0,1,.227.658l-.069.142-1.081,2.221-.918-.447,1.15-2.363a.493.493,0,0,1,.658-.227Z" transform="translate(-1289.615 -408.836)" fill="#fff"/>
          <path id="Path_22809" data-name="Path 22809" d="M1150.941,641.617l-1.836,3.771v0l0,.01-.08.165-.918-.447,1.4-2.871.525-1.078Z" transform="translate(-1133.291 -633.161)" fill="#fff"/>
          <path id="Path_22810" data-name="Path 22810" d="M1107.534,967l-.366.752-.181-.088-.557-.271-.18-.088.366-.752Z" transform="translate(-1091.943 -954.228)" fill="#fff"/>
          <path id="Path_22811" data-name="Path 22811" d="M1076.983,1063.751l0,.558-.826.738.072-1.105.441-.342Z" transform="translate(-1062.246 -1049.999)" fill="#fff"/>
          <path id="Path_22812" data-name="Path 22812" d="M711.43,1187.627a.522.522,0,0,1-.029.376,1.62,1.62,0,0,1-.288.418,1.842,1.842,0,0,1-.168.161,1.641,1.641,0,0,1-.367-.5.684.684,0,0,1,.038-.726.386.386,0,0,1,.278-.13h.015A.614.614,0,0,1,711.43,1187.627Z" transform="translate(-701.405 -1171.987)" fill="#fff"/>
          <path id="Path_22813" data-name="Path 22813" d="M1002.69,32.76l2.92,2.921h-2.92Z" transform="translate(-989.764 -32.76)" fill="#fff"/>
          <path id="Path_22814" data-name="Path 22814" d="M422.7,217.278v4.115h-1.562V218.84a.221.221,0,0,0-.221-.221h-1.9a.221.221,0,0,0-.221.221v2.553H417.24v-4.115L419.971,215Z" transform="translate(-412.042 -212.566)" fill="#fff"/>
          <path id="Path_22815" data-name="Path 22815" d="M37.788,46.015s0,5.541,0,6.151.011.594-.557.594H22.548c-.547,0-.547.015-.548-.58s0-18.966,0-18.966c0-.454,0-.454.393-.454H34.474v3.106a.218.218,0,0,0,.217.218h3.1v5.632L36.337,44.7l-.551,1.135a.219.219,0,0,0,.1.292l.059.029-.342.266a.218.218,0,0,0-.084.158l-.111,1.723a.217.217,0,0,0,.362.177l1.283-1.151a.219.219,0,0,0,.073-.164l0-.435.059.029a.215.215,0,0,0,.1.022.217.217,0,0,0,.2-.123Zm-2.38,3.721a.218.218,0,0,0-.1-.291l-.051-.025a.608.608,0,0,0-.788.042.4.4,0,0,1-.106.069h0c-.014,0-.073-.05-.116-.171l-.019-.055a.788.788,0,0,0-.322-.477.647.647,0,0,0-.726.118,1.731,1.731,0,0,0-.232.258c-.042.054-.081.1-.123.149a.938.938,0,0,1-.924.233q.049-.048.1-.1a2.031,2.031,0,0,0,.36-.528.958.958,0,0,0,.045-.691,1.033,1.033,0,0,0-.9-.7.809.809,0,0,0-.633.272.937.937,0,0,0-.233.6,1.3,1.3,0,0,0,.125.593,2.067,2.067,0,0,0,.384.56,1.58,1.58,0,0,1-.9.168.218.218,0,0,0-.057.432,1.8,1.8,0,0,0,.233.015,2.1,2.1,0,0,0,1.089-.32,1.371,1.371,0,0,0,1.632-.237c.056-.059.1-.121.15-.18a1.4,1.4,0,0,1,.173-.2c.078-.067.177-.1.227-.069s.09.137.126.239l.021.06a.584.584,0,0,0,.551.459.624.624,0,0,0,.347-.158.439.439,0,0,1,.11-.071.449.449,0,0,1,.219.074l.056.028A.217.217,0,0,0,35.407,49.736Zm-.377-5.53a.218.218,0,0,0-.217-.218H31.992a.218.218,0,0,0,0,.436h2.821A.218.218,0,0,0,35.031,44.207ZM25.925,37.92a.218.218,0,0,0,.139.386.216.216,0,0,0,.139-.051l.564-.472v3.922a.218.218,0,0,0,.217.218H28.96a.218.218,0,0,0,.217-.218V39.182h1.434v2.524a.218.218,0,0,0,.217.218H32.8a.218.218,0,0,0,.217-.218V37.783l.564.472a.218.218,0,0,0,.279-.335l-3.83-3.205a.217.217,0,0,0-.279,0ZM31,44.207a.218.218,0,0,0-.217-.218h-6.85a.218.218,0,0,0,0,.436h6.85A.218.218,0,0,0,31,44.207ZM29.229,47.1a.218.218,0,0,0-.217-.218H23.935a.218.218,0,0,0,0,.436h5.076A.218.218,0,0,0,29.229,47.1Zm-1.169,2.893a.218.218,0,0,0-.217-.218H23.935a.218.218,0,0,0,0,.436h3.907A.218.218,0,0,0,28.059,49.993Z" transform="translate(-22 -32.76)" fill="#fff"/>
          <path id="Path_22816" data-name="Path 22816" d="M1414.647,478.677a.221.221,0,0,1,.1.294l-1.5,3.076a.221.221,0,1,1-.4-.193l1.4-2.878-.545-.268.167-.342c.009-.018.017-.037.025-.056Z" transform="translate(-1394.487 -472.442)" fill="#fff"/>
        </g>
      </g>
    </g>
  </g>
</svg>
