<svg id="status" xmlns="http://www.w3.org/2000/svg" width="20" height="20" viewBox="0 0 20 20">
  <g id="Group_11197" data-name="Group 11197">
    <g id="ngicon" transform="translate(0 0)">
      <path id="Path_20881" data-name="Path 20881" d="M942.661,385.97a7.679,7.679,0,0,1-9.27-7.541,1.163,1.163,0,1,0-2.326,0,10,10,0,0,0,12.077,9.826,1.168,1.168,0,0,0-.481-2.285Zm-.514-15.173a7.718,7.718,0,0,1,3,14.16,1.166,1.166,0,0,0,1.239,1.977,10.057,10.057,0,0,0-3.913-18.449,1.168,1.168,0,0,0-.325,2.313Zm-8.2,4.757a7.722,7.722,0,0,1,4.583-4.4,1.167,1.167,0,0,0-.77-2.2,10.058,10.058,0,0,0-5.97,5.732,1.164,1.164,0,1,0,2.157.873Z" transform="translate(-931.065 -368.472)" fill="#e99400" fill-rule="evenodd"/>
    </g>
  </g>
</svg>
