<svg xmlns="http://www.w3.org/2000/svg" width="286" height="86" viewBox="0 0 286 86">
  <g id="App_Store__iOS_-Badge-Alternative-Logo.wine" data-name="App_Store_(iOS)-Badge-Alternative-Logo.wine" transform="translate(0.5 0.5)">
    <path id="Path_20928" data-name="Path 20928" d="M262.3,0H22.708c-.873,0-1.736,0-2.607,0-.729,0-1.452.017-2.189.027A35.181,35.181,0,0,0,13.14.407,17.243,17.243,0,0,0,8.613,1.739a15.387,15.387,0,0,0-3.855,2.5A13.48,13.48,0,0,0,1.952,7.689,13,13,0,0,0,.463,11.733a24.719,24.719,0,0,0-.427,4.254C.014,16.639.012,17.293,0,17.945V67.062c.012.66.014,1.3.036,1.959a24.718,24.718,0,0,0,.427,4.254,12.974,12.974,0,0,0,1.489,4.047,13.38,13.38,0,0,0,2.806,3.43,15,15,0,0,0,3.855,2.5A17.329,17.329,0,0,0,13.14,84.6a35.82,35.82,0,0,0,4.773.376c.736.014,1.459.023,2.189.023.871,0,1.734,0,2.607,0H262.3c.856,0,1.726,0,2.582,0,.726,0,1.47-.008,2.2-.023a35.348,35.348,0,0,0,4.763-.376,17.6,17.6,0,0,0,4.545-1.34,15,15,0,0,0,3.852-2.5,13.79,13.79,0,0,0,2.814-3.43,13,13,0,0,0,1.474-4.047,25.7,25.7,0,0,0,.442-4.254c.01-.66.01-1.3.01-1.959.019-.772.019-1.54.019-2.324V20.265c0-.778,0-1.55-.019-2.32,0-.652,0-1.305-.01-1.957a25.7,25.7,0,0,0-.442-4.254,13.026,13.026,0,0,0-1.475-4.044,14.679,14.679,0,0,0-6.666-5.95A17.512,17.512,0,0,0,271.844.407a34.726,34.726,0,0,0-4.763-.375c-.726-.01-1.47-.023-2.2-.027-.856,0-1.725,0-2.582,0Z" transform="translate(0 0)" fill="rgba(0,0,0,0)" stroke="#fff" strokeWidth="1"/>
    <path id="Path_20930" data-name="Path 20930" d="M56.158,45.093a10.916,10.916,0,0,1,5.118-9.134,10.965,10.965,0,0,0-8.668-4.747c-3.647-.388-7.182,2.211-9.041,2.211-1.894,0-4.755-2.172-7.837-2.108a11.526,11.526,0,0,0-9.714,6c-4.2,7.366-1.067,18.191,2.956,24.146,2.013,2.916,4.365,6.172,7.444,6.057,3.012-.127,4.138-1.946,7.773-1.946,3.6,0,4.658,1.946,7.8,1.872,3.232-.053,5.269-2.928,7.211-5.872a24.244,24.244,0,0,0,3.3-6.8,10.523,10.523,0,0,1-6.34-9.677ZM50.226,27.3a10.811,10.811,0,0,0,2.42-7.679,10.722,10.722,0,0,0-6.966,3.651A10.283,10.283,0,0,0,43.2,30.663a8.858,8.858,0,0,0,7.03-3.367ZM92.3,60.43H82.413l-2.374,7.1H75.852l9.363-26.27h4.35l9.363,26.27H94.67Zm-8.861-3.277h7.836L87.409,45.631H87.3Zm35.713.8c0,5.952-3.145,9.776-7.891,9.776a6.393,6.393,0,0,1-5.949-3.351h-.09v9.487h-3.881V48.378H105.1v3.186h.071a6.689,6.689,0,0,1,6.02-3.386c4.8,0,7.962,3.843,7.962,9.778Zm-3.989,0c0-3.878-1.978-6.427-5-6.427-2.966,0-4.96,2.6-4.96,6.427,0,3.859,1.994,6.444,4.96,6.444,3.018,0,5-2.531,5-6.444Zm24.8,0c0,5.952-3.146,9.776-7.892,9.776a6.393,6.393,0,0,1-5.949-3.351h-.09v9.487h-3.881V48.378h3.757v3.186h.071A6.689,6.689,0,0,1,132,48.178c4.8,0,7.963,3.843,7.963,9.778Zm-3.99,0c0-3.878-1.978-6.427-5-6.427-2.966,0-4.96,2.6-4.96,6.427,0,3.859,1.994,6.444,4.96,6.444,3.018,0,5-2.531,5-6.444Zm17.742,2.256c.288,2.6,2.786,4.316,6.2,4.316,3.271,0,5.625-1.711,5.625-4.06,0-2.039-1.419-3.26-4.78-4.1l-3.361-.82c-4.762-1.165-6.973-3.421-6.973-7.082,0-4.533,3.9-7.646,9.435-7.646,5.482,0,9.239,3.113,9.365,7.646h-3.918c-.235-2.621-2.374-4.2-5.5-4.2s-5.266,1.6-5.266,3.931c0,1.857,1.366,2.95,4.709,3.787l2.857.711c5.321,1.275,7.53,3.44,7.53,7.282,0,4.915-3.863,7.993-10.01,7.993-5.751,0-9.634-3.006-9.885-7.757Zm24.3-16.366v4.532h3.6v3.113h-3.6V62.05c0,1.64.72,2.4,2.3,2.4a11.977,11.977,0,0,0,1.277-.091v3.095a10.526,10.526,0,0,1-2.156.182c-3.828,0-5.321-1.456-5.321-5.171V51.491h-2.749V48.378h2.749V43.846Zm5.676,14.11c0-6.026,3.5-9.813,8.968-9.813,5.482,0,8.969,3.787,8.969,9.813,0,6.043-3.469,9.813-8.97,9.813S183.691,64,183.691,57.956Zm13.982,0c0-4.134-1.87-6.574-5.015-6.574s-5.015,2.458-5.015,6.574c0,4.15,1.87,6.571,5.015,6.571S197.673,62.106,197.673,57.956Zm7.154-9.578h3.7v3.26h.09a4.519,4.519,0,0,1,4.548-3.46,5.912,5.912,0,0,1,1.33.147V52a5.361,5.361,0,0,0-1.744-.238,3.886,3.886,0,0,0-3.023,1.261,3.994,3.994,0,0,0-1.021,3.146v11.36h-3.881Zm27.563,13.527c-.522,3.477-3.865,5.863-8.141,5.863-5.5,0-8.915-3.733-8.915-9.722,0-6.007,3.432-9.9,8.751-9.9,5.231,0,8.521,3.64,8.521,9.447v1.347H219.253v.238a5.028,5.028,0,0,0,1.335,3.875,4.892,4.892,0,0,0,3.752,1.55,4.273,4.273,0,0,0,4.366-2.694Zm-13.12-5.716h9.453a4.64,4.64,0,0,0-1.27-3.457,4.518,4.518,0,0,0-3.367-1.4,4.755,4.755,0,0,0-3.408,1.414,4.881,4.881,0,0,0-1.408,3.447Zm-136.32-34.7a5.475,5.475,0,0,1,4.4,1.73,5.63,5.63,0,0,1,1.466,4.542c0,4.032-2.152,6.351-5.863,6.351h-4.5V21.488ZM80.386,32.325h2.349a3.892,3.892,0,0,0,3.121-1.279,4,4,0,0,0,.988-3.26,4.013,4.013,0,0,0-1-3.238,3.9,3.9,0,0,0-3.105-1.276H80.386ZM91,29.343a4.532,4.532,0,0,1,2.086-4.264,4.407,4.407,0,0,1,4.7,0,4.531,4.531,0,0,1,2.086,4.264,4.533,4.533,0,0,1-2.083,4.272,4.407,4.407,0,0,1-4.7,0A4.532,4.532,0,0,1,91,29.343Zm6.961,0c0-2.065-.916-3.272-2.523-3.272s-2.521,1.208-2.521,3.272c0,2.081.908,3.28,2.521,3.28S97.962,31.416,97.962,29.343Zm13.7,4.767h-1.925l-1.943-7.016h-.147l-1.935,7.016H103.8l-2.592-9.526h1.882l1.685,7.269h.139l1.933-7.269h1.78l1.933,7.269h.147l1.676-7.269h1.856Zm4.762-9.526h1.787V26.1h.139a2.811,2.811,0,0,1,2.806-1.7,3.038,3.038,0,0,1,2.468.979,3.125,3.125,0,0,1,.787,2.564V34.11h-1.856V28.416c0-1.531-.657-2.292-2.029-2.292a2.143,2.143,0,0,0-1.67.684,2.2,2.2,0,0,0-.575,1.73V34.11h-1.856Zm10.944-3.719h1.856V34.11h-1.856Zm4.436,8.477a4.532,4.532,0,0,1,2.086-4.265,4.407,4.407,0,0,1,4.7,0,4.532,4.532,0,0,1,2.086,4.265,4.533,4.533,0,0,1-2.084,4.271,4.408,4.408,0,0,1-4.7,0A4.533,4.533,0,0,1,131.8,29.343Zm6.961,0c0-2.065-.916-3.272-2.523-3.272s-2.521,1.208-2.521,3.272c0,2.081.908,3.28,2.521,3.28S138.763,31.416,138.763,29.343Zm3.864,2.073c0-1.715,1.26-2.7,3.5-2.844l2.547-.149V27.6c0-1.006-.657-1.574-1.925-1.574-1.036,0-1.754.385-1.96,1.059h-1.8c.19-1.636,1.709-2.686,3.842-2.686,2.358,0,3.687,1.189,3.687,3.2V34.11h-1.787V32.772h-.147a3.153,3.153,0,0,1-2.825,1.5,2.818,2.818,0,0,1-2.192-.721,2.894,2.894,0,0,1-.943-2.13Zm6.045-.814v-.8l-2.3.149c-1.3.088-1.882.534-1.882,1.374,0,.857.734,1.356,1.744,1.356a2.2,2.2,0,0,0,1.653-.518A2.256,2.256,0,0,0,148.671,30.6Zm4.287-1.259c0-3.01,1.527-4.917,3.9-4.917a3.092,3.092,0,0,1,2.884,1.671h.139V20.866h1.856V34.11h-1.778V32.6h-.147a3.255,3.255,0,0,1-2.953,1.662c-2.392,0-3.9-1.907-3.9-4.924Zm1.917,0c0,2.02.94,3.236,2.512,3.236s2.531-1.233,2.531-3.228-.977-3.236-2.531-3.236S154.876,27.339,154.876,29.343Zm14.543,0a4.532,4.532,0,0,1,2.086-4.264,4.407,4.407,0,0,1,4.7,0,4.532,4.532,0,0,1,2.086,4.264,4.532,4.532,0,0,1-2.083,4.272,4.407,4.407,0,0,1-4.7,0A4.532,4.532,0,0,1,169.419,29.343Zm6.961,0c0-2.065-.916-3.272-2.523-3.272s-2.521,1.208-2.521,3.272c0,2.081.908,3.28,2.521,3.28S176.379,31.416,176.379,29.343Zm4.4-4.759h1.787V26.1h.139a2.811,2.811,0,0,1,2.806-1.7,3.038,3.038,0,0,1,2.468.979,3.125,3.125,0,0,1,.787,2.564V34.11h-1.856V28.416c0-1.531-.657-2.292-2.029-2.292a2.143,2.143,0,0,0-1.67.684,2.2,2.2,0,0,0-.575,1.73V34.11h-1.856Zm18.474-2.372v2.415h2.037v1.583h-2.037v4.9c0,1,.406,1.435,1.33,1.435a6.118,6.118,0,0,0,.708-.044v1.566a6.013,6.013,0,0,1-1.01.1c-2.064,0-2.886-.736-2.886-2.572v-5.38H195.9V24.628h1.493V22.213Zm4.572-1.347h1.84v5.249h.147a2.889,2.889,0,0,1,2.867-1.707,3.078,3.078,0,0,1,2.444,1,3.165,3.165,0,0,1,.795,2.547v6.15h-1.858V28.424c0-1.522-.7-2.292-2.011-2.292a2.181,2.181,0,0,0-1.738.65,2.242,2.242,0,0,0-.63,1.765V34.11h-1.856Zm18.914,10.672a3.819,3.819,0,0,1-4.075,2.756,4.246,4.246,0,0,1-3.3-1.44,4.364,4.364,0,0,1-1.048-3.477,4.432,4.432,0,0,1,1.047-3.491,4.313,4.313,0,0,1,3.289-1.486c2.617,0,4.2,1.811,4.2,4.8v.656h-6.64v.105a2.538,2.538,0,0,0,.656,1.926,2.471,2.471,0,0,0,1.848.8,2.246,2.246,0,0,0,2.237-1.155Zm-6.528-3.07h4.75a2.316,2.316,0,0,0-.618-1.753,2.255,2.255,0,0,0-1.7-.715,2.389,2.389,0,0,0-1.731.714,2.453,2.453,0,0,0-.7,1.754Z" transform="translate(14.479 -2.809)" fill="#fff"/>
  </g>
</svg>
