<svg xmlns="http://www.w3.org/2000/svg" width="19.544" height="19.544" viewBox="0 0 19.544 19.544">
  <g id="Area" transform="translate(0.25 0.25)">
    <path id="Path_21224" data-name="Path 21224" d="M3,5.116V19.928a2.118,2.118,0,0,0,2.116,2.116H19.928a2.118,2.118,0,0,0,2.116-2.116V5.116A2.118,2.118,0,0,0,19.928,3H5.116A2.118,2.118,0,0,0,3,5.116ZM19.93,19.928H5.116V5.116H19.928Z" transform="translate(-3 -3)" fill="#a1a1a1" stroke="#fff" stroke-width="0.5"/>
    <path id="Path_21225" data-name="Path 21225" d="M15.247,12.154h2.062V7H12.154V9.062h3.093Zm-3.093,3.093H9.062V12.154H7v5.154h5.154Z" transform="translate(-2.632 -2.632)" fill="#a1a1a1" stroke="#fff" stroke-width="0.5"/>
  </g>
</svg>
