<svg xmlns="http://www.w3.org/2000/svg" width="21.46" height="19.874" viewBox="0 0 21.46 19.874">
  <g id="Icon" transform="translate(0.4 0.43)">
    <path id="Path" d="M1122.229,218.694q.842,0,1.721-.016a4.443,4.443,0,0,0,4.548-3.205,9.923,9.923,0,0,0,.285-1.892c.025-.279.049-.557.083-.834a.348.348,0,0,0-.334-.371.369.369,0,0,0-.419.3c-.036.284-.061.571-.086.857a9.345,9.345,0,0,1-.264,1.778,3.7,3.7,0,0,1-3.828,2.7,69.667,69.667,0,0,1-8.526-.309,3.767,3.767,0,0,1-3.013-3.943c.009-3.609.173-7.276.326-10.429a1.454,1.454,0,0,1,.978-1.255,2.25,2.25,0,0,1,2.089.185,3.387,3.387,0,0,1,.752.8c.119.157.241.314.368.46a.412.412,0,0,0,.532.059.311.311,0,0,0,.066-.471c-.117-.135-.228-.279-.339-.423a3.923,3.923,0,0,0-.928-.963,3.086,3.086,0,0,0-2.867-.253,2.134,2.134,0,0,0-1.408,1.833c-.155,3.16-.32,6.835-.327,10.458a4.464,4.464,0,0,0,3.681,4.611A66.709,66.709,0,0,0,1122.229,218.694Z" transform="translate(-1110.759 -201.224)" fill="#a1a1a1" stroke="#a1a1a1" stroke-width="0.8"/>
    <path id="Path-2" data-name="Path" d="M1109.757,211.25h.007l19.9-.31a.363.363,0,0,0,.373-.355.375.375,0,0,0-.386-.343l-19.9.31a.35.35,0,1,0,.006.7Z" transform="translate(-1109.377 -199.376)" fill="#a1a1a1" stroke="#a1a1a1" stroke-width="0.8"/>
    <path id="Path-3" data-name="Path" d="M1119.768,207.226a.4.4,0,0,0,.169-.036.336.336,0,0,0,.173-.468c-.97-1.791-.242-2.556.394-2.977a2.625,2.625,0,0,1,3.067.738,3.372,3.372,0,0,1,.324.382c.053.068.1.137.159.2a.408.408,0,0,0,.537.071.329.329,0,0,0,.077-.489c-.05-.061-.1-.124-.145-.186a3.972,3.972,0,0,0-.4-.463c-1.257-1.206-2.969-1.55-4.069-.821-1.328.879-1.539,2.175-.629,3.852A.383.383,0,0,0,1119.768,207.226Z" transform="translate(-1114.672 -200.828)" fill="#a1a1a1" stroke="#a1a1a1" stroke-width="0.8"/>
    <path id="Path-4" data-name="Path" d="M1118.2,207.627a.406.406,0,0,0,.189-.046l.377-.2c.266-.142.533-.283.805-.416q2.052-1,4.108-1.993l1.332-.646a.336.336,0,0,0,.159-.473.4.4,0,0,0-.518-.145l-1.333.646q-2.057,1-4.109,1.995c-.281.136-.554.281-.829.428l-.372.2a.334.334,0,0,0-.142.476A.388.388,0,0,0,1118.2,207.627Z" transform="translate(-1113.957 -200.744)" fill="#a1a1a1" stroke="#a1a1a1" stroke-width="0.8"/>
    <path id="Path-5" data-name="Path" d="M1124.681,217.513a.388.388,0,0,0,.343-.193l1.021-1.862a.335.335,0,0,0-.172-.469.4.4,0,0,0-.513.156l-1.021,1.862a.335.335,0,0,0,.172.468A.413.413,0,0,0,1124.681,217.513Z" transform="translate(-1122.087 -198.469)" fill="#a1a1a1" stroke="#a1a1a1" stroke-width="0.8"/>
    <path id="Path-6" data-name="Path" d="M1114.137,217.358a.4.4,0,0,0,.223-.067.33.33,0,0,0,.085-.488l-1.361-1.706a.406.406,0,0,0-.534-.077.329.329,0,0,0-.085.488l1.361,1.707A.4.4,0,0,0,1114.137,217.358Z" transform="translate(-1097.229 -198.469)" fill="#a1a1a1" stroke="#a1a1a1" stroke-width="0.8"/>
  </g>
</svg>
