<svg xmlns="http://www.w3.org/2000/svg" width="21.625" height="19.009" viewBox="0 0 21.625 19.009">
  <g id="bed" transform="translate(0.1 0.1)">
    <path id="Path_6" data-name="Path 6" d="M20.9,66.691a2.363,2.363,0,0,0,.108-.709,2.21,2.21,0,0,0-.833-1.764V59.079a2.018,2.018,0,0,0-1.883-2.126H3.135a2.018,2.018,0,0,0-1.883,2.126v5.139a2.21,2.21,0,0,0-.833,1.764,2.364,2.364,0,0,0,.108.709H0v9.072H1.255V73.594H20.17v2.169h1.255V66.691ZM3.135,58.37H18.29a.673.673,0,0,1,.628.709v4.777H17.664v-.709a2.018,2.018,0,0,0-1.883-2.126H11.968a1.761,1.761,0,0,0-1.255.543,1.761,1.761,0,0,0-1.255-.543H5.644a2.018,2.018,0,0,0-1.883,2.126v.709H2.507V59.079A.673.673,0,0,1,3.135,58.37Zm6.95,5.485H5.016v-.709a.673.673,0,0,1,.628-.709H9.457a.673.673,0,0,1,.628.709Zm1.255-.709a.673.673,0,0,1,.628-.709h3.814a.673.673,0,0,1,.628.709v.709H11.34ZM1.674,65.982a.673.673,0,0,1,.628-.709H19.123a.714.714,0,0,1,0,1.417H2.3A.673.673,0,0,1,1.674,65.982Zm-.418,2.126H20.17v4.068H1.255Z" transform="translate(0 -56.953)" fill="#a1a1a1" stroke="#a1a1a1" stroke-width="0.2"/>
  </g>
</svg>
