<svg id="Group_35497" data-name="Group 35497" xmlns="http://www.w3.org/2000/svg" width="35" height="35" viewBox="0 0 35 35">
  <g id="Group_35498" data-name="Group 35498">
    <g id="Group_35497-2" data-name="Group 35497">
      <path id="Path_24254" data-name="Path 24254" d="M34.562,34.125H31.938l-.007-3.006a3.369,3.369,0,0,0,3.059-3.254,3.121,3.121,0,0,0-.6-1.837l-.039-.052a2.66,2.66,0,0,0,.178-.957,2.732,2.732,0,0,0-.556-1.643,2.291,2.291,0,0,0,.135-.776c0-.042,0-.083,0-.126a2.634,2.634,0,0,0-5.246.126,2.3,2.3,0,0,0,.134.776c-.039.052-.068.109-.1.162a2.23,2.23,0,0,0-.766-.136,2.052,2.052,0,0,0-2.107,1.986,1.857,1.857,0,0,0,.091.575,2.183,2.183,0,0,0-.413,1.271,2.123,2.123,0,0,0,.123.714,2.5,2.5,0,0,0-.474,1.458,2.669,2.669,0,0,0,2.352,2.576l.005,2.142H24.63V3h.214a.437.437,0,0,0,.438-.437V.438A.437.437,0,0,0,24.843,0H11.436A.437.437,0,0,0,11,.438v2.12A.437.437,0,0,0,11.436,3h.094V13.917H2.378v-.473a.438.438,0,0,0-.875,0v.473H1.067a.437.437,0,1,0,0,.875H1.5V17.13l-.448,2.032a.431.431,0,0,0-.01.095v5.52l-.482,2.63a.437.437,0,0,0,.43.516h.052v6.2H.438a.437.437,0,1,0,0,.875H34.563a.437.437,0,1,0,0-.875ZM10.333,14.792h1.2v1.949h-1.2Zm-1.961,0H9.458v1.949H8.372Zm-1.961,0H7.5v1.949H6.411Zm-1.961,0H5.536v1.949H4.45Zm-2.072,0h1.2v1.949h-1.2Zm-.459,5.136h9.61V24.4H1.919Zm5.842,5.349v1.771H6.818V25.277Zm-1.819,0v1.771H5V25.277Zm-1.819,0v1.771H3.18V25.277Zm-2.282,0h.463v1.771H1.518Zm6.341,8.848H1.919V32.561H8.183Zm0-2.439H1.919V27.923H8.184v3.763Zm.453-6.409h.944v1.771H8.637V25.277Zm2.893,8.848H9.059v-6.2H11.53Zm0-7.077H10.456V25.277H11.53Zm0-7.995H1.975l.317-1.437H11.53v1.437Zm7.876,15.072H16.788V29.367a1.309,1.309,0,1,1,2.618,0Zm4.349,0H20.281V29.367a2.184,2.184,0,1,0-4.368,0v4.758H12.4V3h11.35v31.13Zm.651-32H11.873V.875H24.405Zm1.812,27.287a1.624,1.624,0,0,1,.43-1.1.438.438,0,0,0,.064-.49,1.284,1.284,0,0,1-.143-.586,1.315,1.315,0,0,1,.361-.9.438.438,0,0,0,.07-.492,1.006,1.006,0,0,1-.109-.454,1.178,1.178,0,0,1,1.232-1.111,1.337,1.337,0,0,1,.408.071,2.563,2.563,0,0,0,.083,1.628,3.148,3.148,0,0,0-.638,1.889,3.232,3.232,0,0,0,1.543,2.719,1.99,1.99,0,0,1-1.4.558A1.827,1.827,0,0,1,26.218,29.407Zm2.356,4.718,0-2.146a2.809,2.809,0,0,0,1.777-1.011,3.68,3.68,0,0,0,.71.154l.007,3Zm.278-6.26a2.29,2.29,0,0,1,.6-1.527.438.438,0,0,0,.065-.49,1.819,1.819,0,0,1-.2-.829,1.883,1.883,0,0,1,.509-1.272.438.438,0,0,0,.069-.492,1.45,1.45,0,0,1-.157-.654,1.762,1.762,0,0,1,3.5-.08l0,.08a1.455,1.455,0,0,1-.157.655.436.436,0,0,0,.07.491,1.883,1.883,0,0,1,.509,1.272,1.821,1.821,0,0,1-.2.829.438.438,0,0,0,.064.49,2.5,2.5,0,0,1,.164.2,2.255,2.255,0,0,1,.434,1.325,2.642,2.642,0,0,1-5.264,0Z" fill="#505050"/>
    </g>
  </g>
  <g id="Group_35500" data-name="Group 35500" transform="translate(13.391 20.329)">
    <g id="Group_35499" data-name="Group 35499">
      <path id="Path_24255" data-name="Path 24255" d="M158.021,237.967a1.279,1.279,0,0,0-1.277,1.277v1.87a.438.438,0,0,0,.439.438h1.677a.438.438,0,0,0,.438-.438v-1.87A1.278,1.278,0,0,0,158.021,237.967Zm.4,2.709h-.8v-1.432a.4.4,0,1,1,.8,0v1.432Z" transform="translate(-156.744 -237.967)" fill="#505050"/>
    </g>
  </g>
  <g id="Group_35502" data-name="Group 35502" transform="translate(13.391 15.074)">
    <g id="Group_35501" data-name="Group 35501">
      <path id="Path_24256" data-name="Path 24256" d="M158.021,176.451a1.279,1.279,0,0,0-1.277,1.277v1.87a.439.439,0,0,0,.439.439h1.677a.438.438,0,0,0,.438-.439v-1.87A1.278,1.278,0,0,0,158.021,176.451Zm.4,2.709h-.8v-1.432a.4.4,0,1,1,.8,0v1.432Z" transform="translate(-156.744 -176.451)" fill="#505050"/>
    </g>
  </g>
  <g id="Group_35504" data-name="Group 35504" transform="translate(13.391 9.79)">
    <g id="Group_35503" data-name="Group 35503">
      <path id="Path_24257" data-name="Path 24257" d="M158.021,114.606a1.279,1.279,0,0,0-1.277,1.277v1.87a.438.438,0,0,0,.439.438h1.677a.438.438,0,0,0,.438-.438v-1.87A1.278,1.278,0,0,0,158.021,114.606Zm.4,2.709h-.8v-1.432a.4.4,0,1,1,.8,0v1.432Z" transform="translate(-156.744 -114.606)" fill="#505050"/>
    </g>
  </g>
  <g id="Group_35506" data-name="Group 35506" transform="translate(16.771 20.329)">
    <g id="Group_35505" data-name="Group 35505">
      <path id="Path_24258" data-name="Path 24258" d="M197.578,237.967a1.278,1.278,0,0,0-1.277,1.277v1.87a.438.438,0,0,0,.439.438h1.677a.438.438,0,0,0,.439-.438v-1.87A1.279,1.279,0,0,0,197.578,237.967Zm.4,2.709h-.8v-1.432h0a.4.4,0,1,1,.8,0v1.432Z" transform="translate(-196.301 -237.967)" fill="#505050"/>
    </g>
  </g>
  <g id="Group_35508" data-name="Group 35508" transform="translate(16.771 15.074)">
    <g id="Group_35507" data-name="Group 35507">
      <path id="Path_24259" data-name="Path 24259" d="M197.578,176.451a1.278,1.278,0,0,0-1.277,1.277v1.87a.439.439,0,0,0,.439.439h1.677a.438.438,0,0,0,.439-.439v-1.87A1.278,1.278,0,0,0,197.578,176.451Zm.4,2.709h-.8v-1.432h0a.4.4,0,1,1,.8,0v1.432Z" transform="translate(-196.301 -176.451)" fill="#505050"/>
    </g>
  </g>
  <g id="Group_35510" data-name="Group 35510" transform="translate(16.771 9.79)">
    <g id="Group_35509" data-name="Group 35509">
      <path id="Path_24260" data-name="Path 24260" d="M197.578,114.606a1.278,1.278,0,0,0-1.277,1.277v1.87a.438.438,0,0,0,.439.438h1.677a.438.438,0,0,0,.439-.438v-1.87A1.278,1.278,0,0,0,197.578,114.606Zm.4,2.709h-.8v-1.432h0a.4.4,0,1,1,.8,0v1.432Z" transform="translate(-196.301 -114.606)" fill="#505050"/>
    </g>
  </g>
  <g id="Group_35512" data-name="Group 35512" transform="translate(20.15 20.329)">
    <g id="Group_35511" data-name="Group 35511">
      <path id="Path_24261" data-name="Path 24261" d="M237.135,237.967a1.279,1.279,0,0,0-1.277,1.277v1.87a.438.438,0,0,0,.438.438h1.677a.438.438,0,0,0,.439-.438v-1.87A1.278,1.278,0,0,0,237.135,237.967Zm.4,2.709h-.8v-1.432h0a.4.4,0,1,1,.8,0v1.432Z" transform="translate(-235.858 -237.967)" fill="#505050"/>
    </g>
  </g>
  <g id="Group_35514" data-name="Group 35514" transform="translate(20.15 15.074)">
    <g id="Group_35513" data-name="Group 35513">
      <path id="Path_24262" data-name="Path 24262" d="M237.135,176.451a1.279,1.279,0,0,0-1.277,1.277v1.87a.439.439,0,0,0,.438.439h1.677a.438.438,0,0,0,.439-.439v-1.87A1.278,1.278,0,0,0,237.135,176.451Zm.4,2.709h-.8v-1.432h0a.4.4,0,1,1,.8,0v1.432Z" transform="translate(-235.858 -176.451)" fill="#505050"/>
    </g>
  </g>
  <g id="Group_35516" data-name="Group 35516" transform="translate(20.15 9.79)">
    <g id="Group_35515" data-name="Group 35515">
      <path id="Path_24263" data-name="Path 24263" d="M237.135,114.606a1.279,1.279,0,0,0-1.277,1.277v1.87a.438.438,0,0,0,.438.438h1.677a.438.438,0,0,0,.439-.438v-1.87A1.278,1.278,0,0,0,237.135,114.606Zm.4,2.709h-.8v-1.432h0a.4.4,0,1,1,.8,0v1.432Z" transform="translate(-235.858 -114.606)" fill="#505050"/>
    </g>
  </g>
  <g id="Group_35518" data-name="Group 35518" transform="translate(13.391 4.479)">
    <g id="Group_35517" data-name="Group 35517">
      <path id="Path_24264" data-name="Path 24264" d="M158.021,52.3a1.279,1.279,0,0,0-1.277,1.277v1.87a.439.439,0,0,0,.439.438h1.677a.438.438,0,0,0,.438-.438v-1.87A1.278,1.278,0,0,0,158.021,52.3Zm.4,2.709h-.8V53.578a.4.4,0,1,1,.8,0V55.01Z" transform="translate(-156.744 -52.301)" fill="#505050"/>
    </g>
  </g>
  <g id="Group_35520" data-name="Group 35520" transform="translate(16.771 4.479)">
    <g id="Group_35519" data-name="Group 35519">
      <path id="Path_24265" data-name="Path 24265" d="M197.578,52.3a1.278,1.278,0,0,0-1.277,1.277v1.87a.439.439,0,0,0,.439.438h1.677a.438.438,0,0,0,.439-.438v-1.87A1.279,1.279,0,0,0,197.578,52.3Zm.4,2.709h-.8V53.578h0a.4.4,0,1,1,.8,0V55.01Z" transform="translate(-196.301 -52.301)" fill="#505050"/>
    </g>
  </g>
  <g id="Group_35522" data-name="Group 35522" transform="translate(20.15 4.479)">
    <g id="Group_35521" data-name="Group 35521">
      <path id="Path_24266" data-name="Path 24266" d="M237.135,52.3a1.279,1.279,0,0,0-1.277,1.277v1.87a.439.439,0,0,0,.438.438h1.677a.438.438,0,0,0,.439-.438v-1.87A1.278,1.278,0,0,0,237.135,52.3Zm.4,2.709h-.8V53.578h0a.4.4,0,1,1,.8,0V55.01Z" transform="translate(-235.858 -52.301)" fill="#505050"/>
    </g>
  </g>
  <g id="Group_35524" data-name="Group 35524" transform="translate(3.34 20.639)">
    <g id="Group_35523" data-name="Group 35523">
      <path id="Path_24267" data-name="Path 24267" d="M40.36,241.587A1.362,1.362,0,0,0,39,242.948v1.25a.438.438,0,0,0,.439.438h1.844a.438.438,0,0,0,.439-.438v-1.25A1.362,1.362,0,0,0,40.36,241.587Zm.484,2.172h-.967v-.812a.484.484,0,1,1,.967,0v.812Z" transform="translate(-38.999 -241.587)" fill="#505050"/>
    </g>
  </g>
  <g id="Group_35526" data-name="Group 35526" transform="translate(7.557 20.639)">
    <g id="Group_35525" data-name="Group 35525">
      <path id="Path_24268" data-name="Path 24268" d="M89.814,241.587a1.362,1.362,0,0,0-1.361,1.361v1.25a.439.439,0,0,0,.438.438h1.844a.438.438,0,0,0,.438-.438v-1.25A1.362,1.362,0,0,0,89.814,241.587Zm.484,2.172H89.33v-.812a.484.484,0,1,1,.967,0v.812Z" transform="translate(-88.453 -241.587)" fill="#505050"/>
    </g>
  </g>
</svg>
