<svg xmlns="http://www.w3.org/2000/svg" width="34.841" height="35.617" viewBox="0 0 34.841 35.617">
  <g id="XMLID_12_" transform="translate(-1.632 -1)">
    <g id="XMLID_2635_" transform="translate(6.132 1)">
      <path id="XMLID_664_" d="M17.336,1A8.045,8.045,0,0,0,9.3,9.036c0,4.293,7.32,12.934,7.6,13.32a.6.6,0,0,0,.385.165.429.429,0,0,0,.385-.165c.33-.385,7.6-9.027,7.6-13.32A7.917,7.917,0,0,0,17.336,1Zm0,11.889a3.923,3.923,0,0,1-3.908-3.908,3.876,3.876,0,0,1,3.908-3.853,3.829,3.829,0,0,1,3.853,3.853A3.876,3.876,0,0,1,17.336,12.889Z" transform="translate(-9.3 -1)" fill="#505050"/>
    </g>
    <path id="XMLID_644_" d="M32.429,39.339c-.546-.653-.273-1.578.164-2.612.218-.544.819-2.122-.055-3.265,10-11.428-5.462-13.986-7.647-9.959-.328.6-.382.6-1.475.163l-.382-.163a2.291,2.291,0,0,0-1.693.054,42.3,42.3,0,0,1-3.332,5.17c1.529.544,2.4,1.469,2.4,2.449,0,1.8-2.731,3.1-6.336,3.1s-6.336-1.36-6.336-3.1c0-1.034.929-1.9,2.4-2.449a40.345,40.345,0,0,1-3.987-6.476,2.8,2.8,0,0,0-2.512.109c-1.365.871-1.038,3.211-.765,5.115a8.872,8.872,0,0,1,.164,1.9c-1.584.925-.492,3.646.71,3.918,2.512.49,3.55,3.918,3.933,5.932.6,2.884.328,3.428,4.861,4.136,1.092.163,2.349.218,3.55.272a20.086,20.086,0,0,1,5.626.762c2.731,1.088,6.609,1.034,9.5.707,2.567-.272,3.5-1.36,3.769-2.013C36.088,40.809,33.139,40.156,32.429,39.339ZM17.354,29.6c-1.092,1.469-1.966,2.5-2.076,2.612a1.567,1.567,0,0,1-1.2.544,1.452,1.452,0,0,1-1.2-.6c-.109-.109-.983-1.143-2.076-2.612-1.311.435-2.021,1.088-2.021,1.578,0,.98,2.239,2.068,5.3,2.068,3,0,5.3-1.088,5.3-2.068,0-.435-.71-1.088-2.021-1.524Z" transform="translate(0 -9.314)" fill="#f2f2f2" stroke="#505050" strokeWidth="1.2"/>
  </g>
</svg>
