<svg id="plot" xmlns="http://www.w3.org/2000/svg" width="33.943" height="32" viewBox="0 0 33.943 32">
  <g id="_x34_8x48_px_14_">
    <g id="Group_10965" data-name="Group 10965">
      <g id="Group_10953" data-name="Group 10953" transform="translate(7.779)">
        <path id="Path_20626" data-name="Path 20626" d="M27.015,19.478H14.287V12.256H11.458V9.8l9.193-7.879L29.844,9.8v2.455H27.015v7.222ZM15.7,18.034h9.9V10.812H28.43V10.48L20.651,3.814,12.873,10.48v.332H15.7Z" transform="translate(-11.458 -1.922)" fill="#505050"/>
      </g>
      <g id="Group_10954" data-name="Group 10954" transform="translate(0 13.223)">
        <path id="Path_20627" data-name="Path 20627" d="M2.857,31.105H0V29.661H1.959l3.96-8.666H9.193v1.444H6.817Z" transform="translate(0 -20.995)" fill="#505050"/>
      </g>
      <g id="Group_10955" data-name="Group 10955" transform="translate(0 30.556)">
        <path id="Path_20628" data-name="Path 20628" d="M0,45.995H33.943v1.444H0Z" transform="translate(0 -45.995)" fill="#505050"/>
      </g>
      <g id="Group_10956" data-name="Group 10956" transform="translate(24.75 13.223)">
        <path id="Path_20629" data-name="Path 20629" d="M45.651,31.105H42.794l-3.953-8.666H36.458V20.995h3.281l3.953,8.666h1.959Z" transform="translate(-36.458 -20.995)" fill="#505050"/>
      </g>
      <g id="Group_10957" data-name="Group 10957" transform="translate(6.845 18.026)">
        <path id="Path_20630" data-name="Path 20630" d="M30.343,33.23H10.083l1.485-5.308,1.358.4-.969,3.466H28.469L27.5,28.319l1.358-.4Z" transform="translate(-10.083 -27.922)" fill="#505050"/>
      </g>
      <g id="Group_10958" data-name="Group 10958" transform="translate(3.536 26.223)">
        <path id="Path_20631" data-name="Path 20631" d="M5.208,39.745H7.33v1.444H5.208Z" transform="translate(-5.208 -39.745)" fill="#505050"/>
      </g>
      <g id="Group_10959" data-name="Group 10959" transform="translate(7.779 26.223)">
        <path id="Path_20632" data-name="Path 20632" d="M11.458,39.745H13.58v1.444H11.458Z" transform="translate(-11.458 -39.745)" fill="#505050"/>
      </g>
      <g id="Group_10960" data-name="Group 10960" transform="translate(12.021 26.223)">
        <path id="Path_20633" data-name="Path 20633" d="M17.708,39.745H19.83v1.444H17.708Z" transform="translate(-17.708 -39.745)" fill="#505050"/>
      </g>
      <g id="Group_10961" data-name="Group 10961" transform="translate(16.264 26.223)">
        <path id="Path_20634" data-name="Path 20634" d="M23.958,39.745H26.08v1.444H23.958Z" transform="translate(-23.958 -39.745)" fill="#505050"/>
      </g>
      <g id="Group_10962" data-name="Group 10962" transform="translate(20.507 26.223)">
        <path id="Path_20635" data-name="Path 20635" d="M30.208,39.745H32.33v1.444H30.208Z" transform="translate(-30.208 -39.745)" fill="#505050"/>
      </g>
      <g id="Group_10963" data-name="Group 10963" transform="translate(24.75 26.223)">
        <path id="Path_20636" data-name="Path 20636" d="M36.458,39.745H38.58v1.444H36.458Z" transform="translate(-36.458 -39.745)" fill="#505050"/>
      </g>
      <g id="Group_10964" data-name="Group 10964" transform="translate(28.993 26.223)">
        <path id="Path_20637" data-name="Path 20637" d="M42.708,39.745H44.83v1.444H42.708Z" transform="translate(-42.708 -39.745)" fill="#505050"/>
      </g>
    </g>
  </g>
</svg>
