<svg xmlns="http://www.w3.org/2000/svg" width="56" height="55.331" viewBox="0 0 56 55.331">
  <g id="customer-support" transform="translate(0.5 0.5)">
    <path id="Path_20778" data-name="Path 20778" d="M52.135,24.618A24.352,24.352,0,0,0,45.088,8.239,23.858,23.858,0,0,0,28.013,1.085,24.292,24.292,0,0,0,3.891,24.618,5.742,5.742,0,0,0,.513,29.859V36.3a5.71,5.71,0,0,0,5.672,5.735,3.694,3.694,0,0,0,3.67-3.711V27.834A3.688,3.688,0,0,0,6.545,24.16,21.638,21.638,0,0,1,28.013,3.745a21.262,21.262,0,0,1,15.216,6.376,21.7,21.7,0,0,1,6.249,14.04,3.687,3.687,0,0,0-3.306,3.673V38.321A3.685,3.685,0,0,0,49.526,42v2.65a5.389,5.389,0,0,1-5.354,5.412H40.207a3.974,3.974,0,0,0-.928-1.513,3.922,3.922,0,0,0-2.814-1.181H32.378a3.887,3.887,0,0,0-1.665.369,4.045,4.045,0,0,0-1.149,6.5,3.928,3.928,0,0,0,2.814,1.181h4.087a4,4,0,0,0,3.745-2.695h3.962a8.038,8.038,0,0,0,7.985-8.072V41.526A5.742,5.742,0,0,0,55.513,36.3V29.858a5.742,5.742,0,0,0-3.377-5.239ZM7.223,27.834V38.321a1.046,1.046,0,0,1-1.039,1.051A3.062,3.062,0,0,1,3.143,36.3V29.858a3.061,3.061,0,0,1,3.041-3.075A1.046,1.046,0,0,1,7.223,27.834ZM37.785,51.677a1.359,1.359,0,0,1-1.321,1.081H32.377a1.332,1.332,0,0,1-.955-.4,1.369,1.369,0,0,1,.4-2.2,1.3,1.3,0,0,1,.56-.123h4.087a1.328,1.328,0,0,1,.954.4,1.385,1.385,0,0,1,.367,1.246Zm15.1-15.38a3.062,3.062,0,0,1-3.041,3.075A1.046,1.046,0,0,1,48.8,38.321V27.834a1.046,1.046,0,0,1,1.039-1.051,3.062,3.062,0,0,1,3.041,3.075Z" transform="translate(-0.513 -1.085)" fill="#fff" stroke="#fff" strokeWidth="1"/>
    <path id="Path_20779" data-name="Path 20779" d="M35.178,35.325a5.579,5.579,0,0,0,5.541-5.6V18.3a5.6,5.6,0,0,0-1.625-3.96A5.472,5.472,0,0,0,35.178,12.7H18.242A5.579,5.579,0,0,0,12.7,18.3V29.721a5.579,5.579,0,0,0,5.541,5.6h.1v2.959a2.741,2.741,0,0,0,1.694,2.552,2.706,2.706,0,0,0,1.019.2,2.645,2.645,0,0,0,1.914-.817l4.867-4.9Zm-8.8-2.261-5.267,5.3a.065.065,0,0,1-.091.021.089.089,0,0,1-.06-.1V34a1.315,1.315,0,0,0-1.308-1.322H18.243a2.946,2.946,0,0,1-2.926-2.959V18.3a2.945,2.945,0,0,1,2.926-2.959H35.179a2.891,2.891,0,0,1,2.067.868A2.954,2.954,0,0,1,38.1,18.3V29.721a2.946,2.946,0,0,1-2.926,2.959H27.3a1.3,1.3,0,0,0-.922.384Z" transform="translate(0.79 0.297)" fill="#fff" stroke="#fff" strokeWidth="1"/>
    <path id="Path_20780" data-name="Path 20780" d="M19.891,21.356a1.974,1.974,0,1,0,1.955,1.974A1.967,1.967,0,0,0,19.891,21.356Z" transform="translate(1.221 1.176)" fill="#fff" stroke="#fff" strokeWidth="1"/>
    <path id="Path_20781" data-name="Path 20781" d="M25.7,21.356a1.974,1.974,0,1,0,1.955,1.974A1.967,1.967,0,0,0,25.7,21.356Z" transform="translate(1.799 1.176)" fill="#fff" stroke="#fff" strokeWidth="1"/>
    <path id="Path_20782" data-name="Path 20782" d="M31.509,21.356a1.974,1.974,0,1,0,1.955,1.974A1.967,1.967,0,0,0,31.509,21.356Z" transform="translate(2.377 1.176)" fill="#fff" stroke="#fff" strokeWidth="1"/>
  </g>
</svg>
