<svg id="Glyph" xmlns="http://www.w3.org/2000/svg" width="25" height="22.78" viewBox="0 0 25 22.78">
  <path id="Path_21222" data-name="Path 21222" d="M19.545,6.144a3.409,3.409,0,1,1,3.409,3.417A3.413,3.413,0,0,1,19.545,6.144ZM2.5,7.283H16.136a1.139,1.139,0,0,0,0-2.278H2.5a1.139,1.139,0,0,0,0,2.278ZM9.318,10.7a3.41,3.41,0,0,0-3.2,2.278H2.5a1.139,1.139,0,0,0,0,2.278H6.114a3.41,3.41,0,1,0,3.2-4.556Zm15.909,2.278H16.136a1.139,1.139,0,0,0,0,2.278h9.091a1.139,1.139,0,0,0,0-2.278ZM11.591,20.951H2.5a1.139,1.139,0,0,0,0,2.278h9.091a1.139,1.139,0,0,0,0-2.278Zm13.636,0H21.614a3.416,3.416,0,1,0,0,2.278h3.614a1.139,1.139,0,0,0,0-2.278Z" transform="translate(-1.364 -2.727)" fill="#a1a1a1"/>
</svg>
