<svg id="Google_Play_store" data-name="Google Play store" xmlns="http://www.w3.org/2000/svg" xmlns:xlink="http://www.w3.org/1999/xlink" width="285" height="85" viewBox="0 0 285 85">
  <defs>
    <linearGradient id="linear-gradient" x1="0.849" y1="0.31" x2="0.361" y2="0.799" gradientUnits="objectBoundingBox">
      <stop offset="0" stop-color="#00a0ff"/>
      <stop offset="0.007" stop-color="#00a1ff"/>
      <stop offset="0.26" stop-color="#00beff"/>
      <stop offset="0.512" stop-color="#00d2ff"/>
      <stop offset="0.76" stop-color="#00dfff"/>
      <stop offset="1" stop-color="#00e3ff"/>
    </linearGradient>
    <linearGradient id="linear-gradient-2" x1="0.97" y1="0.436" x2="-1.177" y2="0.436" gradientUnits="objectBoundingBox">
      <stop offset="0" stop-color="#ffe000"/>
      <stop offset="0.409" stop-color="#ffbd00"/>
      <stop offset="0.775" stop-color="orange"/>
      <stop offset="1" stop-color="#ff9c00"/>
    </linearGradient>
    <linearGradient id="linear-gradient-3" x1="0.761" y1="0.213" x2="-0.443" y2="1.411" gradientUnits="objectBoundingBox">
      <stop offset="0" stop-color="#ff3a44"/>
      <stop offset="1" stop-color="#c31162"/>
    </linearGradient>
    <linearGradient id="linear-gradient-4" x1="-0.17" y1="-0.275" x2="0.367" y2="0.26" gradientUnits="objectBoundingBox">
      <stop offset="0" stop-color="#32a071"/>
      <stop offset="0.068" stop-color="#2da771"/>
      <stop offset="0.476" stop-color="#15cf74"/>
      <stop offset="0.801" stop-color="#06e775"/>
      <stop offset="1" stop-color="#00f076"/>
    </linearGradient>
    <linearGradient id="linear-gradient-5" x1="0.624" y1="0.038" x2="-0.364" y2="1.027" gradientUnits="objectBoundingBox">
      <stop offset="0" stop-color="#cc2e36"/>
      <stop offset="1" stop-color="#9c0e4e"/>
    </linearGradient>
    <linearGradient id="linear-gradient-6" x1="5.233" y1="-7.998" x2="-1.121" y2="-1.634" gradientUnits="objectBoundingBox">
      <stop offset="0" stop-color="#008de0"/>
      <stop offset="0.007" stop-color="#008de0"/>
      <stop offset="0.26" stop-color="#00a7e0"/>
      <stop offset="0.512" stop-color="#00b8e0"/>
      <stop offset="0.76" stop-color="#00c4e0"/>
      <stop offset="1" stop-color="#00c7e0"/>
    </linearGradient>
    <linearGradient id="linear-gradient-7" x1="0.943" y1="-0.195" x2="-2.414" y2="-0.195" gradientUnits="objectBoundingBox">
      <stop offset="0" stop-color="#e0c500"/>
      <stop offset="0.409" stop-color="#e0a600"/>
      <stop offset="0.775" stop-color="#e09100"/>
      <stop offset="1" stop-color="#e08900"/>
    </linearGradient>
    <linearGradient id="linear-gradient-8" x1="0.944" y1="0.999" x2="-2.414" y2="0.999" gradientUnits="objectBoundingBox">
      <stop offset="0" stop-color="#ffe840"/>
      <stop offset="0.409" stop-color="#ffce40"/>
      <stop offset="0.775" stop-color="#ffbc40"/>
      <stop offset="1" stop-color="#ffb540"/>
    </linearGradient>
    <linearGradient id="linear-gradient-9" x1="5.219" y1="0.865" x2="-1.113" y2="6.933" gradientUnits="objectBoundingBox">
      <stop offset="0" stop-color="#40b8ff"/>
      <stop offset="0.007" stop-color="#40b9ff"/>
      <stop offset="0.26" stop-color="#40ceff"/>
      <stop offset="0.512" stop-color="#40ddff"/>
      <stop offset="0.76" stop-color="#40e7ff"/>
      <stop offset="1" stop-color="#40eaff"/>
    </linearGradient>
    <linearGradient id="linear-gradient-10" x1="-0.137" y1="-0.184" x2="0.304" y2="0.257" gradientUnits="objectBoundingBox">
      <stop offset="0" stop-color="#65b895"/>
      <stop offset="0.068" stop-color="#62bd95"/>
      <stop offset="0.476" stop-color="#50db97"/>
      <stop offset="0.801" stop-color="#44ed98"/>
      <stop offset="1" stop-color="#40f498"/>
    </linearGradient>
  </defs>
  <g id="Rectangle_9669" data-name="Rectangle 9669" fill="rgba(3,78,161,0)" stroke="#fff" strokeWidth="1">
    <rect width="285" height="85" rx="16" stroke="none"/>
    <rect x="0.5" y="0.5" width="284" height="84" rx="15.5" fill="none"/>
  </g>
  <g id="Google_Play-Badge-Logo.wine" transform="translate(24.214 15.569)">
    <path id="Path_20983" data-name="Path 20983" d="M99.687,21.427a5.544,5.544,0,0,1-1.521,4.1,5.937,5.937,0,0,1-4.5,1.816,6.317,6.317,0,0,1-6.366-6.41,6.317,6.317,0,0,1,6.366-6.411,6.311,6.311,0,0,1,2.515.515A5.053,5.053,0,0,1,98.1,16.4l-1.077,1.079a4.134,4.134,0,0,0-3.354-1.456,4.741,4.741,0,0,0-4.758,4.9,4.74,4.74,0,0,0,4.758,4.9,4.641,4.641,0,0,0,3.422-1.37,3.863,3.863,0,0,0,1.027-2.486h-4.45V20.5H99.6a5.244,5.244,0,0,1,.085.926" transform="translate(-23.218 -14.313)" fill="#fff"/>
    <path id="Path_20984" data-name="Path 20984" d="M99.68,21.42h-.2a5.338,5.338,0,0,1-1.462,3.952l0,0v0a5.732,5.732,0,0,1-4.354,1.753A6.111,6.111,0,0,1,87.5,20.922a6.114,6.114,0,0,1,6.161-6.207,6.11,6.11,0,0,1,2.435.5,4.855,4.855,0,0,1,1.84,1.315l.156-.132-.144-.145-1.077,1.08.144.144.157-.131a4.344,4.344,0,0,0-3.512-1.529,4.946,4.946,0,0,0-4.962,5.106,4.946,4.946,0,0,0,4.962,5.106,4.844,4.844,0,0,0,3.567-1.43,4.072,4.072,0,0,0,1.087-2.613l.019-.222H93.861V20.7h5.733v-.2l-.2.036a5,5,0,0,1,.082.89h.408a5.416,5.416,0,0,0-.089-.963l-.03-.168H93.453v1.883h4.654v-.2l-.2-.018a3.665,3.665,0,0,1-.968,2.359,4.67,4.67,0,0,1-6.482.005,4.494,4.494,0,0,1-1.35-3.393,4.494,4.494,0,0,1,1.35-3.393,4.445,4.445,0,0,1,3.2-1.3,3.929,3.929,0,0,1,3.2,1.383l.144.171,1.234-1.238.132-.133-.121-.143a5.247,5.247,0,0,0-1.992-1.428,6.513,6.513,0,0,0-2.6-.532,6.521,6.521,0,0,0-6.57,6.616,6.52,6.52,0,0,0,6.57,6.615,6.146,6.146,0,0,0,4.649-1.879l-.148-.141.144.145a5.752,5.752,0,0,0,1.581-4.241h-.2m9.413-5.126h-5.58v3.891h5.032v1.475h-5.032V25.55h5.58v1.508H101.94V14.785h7.153v1.508" transform="translate(-23.211 -14.306)" fill="#fff"/>
    <path id="Path_20985" data-name="Path 20985" d="M109.587,16.3v-.2H103.8v4.3h5.032v1.065H103.8v4.3h5.58v1.1h-6.744V15h6.744v1.3h.2v0h.2V14.59H102.23V27.272h7.561V25.355h-5.58V21.873h5.032V19.989h-5.032V16.507h5.58v-.2h-.2m6.639,10.765h-1.575V16.3h-3.422V14.795h8.42V16.3h-3.422V27.067" transform="translate(-23.706 -14.315)" fill="#fff"/>
    <path id="Path_20986" data-name="Path 20986" d="M116.524,27.067v-.2h-1.371V16.1h-3.422V15h8.011v1.1H116.32V27.067h.2v0h.2V16.507h3.422V14.59h-8.828v1.917h3.422V27.272h1.984v-.2h-.2m9.514,0V14.795h1.574V27.067h-1.574" transform="translate(-24.003 -14.315)" fill="#fff"/>
    <path id="Path_20987" data-name="Path 20987" d="M126.529,27.067h.2V15H127.9V26.863h-1.37v.2h0v.2h1.778V14.59h-1.982V27.272h.2v-.2m8.558,0h-1.575V16.3h-3.422V14.795h8.42V16.3h-3.423V27.067" transform="translate(-24.493 -14.315)" fill="#fff"/>
    <path id="Path_20988" data-name="Path 20988" d="M135.207,27.065v-.2h-1.371V16.1h-3.422V15h8.011v1.1H135V27.065h.2v0h.2V16.5h3.422V14.588h-8.828V16.5h3.422V27.269h1.984v-.2h-.2m11.54-2.613a4.707,4.707,0,0,0,6.657,0,4.807,4.807,0,0,0,1.363-3.523,4.807,4.807,0,0,0-1.363-3.523,4.706,4.706,0,0,0-6.657,0,4.814,4.814,0,0,0-1.36,3.523A4.814,4.814,0,0,0,146.746,24.452Zm7.821,1.027a6.354,6.354,0,0,1-8.984,0,6.277,6.277,0,0,1-1.805-4.55,6.276,6.276,0,0,1,1.805-4.55,6.332,6.332,0,0,1,8.976.008,6.281,6.281,0,0,1,1.813,4.542A6.291,6.291,0,0,1,154.568,25.479Z" transform="translate(-24.613 -14.313)" fill="#fff"/>
    <path id="Path_20989" data-name="Path 20989" d="M147.2,24.445l-.145.144a4.91,4.91,0,0,0,6.947,0,5.017,5.017,0,0,0,1.421-3.667,5.017,5.017,0,0,0-1.421-3.667,4.91,4.91,0,0,0-6.947,0,5.02,5.02,0,0,0-1.419,3.667,5.02,5.02,0,0,0,1.419,3.667l.145-.144.145-.144a4.607,4.607,0,0,1-1.3-3.379,4.607,4.607,0,0,1,1.3-3.379,4.5,4.5,0,0,1,6.367,0,4.6,4.6,0,0,1,1.3,3.379,4.6,4.6,0,0,1-1.3,3.379,4.5,4.5,0,0,1-6.367,0Zm7.822,1.027-.146-.142a6.152,6.152,0,0,1-8.692,0l-.006-.006.006.006a6.074,6.074,0,0,1-1.747-4.408,6.074,6.074,0,0,1,1.747-4.408,6.13,6.13,0,0,1,8.684.009,6.076,6.076,0,0,1,1.755,4.4,6.087,6.087,0,0,1-1.747,4.408l.146.142.147.142a6.5,6.5,0,0,0,1.863-4.692,6.49,6.49,0,0,0-1.871-4.684,6.536,6.536,0,0,0-9.269-.008h0a6.491,6.491,0,0,0-1.863,4.693,6.491,6.491,0,0,0,1.863,4.693l.006.006-.006-.007a6.557,6.557,0,0,0,9.277,0Zm4.015,1.586V14.785h1.916l5.955,9.547h.068l-.068-2.365V14.785h1.576V27.058h-1.643l-6.23-10.01h-.068l.068,2.366v7.644h-1.573" transform="translate(-25.072 -14.306)" fill="#fff"/>
    <path id="Path_20990" data-name="Path 20990" d="M157.166,27.067h.2V15h1.6l5.955,9.547h.391l-.073-2.573V15h1.167V26.863h-1.326l-6.23-10.01h-.391l.073,2.574v7.436h-1.369v.2h0v.2h1.777V19.42l-.068-2.368-.2.006v.2h.068v-.2l-.173.109,6.29,10.106h1.961V14.59h-1.984v7.389l.068,2.368.2-.006v-.2h-.068v.2l.173-.109L159.2,14.59h-2.233V27.272h.2v-.2M221.209,61.84h3.811V36.269h-3.811ZM255.531,45.48l-4.368,11.086h-.131L246.5,45.48h-4.1l6.8,15.495-3.876,8.619h3.976L259.768,45.48Zm-21.61,13.455c-1.25,0-2.99-.625-2.99-2.172,0-1.974,2.169-2.73,4.039-2.73a6.773,6.773,0,0,1,3.482.856,4.622,4.622,0,0,1-4.532,4.046Zm.46-14.015c-2.759,0-5.616,1.218-6.8,3.915l3.382,1.414a3.61,3.61,0,0,1,3.482-1.875c1.971,0,3.974,1.185,4.007,3.29v.263a8.416,8.416,0,0,0-3.974-.987c-3.645,0-7.358,2.006-7.358,5.757,0,3.421,2.99,5.626,6.339,5.626a5.376,5.376,0,0,0,4.862-2.5h.131V61.8h3.678v-9.8c0-4.539-3.382-7.073-7.75-7.073Zm-23.55,3.672h-5.42V39.828h5.42a4.383,4.383,0,1,1,0,8.765Zm-.1-12.324H201.6V61.84h3.809V52.152h5.322c4.223,0,8.375-3.063,8.375-7.941s-4.152-7.941-8.375-7.941ZM160.943,58.94a5.292,5.292,0,0,1,0-10.545c2.6,0,4.639,2.241,4.639,5.305,0,3.032-2.04,5.24-4.639,5.24Zm4.375-12.028h-.132a6.015,6.015,0,0,0-4.573-1.944,8.708,8.708,0,0,0,0,17.4,5.919,5.919,0,0,0,4.573-1.977h.132v1.252c0,3.329-1.776,5.108-4.639,5.108a4.809,4.809,0,0,1-4.376-3.1l-3.322,1.384a8.278,8.278,0,0,0,7.7,5.141c4.474,0,8.258-2.637,8.258-9.062V45.5h-3.619Zm6.251,14.928h3.816V36.268h-3.816Zm9.442-8.436a4.768,4.768,0,0,1,4.54-5.075,3.359,3.359,0,0,1,3.224,1.846Zm11.844-2.9c-.723-1.945-2.929-5.536-7.436-5.536-4.474,0-8.192,3.526-8.192,8.7a8.506,8.506,0,0,0,8.619,8.7,8.638,8.638,0,0,0,7.239-3.855l-2.961-1.978a4.958,4.958,0,0,1-4.278,2.406,4.419,4.419,0,0,1-4.211-2.636l11.613-4.811ZM100.33,47.638v3.691h8.817a7.707,7.707,0,0,1-2.007,4.646,9.016,9.016,0,0,1-6.81,2.7,9.821,9.821,0,0,1,0-19.64,9.389,9.389,0,0,1,6.645,2.636l2.6-2.6a12.841,12.841,0,0,0-9.245-3.724,13.512,13.512,0,1,0,0,27.021,11.948,11.948,0,0,0,12.6-12.423,11.991,11.991,0,0,0-.2-2.307Zm22.625,11.3a5.287,5.287,0,1,1,4.9-5.273A5.03,5.03,0,0,1,122.955,58.94Zm0-13.972a8.7,8.7,0,1,0,8.718,8.7,8.568,8.568,0,0,0-8.718-8.7ZM141.974,58.94a5.287,5.287,0,1,1,4.9-5.273,5.03,5.03,0,0,1-4.9,5.273Zm0-13.972a8.7,8.7,0,1,0,8.718,8.7,8.567,8.567,0,0,0-8.718-8.7Z" transform="translate(-23.197 -14.315)" fill="#fff"/>
    <path id="Path_20991" data-name="Path 20991" d="M22.148,16.072A3.954,3.954,0,0,0,21.053,19.1V63.735A4.1,4.1,0,0,0,22,66.609l.152.145h0a2.623,2.623,0,0,0,1.8.665,4.7,4.7,0,0,0,2.288-.686L55.884,49.864l10.182-5.8a3.812,3.812,0,0,0,2.14-2.652v0a3.81,3.81,0,0,0-2.14-2.653L55.884,32.965,26.243,16.1a4.707,4.707,0,0,0-2.292-.688,2.626,2.626,0,0,0-1.8.664Z" transform="translate(-21.053 -14.342)" fill="#00c1ff"/>
    <path id="Path_20992" data-name="Path 20992" d="M1.108-1.734.956-1.88A4.1,4.1,0,0,1,.011-4.754V-49.393a3.954,3.954,0,0,1,1.094-3.023l25.3,25.342L1.108-1.734" transform="translate(-0.011 54.146)" fill="url(#linear-gradient)"/>
    <path id="Path_20993" data-name="Path 20993" d="M8.5-.641.065-9.091,8.5-17.54l10.183,5.794a3.81,3.81,0,0,1,2.14,2.654v0a3.812,3.812,0,0,1-2.14,2.652L8.5-.641" transform="translate(26.331 36.163)" fill="url(#linear-gradient-2)"/>
    <path id="Path_20994" data-name="Path 20994" d="M1.846-.89a2.623,2.623,0,0,1-1.8-.665h0l25.3-25.34,8.435,8.45L4.134-1.576A4.7,4.7,0,0,1,1.846-.89" transform="translate(1.055 53.967)" fill="url(#linear-gradient-3)"/>
    <path id="Path_20995" data-name="Path 20995" d="M25.32-.946.018-26.288a2.627,2.627,0,0,1,1.8-.664,4.705,4.705,0,0,1,2.292.688L33.754-9.394,25.32-.946" transform="translate(1.076 28.018)" fill="url(#linear-gradient-4)"/>
    <path id="Path_20996" data-name="Path 20996" d="M2.032-.685A2.629,2.629,0,0,1,.227-1.35h0L.219-1.355.088-1.484.075-1.5l.152-.152a2.623,2.623,0,0,0,1.8.665,4.7,4.7,0,0,0,2.288-.686L33.961-18.54l.19.19-.192.109L4.319-1.372a4.876,4.876,0,0,1-2.1.682q-.093,0-.187,0" transform="translate(0.87 54.062)" fill="url(#linear-gradient-5)"/>
    <path id="Path_20997" data-name="Path 20997" d="M.956-.183A4.1,4.1,0,0,1,.011-3.057v-.3A4.1,4.1,0,0,0,.956-.481l.152.145L.956-.183" transform="translate(-0.011 52.748)" fill="url(#linear-gradient-6)"/>
    <path id="Path_20998" data-name="Path 20998" d="M.251-.308.061-.5l10.182-5.8a3.811,3.811,0,0,0,2.14-2.652,2.536,2.536,0,0,1-.236,1.055,4.385,4.385,0,0,1-1.9,1.9L.251-.308" transform="translate(34.77 36.02)" fill="url(#linear-gradient-7)"/>
    <path id="Path_20999" data-name="Path 20999" d="M12.383-.36a3.81,3.81,0,0,0-2.14-2.654L.06-8.808.25-9h0l9.992,5.687A3.591,3.591,0,0,1,12.383-.36" transform="translate(34.77 27.431)" fill="url(#linear-gradient-8)"/>
    <path id="Path_21000" data-name="Path 21000" d="M.011-.129V-.442c0-.113,0-.223.009-.33v0a.014.014,0,0,1,0,0V-.794A3.9,3.9,0,0,1,.956-3.3l.149.15A3.954,3.954,0,0,0,.011-.129" transform="translate(-0.011 4.883)" fill="url(#linear-gradient-9)"/>
    <path id="Path_21001" data-name="Path 21001" d="M33.96-.666,4.319-17.535a4.706,4.706,0,0,0-2.292-.688,2.626,2.626,0,0,0-1.8.664l-.149-.15q.07-.074.145-.143l.006,0a2.625,2.625,0,0,1,1.786-.665h.015a4.7,4.7,0,0,1,2.292.688L34.151-.857h0l-.19.19" transform="translate(0.87 19.289)" fill="url(#linear-gradient-10)"/>
  </g>
</svg>
