<svg id="Group_11016" data-name="Group 11016" xmlns="http://www.w3.org/2000/svg" width="40" height="40" viewBox="0 0 40 40">
  <g id="owner" transform="translate(0 0)">
    <path id="Path_20944" data-name="Path 20944" d="M21.156,39.8a3.489,3.489,0,0,1,.379-4.92l2.64-2.262a10.444,10.444,0,0,0-2.85-.394h-.388V33a5.04,5.04,0,0,1-10.08,0v-.775h-.388A10.48,10.48,0,0,0,0,42.695v2.481a1.163,1.163,0,0,0,1.163,1.163H6.2v-5.2a1.163,1.163,0,1,1,2.326,0v5.2H22.254v-5.68A3.487,3.487,0,0,1,21.156,39.8Z" transform="translate(0 -6.339)" fill="#034ea1"/>
    <path id="Path_20945" data-name="Path 20945" d="M45.169,36.086,37.8,29.772a1.163,1.163,0,0,0-1.514,0l-7.366,6.314a1.163,1.163,0,0,0,1.514,1.766l.018-.016v7.939h5.428V41.544a1.185,1.185,0,0,1,1.107-1.195,1.163,1.163,0,0,1,1.219,1.162v4.265h4.265a1.163,1.163,0,0,0,1.163-1.163V37.837l.018.016a1.163,1.163,0,1,0,1.514-1.766Zm-7.348,1.935H36.27a1.163,1.163,0,0,1,0-2.326h1.551a1.163,1.163,0,0,1,0,2.326Z" transform="translate(-5.575 -5.776)" fill="#034ea1"/>
    <path id="Path_20946" data-name="Path 20946" d="M15,7.1a2.326,2.326,0,0,1,4.161,0A3.267,3.267,0,0,0,22.1,8.917H28.4a11.633,11.633,0,0,0-22.621,0h6.292A3.267,3.267,0,0,0,15,7.1Z" transform="translate(-1.189)" fill="#034ea1"/>
    <path id="Path_20947" data-name="Path 20947" d="M26.049,17.62V13.356H22.926a5.611,5.611,0,0,1-5.019-3.1,5.611,5.611,0,0,1-5.019,3.1H9.766V17.62a8.142,8.142,0,1,0,16.284,0Zm-5.381,3.9a3.9,3.9,0,0,1-5.522,0,1.163,1.163,0,0,1,1.645-1.645,1.577,1.577,0,0,0,2.232,0,1.163,1.163,0,1,1,1.645,1.645Z" transform="translate(-1.913 -2.011)" fill="#034ea1"/>
    <path id="Path_20948" data-name="Path 20948" d="M33.2,18.813a2.326,2.326,0,0,0,0-4.652Z" transform="translate(-6.628 -2.821)" fill="#034ea1"/>
    <path id="Path_20949" data-name="Path 20949" d="M6.232,18.813V14.16a2.326,2.326,0,0,0,0,4.652Z" transform="translate(-0.805 -2.821)" fill="#034ea1"/>
    <path id="Path_20950" data-name="Path 20950" d="M16.6,32.265v.745a2.714,2.714,0,1,0,5.428,0v-.745a10.481,10.481,0,0,1-5.428,0Z" transform="translate(-3.305 -6.435)" fill="#034ea1"/>
  </g>
</svg>
