<svg xmlns="http://www.w3.org/2000/svg" xmlns:xlink="http://www.w3.org/1999/xlink" width="176.218" height="175.182" viewBox="0 0 176.218 175.182">
  <defs>
    <linearGradient id="linear-gradient" y1="0.5" x2="1" y2="0.5" gradientUnits="objectBoundingBox">
      <stop offset="0" stop-color="#95ffff"/>
      <stop offset="1" stop-color="#205fec"/>
    </linearGradient>
  </defs>
  <g id="Group_11065" data-name="Group 11065" transform="translate(-1299.065 -1199.258) rotate(8)" opacity="0.6">
    <circle id="Ellipse_203" data-name="Ellipse 203" cx="37.32" cy="37.32" r="37.32" transform="translate(1561.75 1043.18)" fill="url(#linear-gradient)"/>
    <circle id="Ellipse_204" data-name="Ellipse 204" cx="37.32" cy="37.32" r="37.32" transform="translate(1561.735 1044.359)" fill="url(#linear-gradient)"/>
    <circle id="Ellipse_205" data-name="Ellipse 205" cx="37.32" cy="37.32" r="37.32" transform="translate(1561.691 1045.531)" fill="url(#linear-gradient)"/>
    <circle id="Ellipse_206" data-name="Ellipse 206" cx="37.32" cy="37.32" r="37.32" transform="translate(1561.618 1046.695)" fill="url(#linear-gradient)"/>
    <circle id="Ellipse_207" data-name="Ellipse 207" cx="37.32" cy="37.32" r="37.32" transform="translate(1561.516 1047.851)" fill="url(#linear-gradient)"/>
    <circle id="Ellipse_208" data-name="Ellipse 208" cx="37.32" cy="37.32" r="37.32" transform="translate(1561.385 1048.999)" fill="url(#linear-gradient)"/>
    <circle id="Ellipse_209" data-name="Ellipse 209" cx="37.32" cy="37.32" r="37.32" transform="translate(1561.227 1050.138)" fill="url(#linear-gradient)"/>
    <circle id="Ellipse_210" data-name="Ellipse 210" cx="37.32" cy="37.32" r="37.32" transform="translate(1561.041 1051.268)" fill="url(#linear-gradient)"/>
    <circle id="Ellipse_211" data-name="Ellipse 211" cx="37.32" cy="37.32" r="37.32" transform="translate(1560.828 1052.389)" fill="url(#linear-gradient)"/>
    <circle id="Ellipse_212" data-name="Ellipse 212" cx="37.32" cy="37.32" r="37.32" transform="translate(1560.587 1053.5)" fill="url(#linear-gradient)"/>
    <circle id="Ellipse_213" data-name="Ellipse 213" cx="37.32" cy="37.32" r="37.32" transform="translate(1560.321 1054.6)" fill="url(#linear-gradient)"/>
    <circle id="Ellipse_214" data-name="Ellipse 214" cx="37.32" cy="37.32" r="37.32" transform="translate(1560.027 1055.691)" fill="url(#linear-gradient)"/>
    <circle id="Ellipse_215" data-name="Ellipse 215" cx="37.32" cy="37.32" r="37.32" transform="translate(1559.708 1056.771)" fill="url(#linear-gradient)"/>
    <circle id="Ellipse_216" data-name="Ellipse 216" cx="37.32" cy="37.32" r="37.32" transform="translate(1559.364 1057.839)" fill="url(#linear-gradient)"/>
    <circle id="Ellipse_217" data-name="Ellipse 217" cx="37.32" cy="37.32" r="37.32" transform="translate(1558.994 1058.896)" fill="url(#linear-gradient)"/>
    <circle id="Ellipse_218" data-name="Ellipse 218" cx="37.32" cy="37.32" r="37.32" transform="translate(1558.599 1059.942)" fill="url(#linear-gradient)"/>
    <circle id="Ellipse_219" data-name="Ellipse 219" cx="37.32" cy="37.32" r="37.32" transform="translate(1558.18 1060.975)" fill="url(#linear-gradient)"/>
    <circle id="Ellipse_220" data-name="Ellipse 220" cx="37.32" cy="37.32" r="37.32" transform="translate(1557.737 1061.995)" fill="url(#linear-gradient)"/>
    <circle id="Ellipse_221" data-name="Ellipse 221" cx="37.32" cy="37.32" r="37.32" transform="translate(1557.27 1063.003)" fill="url(#linear-gradient)"/>
    <circle id="Ellipse_222" data-name="Ellipse 222" cx="37.32" cy="37.32" r="37.32" transform="translate(1556.78 1063.997)" fill="url(#linear-gradient)"/>
    <circle id="Ellipse_223" data-name="Ellipse 223" cx="37.32" cy="37.32" r="37.32" transform="translate(1556.266 1064.863)" fill="url(#linear-gradient)"/>
    <circle id="Ellipse_224" data-name="Ellipse 224" cx="37.32" cy="37.32" r="37.32" transform="translate(1555.73 1065.834)" fill="url(#linear-gradient)"/>
    <circle id="Ellipse_225" data-name="Ellipse 225" cx="37.32" cy="37.32" r="37.32" transform="translate(1555.172 1066.791)" fill="url(#linear-gradient)"/>
    <circle id="Ellipse_226" data-name="Ellipse 226" cx="37.32" cy="37.32" r="37.32" transform="translate(1554.591 1067.734)" fill="url(#linear-gradient)"/>
    <circle id="Ellipse_227" data-name="Ellipse 227" cx="37.32" cy="37.32" r="37.32" transform="translate(1553.989 1068.661)" fill="url(#linear-gradient)"/>
    <circle id="Ellipse_228" data-name="Ellipse 228" cx="37.32" cy="37.32" r="37.32" transform="translate(1553.366 1069.573)" fill="url(#linear-gradient)"/>
    <circle id="Ellipse_229" data-name="Ellipse 229" cx="37.32" cy="37.32" r="37.32" transform="translate(1552.721 1070.469)" fill="url(#linear-gradient)"/>
    <circle id="Ellipse_230" data-name="Ellipse 230" cx="37.32" cy="37.32" r="37.32" transform="translate(1552.056 1071.349)" fill="url(#linear-gradient)"/>
    <circle id="Ellipse_231" data-name="Ellipse 231" cx="37.32" cy="37.32" r="37.32" transform="translate(1551.371 1072.212)" fill="url(#linear-gradient)"/>
    <circle id="Ellipse_232" data-name="Ellipse 232" cx="37.32" cy="37.32" r="37.32" transform="translate(1550.666 1073.059)" fill="url(#linear-gradient)"/>
    <circle id="Ellipse_233" data-name="Ellipse 233" cx="37.32" cy="37.32" r="37.32" transform="translate(1549.941 1073.889)" fill="url(#linear-gradient)"/>
    <circle id="Ellipse_234" data-name="Ellipse 234" cx="37.32" cy="37.32" r="37.32" transform="translate(1549.197 1074.701)" fill="url(#linear-gradient)"/>
    <circle id="Ellipse_235" data-name="Ellipse 235" cx="37.32" cy="37.32" r="37.32" transform="translate(1548.434 1075.495)" fill="url(#linear-gradient)"/>
    <circle id="Ellipse_236" data-name="Ellipse 236" cx="37.32" cy="37.32" r="37.32" transform="translate(1547.653 1076.271)" fill="url(#linear-gradient)"/>
    <circle id="Ellipse_237" data-name="Ellipse 237" cx="37.32" cy="37.32" r="37.32" transform="translate(1546.854 1077.028)" fill="url(#linear-gradient)"/>
    <circle id="Ellipse_238" data-name="Ellipse 238" cx="37.32" cy="37.32" r="37.32" transform="translate(1546.036 1077.766)" fill="url(#linear-gradient)"/>
    <circle id="Ellipse_239" data-name="Ellipse 239" cx="37.32" cy="37.32" r="37.32" transform="translate(1545.202 1078.485)" fill="url(#linear-gradient)"/>
    <circle id="Ellipse_240" data-name="Ellipse 240" cx="37.32" cy="37.32" r="37.32" transform="translate(1544.35 1079.185)" fill="url(#linear-gradient)"/>
    <circle id="Ellipse_241" data-name="Ellipse 241" cx="37.32" cy="37.32" r="37.32" transform="translate(1543.482 1079.864)" fill="url(#linear-gradient)"/>
    <circle id="Ellipse_242" data-name="Ellipse 242" cx="37.32" cy="37.32" r="37.32" transform="translate(1542.597 1080.523)" fill="url(#linear-gradient)"/>
    <circle id="Ellipse_243" data-name="Ellipse 243" cx="37.32" cy="37.32" r="37.32" transform="translate(1541.696 1081.161)" fill="url(#linear-gradient)"/>
    <circle id="Ellipse_244" data-name="Ellipse 244" cx="37.32" cy="37.32" r="37.32" transform="translate(1540.78 1081.779)" fill="url(#linear-gradient)"/>
    <circle id="Ellipse_245" data-name="Ellipse 245" cx="37.32" cy="37.32" r="37.32" transform="translate(1539.848 1082.375)" fill="url(#linear-gradient)"/>
    <circle id="Ellipse_246" data-name="Ellipse 246" cx="37.32" cy="37.32" r="37.32" transform="translate(1538.901 1082.949)" fill="url(#linear-gradient)"/>
    <circle id="Ellipse_247" data-name="Ellipse 247" cx="37.32" cy="37.32" r="37.32" transform="translate(1537.94 1083.501)" fill="url(#linear-gradient)"/>
    <circle id="Ellipse_248" data-name="Ellipse 248" cx="37.32" cy="37.32" r="37.32" transform="translate(1536.964 1084.03)" fill="url(#linear-gradient)"/>
    <circle id="Ellipse_249" data-name="Ellipse 249" cx="37.32" cy="37.32" r="37.32" transform="translate(1536.096 1084.537)" fill="url(#linear-gradient)"/>
    <circle id="Ellipse_250" data-name="Ellipse 250" cx="37.32" cy="37.32" r="37.32" transform="translate(1535.097 1085.02)" fill="url(#linear-gradient)"/>
    <circle id="Ellipse_251" data-name="Ellipse 251" cx="37.32" cy="37.32" r="37.32" transform="translate(1534.086 1085.48)" fill="url(#linear-gradient)"/>
    <circle id="Ellipse_252" data-name="Ellipse 252" cx="37.32" cy="37.32" r="37.32" transform="translate(1533.062 1085.917)" fill="url(#linear-gradient)"/>
    <circle id="Ellipse_253" data-name="Ellipse 253" cx="37.32" cy="37.32" r="37.32" transform="translate(1532.025 1086.328)" fill="url(#linear-gradient)"/>
    <circle id="Ellipse_254" data-name="Ellipse 254" cx="37.32" cy="37.32" r="37.32" transform="translate(1530.976 1086.715)" fill="url(#linear-gradient)"/>
    <circle id="Ellipse_255" data-name="Ellipse 255" cx="37.32" cy="37.32" r="37.32" transform="translate(1529.916 1087.078)" fill="url(#linear-gradient)"/>
    <circle id="Ellipse_256" data-name="Ellipse 256" cx="37.32" cy="37.32" r="37.32" transform="translate(1528.844 1087.415)" fill="url(#linear-gradient)"/>
    <circle id="Ellipse_257" data-name="Ellipse 257" cx="37.32" cy="37.32" r="37.32" transform="translate(1527.761 1087.727)" fill="url(#linear-gradient)"/>
    <circle id="Ellipse_258" data-name="Ellipse 258" cx="37.32" cy="37.32" r="37.32" transform="translate(1526.667 1088.012)" fill="url(#linear-gradient)"/>
    <circle id="Ellipse_259" data-name="Ellipse 259" cx="37.32" cy="37.32" r="37.32" transform="translate(1525.563 1088.271)" fill="url(#linear-gradient)"/>
    <circle id="Ellipse_260" data-name="Ellipse 260" cx="37.32" cy="37.32" r="37.32" transform="translate(1524.449 1088.503)" fill="url(#linear-gradient)"/>
    <circle id="Ellipse_261" data-name="Ellipse 261" cx="37.32" cy="37.32" r="37.32" transform="translate(1523.326 1088.709)" fill="url(#linear-gradient)"/>
    <circle id="Ellipse_262" data-name="Ellipse 262" cx="37.32" cy="37.32" r="37.32" transform="translate(1522.193 1088.887)" fill="url(#linear-gradient)"/>
    <circle id="Ellipse_263" data-name="Ellipse 263" cx="37.32" cy="37.32" r="37.32" transform="translate(1521.052 1089.037)" fill="url(#linear-gradient)"/>
    <circle id="Ellipse_264" data-name="Ellipse 264" cx="37.32" cy="37.32" r="37.32" transform="translate(1519.901 1089.159)" fill="url(#linear-gradient)"/>
    <circle id="Ellipse_265" data-name="Ellipse 265" cx="37.32" cy="37.32" r="37.32" transform="translate(1518.743 1089.253)" fill="url(#linear-gradient)"/>
    <circle id="Ellipse_266" data-name="Ellipse 266" cx="37.32" cy="37.32" r="37.32" transform="translate(1517.576 1089.318)" fill="url(#linear-gradient)"/>
    <circle id="Ellipse_267" data-name="Ellipse 267" cx="37.32" cy="37.32" r="37.32" transform="translate(1516.403 1089.353)" fill="url(#linear-gradient)"/>
    <circle id="Ellipse_268" data-name="Ellipse 268" cx="37.32" cy="37.32" r="37.32" transform="translate(1515.222 1089.359)" fill="url(#linear-gradient)"/>
    <circle id="Ellipse_269" data-name="Ellipse 269" cx="37.32" cy="37.32" r="37.32" transform="translate(1514.045 1089.336)" fill="url(#linear-gradient)"/>
    <circle id="Ellipse_270" data-name="Ellipse 270" cx="37.32" cy="37.32" r="37.32" transform="translate(1512.876 1089.283)" fill="url(#linear-gradient)"/>
    <circle id="Ellipse_271" data-name="Ellipse 271" cx="37.32" cy="37.32" r="37.32" transform="translate(1511.714 1089.201)" fill="url(#linear-gradient)"/>
    <circle id="Ellipse_272" data-name="Ellipse 272" cx="37.32" cy="37.32" r="37.32" transform="translate(1510.56 1089.091)" fill="url(#linear-gradient)"/>
    <circle id="Ellipse_273" data-name="Ellipse 273" cx="37.32" cy="37.32" r="37.32" transform="translate(1509.415 1088.952)" fill="url(#linear-gradient)"/>
    <circle id="Ellipse_274" data-name="Ellipse 274" cx="37.32" cy="37.32" r="37.32" transform="translate(1508.278 1088.786)" fill="url(#linear-gradient)"/>
    <circle id="Ellipse_275" data-name="Ellipse 275" cx="37.32" cy="37.32" r="37.32" transform="translate(1507.151 1088.591)" fill="url(#linear-gradient)"/>
    <circle id="Ellipse_276" data-name="Ellipse 276" cx="37.32" cy="37.32" r="37.32" transform="translate(1506.033 1088.37)" fill="url(#linear-gradient)"/>
    <circle id="Ellipse_277" data-name="Ellipse 277" cx="37.32" cy="37.32" r="37.32" transform="translate(1504.925 1088.122)" fill="url(#linear-gradient)"/>
    <circle id="Ellipse_278" data-name="Ellipse 278" cx="37.32" cy="37.32" r="37.32" transform="translate(1503.827 1087.847)" fill="url(#linear-gradient)"/>
    <circle id="Ellipse_279" data-name="Ellipse 279" cx="37.32" cy="37.32" r="37.32" transform="translate(1502.74 1087.547)" fill="url(#linear-gradient)"/>
    <circle id="Ellipse_280" data-name="Ellipse 280" cx="37.32" cy="37.32" r="37.32" transform="translate(1501.663 1087.22)" fill="url(#linear-gradient)"/>
    <circle id="Ellipse_281" data-name="Ellipse 281" cx="37.32" cy="37.32" r="37.32" transform="translate(1500.598 1086.868)" fill="url(#linear-gradient)"/>
    <circle id="Ellipse_282" data-name="Ellipse 282" cx="37.32" cy="37.32" r="37.32" transform="translate(1499.545 1086.491)" fill="url(#linear-gradient)"/>
    <circle id="Ellipse_283" data-name="Ellipse 283" cx="37.32" cy="37.32" r="37.32" transform="translate(1498.503 1086.089)" fill="url(#linear-gradient)"/>
    <circle id="Ellipse_284" data-name="Ellipse 284" cx="37.32" cy="37.32" r="37.32" transform="translate(1497.473 1085.663)" fill="url(#linear-gradient)"/>
    <circle id="Ellipse_285" data-name="Ellipse 285" cx="37.32" cy="37.32" r="37.32" transform="translate(1496.457 1085.213)" fill="url(#linear-gradient)"/>
    <circle id="Ellipse_286" data-name="Ellipse 286" cx="37.32" cy="37.32" r="37.32" transform="translate(1495.453 1084.739)" fill="url(#linear-gradient)"/>
    <circle id="Ellipse_287" data-name="Ellipse 287" cx="37.32" cy="37.32" r="37.32" transform="translate(1494.463 1084.242)" fill="url(#linear-gradient)"/>
    <circle id="Ellipse_288" data-name="Ellipse 288" cx="37.32" cy="37.32" r="37.32" transform="translate(1493.599 1083.722)" fill="url(#linear-gradient)"/>
    <circle id="Ellipse_289" data-name="Ellipse 289" cx="37.32" cy="37.32" r="37.32" transform="translate(1492.632 1083.179)" fill="url(#linear-gradient)"/>
    <circle id="Ellipse_290" data-name="Ellipse 290" cx="37.32" cy="37.32" r="37.32" transform="translate(1491.679 1082.614)" fill="url(#linear-gradient)"/>
    <circle id="Ellipse_291" data-name="Ellipse 291" cx="37.32" cy="37.32" r="37.32" transform="translate(1490.741 1082.027)" fill="url(#linear-gradient)"/>
    <circle id="Ellipse_292" data-name="Ellipse 292" cx="37.32" cy="37.32" r="37.32" transform="translate(1489.818 1081.418)" fill="url(#linear-gradient)"/>
    <circle id="Ellipse_293" data-name="Ellipse 293" cx="37.32" cy="37.32" r="37.32" transform="translate(1488.911 1080.789)" fill="url(#linear-gradient)"/>
    <circle id="Ellipse_294" data-name="Ellipse 294" cx="37.32" cy="37.32" r="37.32" transform="translate(1488.02 1080.138)" fill="url(#linear-gradient)"/>
    <circle id="Ellipse_295" data-name="Ellipse 295" cx="37.32" cy="37.32" r="37.32" transform="translate(1487.144 1079.467)" fill="url(#linear-gradient)"/>
    <circle id="Ellipse_296" data-name="Ellipse 296" cx="37.32" cy="37.32" r="37.32" transform="translate(1486.286 1078.776)" fill="url(#linear-gradient)"/>
    <circle id="Ellipse_297" data-name="Ellipse 297" cx="37.32" cy="37.32" r="37.32" transform="translate(1485.444 1078.065)" fill="url(#linear-gradient)"/>
    <circle id="Ellipse_298" data-name="Ellipse 298" cx="37.32" cy="37.32" r="37.32" transform="translate(1484.62 1077.335)" fill="url(#linear-gradient)"/>
    <circle id="Ellipse_299" data-name="Ellipse 299" cx="37.32" cy="37.32" r="37.32" transform="translate(1483.813 1076.585)" fill="url(#linear-gradient)"/>
    <circle id="Ellipse_300" data-name="Ellipse 300" cx="37.32" cy="37.32" r="37.32" transform="translate(1483.024 1075.817)" fill="url(#linear-gradient)"/>
    <circle id="Ellipse_301" data-name="Ellipse 301" cx="37.32" cy="37.32" r="37.32" transform="translate(1482.254 1075.03)" fill="url(#linear-gradient)"/>
    <circle id="Ellipse_302" data-name="Ellipse 302" cx="37.32" cy="37.32" r="37.32" transform="translate(1481.502 1074.226)" fill="url(#linear-gradient)"/>
    <circle id="Ellipse_303" data-name="Ellipse 303" cx="37.32" cy="37.32" r="37.32" transform="translate(1480.769 1073.403)" fill="url(#linear-gradient)"/>
    <circle id="Ellipse_304" data-name="Ellipse 304" cx="37.32" cy="37.32" r="37.32" transform="translate(1480.056 1072.564)" fill="url(#linear-gradient)"/>
    <circle id="Ellipse_305" data-name="Ellipse 305" cx="37.32" cy="37.32" r="37.32" transform="translate(1479.363 1071.707)" fill="url(#linear-gradient)"/>
    <circle id="Ellipse_306" data-name="Ellipse 306" cx="37.32" cy="37.32" r="37.32" transform="translate(1478.689 1070.834)" fill="url(#linear-gradient)"/>
    <circle id="Ellipse_307" data-name="Ellipse 307" cx="37.32" cy="37.32" r="37.32" transform="translate(1478.036 1069.944)" fill="url(#linear-gradient)"/>
    <circle id="Ellipse_308" data-name="Ellipse 308" cx="37.32" cy="37.32" r="37.32" transform="translate(1477.404 1069.039)" fill="url(#linear-gradient)"/>
    <circle id="Ellipse_309" data-name="Ellipse 309" cx="37.32" cy="37.32" r="37.32" transform="translate(1476.793 1068.118)" fill="url(#linear-gradient)"/>
    <circle id="Ellipse_310" data-name="Ellipse 310" cx="37.32" cy="37.32" r="37.32" transform="translate(1476.203 1067.182)" fill="url(#linear-gradient)"/>
    <circle id="Ellipse_311" data-name="Ellipse 311" cx="37.32" cy="37.32" r="37.32" transform="translate(1475.636 1066.231)" fill="url(#linear-gradient)"/>
    <circle id="Ellipse_312" data-name="Ellipse 312" cx="37.32" cy="37.32" r="37.32" transform="translate(1475.09 1065.265)" fill="url(#linear-gradient)"/>
    <circle id="Ellipse_313" data-name="Ellipse 313" cx="37.32" cy="37.32" r="37.32" transform="translate(1474.568 1064.285)" fill="url(#linear-gradient)"/>
    <circle id="Ellipse_314" data-name="Ellipse 314" cx="37.32" cy="37.32" r="37.32" transform="translate(1474.067 1063.414)" fill="url(#linear-gradient)"/>
    <circle id="Ellipse_315" data-name="Ellipse 315" cx="37.32" cy="37.32" r="37.32" transform="translate(1473.591 1062.412)" fill="url(#linear-gradient)"/>
    <circle id="Ellipse_316" data-name="Ellipse 316" cx="37.32" cy="37.32" r="37.32" transform="translate(1473.138 1061.397)" fill="url(#linear-gradient)"/>
    <circle id="Ellipse_317" data-name="Ellipse 317" cx="37.32" cy="37.32" r="37.32" transform="translate(1472.709 1060.369)" fill="url(#linear-gradient)"/>
    <circle id="Ellipse_318" data-name="Ellipse 318" cx="37.32" cy="37.32" r="37.32" transform="translate(1472.304 1059.329)" fill="url(#linear-gradient)"/>
    <circle id="Ellipse_319" data-name="Ellipse 319" cx="37.32" cy="37.32" r="37.32" transform="translate(1471.924 1058.277)" fill="url(#linear-gradient)"/>
    <circle id="Ellipse_320" data-name="Ellipse 320" cx="37.32" cy="37.32" r="37.32" transform="translate(1471.569 1057.213)" fill="url(#linear-gradient)"/>
    <circle id="Ellipse_321" data-name="Ellipse 321" cx="37.32" cy="37.32" r="37.32" transform="translate(1471.24 1056.138)" fill="url(#linear-gradient)"/>
    <circle id="Ellipse_322" data-name="Ellipse 322" cx="37.32" cy="37.32" r="37.32" transform="translate(1470.936 1055.052)" fill="url(#linear-gradient)"/>
    <circle id="Ellipse_323" data-name="Ellipse 323" cx="37.32" cy="37.32" r="37.32" transform="translate(1470.658 1053.955)" fill="url(#linear-gradient)"/>
    <circle id="Ellipse_324" data-name="Ellipse 324" cx="37.32" cy="37.32" r="37.32" transform="translate(1470.407 1052.848)" fill="url(#linear-gradient)"/>
    <circle id="Ellipse_325" data-name="Ellipse 325" cx="37.32" cy="37.32" r="37.32" transform="translate(1470.182 1051.731)" fill="url(#linear-gradient)"/>
    <circle id="Ellipse_326" data-name="Ellipse 326" cx="37.32" cy="37.32" r="37.32" transform="translate(1469.985 1050.605)" fill="url(#linear-gradient)"/>
    <circle id="Ellipse_327" data-name="Ellipse 327" cx="37.32" cy="37.32" r="37.32" transform="translate(1469.815 1049.469)" fill="url(#linear-gradient)"/>
    <circle id="Ellipse_328" data-name="Ellipse 328" cx="37.32" cy="37.32" r="37.32" transform="translate(1469.673 1048.325)" fill="url(#linear-gradient)"/>
    <circle id="Ellipse_329" data-name="Ellipse 329" cx="37.32" cy="37.32" r="37.32" transform="translate(1469.559 1047.173)" fill="url(#linear-gradient)"/>
    <circle id="Ellipse_330" data-name="Ellipse 330" cx="37.32" cy="37.32" r="37.32" transform="translate(1469.474 1046.012)" fill="url(#linear-gradient)"/>
    <circle id="Ellipse_331" data-name="Ellipse 331" cx="37.32" cy="37.32" r="37.32" transform="translate(1469.418 1044.844)" fill="url(#linear-gradient)"/>
    <circle id="Ellipse_332" data-name="Ellipse 332" cx="37.32" cy="37.32" r="37.32" transform="translate(1469.391 1043.667)" fill="url(#linear-gradient)"/>
    <circle id="Ellipse_333" data-name="Ellipse 333" cx="37.32" cy="37.32" r="37.32" transform="translate(1469.395 1042.553)" fill="url(#linear-gradient)"/>
    <circle id="Ellipse_334" data-name="Ellipse 334" cx="37.32" cy="37.32" r="37.32" transform="translate(1469.435 1041.49)" fill="url(#linear-gradient)"/>
    <circle id="Ellipse_335" data-name="Ellipse 335" cx="37.32" cy="37.32" r="37.32" transform="translate(1469.511 1040.434)" fill="url(#linear-gradient)"/>
    <circle id="Ellipse_336" data-name="Ellipse 336" cx="37.32" cy="37.32" r="37.32" transform="translate(1469.623 1039.384)" fill="url(#linear-gradient)"/>
    <circle id="Ellipse_337" data-name="Ellipse 337" cx="37.32" cy="37.32" r="37.32" transform="translate(1469.77 1038.341)" fill="url(#linear-gradient)"/>
    <circle id="Ellipse_338" data-name="Ellipse 338" cx="37.32" cy="37.32" r="37.32" transform="translate(1469.951 1037.304)" fill="url(#linear-gradient)"/>
    <circle id="Ellipse_339" data-name="Ellipse 339" cx="37.32" cy="37.32" r="37.32" transform="translate(1470.165 1036.274)" fill="url(#linear-gradient)"/>
    <circle id="Ellipse_340" data-name="Ellipse 340" cx="37.32" cy="37.32" r="37.32" transform="translate(1470.413 1035.252)" fill="url(#linear-gradient)"/>
    <circle id="Ellipse_341" data-name="Ellipse 341" cx="37.32" cy="37.32" r="37.32" transform="translate(1470.693 1034.237)" fill="url(#linear-gradient)"/>
    <circle id="Ellipse_342" data-name="Ellipse 342" cx="37.32" cy="37.32" r="37.32" transform="translate(1471.006 1033.231)" fill="url(#linear-gradient)"/>
    <circle id="Ellipse_343" data-name="Ellipse 343" cx="37.32" cy="37.32" r="37.32" transform="translate(1471.349 1032.232)" fill="url(#linear-gradient)"/>
    <circle id="Ellipse_344" data-name="Ellipse 344" cx="37.32" cy="37.32" r="37.32" transform="translate(1471.723 1031.242)" fill="url(#linear-gradient)"/>
    <circle id="Ellipse_345" data-name="Ellipse 345" cx="37.32" cy="37.32" r="37.32" transform="translate(1472.127 1030.26)" fill="url(#linear-gradient)"/>
    <circle id="Ellipse_346" data-name="Ellipse 346" cx="37.32" cy="37.32" r="37.32" transform="translate(1472.561 1029.288)" fill="url(#linear-gradient)"/>
    <circle id="Ellipse_347" data-name="Ellipse 347" cx="37.32" cy="37.32" r="37.32" transform="translate(1473.023 1028.324)" fill="url(#linear-gradient)"/>
    <circle id="Ellipse_348" data-name="Ellipse 348" cx="37.32" cy="37.32" r="37.32" transform="translate(1473.513 1027.37)" fill="url(#linear-gradient)"/>
    <circle id="Ellipse_349" data-name="Ellipse 349" cx="37.32" cy="37.32" r="37.32" transform="translate(1474.031 1026.426)" fill="url(#linear-gradient)"/>
    <circle id="Ellipse_350" data-name="Ellipse 350" cx="37.32" cy="37.32" r="37.32" transform="translate(1474.575 1025.492)" fill="url(#linear-gradient)"/>
    <circle id="Ellipse_351" data-name="Ellipse 351" cx="37.32" cy="37.32" r="37.32" transform="translate(1475.146 1024.568)" fill="url(#linear-gradient)"/>
    <circle id="Ellipse_352" data-name="Ellipse 352" cx="37.32" cy="37.32" r="37.32" transform="translate(1475.743 1023.654)" fill="url(#linear-gradient)"/>
    <circle id="Ellipse_353" data-name="Ellipse 353" cx="37.32" cy="37.32" r="37.32" transform="translate(1476.365 1022.751)" fill="url(#linear-gradient)"/>
    <circle id="Ellipse_354" data-name="Ellipse 354" cx="37.32" cy="37.32" r="37.32" transform="translate(1477.011 1021.976)" fill="url(#linear-gradient)"/>
    <circle id="Ellipse_355" data-name="Ellipse 355" cx="37.32" cy="37.32" r="37.32" transform="translate(1477.681 1021.091)" fill="url(#linear-gradient)"/>
    <circle id="Ellipse_356" data-name="Ellipse 356" cx="37.32" cy="37.32" r="37.32" transform="translate(1478.374 1020.218)" fill="url(#linear-gradient)"/>
    <circle id="Ellipse_357" data-name="Ellipse 357" cx="37.32" cy="37.32" r="37.32" transform="translate(1479.089 1019.357)" fill="url(#linear-gradient)"/>
    <circle id="Ellipse_358" data-name="Ellipse 358" cx="37.32" cy="37.32" r="37.32" transform="translate(1479.827 1018.507)" fill="url(#linear-gradient)"/>
    <circle id="Ellipse_359" data-name="Ellipse 359" cx="37.32" cy="37.32" r="37.32" transform="translate(1480.586 1017.67)" fill="url(#linear-gradient)"/>
    <circle id="Ellipse_360" data-name="Ellipse 360" cx="37.32" cy="37.32" r="37.32" transform="translate(1481.365 1016.846)" fill="url(#linear-gradient)"/>
    <circle id="Ellipse_361" data-name="Ellipse 361" cx="37.32" cy="37.32" r="37.32" transform="translate(1482.165 1016.034)" fill="url(#linear-gradient)"/>
    <circle id="Ellipse_362" data-name="Ellipse 362" cx="37.32" cy="37.32" r="37.32" transform="translate(1482.984 1015.236)" fill="url(#linear-gradient)"/>
    <circle id="Ellipse_363" data-name="Ellipse 363" cx="37.32" cy="37.32" r="37.32" transform="translate(1483.822 1014.451)" fill="url(#linear-gradient)"/>
    <circle id="Ellipse_364" data-name="Ellipse 364" cx="37.32" cy="37.32" r="37.32" transform="translate(1484.678 1013.679)" fill="url(#linear-gradient)"/>
    <circle id="Ellipse_365" data-name="Ellipse 365" cx="37.32" cy="37.32" r="37.32" transform="translate(1485.552 1012.922)" fill="url(#linear-gradient)"/>
    <circle id="Ellipse_366" data-name="Ellipse 366" cx="37.32" cy="37.32" r="37.32" transform="translate(1486.443 1012.178)" fill="url(#linear-gradient)"/>
    <circle id="Ellipse_367" data-name="Ellipse 367" cx="37.32" cy="37.32" r="37.32" transform="translate(1487.35 1011.449)" fill="url(#linear-gradient)"/>
    <circle id="Ellipse_368" data-name="Ellipse 368" cx="37.32" cy="37.32" r="37.32" transform="translate(1488.273 1010.735)" fill="url(#linear-gradient)"/>
    <circle id="Ellipse_369" data-name="Ellipse 369" cx="37.32" cy="37.32" r="37.32" transform="translate(1489.211 1010.036)" fill="url(#linear-gradient)"/>
    <circle id="Ellipse_370" data-name="Ellipse 370" cx="37.32" cy="37.32" r="37.32" transform="translate(1490.163 1009.352)" fill="url(#linear-gradient)"/>
    <circle id="Ellipse_371" data-name="Ellipse 371" cx="37.32" cy="37.32" r="37.32" transform="translate(1491.13 1008.683)" fill="url(#linear-gradient)"/>
    <circle id="Ellipse_372" data-name="Ellipse 372" cx="37.32" cy="37.32" r="37.32" transform="translate(1492.11 1008.03)" fill="url(#linear-gradient)"/>
    <circle id="Ellipse_373" data-name="Ellipse 373" cx="37.32" cy="37.32" r="37.32" transform="translate(1493.102 1007.393)" fill="url(#linear-gradient)"/>
    <circle id="Ellipse_374" data-name="Ellipse 374" cx="37.32" cy="37.32" r="37.32" transform="translate(1494.106 1006.773)" fill="url(#linear-gradient)"/>
    <circle id="Ellipse_375" data-name="Ellipse 375" cx="37.32" cy="37.32" r="37.32" transform="translate(1495.001 1006.168)" fill="url(#linear-gradient)"/>
    <circle id="Ellipse_376" data-name="Ellipse 376" cx="37.32" cy="37.32" r="37.32" transform="translate(1496.023 1005.581)" fill="url(#linear-gradient)"/>
    <circle id="Ellipse_377" data-name="Ellipse 377" cx="37.32" cy="37.32" r="37.32" transform="translate(1497.055 1005.011)" fill="url(#linear-gradient)"/>
    <circle id="Ellipse_378" data-name="Ellipse 378" cx="37.32" cy="37.32" r="37.32" transform="translate(1498.096 1004.458)" fill="url(#linear-gradient)"/>
    <circle id="Ellipse_379" data-name="Ellipse 379" cx="37.32" cy="37.32" r="37.32" transform="translate(1499.147 1003.922)" fill="url(#linear-gradient)"/>
    <circle id="Ellipse_380" data-name="Ellipse 380" cx="37.32" cy="37.32" r="37.32" transform="translate(1500.205 1003.404)" fill="url(#linear-gradient)"/>
    <circle id="Ellipse_381" data-name="Ellipse 381" cx="37.32" cy="37.32" r="37.32" transform="translate(1501.271 1002.905)" fill="url(#linear-gradient)"/>
    <circle id="Ellipse_382" data-name="Ellipse 382" cx="37.32" cy="37.32" r="37.32" transform="translate(1502.345 1002.424)" fill="url(#linear-gradient)"/>
    <circle id="Ellipse_383" data-name="Ellipse 383" cx="37.32" cy="37.32" r="37.32" transform="translate(1503.425 1001.961)" fill="url(#linear-gradient)"/>
    <circle id="Ellipse_384" data-name="Ellipse 384" cx="37.32" cy="37.32" r="37.32" transform="translate(1504.51 1001.517)" fill="url(#linear-gradient)"/>
    <circle id="Ellipse_385" data-name="Ellipse 385" cx="37.32" cy="37.32" r="37.32" transform="translate(1505.601 1001.092)" fill="url(#linear-gradient)"/>
    <circle id="Ellipse_386" data-name="Ellipse 386" cx="37.32" cy="37.32" r="37.32" transform="translate(1506.696 1000.687)" fill="url(#linear-gradient)"/>
    <circle id="Ellipse_387" data-name="Ellipse 387" cx="37.32" cy="37.32" r="37.32" transform="translate(1507.795 1000.301)" fill="url(#linear-gradient)"/>
    <circle id="Ellipse_388" data-name="Ellipse 388" cx="37.32" cy="37.32" r="37.32" transform="translate(1508.898 999.935)" fill="url(#linear-gradient)"/>
    <circle id="Ellipse_389" data-name="Ellipse 389" cx="37.32" cy="37.32" r="37.32" transform="translate(1510.003 999.59)" fill="url(#linear-gradient)"/>
    <circle id="Ellipse_390" data-name="Ellipse 390" cx="37.32" cy="37.32" r="37.32" transform="translate(1511.111 999.264)" fill="url(#linear-gradient)"/>
    <circle id="Ellipse_391" data-name="Ellipse 391" cx="37.32" cy="37.32" r="37.32" transform="translate(1512.22 998.96)" fill="url(#linear-gradient)"/>
    <circle id="Ellipse_392" data-name="Ellipse 392" cx="37.32" cy="37.32" r="37.32" transform="translate(1513.329 998.676)" fill="url(#linear-gradient)"/>
    <circle id="Ellipse_393" data-name="Ellipse 393" cx="37.32" cy="37.32" r="37.32" transform="translate(1514.439 998.414)" fill="url(#linear-gradient)"/>
    <circle id="Ellipse_394" data-name="Ellipse 394" cx="37.32" cy="37.32" r="37.32" transform="translate(1515.549 998.173)" fill="url(#linear-gradient)"/>
    <circle id="Ellipse_395" data-name="Ellipse 395" cx="37.32" cy="37.32" r="37.32" transform="translate(1516.658 997.953)" fill="url(#linear-gradient)"/>
    <circle id="Ellipse_396" data-name="Ellipse 396" cx="37.32" cy="37.32" r="37.32" transform="translate(1517.765 997.756)" fill="url(#linear-gradient)"/>
    <circle id="Ellipse_397" data-name="Ellipse 397" cx="37.32" cy="37.32" r="37.32" transform="translate(1518.87 997.581)" fill="url(#linear-gradient)"/>
    <circle id="Ellipse_398" data-name="Ellipse 398" cx="37.32" cy="37.32" r="37.32" transform="translate(1519.972 997.428)" fill="url(#linear-gradient)"/>
    <circle id="Ellipse_399" data-name="Ellipse 399" cx="37.32" cy="37.32" r="37.32" transform="translate(1521.071 997.299)" fill="url(#linear-gradient)"/>
    <circle id="Ellipse_400" data-name="Ellipse 400" cx="37.32" cy="37.32" r="37.32" transform="translate(1522.166 997.192)" fill="url(#linear-gradient)"/>
    <circle id="Ellipse_401" data-name="Ellipse 401" cx="37.32" cy="37.32" r="37.32" transform="translate(1523.256 997.108)" fill="url(#linear-gradient)"/>
    <circle id="Ellipse_402" data-name="Ellipse 402" cx="37.32" cy="37.32" r="37.32" transform="translate(1524.34 997.048)" fill="url(#linear-gradient)"/>
    <circle id="Ellipse_403" data-name="Ellipse 403" cx="37.32" cy="37.32" r="37.32" transform="translate(1525.419 997.012)" fill="url(#linear-gradient)"/>
    <circle id="Ellipse_404" data-name="Ellipse 404" cx="37.32" cy="37.32" r="37.32" transform="translate(1526.491 997)" fill="url(#linear-gradient)"/>
  </g>
</svg>
