<svg id="Group_34681" data-name="Group 34681" xmlns="http://www.w3.org/2000/svg" width="60" height="60" viewBox="0 0 60 60">
  <rect id="Rectangle_9919" data-name="Rectangle 9919" width="60" height="60" rx="30" fill="#202020"/>
  <path id="Path_22930" data-name="Path 22930" d="M17.954.682,42.842,23.006s-.982,10.332-7.69,17.572-17.418,9.059-17.418,9.059L3.548,32.962l-6.562-12.67,14.48-10.2V8.3Z" transform="translate(17 10)" fill="#3e3e3e"/>
  <g id="apple" transform="translate(13.998 10.483)">
    <path id="Path_22926" data-name="Path 22926" d="M37.182,12.16a7.194,7.194,0,0,1-1.834,4.709A6.544,6.544,0,0,1,30.79,19.45a.648.648,0,0,1-.66-.649h-.009a7.392,7.392,0,0,1,1.945-4.758,7.5,7.5,0,0,1,2.37-1.785,7.72,7.72,0,0,1,2.05-.7.6.6,0,0,1,.694.6Zm6.47,25.55a18.286,18.286,0,0,1-1.8,3.253,16.523,16.523,0,0,1-2.322,2.817,4.5,4.5,0,0,1-2.984,1.32,7.463,7.463,0,0,1-2.757-.661,7.887,7.887,0,0,0-2.968-.659,8.154,8.154,0,0,0-3.052.659,8.2,8.2,0,0,1-2.637.7,4.236,4.236,0,0,1-3.052-1.355,17.3,17.3,0,0,1-2.429-2.916,20.19,20.19,0,0,1-2.569-5.12A18.807,18.807,0,0,1,16,29.641a11.175,11.175,0,0,1,1.458-5.83,8.575,8.575,0,0,1,3.054-3.1,8.194,8.194,0,0,1,4.129-1.169,9.685,9.685,0,0,1,3.194.746,10.246,10.246,0,0,0,2.533.747,15.088,15.088,0,0,0,2.809-.881,9.26,9.26,0,0,1,3.818-.68,8.767,8.767,0,0,1,4.834,1.742,1.786,1.786,0,0,1,.054,2.69A6.877,6.877,0,0,0,39.6,29.27a7.113,7.113,0,0,0,2.324,5.352,7.831,7.831,0,0,0,1.051.845,1.834,1.834,0,0,1,.67,2.233C43.655,37.706,43.653,37.708,43.653,37.71Z" transform="translate(-15.996 -11.555)" fill="#fff"/>
  </g>
</svg>
