<svg xmlns="http://www.w3.org/2000/svg" width="60" height="60" viewBox="0 0 60 60">
  <path id="right_1_" data-name="right (1)" d="M52.946,7.054C48.469,2.443,41.182.2,30.018,0h-.035C18.817.2,11.53,2.443,7.054,7.054,2.443,11.531.2,18.818,0,29.982v.035C.2,41.183,2.443,48.47,7.054,52.946,11.53,57.558,18.817,59.8,29.982,60h.035c11.164-.2,18.451-2.442,22.929-7.052C57.557,48.47,59.8,41.183,60,30.018v-.035c-.2-11.164-2.443-18.451-7.054-22.929ZM43.753,30.012a.965.965,0,0,1-.282.694l-8.5,8.5a.964.964,0,0,1-1.364-1.363l6.874-6.874H17.21a.964.964,0,1,1,0-1.928H40.438l-6.874-6.874A.964.964,0,0,1,34.927,20.8L43.334,29.2a.963.963,0,0,1,.42.8Z" fill="#fff"/>
</svg>
