<svg id="marker" xmlns="http://www.w3.org/2000/svg" width="13" height="18" viewBox="0 0 13 18">
  <path id="Path_58" data-name="Path 58" d="M85.783,0h-.03c-3.576,0-6.485,2.528-6.485,5.635,0,2.037,1.067,4.725,3.172,7.99A44.308,44.308,0,0,0,85.6,17.918a.247.247,0,0,0,.187.082h.006a.244.244,0,0,0,.188-.091c.016-.021,1.587-2.083,3.136-4.605,2.092-3.4,3.152-5.985,3.152-7.669C92.268,2.528,89.359,0,85.783,0Zm2.993,5.773a3.038,3.038,0,0,1-6.017,0,3.038,3.038,0,0,1,6.017,0Z" transform="translate(-79.268)" fill="#999"/>
</svg>
