<svg xmlns="http://www.w3.org/2000/svg" width="28" height="26" viewBox="0 0 28 26">
  <g id="home_1_" data-name="home (1)" transform="translate(-7.999 -12)">
    <path id="Path_22491" data-name="Path 22491" d="M49.686,63.378a.772.772,0,0,1,.771-.771l2.138,0,0-2.128a.771.771,0,0,1,1.541,0l0,2.128,2.128,0a.771.771,0,0,1,0,1.541l-2.128,0,0,2.138a.771.771,0,1,1-1.541,0l0-2.138-2.138,0a.769.769,0,0,1-.77-.77Z" transform="translate(-31.363 -35.904)" fill="#034ea1"/>
    <path id="Path_22492" data-name="Path 22492" d="M22.808,12.237a1.5,1.5,0,0,0-1.617,0l-12.5,8a1.5,1.5,0,0,0,1.617,2.527L11.5,22V34a4,4,0,0,0,4,4h13a4,4,0,0,0,4-4V22l1.191.762a1.5,1.5,0,0,0,1.617-2.527ZM27.5,27.5A5.5,5.5,0,1,1,22,22,5.5,5.5,0,0,1,27.5,27.5Z" transform="translate(0 0)" fill="#034ea1" fillRule="evenodd"/>
  </g>
</svg>
