<svg xmlns="http://www.w3.org/2000/svg" width="35" height="41" viewBox="0 0 35 41">
  <g id="no-money" transform="translate(-3.75)">
    <path id="Path_20951" data-name="Path 20951" d="M24.386,6.517a5.584,5.584,0,0,0,1.231-3.5V0H14.272V3.02a5.583,5.583,0,0,0,1.231,3.5Z" transform="translate(-1.859)" fill="#034ea1"/>
    <path id="Path_20952" data-name="Path 20952" d="M22.46,36.157A9.37,9.37,0,0,1,31.819,26.8l.234,0A36.8,36.8,0,0,0,22.588,10.84H13.6A36.837,36.837,0,0,0,4.06,27.046a8.644,8.644,0,0,0,8.35,10.908H22.634A9.373,9.373,0,0,1,22.46,36.157Zm-2.954-4.8H17.093V29.734a3.592,3.592,0,0,1-3.07-3.549h2.414a1.175,1.175,0,0,0,1.174,1.174h1.355a1.217,1.217,0,1,0,0-2.433H17.634a3.63,3.63,0,0,1-.541-7.22V16.083h2.414V17.71a3.637,3.637,0,0,1,3.06,3.586H20.153a1.219,1.219,0,0,0-1.218-1.218h-1.3a1.217,1.217,0,0,0,0,2.433h1.331a3.63,3.63,0,0,1,.541,7.22v1.622Z" transform="translate(0 -2.102)" fill="#034ea1"/>
    <path id="Path_20953" data-name="Path 20953" d="M29.39,40.085a6.945,6.945,0,1,0,6.945-6.945A6.953,6.953,0,0,0,29.39,40.085Zm10.973-2.321-2.321,2.321,2.321,2.321-1.707,1.707-2.321-2.321-2.321,2.321-1.707-1.707,2.321-2.321-2.321-2.321,1.707-1.707,2.321,2.321,2.321-2.321Z" transform="translate(-4.531 -6.03)" fill="#034ea1"/>
  </g>
</svg>
