<svg id="phone" xmlns="http://www.w3.org/2000/svg" width="60" height="60" viewBox="0 0 60 60">
  <circle id="Ellipse_167" data-name="Ellipse 167" cx="30" cy="30" r="30" transform="translate(0 0)" fill="#6aaf50"/>
  <path id="Path_22908" data-name="Path 22908" d="M13.669,10.026h0a6.947,6.947,0,0,0-3.133,8.99,50.025,50.025,0,0,0,8.517,13.13l2.632,2.632,17.49,17.489a28.266,28.266,0,0,0,10.871-9.322l-6.454-6.453a3.579,3.579,0,0,0-.954-.954L18.293,11.195A3.586,3.586,0,0,0,13.669,10.026Z" transform="translate(4.167 4.293)" fill="#4d8538"/>
  <path id="Path_22909" data-name="Path 22909" d="M37.187,31.739a2.655,2.655,0,0,0-2.981.008l-1.292.883a4.045,4.045,0,0,1-4.736-.13,44.152,44.152,0,0,1-3.73-3.2,44.024,44.024,0,0,1-3.22-3.713,4,4,0,0,1-.131-4.715l.887-1.286a2.623,2.623,0,0,0,.008-2.968l-3.7-5.426a3.6,3.6,0,0,0-4.624-1.163h0a6.9,6.9,0,0,0-3.133,8.949,49.772,49.772,0,0,0,8.517,13.07l2.632,2.62a50.056,50.056,0,0,0,13.13,8.478,6.962,6.962,0,0,0,8.99-3.118h0a3.559,3.559,0,0,0-1.168-4.6Z" transform="translate(4.249 4.45)" fill="#fff"/>
</svg>
