<svg id="plot" xmlns="http://www.w3.org/2000/svg" width="47.137" height="44.439" viewBox="0 0 47.137 44.439">
  <g id="_x34_8x48_px_14_">
    <g id="Group_10965" data-name="Group 10965">
      <g id="Group_10953" data-name="Group 10953" transform="translate(10.802)">
        <path id="Path_20626" data-name="Path 20626" d="M33.063,26.3H15.386V16.274H11.458v-3.41L24.225,1.922,36.991,12.864v3.41H33.063V26.3ZM17.35,24.3H31.1V14.268h3.928v-.461l-10.8-9.257-10.8,9.257v.461H17.35Z" transform="translate(-11.458 -1.922)" fill="#a1a1a1"/>
      </g>
      <g id="Group_10954" data-name="Group 10954" transform="translate(0 18.364)">
        <path id="Path_20627" data-name="Path 20627" d="M3.967,35.036H0V33.03H2.72l5.5-12.035h4.547V23h-3.3Z" transform="translate(0 -20.995)" fill="#a1a1a1"/>
      </g>
      <g id="Group_10955" data-name="Group 10955" transform="translate(0 42.434)">
        <path id="Path_20628" data-name="Path 20628" d="M0,45.995H47.137V48H0Z" transform="translate(0 -45.995)" fill="#a1a1a1"/>
      </g>
      <g id="Group_10956" data-name="Group 10956" transform="translate(34.371 18.364)">
        <path id="Path_20629" data-name="Path 20629" d="M49.225,35.036H45.257L39.768,23H36.458V20.995h4.557L46.5,33.03h2.72Z" transform="translate(-36.458 -20.995)" fill="#a1a1a1"/>
      </g>
      <g id="Group_10957" data-name="Group 10957" transform="translate(9.506 25.033)">
        <path id="Path_20630" data-name="Path 20630" d="M38.218,35.293H10.083l2.062-7.371,1.885.552-1.345,4.814h22.93l-1.345-4.814,1.885-.552Z" transform="translate(-10.083 -27.922)" fill="#a1a1a1"/>
      </g>
      <g id="Group_10958" data-name="Group 10958" transform="translate(4.91 36.416)">
        <path id="Path_20631" data-name="Path 20631" d="M5.208,39.745H8.154v2.006H5.208Z" transform="translate(-5.208 -39.745)" fill="#a1a1a1"/>
      </g>
      <g id="Group_10959" data-name="Group 10959" transform="translate(10.802 36.416)">
        <path id="Path_20632" data-name="Path 20632" d="M11.458,39.745H14.4v2.006H11.458Z" transform="translate(-11.458 -39.745)" fill="#a1a1a1"/>
      </g>
      <g id="Group_10960" data-name="Group 10960" transform="translate(16.694 36.416)">
        <path id="Path_20633" data-name="Path 20633" d="M17.708,39.745h2.946v2.006H17.708Z" transform="translate(-17.708 -39.745)" fill="#a1a1a1"/>
      </g>
      <g id="Group_10961" data-name="Group 10961" transform="translate(22.587 36.416)">
        <path id="Path_20634" data-name="Path 20634" d="M23.958,39.745H26.9v2.006H23.958Z" transform="translate(-23.958 -39.745)" fill="#a1a1a1"/>
      </g>
      <g id="Group_10962" data-name="Group 10962" transform="translate(28.479 36.416)">
        <path id="Path_20635" data-name="Path 20635" d="M30.208,39.745h2.946v2.006H30.208Z" transform="translate(-30.208 -39.745)" fill="#a1a1a1"/>
      </g>
      <g id="Group_10963" data-name="Group 10963" transform="translate(34.371 36.416)">
        <path id="Path_20636" data-name="Path 20636" d="M36.458,39.745H39.4v2.006H36.458Z" transform="translate(-36.458 -39.745)" fill="#a1a1a1"/>
      </g>
      <g id="Group_10964" data-name="Group 10964" transform="translate(40.263 36.416)">
        <path id="Path_20637" data-name="Path 20637" d="M42.708,39.745h2.946v2.006H42.708Z" transform="translate(-42.708 -39.745)" fill="#a1a1a1"/>
      </g>
    </g>
  </g>
</svg>
