<svg xmlns="http://www.w3.org/2000/svg" width="241.549" height="60.033" viewBox="0 0 241.549 60.033">
  <g id="Logo" transform="translate(-5528.633 -47.846)">
    <g id="Group_10190" data-name="Group 10190" transform="translate(5528.633 47.846)">
      <path id="Path_20000" data-name="Path 20000" d="M5620.447,171.563a1.8,1.8,0,0,0,1.775,1.773h9.232a1.165,1.165,0,0,1,.762.285q4.174,3.627,8.354,7.251c.448.39.885.772,1.331,1.158a1.775,1.775,0,0,0,2.511-2.509q-4.055-3.523-8.1-7.034c-.629-.547-1.267-1.1-1.9-1.649a3.074,3.074,0,0,0-1.879-1.054c-1.6-.06-3.217,0-4.818,0h-2.556a1.162,1.162,0,0,1-1.163-1.162v-1.77a.581.581,0,0,0-.581-.581h-2.4a.582.582,0,0,0-.582.575c-.006.982-.02,3.028.006,4.6Z" transform="translate(-5599.259 -122.504)" fill="#00adee"/>
      <g id="Group_10188" data-name="Group 10188" transform="translate(8.037 19.777)">
        <g id="Group_10187" data-name="Group 10187">
          <g id="Group_10184" data-name="Group 10184">
            <rect id="Rectangle_9157" data-name="Rectangle 9157" width="8.775" height="3.199" rx="1.6" fill="#224099"/>
          </g>
          <g id="Group_10185" data-name="Group 10185" transform="translate(0 11.745)">
            <rect id="Rectangle_9158" data-name="Rectangle 9158" width="8.775" height="3.199" rx="1.6" fill="#224099"/>
          </g>
          <g id="Group_10186" data-name="Group 10186" transform="translate(0 5.873)">
            <rect id="Rectangle_9159" data-name="Rectangle 9159" width="8.775" height="3.199" rx="1.6" fill="#224099"/>
          </g>
        </g>
      </g>
      <path id="Path_20001" data-name="Path 20001" d="M5610.354,115.684a.387.387,0,0,1,.585.333v14.439a1.8,1.8,0,0,1-1.772,1.773h-10.717a1.168,1.168,0,0,0-.8.319c-.152.144-.306.288-.458.429q-2.922,2.751-5.845,5.5-1.827,1.719-3.66,3.446a1.775,1.775,0,1,1-2.508-2.513q1.876-1.762,3.749-3.527l5.407-5.087c.508-.479,1.015-.953,1.521-1.432a2.138,2.138,0,0,1,1.426-.683c.144,0,.277,0,.416,0h8.512a1.165,1.165,0,0,0,1.163-1.147c.007-.586.018-1.172.018-1.756v-7.664a1.159,1.159,0,0,1,.564-1c.415-.249.828-.5,1.243-.743Z" transform="translate(-5576.627 -90.46)" fill="#034ea1"/>
      <path id="Path_20002" data-name="Path 20002" d="M5597.092,53.992v8a1.161,1.161,0,0,1-.567,1l-2.4,1.432a.387.387,0,0,1-.585-.332V53.441a.774.774,0,0,0-1.121-.693l-.009.006q-3.834,1.924-7.668,3.847l-8.9,4.461-7.33,3.676q-.774.386-1.549.776a1.163,1.163,0,0,0-.638,1.038v17.9a1.162,1.162,0,0,0,1.163,1.162h5.31a1.775,1.775,0,0,1,0,3.549h-8.245a1.8,1.8,0,0,1-1.777-1.773V64.744a1.757,1.757,0,0,1,.877-1.533c.021-.01.037-.017.055-.027,1.222-.671,2.5-1.255,3.75-1.88q3.83-1.924,7.667-3.847l8.9-4.464q3.658-1.838,7.327-3.673,1.531-.771,3.063-1.539a1.8,1.8,0,0,1,2.671,1.533v.063C5597.132,50.914,5597.092,52.456,5597.092,53.992Z" transform="translate(-5562.781 -47.573)" fill="#224099"/>
      <path id="Path_20003" data-name="Path 20003" d="M5680.135,136.143v10.095l-5.2.318v-12.4Z" transform="translate(-5633.748 -102.243)" fill="#00adee"/>
      <g id="Group_10189" data-name="Group 10189" transform="translate(21.179 16.249)">
        <path id="Path_20004" data-name="Path 20004" d="M5653.925,102.531a2.008,2.008,0,0,0-1.094-1.693q-3.756-2.3-7.526-4.6c-2.4-1.464-4.78-2.968-7.2-4.4-.044-.028-.085-.052-.13-.076a1.762,1.762,0,0,0-1.79,0q-3.109,1.858-6.221,3.72a.608.608,0,0,0-.068.04c-1.183.708-2.369,1.415-3.55,2.123q-2.276,1.357-4.544,2.715a4.746,4.746,0,0,0-.835.563,2.054,2.054,0,0,0-.521,1.665v8.1a.387.387,0,0,0,.388.387h2.581a.582.582,0,0,0,.583-.581v-6.652a1.163,1.163,0,0,1,.565-1q.893-.533,1.784-1.066t1.81-1.082c.583-.35,1.158-.692,1.74-1.041q3.123-1.864,6.245-3.736c.111-.064.22-.129.33-.195a1.158,1.158,0,0,1,1.2.007l3.6,2.2q4.061,2.485,8.116,4.966l.433.263a1.165,1.165,0,0,1,.555.992v17.167a1.162,1.162,0,0,1-1.163,1.162h-3.648a1.775,1.775,0,0,0,0,3.551h6.591a1.8,1.8,0,0,0,1.769-1.773V103.234C5653.925,103,5653.933,102.764,5653.925,102.531Z" transform="translate(-5620.45 -91.513)" fill="#00adee"/>
      </g>
    </g>
    <text id="RealEzy" transform="translate(5681.183 93.858)" fill="#224099" font-size="44" font-family="Gotham-Medium, Gotham" font-weight="500"><tspan x="-88" y="0">Real</tspan><tspan y="0" fill="#00adee">Ezy</tspan></text>
  </g>
</svg>
