<svg xmlns="http://www.w3.org/2000/svg" width="32" height="32" viewBox="0 0 32 32">
  <path id="right_1_" data-name="right (1)" d="M28.238,3.762C25.85,1.3,21.964.107,16.009,0h-.019C10.036.108,6.149,1.3,3.762,3.762,1.3,6.15.107,10.036,0,15.991v.019c.108,5.955,1.3,9.841,3.762,12.229C6.149,30.7,10.036,31.892,15.991,32h.019c5.954-.108,9.841-1.3,12.229-3.761C30.7,25.851,31.892,21.964,32,16.009v-.019c-.108-5.954-1.3-9.841-3.762-12.229Zm-4.9,12.244a.515.515,0,0,1-.151.37l-4.531,4.531a.514.514,0,0,1-.728-.727l3.666-3.666H9.179a.514.514,0,1,1,0-1.028H21.567L17.9,11.82a.514.514,0,0,1,.727-.727l4.484,4.483a.514.514,0,0,1,.224.424Z" fill="#00adee"/>
</svg>
