<svg xmlns="http://www.w3.org/2000/svg" width="60" height="60" viewBox="0 0 60 60">
  <path id="right" d="M16.247,30v.012a.959.959,0,0,0,.281.694l8.5,8.5a.964.964,0,0,0,1.364-1.363l-6.874-6.874H42.79a.964.964,0,1,0,0-1.929H19.562l6.874-6.874A.964.964,0,0,0,25.073,20.8L16.668,29.2a.961.961,0,0,0-.421.8ZM7.054,7.054C2.443,11.531.2,18.818,0,29.982v.035C.2,41.183,2.443,48.47,7.054,52.946,11.531,57.557,18.818,59.8,29.982,60h.035c11.166-.2,18.452-2.443,22.929-7.054C57.557,48.47,59.8,41.183,60,30.018v-.035c-.2-11.166-2.443-18.452-7.054-22.929C48.469,2.443,41.182.2,30.018,0h-.035C18.818.2,11.531,2.443,7.054,7.054ZM1.929,30C2.122,19.379,4.181,12.524,8.407,8.427l.021-.021C12.524,4.18,19.379,2.122,30,1.929c10.621.193,17.476,2.252,21.573,6.478l.021.021c4.226,4.1,6.284,10.95,6.477,21.572-.193,10.622-2.252,17.476-6.478,21.573l-.021.021C47.476,55.82,40.621,57.878,30,58.072c-10.621-.193-17.476-2.252-21.573-6.478L8.4,51.573C4.181,47.476,2.122,40.622,1.929,30Z" fill="#00adee"/>
</svg>
