<svg xmlns="http://www.w3.org/2000/svg" width="33.246" height="43.646" viewBox="0 0 33.246 43.646">
  <g id="shield" transform="translate(-61)">
    <path id="Path_20954" data-name="Path 20954" d="M181,160.166V170.2h2.557v-5.115h7.672V170.2h2.557v-10.03l-6.393-4.973Z" transform="translate(-109.77 -141.963)" fill="#034ea1"/>
    <path id="Path_20955" data-name="Path 20955" d="M241,301.194h2.557v2.557H241Z" transform="translate(-164.656 -275.518)" fill="#034ea1"/>
    <path id="Path_20956" data-name="Path 20956" d="M77.623,0,61,8.311v12.7a23.689,23.689,0,0,0,16.218,22.5l.4.135.4-.135a23.689,23.689,0,0,0,16.218-22.5V8.311ZM88.346,21.57l-1.772-1.378v10.6h-17.9v-10.6L66.9,21.57l-1.571-2.018L77.623,9.99l3.836,2.984V10.331h2.557v4.632l5.9,4.589Z" transform="translate(0)" fill="#034ea1"/>
  </g>
</svg>
