<svg xmlns="http://www.w3.org/2000/svg" width="19.004" height="18" viewBox="0 0 19.004 18">
  <g id="Group_36046" data-name="Group 36046" transform="translate(-3 -3)">
    <path id="Path_24442" data-name="Path 24442" d="M7,21H17a4,4,0,0,0,4-4V12.15a1,1,0,0,0-2,0V17a2,2,0,0,1-2,2H7a2,2,0,0,1-2-2V7A2,2,0,0,1,7,5h5a1,1,0,0,0,0-2H7A4,4,0,0,0,3,7V17A4,4,0,0,0,7,21Z" fill="#505050"/>
    <path id="Path_24443" data-name="Path 24443" d="M20.29,4.29,12,12.59,8.71,9.29a1,1,0,0,0-1.42,1.42l4,4a1,1,0,0,0,1.42,0l9-9a1,1,0,1,0-1.42-1.42Z" fill="#505050"/>
  </g>
</svg>
