<svg id="undraw_house_searching_re_stk8" xmlns="http://www.w3.org/2000/svg" width="580" height="295.575" viewBox="0 0 580 295.575">
  <circle id="Ellipse_563" data-name="Ellipse 563" cx="28.51" cy="28.51" r="28.51" transform="translate(129.849 179.383)" fill="rgba(0,173,238,0.45)"/>
  <path id="Path_21205" data-name="Path 21205" d="M230.146,331.458a28.512,28.512,0,0,0,47.506,30.174,28.513,28.513,0,1,1-47.506-30.174Z" transform="translate(-92.838 -142.607)" fill="rgba(3,78,161,0.4)" opacity="0.2"/>
  <path id="Path_21206" data-name="Path 21206" d="M158.438,207.893h.078l1.41,80.831h-2.977Z" fill="#00448f"/>
  <circle id="Ellipse_564" data-name="Ellipse 564" cx="57.482" cy="57.482" r="57.482" transform="translate(43.193 68.273)" fill="rgba(0,173,238,0.45)"/>
  <path id="Path_21207" data-name="Path 21207" d="M151.071,229.968a57.486,57.486,0,0,0,95.781,60.837,57.487,57.487,0,1,1-95.781-60.837Z" transform="translate(-92.838 -142.607)" fill="rgba(3,78,161,0.4)" opacity="0.2"/>
  <path id="Path_21208" data-name="Path 21208" d="M100.833,125.754h.158l2.843,162.97h-6Z" fill="#00448f"/>
  <rect id="Rectangle_9919" data-name="Rectangle 9919" width="263.471" height="78.104" transform="translate(216.182 204.372)" fill="#e1e1e1"/>
  <rect id="Rectangle_9920" data-name="Rectangle 9920" width="30.721" height="61.962" transform="translate(332.556 220.513)" fill="#00adee"/>
  <rect id="Rectangle_9921" data-name="Rectangle 9921" width="232.75" height="71.856" transform="translate(231.542 112.209)" fill="#f0f0f0"/>
  <path id="Path_21209" data-name="Path 21209" d="M580.727,259.242H300.784a2.343,2.343,0,0,1-1.624-4.032l76.508-73.541V149.637a2.346,2.346,0,0,1,2.343-2.343h15.1a2.346,2.346,0,0,1,2.343,2.343v13.014l5.779-5.555a51.921,51.921,0,0,1,70.7-1.176l110.362,99.236a2.343,2.343,0,0,1-1.567,4.086Z" transform="translate(-92.838 -142.607)" fill="#00adee"/>
  <path id="Path_21210" data-name="Path 21210" d="M292.984,130.434h0a14.84,14.84,0,0,1,14.84,14.84V165.32H278.144V145.273a14.84,14.84,0,0,1,14.839-14.84Z" fill="#fff"/>
  <path id="Path_21211" data-name="Path 21211" d="M347.917,130.694h0a14.84,14.84,0,0,1,14.84,14.84V165.58h-29.68V145.534A14.84,14.84,0,0,1,347.917,130.694Z" fill="#fff"/>
  <path id="Path_21212" data-name="Path 21212" d="M402.85,130.954h0a14.84,14.84,0,0,1,14.84,14.84v20.047H388.01V145.794A14.84,14.84,0,0,1,402.85,130.954Z" fill="#fff"/>
  <path id="Path_21213" data-name="Path 21213" d="M424.719,219.732h0a14.84,14.84,0,0,1,14.84,14.84v20.047H409.879V234.572A14.84,14.84,0,0,1,424.719,219.732Z" fill="#fff"/>
  <path id="Path_21214" data-name="Path 21214" d="M277.884,219.732h0a14.84,14.84,0,0,1,14.84,14.84v20.047H263.044V234.572a14.84,14.84,0,0,1,14.839-14.84Z" fill="#fff"/>
  <path id="Path_21215" data-name="Path 21215" d="M610.982,348.2l-49.424-21.869a2.083,2.083,0,0,0-.843-.178H325.169a2.082,2.082,0,0,0-.785.153l-53.8,21.869a2.083,2.083,0,0,0,.784,4.012h13.958v71.856h-1.562v7.29H597.744v-7.29h-2.6V352.186h15a2.083,2.083,0,0,0,.843-3.987Zm-20.007,75.843H289.494V352.186H590.975Z" transform="translate(-92.838 -142.607)" fill="#00adee"/>
  <rect id="Rectangle_9922" data-name="Rectangle 9922" width="38.011" height="6.248" transform="translate(273.458 162.456)" fill="#00adee"/>
  <rect id="Rectangle_9923" data-name="Rectangle 9923" width="38.011" height="6.248" transform="translate(329.172 162.456)" fill="#cacaca"/>
  <rect id="Rectangle_9924" data-name="Rectangle 9924" width="38.011" height="6.248" transform="translate(384.886 162.456)" fill="#00adee"/>
  <rect id="Rectangle_9925" data-name="Rectangle 9925" width="38.011" height="6.248" transform="translate(405.714 252.535)" fill="#00adee"/>
  <rect id="Rectangle_9926" data-name="Rectangle 9926" width="38.011" height="6.248" transform="translate(258.358 252.535)" fill="#00adee"/>
  <path id="Path_21217" data-name="Path 21217" d="M526.636,253.745c0,.408-.006.823-.013,1.231-.006.491-.019.976-.038,1.468-.019.428-.038.849-.064,1.27-.077,1.41-.2,2.814-.364,4.224-.038.357-.083.708-.134,1.066-.038.274-.077.555-.121.836-.045.313-.089.625-.141.938q-.153,1-.345,1.991c-.064.332-.127.664-.2,1-.134.657-.281,1.321-.434,1.978-.013.051-.026.108-.038.16-.077.325-.153.644-.236.97-.026.1-.045.185-.076.281-.057.242-.121.485-.185.727-.089.338-.179.67-.274,1.008-.153.523-.306,1.04-.466,1.563a1.658,1.658,0,0,0-.051.166c-.306.989-.632,1.965-.989,2.935-.185.51-.383,1.027-.581,1.538s-.4,1.021-.613,1.525-.415.983-.625,1.467c-.051.115-.1.23-.159.345-.223.5-.453,1-.689,1.487-.006.006-.006.019-.013.026-.185.4-.383.791-.581,1.18a.048.048,0,0,1-.013.032c-.191.383-.389.766-.593,1.142l-.325.619-.038.07c-.408.759-.829,1.512-1.276,2.259-.1.166-.191.332-.287.491s-.2.332-.3.491q-.1.172-.211.345c-.134.217-.268.44-.408.657-.026.045-.057.089-.083.134-.243.376-.485.747-.727,1.123-.3.453-.606.9-.919,1.346l-6.929,11.09-.3-.249-.083-.077h-.006l-.274-.23-.753-.638c-.23.223-.453.447-.683.664-.089.089-.185.172-.274.262-.07.064-.134.128-.2.191a66.817,66.817,0,0,1-44.652,18.982h-.019a72.929,72.929,0,0,1-36.389-8.588c-.249-.128-.491-.255-.734-.4-1.455-.791-2.878-1.627-4.275-2.52-.006-.006-.013-.006-.019-.013q-2.431-1.723-4.747-3.675a70.14,70.14,0,0,1-24.84-57.292c.019-.428.045-.849.076-1.276q.153-2.316.472-4.613c.057-.428.121-.855.185-1.276H525.985q.4,2.929.555,5.889C526.6,251.289,526.636,252.514,526.636,253.745Z" transform="translate(-92.838 -142.607)" fill="#f0f0f0"/>
  <path id="Path_21218" data-name="Path 21218" d="M525.985,244.168a68.97,68.97,0,0,0-136.405,0c-.064.421-.128.849-.185,1.276q-.316,2.3-.472,4.613H526.541Q526.387,247.1,525.985,244.168Z" transform="translate(-92.838 -142.607)" fill="rgba(3,78,161,0.4)"/>
  <path id="Path_21219" data-name="Path 21219" d="M462.251,315.233h-39.52V283.619c.729-14.448,13.078-15.614,24.681-14.839a14.839,14.839,0,0,1,14.84,14.84Z" transform="translate(-92.838 -142.607)" fill="#0187cf"/>
  <path id="Path_21220" data-name="Path 21220" d="M422.727,292.756v.006c0,.006.006.006.013.006Zm-15.894-48.589c-.026.16-.057.319-.083.479.026-.16.057-.319.089-.479Zm-.791,5.889c-.019.242-.038.485-.051.727q.019-.364.057-.727a.94.94,0,0,1,.006-.134c-.006.045-.006.089-.013.134Zm16.685,42.706c0,.006.006.006.013.006l-.013-.013Zm-15.894-48.595c-.026.16-.057.319-.083.479.026-.16.057-.319.089-.479Zm-.842,6.617q.019-.364.057-.727a.941.941,0,0,1,.006-.134c-.006.045-.006.089-.013.134-.019.242-.038.485-.051.727ZM603.115,368.163a4.323,4.323,0,0,0-.4-.37l-.006-.006-31.6-26.665-.817-.689-3.107-2.622-.779-.657-4.428-3.739-1.212-1.021-2.507-2.118-1.283-1.085-12.1-10.2-6.936-5.851-.932-.785L516.58,295.1c.313-.447.619-.893.919-1.346.243-.376.485-.747.727-1.123.025-.045.057-.089.083-.134.14-.217.274-.44.408-.657q.115-.172.211-.345c.1-.16.2-.325.3-.491s.191-.325.287-.491c.447-.747.868-1.5,1.276-2.259l.038-.07.325-.619c.2-.376.4-.759.593-1.142a.048.048,0,0,0,.013-.032c.2-.389.4-.785.581-1.18.006-.006.006-.019.013-.026.236-.491.466-.983.689-1.487.057-.115.108-.23.16-.345.21-.485.421-.976.625-1.467s.415-1.015.613-1.525.4-1.027.581-1.538q.526-1.464.989-2.935a1.658,1.658,0,0,1,.051-.166c.159-.523.313-1.04.466-1.563.1-.338.185-.67.274-1.008.064-.242.128-.485.185-.727.032-.1.051-.185.076-.281.083-.325.16-.644.236-.97.013-.051.026-.108.038-.16.153-.657.3-1.321.434-1.978.07-.332.134-.664.2-1,.121-.664.243-1.327.345-1.991.051-.313.1-.625.141-.938.045-.281.083-.561.121-.836.051-.357.1-.708.134-1.066.166-1.41.287-2.814.364-4.224.025-.421.045-.842.064-1.27.019-.491.032-.976.038-1.467.006-.408.013-.823.013-1.232,0-1.231-.032-2.457-.1-3.688q-.153-2.957-.555-5.889a70.22,70.22,0,0,0-138.958-1.276c-.064.421-.128.849-.185,1.276q-.316,2.3-.472,4.613c-.032.428-.057.849-.076,1.276a70.14,70.14,0,0,0,24.84,57.292q2.316,1.953,4.747,3.675c.006.006.013.006.019.013.542.383,1.085.759,1.633,1.129.874.574,1.755,1.136,2.642,1.672.07.038.141.083.211.121.766.459,1.538.9,2.31,1.327h.006a69.009,69.009,0,0,0,8.927,4.109A70.432,70.432,0,0,0,462.4,325.1h.019a70.034,70.034,0,0,0,31.846-9.424c1.41-.817,2.8-1.691,4.16-2.622.338-.23.683-.466,1.014-.7.408-.287.817-.587,1.225-.887.006,0,.006-.006.013-.006a.927.927,0,0,1,.1-.07c.274-.211.555-.421.823-.625.07-.051.14-.1.21-.16a.307.307,0,0,0,.051-.045c.16-.115.313-.242.472-.364s.313-.249.472-.376a.606.606,0,0,0,.077-.057c.179-.147.357-.287.536-.434s.364-.3.536-.447.351-.293.53-.447c.153-.128.313-.262.466-.4.051-.038.1-.083.147-.128a.455.455,0,0,1,.064-.051c.211-.179.415-.364.619-.549.051-.045.1-.089.147-.134.313-.281.625-.561.932-.855l.217-.2c.07-.064.134-.128.2-.191.089-.089.185-.172.274-.262.23-.217.453-.44.683-.664l.753.638.274.23h.006l.083.077.3.249,4.454,3.765.1.083.077.057.5.427,1.008.855,1.008.849.147.121,4.69,3.956.651.549,4.524,3.816,23.417,19.761.817.689,32.05,27.041,8.218,6.936,3.056,2.578a6.466,6.466,0,0,0,9.118-.766,6.278,6.278,0,0,0,1.078-1.812,6.439,6.439,0,0,0-1.448-6.936ZM418.287,220.253a52.606,52.606,0,0,1,91.849,23.915c.083.428.16.849.23,1.276.262,1.525.453,3.069.568,4.613.032.428.064.849.083,1.276.057.957.083,1.921.083,2.878a52.371,52.371,0,0,1-2.846,17.062v.006a52.326,52.326,0,0,1-9.552,16.832c-.089.1-.179.211-.274.313-.842,1-1.729,1.952-2.642,2.865-.006.006-.013.019-.019.026-.313.313-.632.632-.951.925-.651.632-1.314,1.231-1.991,1.806q-1.522,1.33-3.12,2.495c-.357.262-.715.517-1.078.772s-.721.5-1.085.74c-.727.485-1.468.951-2.214,1.391-.37.223-.753.44-1.129.651s-.759.421-1.142.619-.766.4-1.155.593c-.772.389-1.551.753-2.342,1.091q-.593.268-1.187.5c-.249.1-.491.2-.74.294a2.4,2.4,0,0,1-.3.115q-.2.086-.4.153a1.158,1.158,0,0,1-.134.051c-.275.108-.542.2-.823.3-.4.147-.8.281-1.212.408s-.81.262-1.219.376-.823.242-1.232.351-.823.223-1.238.319c-.44.115-.88.217-1.327.313-.389.089-.772.166-1.161.236-.364.076-.734.14-1.1.2-.51.089-1.021.172-1.538.242-.281.045-.555.083-.836.108-.121.019-.236.032-.351.045-.357.051-.715.089-1.066.121-.1.006-.185.019-.274.026-.389.038-.785.07-1.174.1-.836.057-1.665.1-2.5.115-.421.006-.849.013-1.27.013s-.842-.006-1.263-.019c0,0,0,.006-.006,0s-.006.006-.013,0a.009.009,0,0,1-.013,0,.109.109,0,0,1-.064,0c-.3,0-.6-.013-.893-.032-.217-.006-.44-.013-.664-.032q-.45-.019-.9-.057c-.1,0-.191-.013-.287-.019a.952.952,0,0,1-.134-.013c-.306-.026-.619-.051-.925-.083-.153-.013-.312-.025-.466-.045-.466-.051-.932-.108-1.391-.172-.523-.064-1.046-.14-1.563-.236-.242-.032-.479-.077-.715-.121q-.469-.077-.938-.172c-.326-.064-.651-.128-.976-.2-.262-.057-.529-.115-.791-.179-.128-.026-.255-.057-.376-.089-.67-.16-1.334-.332-1.991-.523-.415-.115-.829-.236-1.238-.364-.562-.172-1.117-.357-1.672-.555-.217-.07-.428-.147-.645-.23s-.427-.153-.644-.236c-.2-.07-.4-.147-.587-.223-.319-.121-.632-.249-.944-.376-.644-.262-1.276-.536-1.908-.829-.357-.172-.715-.338-1.066-.51q-2.077-1-4.09-2.233c-.332-.2-.663-.408-1-.619-.415-.255-.817-.523-1.219-.791-.223-.153-.44-.3-.657-.453-.4-.281-.8-.568-1.187-.855-.2-.147-.408-.3-.606-.453-.708-.536-1.4-1.1-2.086-1.672-.325-.274-.651-.555-.97-.842-.134-.115-.268-.236-.4-.357-.153-.14-.306-.274-.453-.421l-.013-.013c-.223-.2-.447-.408-.664-.619-.338-.319-.67-.644-.989-.976s-.651-.664-.963-1-.625-.67-.925-1.015-.606-.683-.9-1.034c-.287-.332-.568-.676-.836-1.015q-.976-1.206-1.863-2.457c-.274-.383-.536-.766-.791-1.155-.274-.4-.536-.8-.785-1.2s-.51-.81-.753-1.225a.134.134,0,0,0-.025-.038c-.479-.81-.938-1.627-1.366-2.457s-.855-1.693-1.244-2.552c-.2-.428-.389-.861-.568-1.3-.37-.874-.715-1.748-1.034-2.635-.16-.427-.306-.855-.453-1.289a.316.316,0,0,0-.026-.083c-.294-.881-.561-1.767-.8-2.661-.006-.013-.006-.025-.013-.038-.121-.44-.236-.881-.338-1.327-.1-.389-.191-.778-.275-1.174-.1-.44-.191-.881-.274-1.327-.045-.23-.089-.459-.128-.689-.038-.191-.07-.389-.1-.581s-.064-.389-.1-.587q-.1-.584-.172-1.168c-.064-.459-.115-.919-.166-1.385-.057-.555-.108-1.11-.153-1.672-.032-.377-.051-.759-.07-1.142-.019-.351-.038-.7-.045-1.053a.088.088,0,0,1,0-.057.009.009,0,0,1,0-.006.009.009,0,0,1,0-.006c-.006-.006-.006-.006,0-.013a.009.009,0,0,1,0-.013c-.006-.14-.013-.281-.013-.421q-.019-.622-.019-1.244c0-.377.006-.747.013-1.123q.019-.785.057-1.57c0-.115.013-.223.019-.338s.013-.223.019-.338q.019-.364.057-.727a.94.94,0,0,1,.006-.134c.019-.274.045-.549.07-.823.051-.549.115-1.1.185-1.653.038-.274.07-.549.115-.823.026-.191.057-.389.089-.587s.057-.4.1-.593c.045-.262.089-.53.14-.8.025-.16.057-.319.089-.479q.182-.957.4-1.914c.147-.644.313-1.283.491-1.921s.364-1.289.568-1.933c.1-.325.2-.644.313-.963.21-.644.434-1.283.683-1.914.115-.313.236-.632.37-.944.255-.632.523-1.263.8-1.882.14-.313.281-.625.434-.938.287-.619.587-1.238.913-1.844s.651-1.225,1-1.825.7-1.2,1.078-1.793c.172-.294.364-.593.561-.881.383-.587.785-1.174,1.193-1.748C416.462,222.506,417.349,221.363,418.287,220.253Zm-12.244,29.8c-.019.242-.038.485-.051.727q.019-.364.057-.727a.941.941,0,0,1,.006-.134C406.048,249.968,406.048,250.013,406.042,250.057Zm.791-5.889c-.026.16-.057.319-.083.479.026-.16.057-.319.089-.479Zm15.894,48.589v.006c0,.006.006.006.013.006Z" transform="translate(-92.838 -142.607)" fill="#00448f"/>
  <path id="Path_21221" data-name="Path 21221" d="M424.566,294.389a52.612,52.612,0,0,1-8.927-70.723q-1.509,1.519-2.917,3.183A52.609,52.609,0,1,0,493.137,294.7q1.405-1.665,2.647-3.411A52.611,52.611,0,0,1,424.566,294.389Z" transform="translate(-92.838 -142.607)" opacity="0.3"/>
  <rect id="Rectangle_9927" data-name="Rectangle 9927" width="580" height="7" rx="3.5" transform="translate(0 288.575)" fill="#034ea1"/>
</svg>
