<svg id="building" xmlns="http://www.w3.org/2000/svg" width="48.14" height="48.14" viewBox="0 0 48.14 48.14">
  <g id="Group_10967" data-name="Group 10967" transform="translate(0)">
    <g id="Group_10966" data-name="Group 10966">
      <path id="Path_20638" data-name="Path 20638" d="M32.6,37.333H10.136a.8.8,0,0,0-.8.8v1.6a.8.8,0,0,0,1.6,0v-.8H32.6a.8.8,0,0,0,0-1.6Z" transform="translate(1.899 7.598)" fill="#a1a1a1"/>
      <path id="Path_20639" data-name="Path 20639" d="M14.667,17.616a.8.8,0,0,0,.8.8h3.209a.8.8,0,0,0,.8-.8V12.8a.8.8,0,0,0-.8-.8H15.469a.8.8,0,0,0-.8.8v4.814Zm1.6-4.012h1.6v3.209h-1.6Z" transform="translate(2.985 2.442)" fill="#a1a1a1"/>
      <path id="Path_20640" data-name="Path 20640" d="M10.43,8H.8a.8.8,0,0,0-.8.8V24.849a.8.8,0,1,0,1.6,0V9.6H10.43a.8.8,0,0,0,0-1.6Z" transform="translate(0 1.628)" fill="#a1a1a1"/>
      <path id="Path_20641" data-name="Path 20641" d="M32,33.616a.8.8,0,0,0,.8.8h3.209a.8.8,0,0,0,.8-.8V28.8a.8.8,0,0,0-.8-.8H32.8a.8.8,0,0,0-.8.8ZM33.6,29.6h1.6v3.209H33.6Z" transform="translate(6.512 5.698)" fill="#a1a1a1"/>
      <path id="Path_20642" data-name="Path 20642" d="M4.012,24C.046,24,0,34.326,0,34.43a4.019,4.019,0,0,0,3.209,3.931v4.093a.8.8,0,1,0,1.6,0V38.361A4.019,4.019,0,0,0,8.023,34.43C8.023,34.326,7.978,24,4.012,24Zm0,12.837A2.41,2.41,0,0,1,1.6,34.43c0-4,1.074-8.826,2.407-8.826s2.407,4.829,2.407,8.826A2.41,2.41,0,0,1,4.012,36.837Z" transform="translate(0 4.884)" fill="#a1a1a1"/>
      <path id="Path_20643" data-name="Path 20643" d="M8.012,20H4.8a.8.8,0,0,0-.8.8v1.6a.8.8,0,1,0,1.6,0v-.8h1.6v4.012a.8.8,0,0,0,1.6,0V20.8A.8.8,0,0,0,8.012,20Z" transform="translate(0.814 4.07)" fill="#a1a1a1"/>
      <path id="Path_20644" data-name="Path 20644" d="M32.8,18.419h3.209a.8.8,0,0,0,.8-.8V12.8a.8.8,0,0,0-.8-.8H32.8a.8.8,0,0,0-.8.8v4.814A.8.8,0,0,0,32.8,18.419Zm.8-4.814h1.6v3.209H33.6Z" transform="translate(6.512 2.442)" fill="#a1a1a1"/>
      <path id="Path_20645" data-name="Path 20645" d="M8.012,12H4.8a.8.8,0,0,0-.8.8v4.814a.8.8,0,0,0,.8.8H8.012a.8.8,0,0,0,.8-.8V12.8A.8.8,0,0,0,8.012,12Zm-.8,4.814H5.6V13.6h1.6v3.209Z" transform="translate(0.814 2.442)" fill="#a1a1a1"/>
      <path id="Path_20646" data-name="Path 20646" d="M21.333,17.616a.8.8,0,0,0,.8.8h3.209a.8.8,0,0,0,.8-.8V12.8a.8.8,0,0,0-.8-.8H22.136a.8.8,0,0,0-.8.8Zm1.6-4.012h1.6v3.209h-1.6Z" transform="translate(4.342 2.442)" fill="#a1a1a1"/>
      <path id="Path_20647" data-name="Path 20647" d="M41.1,8H31.469a.8.8,0,1,0,0,1.6h8.826V41.846a2.293,2.293,0,0,0-1.215-.112,3.2,3.2,0,0,0-5.594,0,2.361,2.361,0,0,0-.412-.036,2.407,2.407,0,1,0,0,4.814h6.419A2.41,2.41,0,0,0,41.9,44.105V8.8A.8.8,0,0,0,41.1,8Zm-1.6,36.908H33.074a.8.8,0,1,1,0-1.6.793.793,0,0,1,.435.131.8.8,0,0,0,1.216-.493,1.6,1.6,0,0,1,3.116,0,.8.8,0,0,0,1.216.493.818.818,0,0,1,1.237.672A.8.8,0,0,1,39.492,44.908Z" transform="translate(6.241 1.628)" fill="#a1a1a1"/>
      <path id="Path_20648" data-name="Path 20648" d="M22.136,10.419h3.209a.8.8,0,0,0,.8-.8V4.8a.8.8,0,0,0-.8-.8H22.136a.8.8,0,0,0-.8.8V9.616A.8.8,0,0,0,22.136,10.419Zm.8-4.814h1.6V8.814h-1.6V5.6Z" transform="translate(4.342 0.814)" fill="#a1a1a1"/>
      <path id="Path_20649" data-name="Path 20649" d="M21.333,25.616a.8.8,0,0,0,.8.8h3.209a.8.8,0,0,0,.8-.8V20.8a.8.8,0,0,0-.8-.8H22.136a.8.8,0,0,0-.8.8Zm1.6-4.012h1.6v3.209h-1.6Z" transform="translate(4.342 4.07)" fill="#a1a1a1"/>
      <path id="Path_20650" data-name="Path 20650" d="M15.469,10.419h3.209a.8.8,0,0,0,.8-.8V4.8a.8.8,0,0,0-.8-.8H15.469a.8.8,0,0,0-.8.8V9.616A.8.8,0,0,0,15.469,10.419Zm.8-4.814h1.6V8.814h-1.6Z" transform="translate(2.985 0.814)" fill="#a1a1a1"/>
      <path id="Path_20651" data-name="Path 20651" d="M19.566,32.231a.8.8,0,1,0,1.139,0A.844.844,0,0,0,19.566,32.231Z" transform="translate(3.934 6.514)" fill="#a1a1a1"/>
      <path id="Path_20652" data-name="Path 20652" d="M14.667,25.616a.8.8,0,0,0,.8.8h3.209a.8.8,0,0,0,.8-.8V20.8a.8.8,0,0,0-.8-.8H15.469a.8.8,0,0,0-.8.8v4.814Zm1.6-4.012h1.6v3.209h-1.6Z" transform="translate(2.985 4.07)" fill="#a1a1a1"/>
      <path id="Path_20653" data-name="Path 20653" d="M13.333,28.8a.8.8,0,0,0,.8.8h2.407v7.221a.8.8,0,1,0,1.6,0V29.6h6.419v7.221a.8.8,0,1,0,1.6,0V29.6h2.407a.8.8,0,0,0,0-1.6H14.136A.8.8,0,0,0,13.333,28.8Z" transform="translate(2.713 5.698)" fill="#a1a1a1"/>
      <path id="Path_20654" data-name="Path 20654" d="M32,25.616a.8.8,0,0,0,.8.8h3.209a.8.8,0,0,0,.8-.8V20.8a.8.8,0,0,0-.8-.8H32.8a.8.8,0,0,0-.8.8ZM33.6,21.6h1.6v3.209H33.6Z" transform="translate(6.512 4.07)" fill="#a1a1a1"/>
      <path id="Path_20655" data-name="Path 20655" d="M32.33,0H11.469a.8.8,0,0,0-.8.8V42.524a.8.8,0,0,0,1.6,0V1.6H31.527V42.524a.8.8,0,0,0,1.6,0V.8A.8.8,0,0,0,32.33,0Z" transform="translate(2.171)" fill="#a1a1a1"/>
    </g>
  </g>
</svg>
