<svg id="house_3_" data-name="house (3)" xmlns="http://www.w3.org/2000/svg" width="44.586" height="48.14" viewBox="0 0 44.586 48.14">
  <g id="Group_10973" data-name="Group 10973" transform="translate(0)">
    <g id="Group_10972" data-name="Group 10972">
      <path id="Path_20657" data-name="Path 20657" d="M43.781,44.285h-.409a4.258,4.258,0,0,0-3.053-3.672V16.953a.672.672,0,1,0-1.343,0V40.467h-.007l-.084.007c-.052,0-.1.008-.157.014l-.1.014c-.047.007-.095.013-.142.021l-.1.02c-.045.009-.09.018-.135.029l-.1.026-.13.036-.1.032-.126.043-.1.038-.122.05-.1.043-.1.047V36.334a.816.816,0,0,0-.807-.824H33.333a.816.816,0,0,0-.807.824v4.6a.816.816,0,0,0,.807.824h2.877c-.02.021-.041.042-.061.064-.036.04-.071.082-.106.124-.017.02-.035.04-.052.061q-.077.095-.149.195c-.076.016-.15.035-.224.055l-.071.022c-.05.015-.1.031-.148.048l-.08.031c-.045.017-.089.035-.132.054l-.081.037q-.064.03-.127.064l-.075.04c-.044.025-.088.051-.131.078l-.063.039q-.085.055-.166.115l-.019.013q-.091.068-.176.142l-.047.043c-.04.036-.08.073-.119.111l-.057.058c-.034.035-.067.071-.1.107l-.056.065q-.046.055-.09.112l-.052.068c-.03.041-.058.082-.087.125-.014.022-.029.043-.043.065-.033.052-.065.106-.1.16l-.022.037q-.055.1-.1.207c-.008.018-.016.037-.024.055-.019.043-.038.086-.056.13H24.731V34.2l.254.173a1.709,1.709,0,0,0,.154.093l.033.015a1.68,1.68,0,0,0,.907.174,1.6,1.6,0,0,0,.6-.169l.022-.012c.045-.023.09-.048.133-.076h0a1.729,1.729,0,0,0,.144-.1l.02-.018a1.735,1.735,0,0,0,.435-.533,1.769,1.769,0,0,0,.067-1.5h2.749a.816.816,0,0,0,.806-.824v-4.6a.816.816,0,0,0-.806-.824H27.006a.816.816,0,0,0-.806.824v4.2l-1.468-1v-3.2a.816.816,0,0,0-.807-.824H20.679a.813.813,0,0,0-.8.725l-1.6-1.086V4.263h20.7v8.429a.672.672,0,1,0,1.343,0V4.045a1.142,1.142,0,0,0-1.129-1.153h-1.03V.987A.978.978,0,0,0,37.194,0H20.063A.978.978,0,0,0,19.1.987V2.892h-1.03a1.142,1.142,0,0,0-1.129,1.153V24.719l-.824-.56a.928.928,0,0,0-1.049,0l-2.744,1.864V25.1A1.091,1.091,0,0,0,11.242,24h-3.2a1.091,1.091,0,0,0-1.078,1.1v1.092a1.105,1.105,0,0,0,.571.971v2.116L4.3,31.471a1.758,1.758,0,0,0-.56,2.274,1.716,1.716,0,0,0,1.089.868,1.679,1.679,0,0,0,1.361-.239h0l.254-.173v3.384a.672.672,0,1,0,1.343,0v-4.3l7.8-5.3,7.8,5.3v11H14.78V36.917a.973.973,0,0,0-.961-.982H9.433a.973.973,0,0,0-.961.982v7.368H7.791V41.846a.672.672,0,1,0-1.343,0v2.439H2.97a1.928,1.928,0,0,0,0,3.855H43.781a1.928,1.928,0,0,0,0-3.855Zm-7.739-3.9H33.869V36.882h2.173Zm-8.5-13.024h2.173v3.506H27.542Zm-7.1-25.992H36.818V2.892H20.439Zm14.51,42.895.02-.024c.027-.033.056-.066.085-.1l.008-.009c.031-.033.064-.065.1-.1l.024-.022c.034-.031.069-.06.105-.089l.009-.007c.034-.026.069-.051.1-.076l.026-.017c.038-.025.077-.049.117-.071l.02-.011q.054-.029.11-.055l.024-.011q.062-.028.127-.052l.027-.01c.04-.014.08-.027.121-.039l.017-.005c.045-.012.091-.023.137-.032l.032-.006c.047-.009.095-.016.143-.021a.67.67,0,0,0,.5-.318,2.815,2.815,0,0,1,2.41-1.365c.055,0,.111,0,.168.006h.012c.056,0,.114.009.173.017h.007a2.875,2.875,0,0,1,2.446,2.43H34.935Zm-13.734-16.9h2.173V29.1l-2.173-1.476ZM8.3,25.369h2.676v.552H8.3Zm2.1,1.924h0v.032L8.873,28.366V27.292Zm5.707-.592a.935.935,0,0,0-.357-.145l-.031-.007h-.008a.925.925,0,0,0-.546.091.944.944,0,0,0-.107.061L5.45,33.232a.355.355,0,0,1-.291.051.362.362,0,0,1-.232-.185.375.375,0,0,1,.119-.485L15.59,25.45l10.542,7.162a.375.375,0,0,1,.119.485.362.362,0,0,1-.232.185.355.355,0,0,1-.291-.051l-1.3-.881Zm-6.3,10.607h3.622v6.978H9.815Zm33.966,9.462H2.97a.556.556,0,0,1,0-1.112H43.781a.556.556,0,0,1,0,1.112Z" transform="translate(-1.083 0)" fill="#fff"/>
    </g>
  </g>
  <g id="Group_10975" data-name="Group 10975" transform="translate(14.421 36.921)">
    <g id="Group_10974" data-name="Group 10974">
      <path id="Path_20658" data-name="Path 20658" d="M19.448,30.678H14.185a.875.875,0,0,0-.865.884V34.83a.679.679,0,0,0,.671.686h5.65a.679.679,0,0,0,.671-.686V31.561A.875.875,0,0,0,19.448,30.678Zm-.478,3.467H14.663v-2.1H18.97Z" transform="translate(-13.32 -30.678)" fill="#fff"/>
    </g>
  </g>
  <g id="Group_10977" data-name="Group 10977" transform="translate(18.79 6.955)">
    <g id="Group_10976" data-name="Group 10976">
      <path id="Path_20659" data-name="Path 20659" d="M21.08,5.779H17.834a.816.816,0,0,0-.806.824v4.6a.816.816,0,0,0,.806.824H21.08a.816.816,0,0,0,.806-.824V6.6h0A.816.816,0,0,0,21.08,5.779Zm-.536,4.877H18.37V7.15h2.173Z" transform="translate(-17.027 -5.779)" fill="#fff"/>
    </g>
  </g>
  <g id="Group_10979" data-name="Group 10979" transform="translate(25.117 6.955)">
    <g id="Group_10978" data-name="Group 10978">
      <path id="Path_20660" data-name="Path 20660" d="M26.448,5.779H23.2A.816.816,0,0,0,22.4,6.6v4.6a.816.816,0,0,0,.806.824h3.246a.816.816,0,0,0,.806-.824V6.6h0A.816.816,0,0,0,26.448,5.779Zm-.536,4.877H23.739V7.15h2.173Z" transform="translate(-22.396 -5.779)" fill="#fff"/>
    </g>
  </g>
  <g id="Group_10981" data-name="Group 10981" transform="translate(31.443 6.955)">
    <g id="Group_10980" data-name="Group 10980">
      <path id="Path_20661" data-name="Path 20661" d="M31.817,5.779H28.571a.816.816,0,0,0-.807.824v4.6a.816.816,0,0,0,.807.824h3.246a.816.816,0,0,0,.807-.824V6.6A.816.816,0,0,0,31.817,5.779Zm-.536,4.877H29.108V7.15h2.173Z" transform="translate(-27.765 -5.779)" fill="#fff"/>
    </g>
  </g>
  <g id="Group_10983" data-name="Group 10983" transform="translate(18.79 16.474)">
    <g id="Group_10982" data-name="Group 10982">
      <path id="Path_20662" data-name="Path 20662" d="M21.08,13.688H17.834a.816.816,0,0,0-.806.824v4.6a.816.816,0,0,0,.806.824H21.08a.816.816,0,0,0,.806-.824v-4.6A.816.816,0,0,0,21.08,13.688Zm-.536,4.877H18.37V15.059h2.173Z" transform="translate(-17.027 -13.688)" fill="#fff"/>
    </g>
  </g>
  <g id="Group_10985" data-name="Group 10985" transform="translate(25.117 16.474)">
    <g id="Group_10984" data-name="Group 10984">
      <path id="Path_20663" data-name="Path 20663" d="M26.448,13.688H23.2a.816.816,0,0,0-.806.824v4.6a.816.816,0,0,0,.806.824h3.246a.816.816,0,0,0,.806-.824v-4.6A.816.816,0,0,0,26.448,13.688Zm-.536,4.877H23.739V15.059h2.173Z" transform="translate(-22.396 -13.688)" fill="#fff"/>
    </g>
  </g>
  <g id="Group_10987" data-name="Group 10987" transform="translate(31.443 16.474)">
    <g id="Group_10986" data-name="Group 10986">
      <path id="Path_20664" data-name="Path 20664" d="M31.817,13.688H28.571a.816.816,0,0,0-.807.824v4.6a.816.816,0,0,0,.807.824h3.246a.816.816,0,0,0,.807-.824v-4.6A.816.816,0,0,0,31.817,13.688Zm-.536,4.877H29.108V15.059h2.173Z" transform="translate(-27.765 -13.688)" fill="#fff"/>
    </g>
  </g>
  <g id="Group_10989" data-name="Group 10989" transform="translate(31.443 25.992)">
    <g id="Group_10988" data-name="Group 10988">
      <path id="Path_20665" data-name="Path 20665" d="M31.817,21.6H28.571a.816.816,0,0,0-.807.824v4.6a.816.816,0,0,0,.807.824h3.246a.816.816,0,0,0,.807-.824v-4.6A.816.816,0,0,0,31.817,21.6Zm-.536,4.877H29.108V22.968h2.173Z" transform="translate(-27.765 -21.597)" fill="#fff"/>
    </g>
  </g>
  <g id="Group_10991" data-name="Group 10991" transform="translate(25.117 35.511)">
    <g id="Group_10990" data-name="Group 10990">
      <path id="Path_20666" data-name="Path 20666" d="M26.583,29.506H23.068a.679.679,0,0,0-.671.686v4.877a.679.679,0,0,0,.671.686h3.516a.679.679,0,0,0,.671-.686V30.192A.679.679,0,0,0,26.583,29.506Zm-.671,4.877H23.739V30.877h2.173Z" transform="translate(-22.396 -29.506)" fill="#fff"/>
    </g>
  </g>
</svg>
