<svg xmlns="http://www.w3.org/2000/svg" width="203" height="68.029" viewBox="0 0 203 68.029">
  <g id="Logo_W" data-name="Logo W" transform="translate(-5474.633 -17.565)">
    <g id="Group_10190" data-name="Group 10190" transform="translate(5474.633 17.566)">
      <path id="Path_20000" data-name="Path 20000" d="M5620.445,172.371a2.078,2.078,0,0,0,2.047,2.044h10.643a1.342,1.342,0,0,1,.878.329q4.811,4.182,9.631,8.359c.517.45,1.02.89,1.535,1.335a2.046,2.046,0,1,0,2.894-2.893q-4.676-4.061-9.338-8.108c-.727-.63-1.461-1.266-2.187-1.9a3.537,3.537,0,0,0-2.166-1.215c-1.845-.07-3.708,0-5.555,0h-2.945a1.34,1.34,0,0,1-1.341-1.34v-2.04a.669.669,0,0,0-.669-.67h-2.762a.671.671,0,0,0-.672.663c-.007,1.132-.021,3.49.008,5.3Z" transform="translate(-5596.474 -116.992)" fill="#fff"/>
      <g id="Group_10188" data-name="Group 10188" transform="translate(9.264 22.283)">
        <g id="Group_10187" data-name="Group 10187">
          <g id="Group_10184" data-name="Group 10184">
            <rect id="Rectangle_9157" data-name="Rectangle 9157" width="10.116" height="3.688" rx="1.844" fill="#fff"/>
          </g>
          <g id="Group_10185" data-name="Group 10185" transform="translate(0 13.54)">
            <rect id="Rectangle_9158" data-name="Rectangle 9158" width="10.116" height="3.688" rx="1.844" fill="#fff"/>
          </g>
          <g id="Group_10186" data-name="Group 10186" transform="translate(0 6.77)">
            <rect id="Rectangle_9159" data-name="Rectangle 9159" width="10.116" height="3.688" rx="1.844" fill="#fff"/>
          </g>
        </g>
      </g>
      <path id="Path_20001" data-name="Path 20001" d="M5614.278,115.692a.447.447,0,0,1,.675.384V132.72a2.072,2.072,0,0,1-2.043,2.044h-12.354a1.345,1.345,0,0,0-.922.367c-.176.166-.353.331-.528.495q-3.368,3.171-6.738,6.342-2.107,1.981-4.219,3.973a2.085,2.085,0,0,1-2.891,0,2.064,2.064,0,0,1,0-2.9c1.441-1.354,2.876-2.707,4.321-4.065q3.108-2.928,6.234-5.864c.584-.552,1.168-1.1,1.752-1.651a2.466,2.466,0,0,1,1.644-.788c.166,0,.319,0,.479,0h9.813a1.343,1.343,0,0,0,1.341-1.323c.008-.676.02-1.351.02-2.024v-8.835a1.336,1.336,0,0,1,.65-1.15c.478-.287.954-.572,1.433-.856Z" transform="translate(-5575.398 -87.789)" fill="#fff"/>
      <path id="Path_20002" data-name="Path 20002" d="M5602.331,54.973v9.219a1.338,1.338,0,0,1-.654,1.15l-2.764,1.65a.445.445,0,0,1-.672-.383V54.337a.893.893,0,0,0-1.292-.8l-.01.006q-4.419,2.217-8.84,4.434l-10.259,5.142-8.448,4.238q-.894.445-1.786.895a1.341,1.341,0,0,0-.737,1.2v20.64a1.34,1.34,0,0,0,1.342,1.34h6.122a2.046,2.046,0,0,1,0,4.092h-9.506a2.074,2.074,0,0,1-2.048-2.044V67.367a2.028,2.028,0,0,1,1.01-1.767l.063-.031c1.409-.773,2.887-1.447,4.321-2.167q4.416-2.218,8.84-4.434,5.13-2.575,10.261-5.146,4.216-2.119,8.447-4.234,1.763-.889,3.531-1.774a2.069,2.069,0,0,1,3.079,1.767v.073C5602.377,51.424,5602.331,53.2,5602.331,54.973Z" transform="translate(-5562.778 -47.573)" fill="#fff"/>
      <path id="Path_20003" data-name="Path 20003" d="M5680.926,136.446v11.637l-5.99.367V134.159Z" transform="translate(-5627.992 -98.154)" fill="#fff"/>
      <g id="Group_10189" data-name="Group 10189" transform="translate(23.768 17.983)">
        <path id="Path_20004" data-name="Path 20004" d="M5659.038,104.214a2.322,2.322,0,0,0-1.262-1.952q-4.331-2.649-8.676-5.308c-2.768-1.687-5.51-3.422-8.295-5.072-.05-.032-.1-.06-.15-.088a2.032,2.032,0,0,0-2.064,0q-3.584,2.142-7.17,4.288c-.026.014-.05.028-.078.047q-2.046,1.224-4.091,2.447-2.626,1.565-5.238,3.129a5.5,5.5,0,0,0-.964.649,2.369,2.369,0,0,0-.6,1.919v9.339a.445.445,0,0,0,.447.447h2.976a.671.671,0,0,0,.671-.67V105.72a1.339,1.339,0,0,1,.651-1.15q1.029-.614,2.057-1.229t2.086-1.247c.67-.4,1.335-.8,2.005-1.2q3.6-2.149,7.2-4.307c.128-.074.254-.149.38-.224a1.336,1.336,0,0,1,1.383.008l4.148,2.539q4.679,2.865,9.356,5.725l.5.3a1.341,1.341,0,0,1,.639,1.143v19.789a1.34,1.34,0,0,1-1.341,1.34h-4.2a2.047,2.047,0,0,0,0,4.093h7.6a2.072,2.072,0,0,0,2.041-2.044V105.025C5659.038,104.756,5659.045,104.483,5659.038,104.214Z" transform="translate(-5620.448 -91.513)" fill="#fff"/>
      </g>
    </g>
    <text id="RealEzy" transform="translate(5610.633 72.565)" fill="#fff" font-size="36" font-family="GillSansMT-Bold, Gill Sans MT" font-weight="700"><tspan x="-66.524" y="0">RealEzy</tspan></text>
  </g>
</svg>
