<svg xmlns="http://www.w3.org/2000/svg" width="239" height="82.08" viewBox="0 0 239 82.08">
  <g id="Logo" transform="translate(-5474.633 -17.566)">
    <g id="Group_10190" data-name="Group 10190" transform="translate(5474.633 17.566)">
      <path id="Path_20000" data-name="Path 20000" d="M5620.449,173.63a2.507,2.507,0,0,0,2.47,2.467h12.84a1.619,1.619,0,0,1,1.06.4q5.805,5.045,11.62,10.085c.624.542,1.23,1.074,1.852,1.611a2.469,2.469,0,1,0,3.492-3.49q-5.64-4.9-11.267-9.783c-.876-.761-1.762-1.527-2.639-2.293a4.269,4.269,0,0,0-2.613-1.465c-2.226-.084-4.474,0-6.7,0h-3.554a1.617,1.617,0,0,1-1.618-1.617V167.08a.807.807,0,0,0-.807-.808h-3.333a.809.809,0,0,0-.81.8c-.008,1.365-.027,4.211.008,6.391Z" transform="translate(-5591.527 -106.814)" fill="#00adee"/>
      <g id="Group_10188" data-name="Group 10188" transform="translate(11.178 26.885)">
        <g id="Group_10187" data-name="Group 10187">
          <g id="Group_10184" data-name="Group 10184">
            <rect id="Rectangle_9157" data-name="Rectangle 9157" width="12.205" height="4.45" rx="2.225" fill="#034ea1"/>
          </g>
          <g id="Group_10185" data-name="Group 10185" transform="translate(0 16.336)">
            <rect id="Rectangle_9158" data-name="Rectangle 9158" width="12.205" height="4.45" rx="2.225" fill="#034ea1"/>
          </g>
          <g id="Group_10186" data-name="Group 10186" transform="translate(0 8.168)">
            <rect id="Rectangle_9159" data-name="Rectangle 9159" width="12.205" height="4.45" rx="2.225" fill="#034ea1"/>
          </g>
        </g>
      </g>
      <path id="Path_20001" data-name="Path 20001" d="M5620.394,115.705a.539.539,0,0,1,.814.463v20.083a2.5,2.5,0,0,1-2.465,2.467h-14.906a1.624,1.624,0,0,0-1.113.443c-.211.2-.426.4-.636.6q-4.063,3.826-8.129,7.652-2.542,2.39-5.091,4.793a2.515,2.515,0,0,1-3.488,0,2.489,2.489,0,0,1,0-3.5c1.738-1.633,3.47-3.267,5.214-4.905q3.751-3.532,7.521-7.075c.706-.666,1.411-1.326,2.115-1.992a2.976,2.976,0,0,1,1.983-.951c.2-.006.386,0,.578,0h11.838a1.619,1.619,0,0,0,1.618-1.6c.011-.816.024-1.63.024-2.443V119.087a1.611,1.611,0,0,1,.785-1.387c.578-.346,1.151-.691,1.729-1.033Z" transform="translate(-5573.485 -82.039)" fill="#034ea1"/>
      <path id="Path_20002" data-name="Path 20002" d="M5610.5,56.5V67.625a1.613,1.613,0,0,1-.788,1.388L5606.376,71a.537.537,0,0,1-.812-.462V55.734a1.077,1.077,0,0,0-1.559-.963l-.012.008q-5.333,2.676-10.666,5.35-6.186,3.1-12.376,6.2l-10.194,5.113q-1.077.537-2.155,1.08a1.619,1.619,0,0,0-.888,1.444v24.9a1.617,1.617,0,0,0,1.618,1.617h7.386a2.468,2.468,0,0,1,0,4.937H5565.25a2.5,2.5,0,0,1-2.472-2.466v-31.5A2.446,2.446,0,0,1,5564,69.323c.029-.014.051-.024.077-.037,1.7-.933,3.481-1.746,5.213-2.614q5.328-2.676,10.665-5.35,6.192-3.107,12.381-6.209,5.087-2.557,10.191-5.108,2.128-1.073,4.26-2.141A2.5,2.5,0,0,1,5610.5,50v.088C5610.556,52.22,5610.5,54.365,5610.5,56.5Z" transform="translate(-5562.779 -47.573)" fill="#034ea1"/>
      <path id="Path_20003" data-name="Path 20003" d="M5682.164,136.918v14.04l-7.227.442V134.159Z" transform="translate(-5618.296 -90.717)" fill="#00adee"/>
      <g id="Group_10189" data-name="Group 10189" transform="translate(28.676 21.697)">
        <path id="Path_20004" data-name="Path 20004" d="M5667.007,106.837a2.8,2.8,0,0,0-1.522-2.355q-5.224-3.2-10.468-6.4c-3.34-2.036-6.648-4.128-10.008-6.119-.061-.039-.119-.073-.182-.106a2.449,2.449,0,0,0-2.489,0q-4.325,2.584-8.652,5.174a.885.885,0,0,0-.095.056c-1.646.984-3.3,1.969-4.937,2.953q-3.167,1.888-6.32,3.776a6.639,6.639,0,0,0-1.163.783,2.858,2.858,0,0,0-.724,2.315v11.267a.537.537,0,0,0,.54.539h3.59a.809.809,0,0,0,.809-.809v-9.252a1.617,1.617,0,0,1,.787-1.387q1.242-.741,2.48-1.482,1.256-.755,2.518-1.5c.81-.487,1.61-.962,2.42-1.449q4.343-2.593,8.685-5.2c.154-.089.306-.18.459-.271a1.61,1.61,0,0,1,1.668.01l5,3.063q5.647,3.456,11.289,6.907l.6.366a1.621,1.621,0,0,1,.772,1.38v23.877a1.617,1.617,0,0,1-1.619,1.617h-5.074a2.469,2.469,0,0,0,0,4.939h9.167a2.5,2.5,0,0,0,2.461-2.467V107.816C5667.007,107.491,5667.017,107.161,5667.007,106.837Z" transform="translate(-5620.448 -91.513)" fill="#00adee"/>
      </g>
    </g>
    <text id="RealEzy" transform="translate(5635.633 86.565)" fill="#034ea1" font-size="42" font-family="GillSansMT-Bold, Gill Sans MT" font-weight="700"><tspan x="-77" y="0">Real</tspan><tspan y="0" fill="#00adee">Ezy</tspan></text>
  </g>
</svg>
