<svg xmlns="http://www.w3.org/2000/svg" width="32" height="32" viewBox="0 0 32 32">
  <g id="Group_36613" data-name="Group 36613" transform="translate(-4.104 -4)">
    <path id="Path_47889" data-name="Path 47889" d="M26.068,39.291a4.618,4.618,0,1,0-1.852-5.144A4.6,4.6,0,0,0,26.068,39.291Z" transform="translate(-8.467 -11.488)" fill="#999"/>
    <path id="Path_47890" data-name="Path 47890" d="M42.881,37.662a3.668,3.668,0,0,0,7.335,0A3.668,3.668,0,0,0,42.881,37.662Z" transform="translate(-16.475 -12.854)" fill="#999"/>
    <path id="Path_47891" data-name="Path 47891" d="M49.782,46.492a4.815,4.815,0,0,1-6.192.37c-.4-.367-.474-.423-.9-.04,1.488,1.412,2.965,3.438,2.684,5.584H50.51a2.016,2.016,0,0,0,1.638-.847c1.2-1.774-.942-4.16-2.365-5.066Z" transform="translate(-16.394 -18.191)" fill="#999"/>
    <path id="Path_47892" data-name="Path 47892" d="M31.447,47.618a7.628,7.628,0,0,0-1.535-1.046,6.535,6.535,0,0,1-.586.438,5.76,5.76,0,0,1-6.238,0c-.2-.136-.4-.284-.591-.438a7.628,7.628,0,0,0-1.535,1.046,7.875,7.875,0,0,0-2.326,3.446,2.429,2.429,0,0,0,2.309,3.162H31.464a2.47,2.47,0,0,0,2.354-1.785c.364-1.81-1.131-3.674-2.371-4.822Z" transform="translate(-6.101 -18.226)" fill="#999"/>
    <path id="Path_47893" data-name="Path 47893" d="M13.909,46.816c-.415-.376-.517-.315-.9.045a4.815,4.815,0,0,1-6.192-.37c-1.418.9-3.559,3.3-2.365,5.066a2.016,2.016,0,0,0,1.638.847h5.134c-.287-2.135,1.2-4.169,2.684-5.589Z" transform="translate(0 -18.191)" fill="#999"/>
    <path id="Path_47894" data-name="Path 47894" d="M15.582,37.662a3.668,3.668,0,0,0-7.335,0A3.668,3.668,0,0,0,15.582,37.662Z" transform="translate(-1.781 -12.854)" fill="#999"/>
    <path id="Path_47895" data-name="Path 47895" d="M12.525,20.227a.58.58,0,0,0,.917,0l1.72-2.274a.566.566,0,0,0-.115-.8.576.576,0,0,0-.8.114l-.688.91V11.789a.564.564,0,0,1,.167-.4.574.574,0,0,1,.406-.166h1.943c.793,8.475,12.933,8.468,13.723,0H31.74a.574.574,0,0,1,.406.166.564.564,0,0,1,.167.4V18.18l-.688-.91a.576.576,0,0,0-.8-.114.566.566,0,0,0-.115.8l1.72,2.274a.58.58,0,0,0,.917,0l1.72-2.274a.566.566,0,0,0-.115-.8.576.576,0,0,0-.8.114l-.688.91V11.789a1.714,1.714,0,0,0-1.72-1.706H29.78c-1.06-8.109-12.628-8.112-13.689,0h-1.96a1.714,1.714,0,0,0-1.72,1.706V18.18l-.688-.91a.576.576,0,0,0-.8-.114.566.566,0,0,0-.115.8Zm10.41-8.87a2.1,2.1,0,0,1-.573-4.122V6.177a.573.573,0,0,1,1.147,0V7.234a2.1,2.1,0,0,1,1.548,2.019.573.573,0,0,1-1.147,0,.975.975,0,1,0-.974.967,2.1,2.1,0,0,1,.573,4.128V15.4a.573.573,0,0,1-1.147,0V14.348a2.109,2.109,0,0,1-1.548-2.024.573.573,0,0,1,1.147,0,.975.975,0,1,0,.974-.967Z" transform="translate(-2.832 0)" fill="#999"/>
  </g>
</svg>
