<svg xmlns="http://www.w3.org/2000/svg" width="68" height="59.535" viewBox="0 0 68 59.535">
  <g id="folder1" transform="translate(0 -4.232)">
    <path id="Path_24207" data-name="Path 24207" d="M68,25.312V63.767H16.291A1.566,1.566,0,0,1,14.725,62.2V20.015a1.566,1.566,0,0,1,1.567-1.567h19a1.565,1.565,0,0,1,1.107.458l4.381,4.381a1.566,1.566,0,0,0,1.108.458H66.433A1.567,1.567,0,0,1,68,25.312Z" fill="#756f6f"/>
    <g id="Group_35386" data-name="Group 35386">
      <circle id="Ellipse_645" data-name="Ellipse 645" cx="3.819" cy="3.819" r="3.819" transform="translate(39.221 23.746)" fill="#5b5555"/>
      <path id="Path_24208" data-name="Path 24208" d="M29.021,36.58a1.094,1.094,0,0,1-.773,1.868H16.189c-.494,0-.982-.025-1.464-.071V20.015a1.566,1.566,0,0,1,1.567-1.567H29.906a14.719,14.719,0,0,1-3.322,15.693Z" fill="#5b5555"/>
      <path id="Path_24209" data-name="Path 24209" d="M68,25.312V63.767H62.8V25.312a1.566,1.566,0,0,0-1.567-1.567h5.2A1.567,1.567,0,0,1,68,25.312Z" fill="#5b5555"/>
    </g>
    <path id="Path_24210" data-name="Path 24210" d="M52.022,44.123,68,63.768H15.469a1.566,1.566,0,0,1-1.215-.578L.354,46.1a1.566,1.566,0,0,1,1.215-2.555H50.807a1.566,1.566,0,0,1,1.215.578Z" fill="#64b9fc"/>
    <path id="Path_24211" data-name="Path 24211" d="M68,63.767H61.263L45.286,44.123a1.57,1.57,0,0,0-1.215-.579h6.736a1.566,1.566,0,0,1,1.215.579Z" fill="#31a7fb"/>
    <path id="Path_24212" data-name="Path 24212" d="M56.1,59.16H42.282a1.368,1.368,0,0,1-1.089-.54l-3.542-4.654a.684.684,0,0,1,.544-1.1H52.017a1.368,1.368,0,0,1,1.089.54l3.542,4.654A.684.684,0,0,1,56.1,59.16Z" fill="#f8f3f1"/>
    <path id="Path_24213" data-name="Path 24213" d="M56.1,59.159H51.657a.684.684,0,0,0,.545-1.1l-3.542-4.653a1.365,1.365,0,0,0-1.088-.54h4.445a1.366,1.366,0,0,1,1.089.54l3.542,4.653a.684.684,0,0,1-.545,1.1Z" fill="#efe2dd"/>
    <path id="Path_24214" data-name="Path 24214" d="M34,60.186H27.722a1.026,1.026,0,1,1,0-2.052H34a1.026,1.026,0,1,1,0,2.052Z" fill="#f8f3f1"/>
    <path id="Path_24215" data-name="Path 24215" d="M31.709,56.782H29.044a1.026,1.026,0,1,1,0-2.052h2.665a1.026,1.026,0,1,1,0,2.052Z" fill="#f8f3f1"/>
    <path id="Path_24216" data-name="Path 24216" d="M30.89,18.934a14.7,14.7,0,1,0-14.7,14.7H28.248a1.094,1.094,0,0,0,.774-1.868l-2.438-2.438a14.655,14.655,0,0,0,4.306-10.4Z" fill="#31a7fb"/>
    <path id="Path_24217" data-name="Path 24217" d="M29.021,31.768a1.094,1.094,0,0,1-.773,1.868H23.29a1.094,1.094,0,0,0,.773-1.868l-1.512-1.512a1.368,1.368,0,0,1-.076-1.85A14.7,14.7,0,0,0,13.711,4.442,14.7,14.7,0,0,1,26.584,29.329Z" fill="#1c96f9"/>
    <path id="Path_24218" data-name="Path 24218" d="M19.091,18.934,21.826,16.2a2.052,2.052,0,1,0-2.9-2.9l-2.735,2.735L13.454,13.3a2.052,2.052,0,1,0-2.9,2.9l2.735,2.735-2.735,2.735a2.052,2.052,0,0,0,2.9,2.9l2.735-2.735,2.735,2.735a2.052,2.052,0,1,0,2.9-2.9Z" fill="#f8f3f1"/>
    <circle id="Ellipse_646" data-name="Ellipse 646" cx="3.819" cy="3.819" r="3.819" transform="translate(39.221 20.513)" fill="#bcea73"/>
    <path id="Path_24219" data-name="Path 24219" d="M46.859,24.332A3.817,3.817,0,0,1,41.1,27.623a3.379,3.379,0,0,0,0-6.583,3.818,3.818,0,0,1,5.754,3.291Z" fill="#99d53b"/>
    <circle id="Ellipse_647" data-name="Ellipse 647" cx="3.014" cy="3.014" r="3.014" transform="translate(53.401 13.725)" fill="#bcea73"/>
    <path id="Path_24220" data-name="Path 24220" d="M59.428,16.739a3.012,3.012,0,0,1-4.542,2.6,2.666,2.666,0,0,0,0-5.195,3.013,3.013,0,0,1,4.541,2.6Z" fill="#99d53b"/>
    <g id="Group_35387" data-name="Group 35387">
      <path id="Path_24221" data-name="Path 24221" d="M49.528,11.231l.555-.555a1.026,1.026,0,0,0-1.451-1.451l-.555.555-.555-.555a1.026,1.026,0,0,0-1.451,1.451l.555.555-.555.555a1.026,1.026,0,1,0,1.451,1.451l.555-.555.555.555a1.026,1.026,0,1,0,1.451-1.451Z" fill="#64b9fc"/>
      <path id="Path_24222" data-name="Path 24222" d="M7.683,34.527a1.026,1.026,0,0,0-1.451,0l-.967.967L4.3,34.527a1.026,1.026,0,1,0-1.451,1.451l.967.967-.967.967A1.026,1.026,0,1,0,4.3,39.362l.967-.967.967.967a1.026,1.026,0,0,0,1.451-1.451l-.967-.967.967-.967a1.026,1.026,0,0,0,0-1.451Z" fill="#a8e7ef"/>
    </g>
  </g>
</svg>
