<svg xmlns="http://www.w3.org/2000/svg" width="25" height="25" viewBox="0 0 25 25">
  <g id="Layer_2" data-name="Layer 2" transform="translate(-1.251 -1.25)">
    <path id="Union_8" data-name="Union 8" d="M-155.692-1513.75h-.116a5.292,5.292,0,0,1-2.686-.72,3.058,3.058,0,0,0-1.665-.49l-.1,0-.094,0a3.042,3.042,0,0,0-1.672.49l-.374.2a2.49,2.49,0,0,1-1.07.241,2.464,2.464,0,0,1-1.161-.287,2.024,2.024,0,0,1-1.11-1.743v-8.724h-3.49a1.519,1.519,0,0,1-1.517-1.517v-9.107a3.342,3.342,0,0,1,3.339-3.339h14.244a7.817,7.817,0,0,1,5.241,1.959,6.337,6.337,0,0,1,2.176,4.72v10a5.991,5.991,0,0,0-5-2.684,6.007,6.007,0,0,0-6,6,6.029,6.029,0,0,0,2.436,4.828,5.24,5.24,0,0,1-1.336.173Zm-7.677-10.651a.924.924,0,0,0,.967.871h5.7a.924.924,0,0,0,.967-.871.924.924,0,0,0-.967-.871h-5.7A.924.924,0,0,0-163.369-1524.4Zm-4.515-12.442a1.5,1.5,0,0,0-1.044,1.433v8.8h3.036v-8.8a1.519,1.519,0,0,0-1.518-1.517h-.027A1.185,1.185,0,0,0-167.884-1536.844Zm4.515,8.537a.924.924,0,0,0,.967.871h12.343a.924.924,0,0,0,.967-.871.924.924,0,0,0-.967-.871H-162.4A.924.924,0,0,0-163.369-1528.306Zm0-4.077a.925.925,0,0,0,.967.872h12.343a.925.925,0,0,0,.967-.872.924.924,0,0,0-.967-.871H-162.4A.924.924,0,0,0-163.369-1532.383Zm7.81,13.633a4.8,4.8,0,0,1,4.9-4.668,4.8,4.8,0,0,1,4.9,4.668,4.8,4.8,0,0,1-4.9,4.668A4.8,4.8,0,0,1-155.559-1518.75Zm3.326,2.188a.722.722,0,0,0,.739.7h.108a.727.727,0,0,0,.731.606.723.723,0,0,0,.74-.7v-.03a1.73,1.73,0,0,0,1.127-1.6,1.667,1.667,0,0,0-.355-1.032,2.236,2.236,0,0,0-.834-.6l-.727-.346c-.169-.08-.338-.149-.338-.355a.324.324,0,0,1,.33-.318h.9a.722.722,0,0,0,.739-.7.722.722,0,0,0-.739-.7h-.107a.728.728,0,0,0-.732-.606.722.722,0,0,0-.739.7v.03a1.729,1.729,0,0,0-1.128,1.6,1.67,1.67,0,0,0,.814,1.439,2.924,2.924,0,0,0,.5.253c.254.116.5.24.756.359a.317.317,0,0,1-.149.6h-.9A.722.722,0,0,0-152.232-1516.562Zm5.769,2.011a6.3,6.3,0,0,0,.428-.487,2.079,2.079,0,0,1-.427.488Z" transform="translate(172 1540)" fill="#505050"/>
  </g>
</svg>
