<svg xmlns="http://www.w3.org/2000/svg" width="146" height="48.001" viewBox="0 0 146 48.001">
  <g id="Logo" transform="translate(-5474.633 -17.566)">
    <g id="Group_10190" data-name="Group 10190" transform="translate(5474.633 17.566)">
      <path id="Path_20000" data-name="Path 20000" d="M5620.44,170.575a1.466,1.466,0,0,0,1.444,1.442h7.509a.947.947,0,0,1,.62.232q3.395,2.95,6.8,5.9c.365.317.719.628,1.083.942a1.444,1.444,0,0,0,2.042-2.041q-3.3-2.865-6.589-5.721c-.513-.445-1.031-.893-1.543-1.341a2.5,2.5,0,0,0-1.528-.857c-1.3-.049-2.617,0-3.919,0h-2.079a.946.946,0,0,1-.946-.945v-1.44a.472.472,0,0,0-.472-.473h-1.949a.473.473,0,0,0-.474.468c0,.8-.016,2.463,0,3.738Z" transform="translate(-5603.526 -131.501)" fill="#00adee"/>
      <g id="Group_10188" data-name="Group 10188" transform="translate(6.537 15.722)">
        <g id="Group_10187" data-name="Group 10187">
          <g id="Group_10184" data-name="Group 10184">
            <rect id="Rectangle_9157" data-name="Rectangle 9157" width="7.138" height="2.602" rx="1.301" fill="#034ea1"/>
          </g>
          <g id="Group_10185" data-name="Group 10185" transform="translate(0 9.553)">
            <rect id="Rectangle_9158" data-name="Rectangle 9158" width="7.138" height="2.602" rx="1.301" fill="#034ea1"/>
          </g>
          <g id="Group_10186" data-name="Group 10186" transform="translate(0 4.777)">
            <rect id="Rectangle_9159" data-name="Rectangle 9159" width="7.138" height="2.602" rx="1.301" fill="#034ea1"/>
          </g>
        </g>
      </g>
      <path id="Path_20001" data-name="Path 20001" d="M5605.559,115.673a.315.315,0,0,1,.476.271v11.744a1.462,1.462,0,0,1-1.441,1.442h-8.717a.949.949,0,0,0-.65.259l-.372.349-4.754,4.475q-1.487,1.4-2.977,2.8a1.471,1.471,0,0,1-2.04,0,1.456,1.456,0,0,1,0-2.044c1.017-.955,2.029-1.91,3.049-2.869q2.194-2.066,4.4-4.138c.412-.39.825-.775,1.236-1.165a1.741,1.741,0,0,1,1.16-.556c.117,0,.226,0,.338,0h6.923a.948.948,0,0,0,.947-.933c.005-.477.014-.953.014-1.428v-6.234a.943.943,0,0,1,.459-.811c.337-.2.673-.4,1.011-.6Z" transform="translate(-5578.126 -95.985)" fill="#034ea1"/>
      <path id="Path_20002" data-name="Path 20002" d="M5590.686,52.794V59.3a.944.944,0,0,1-.461.812l-1.95,1.164a.314.314,0,0,1-.475-.27V52.346a.631.631,0,0,0-.912-.563l-.007,0-6.237,3.129-7.238,3.628-5.961,2.99q-.63.314-1.26.631a.946.946,0,0,0-.52.844V77.573a.945.945,0,0,0,.946.945h4.319a1.444,1.444,0,0,1,0,2.887h-6.707a1.464,1.464,0,0,1-1.445-1.442V61.539a1.431,1.431,0,0,1,.713-1.247l.045-.022c.994-.546,2.036-1.021,3.049-1.529q3.116-1.565,6.237-3.129,3.62-1.817,7.24-3.631,2.975-1.5,5.96-2.987,1.244-.627,2.491-1.252a1.459,1.459,0,0,1,2.172,1.247v.051C5590.719,50.29,5590.686,51.545,5590.686,52.794Z" transform="translate(-5562.778 -47.573)" fill="#034ea1"/>
      <path id="Path_20003" data-name="Path 20003" d="M5679.163,135.772v8.211l-4.227.259V134.159Z" transform="translate(-5641.813 -108.754)" fill="#00adee"/>
      <g id="Group_10189" data-name="Group 10189" transform="translate(16.77 12.689)">
        <path id="Path_20004" data-name="Path 20004" d="M5647.676,100.474a1.637,1.637,0,0,0-.891-1.377q-3.056-1.869-6.122-3.745c-1.953-1.191-3.888-2.414-5.853-3.579-.035-.023-.069-.042-.106-.062a1.433,1.433,0,0,0-1.456,0q-2.529,1.511-5.06,3.026a.593.593,0,0,0-.055.033c-.962.576-1.927,1.151-2.887,1.727q-1.853,1.1-3.7,2.208a3.887,3.887,0,0,0-.68.458,1.672,1.672,0,0,0-.423,1.354v6.589a.314.314,0,0,0,.315.315h2.1a.473.473,0,0,0,.474-.473v-5.411a.945.945,0,0,1,.46-.811q.726-.433,1.451-.867t1.472-.88c.473-.285.942-.563,1.415-.847q2.54-1.516,5.08-3.039l.268-.158a.942.942,0,0,1,.976.006l2.927,1.791q3.3,2.021,6.6,4.039l.352.214a.946.946,0,0,1,.451.807v13.963a.945.945,0,0,1-.946.945h-2.967a1.444,1.444,0,0,0,0,2.888h5.361a1.462,1.462,0,0,0,1.439-1.443v-17.1C5647.676,100.857,5647.682,100.664,5647.676,100.474Z" transform="translate(-5620.448 -91.513)" fill="#00adee"/>
      </g>
    </g>
    <text id="RealEzy" transform="translate(5571.633 57.565)" fill="#034ea1" font-size="26" font-family="GillSansMT-Bold, Gill Sans MT" font-weight="700"><tspan x="-48" y="0">Real</tspan><tspan y="0" fill="#00adee">Ezy</tspan></text>
  </g>
</svg>
