<svg xmlns="http://www.w3.org/2000/svg" width="26" height="22" viewBox="0 0 26 22">
  <path id="Path_23530" data-name="Path 23530" d="M0,5.667A3.477,3.477,0,0,1,3.25,2h19.5A3.477,3.477,0,0,1,26,5.667V20.333A3.477,3.477,0,0,1,22.75,24H3.25A3.477,3.477,0,0,1,0,20.333ZM4.063,7.5a.869.869,0,0,0-.812.917V10.25a.869.869,0,0,0,.813.917h3.25a.869.869,0,0,0,.813-.917V8.417A.869.869,0,0,0,7.313,7.5Zm0,5.5a.923.923,0,0,0,0,1.833h8.125a.923.923,0,0,0,0-1.833Zm0,3.667a.923.923,0,0,0,0,1.833H5.688a.923.923,0,0,0,0-1.833Zm4.875,0a.923.923,0,0,0,0,1.833h1.625a.923.923,0,0,0,0-1.833Zm4.875,0a.923.923,0,0,0,0,1.833h1.625a.923.923,0,0,0,0-1.833Zm4.875,0a.923.923,0,0,0,0,1.833h1.625a.923.923,0,0,0,0-1.833Z" transform="translate(0 -2)" fill="#505050"/>
</svg>
