<svg xmlns="http://www.w3.org/2000/svg" width="26" height="26" viewBox="0 0 26 26">
  <g id="Icon" transform="translate(-1.25 -1.25)">
    <path id="Path_23538" data-name="Path 23538" d="M26.343,21.25H2.157a.907.907,0,1,0,0,1.814H26.343a.907.907,0,0,0,0-1.814Z" transform="translate(0 4.186)" fill="#505050" fillRule="evenodd"/>
    <path id="Path_23539" data-name="Path 23539" d="M7.18,27.25a.907.907,0,0,1-.907-.907v-9.07a.907.907,0,0,1,.907-.907h6.047a.907.907,0,0,1,.907.907v9.07a.907.907,0,0,1-.907.907H16.25a.907.907,0,0,0,.907-.907V2.157a.907.907,0,0,0-.907-.907H4.157a.907.907,0,0,0-.907.907V26.343a.907.907,0,0,0,.907.907Zm5.14-9.07v7.256H8.087V18.18ZM8.692,13.645V12.436a.907.907,0,1,0-1.814,0v1.209a.907.907,0,1,0,1.814,0Zm4.837,0V12.436a.907.907,0,1,0-1.814,0v1.209a.907.907,0,0,0,1.814,0Zm0-6.047V6.39a.907.907,0,1,0-1.814,0V7.6a.907.907,0,1,0,1.814,0Zm-4.837,0V6.39a.907.907,0,1,0-1.814,0V7.6a.907.907,0,1,0,1.814,0Z" transform="translate(0.419)" fill="#505050" fillRule="evenodd"/>
    <path id="Path_23540" data-name="Path 23540" d="M15.785,5.25h5.14a.907.907,0,0,1,.907.907V25.506a.907.907,0,0,1-.907.907H15.582a2.108,2.108,0,0,0,.2-.907ZM17.6,16.436v1.209a.907.907,0,1,0,1.814,0V16.436a.907.907,0,0,0-1.814,0ZM19.413,11.6V10.39a.907.907,0,0,0-1.814,0V11.6a.907.907,0,1,0,1.814,0Z" transform="translate(3 0.837)" fill="#505050" fillRule="evenodd"/>
  </g>
</svg>
