<svg xmlns="http://www.w3.org/2000/svg" width="26" height="24" viewBox="0 0 26 24">
  <g id="search-homepage" transform="translate(-0.001 -14.8)">
    <g id="Group_35053" data-name="Group 35053" transform="translate(0.001 14.8)">
      <path id="Path_23718" data-name="Path 23718" d="M23.911,29.2H22.325v6.57l-4.476-4.429a5.477,5.477,0,0,0-.867-6.64,5.623,5.623,0,0,0-7.867,0,5.457,5.457,0,0,0,0,7.819,5.624,5.624,0,0,0,6.711.858l5.231,5.176a2.543,2.543,0,0,1-1.044.251H6.049A2.33,2.33,0,0,1,3.7,36.478V29.23H2.151A2.131,2.131,0,0,1,.742,25.478l9.382-9.465a4.047,4.047,0,0,1,5.779,0l2.129,2.141V16.3a1.485,1.485,0,0,1,1.516-1.465h1.262A1.455,1.455,0,0,1,22.29,16.3v6.214l2.96,3A2.081,2.081,0,0,1,23.911,29.2ZM11.067,26.7a2.639,2.639,0,0,0,0,3.752,2.7,2.7,0,0,0,3.792,0,2.639,2.639,0,0,0,0-3.752,2.675,2.675,0,0,0-3.792,0Z" transform="translate(-0.001 -14.8)" fill="#505050"/>
    </g>
  </g>
</svg>
