<svg id="Primary" xmlns="http://www.w3.org/2000/svg" width="337.114" height="52.012" viewBox="0 0 337.114 52.012">
  <rect id="Rectangle_10205" data-name="Rectangle 10205" width="337.114" height="52.012" rx="8" transform="translate(0)" fill="#c90e15"/>
  <path id="Path_23436" data-name="Path 23436" d="M23.837,30.542,21.1,25.568h-.77v4.975h-3.21V17.364H22.5a5.871,5.871,0,0,1,2.647.544,3.724,3.724,0,0,1,1.652,1.5,4.114,4.114,0,0,1,.544,2.1,3.889,3.889,0,0,1-.751,2.347,3.944,3.944,0,0,1-2.178,1.464l3.041,5.219ZM20.326,23.3h1.99a1.788,1.788,0,0,0,1.314-.432,1.61,1.61,0,0,0,.451-1.22,1.561,1.561,0,0,0-.451-1.183,1.788,1.788,0,0,0-1.314-.432h-1.99Z" transform="translate(2.884 1.494)" fill="#fff"/>
  <path id="Path_23437" data-name="Path 23437" d="M38.759,25.025a8.177,8.177,0,0,1-.056.938H31.438a2.24,2.24,0,0,0,.62,1.5,1.977,1.977,0,0,0,1.37.506A1.687,1.687,0,0,0,35.1,26.957h3.417a4.779,4.779,0,0,1-2.666,3.15,5.522,5.522,0,0,1-2.309.469,5.623,5.623,0,0,1-2.741-.656,4.671,4.671,0,0,1-1.877-1.875,5.784,5.784,0,0,1-.676-2.85,5.918,5.918,0,0,1,.657-2.85,4.671,4.671,0,0,1,1.877-1.875,5.663,5.663,0,0,1,2.76-.656,5.606,5.606,0,0,1,2.7.638,4.52,4.52,0,0,1,1.84,1.819A5.455,5.455,0,0,1,38.759,25.025Zm-3.285-.844a1.648,1.648,0,0,0-.563-1.313,2.257,2.257,0,0,0-2.778-.019,2.1,2.1,0,0,0-.676,1.331Z" transform="translate(3.362 1.6)" fill="#fff"/>
  <path id="Path_23438" data-name="Path 23438" d="M45.82,27.814v2.722H44.187a4.027,4.027,0,0,1-2.722-.845,3.561,3.561,0,0,1-.976-2.8V22.727H39.212V20.061h1.277V17.508H43.7v2.553h2.1v2.666H43.7v4.205a.88.88,0,0,0,.225.676,1.1,1.1,0,0,0,.751.207Z" transform="translate(3.833 1.501)" fill="#fff"/>
  <path id="Path_23439" data-name="Path 23439" d="M50.473,21.7a4.144,4.144,0,0,1,1.408-1.35,3.582,3.582,0,0,1,1.877-.506v3.394h-.882a2.673,2.673,0,0,0-1.8.525,2.258,2.258,0,0,0-.6,1.8v4.857h-3.21V19.961h3.21Z" transform="translate(4.178 1.601)" fill="#fff"/>
  <path id="Path_23440" data-name="Path 23440" d="M56.589,19.055a2,2,0,0,1-1.389-.488,1.655,1.655,0,0,1-.526-1.239,1.617,1.617,0,0,1,.526-1.239,1.958,1.958,0,0,1,1.389-.507,1.867,1.867,0,0,1,1.352.507,1.591,1.591,0,0,1,.544,1.239,1.628,1.628,0,0,1-.544,1.239A1.908,1.908,0,0,1,56.589,19.055Zm1.6,1.089V30.619h-3.21V20.144Z" transform="translate(4.496 1.418)" fill="#fff"/>
  <path id="Path_23441" data-name="Path 23441" d="M70.171,25.025a8.176,8.176,0,0,1-.056.938H62.85a2.24,2.24,0,0,0,.62,1.5,1.977,1.977,0,0,0,1.37.506,1.687,1.687,0,0,0,1.671-1.013h3.417a4.779,4.779,0,0,1-2.666,3.15,5.523,5.523,0,0,1-2.309.469,5.624,5.624,0,0,1-2.741-.656,4.671,4.671,0,0,1-1.877-1.875,5.784,5.784,0,0,1-.676-2.85,5.918,5.918,0,0,1,.657-2.85,4.671,4.671,0,0,1,1.877-1.875,5.663,5.663,0,0,1,2.76-.656,5.607,5.607,0,0,1,2.7.638,4.52,4.52,0,0,1,1.84,1.819A5.455,5.455,0,0,1,70.171,25.025Zm-3.285-.844a1.648,1.648,0,0,0-.563-1.313,2.257,2.257,0,0,0-2.778-.019,2.1,2.1,0,0,0-.676,1.331Z" transform="translate(4.71 1.6)" fill="#fff"/>
  <path id="Path_23442" data-name="Path 23442" d="M76.115,27.419l2.271-7.463H81.8L78.086,30.419H74.125L70.408,19.956h3.435Z" transform="translate(5.15 1.606)" fill="#fff"/>
  <path id="Path_23443" data-name="Path 23443" d="M92.53,25.025a8.176,8.176,0,0,1-.056.938H85.209a2.24,2.24,0,0,0,.62,1.5,1.977,1.977,0,0,0,1.37.506,1.687,1.687,0,0,0,1.671-1.013h3.417a4.779,4.779,0,0,1-2.666,3.15,5.523,5.523,0,0,1-2.309.469,5.623,5.623,0,0,1-2.741-.656,4.671,4.671,0,0,1-1.877-1.875,5.784,5.784,0,0,1-.676-2.85,5.918,5.918,0,0,1,.657-2.85,4.671,4.671,0,0,1,1.877-1.875,5.663,5.663,0,0,1,2.76-.656,5.606,5.606,0,0,1,2.7.638,4.52,4.52,0,0,1,1.84,1.819A5.455,5.455,0,0,1,92.53,25.025Zm-3.285-.844a1.648,1.648,0,0,0-.563-1.313A2.257,2.257,0,0,0,85.9,22.85a2.1,2.1,0,0,0-.676,1.331Z" transform="translate(5.643 1.6)" fill="#fff"/>
  <path id="Path_23444" data-name="Path 23444" d="M112.46,17.364V30.542h-3.21v-7.9l-2.947,7.9h-2.591l-2.966-7.922v7.922h-3.21V17.364h3.792l3.7,9.124,3.661-9.124Z" transform="translate(6.303 1.494)" fill="#fff"/>
  <path id="Path_23445" data-name="Path 23445" d="M124.808,19.956l-6.57,15.45h-3.454l2.4-5.331-4.261-10.118h3.586l2.422,6.552,2.4-6.552Z" transform="translate(6.957 1.594)" fill="#fff"/>
  <path id="Path_23446" data-name="Path 23446" d="M127.059,19.055a2,2,0,0,1-1.389-.488,1.655,1.655,0,0,1-.526-1.239,1.617,1.617,0,0,1,.526-1.239,1.958,1.958,0,0,1,1.389-.507,1.867,1.867,0,0,1,1.352.507,1.591,1.591,0,0,1,.544,1.239,1.628,1.628,0,0,1-.544,1.239A1.908,1.908,0,0,1,127.059,19.055Zm1.6,1.089V30.619h-3.21V20.144Z" transform="translate(7.478 1.418)" fill="#fff"/>
  <path id="Path_23447" data-name="Path 23447" d="M137.124,19.848a3.759,3.759,0,0,1,2.929,1.2,4.583,4.583,0,0,1,1.108,3.263v6.113h-3.191V24.742a2.3,2.3,0,0,0-.544-1.631,2.135,2.135,0,0,0-2.929,0,2.3,2.3,0,0,0-.544,1.631v5.682h-3.21V19.961h3.21v1.388a3.312,3.312,0,0,1,1.314-1.088A4.1,4.1,0,0,1,137.124,19.848Z" transform="translate(7.715 1.601)" fill="#fff"/>
  <path id="Path_23448" data-name="Path 23448" d="M148.161,22.8h-1.727v7.809h-3.21V22.8H142.06V20.131h1.164v-.3a3.734,3.734,0,0,1,1.108-2.929,4.655,4.655,0,0,1,3.248-1.014q.357,0,.526.019v2.722a1.842,1.842,0,0,0-1.3.263,1.446,1.446,0,0,0-.375,1.145v.094h1.727Z" transform="translate(8.197 1.431)" fill="#fff"/>
  <path id="Path_23449" data-name="Path 23449" d="M154.151,30.576a5.842,5.842,0,0,1-2.778-.656,4.889,4.889,0,0,1-1.934-1.875,5.659,5.659,0,0,1-.695-2.85,5.5,5.5,0,0,1,.713-2.832,4.821,4.821,0,0,1,1.952-1.894,6.209,6.209,0,0,1,5.557,0,4.821,4.821,0,0,1,1.952,1.894,5.945,5.945,0,0,1-.019,5.682,4.826,4.826,0,0,1-1.971,1.875A5.842,5.842,0,0,1,154.151,30.576Zm0-2.775a2.063,2.063,0,0,0,1.558-.675,2.657,2.657,0,0,0,.657-1.931,2.7,2.7,0,0,0-.638-1.931,2,2,0,0,0-1.539-.675,2.025,2.025,0,0,0-1.558.675,2.715,2.715,0,0,0-.619,1.931,2.812,2.812,0,0,0,.6,1.931A2,2,0,0,0,154.151,27.8Z" transform="translate(8.48 1.6)" fill="#fff"/>
  <path id="Path_23450" data-name="Path 23450" d="M179.714,19.956l-2.835,10.463h-3.548l-1.652-6.788-1.708,6.788h-3.529l-2.853-10.463h3.21l1.483,7.482,1.765-7.482h3.4l1.783,7.444,1.464-7.444Z" transform="translate(9.11 1.606)" fill="#fff"/>
  <path id="Path_23451" data-name="Path 23451" d="M181.85,19.055a2,2,0,0,1-1.389-.488,1.655,1.655,0,0,1-.526-1.239,1.617,1.617,0,0,1,.526-1.239,1.958,1.958,0,0,1,1.389-.507,1.867,1.867,0,0,1,1.352.507,1.591,1.591,0,0,1,.544,1.239,1.628,1.628,0,0,1-.544,1.239A1.908,1.908,0,0,1,181.85,19.055Zm1.6,1.089V30.619h-3.21V20.144Z" transform="translate(9.808 1.418)" fill="#fff"/>
  <path id="Path_23452" data-name="Path 23452" d="M191.4,27.814v2.722h-1.633a4.027,4.027,0,0,1-2.722-.845,3.561,3.561,0,0,1-.976-2.8V22.727h-1.277V20.061h1.277V17.508h3.21v2.553h2.1v2.666h-2.1v4.205a.88.88,0,0,0,.225.676,1.1,1.1,0,0,0,.751.207Z" transform="translate(10.014 1.501)" fill="#fff"/>
  <path id="Path_23453" data-name="Path 23453" d="M199.284,19.984a3.713,3.713,0,0,1,2.891,1.2,4.64,4.64,0,0,1,1.089,3.266v6.12h-3.191V24.884a2.3,2.3,0,0,0-.544-1.633,2.133,2.133,0,0,0-2.929,0,2.3,2.3,0,0,0-.544,1.633v5.688h-3.21V16.68h3.21V21.5a3.431,3.431,0,0,1,1.333-1.108A4.26,4.26,0,0,1,199.284,19.984Z" transform="translate(10.355 1.465)" fill="#fff"/>
  <path id="Path_23454" data-name="Path 23454" d="M214.413,30.769c3,0,4.831-1.57,4.831-4.059,0-1.7-1.042-2.869-3.193-3.342l-2.111-.474c-.8-.189-1.218-.446-1.218-.92s.392-.771,1.353-.771a4.726,4.726,0,0,1,3,1.218l1.772-2.6a7.562,7.562,0,0,0-4.777-1.353c-2.814,0-4.709,1.353-4.709,3.748a3.4,3.4,0,0,0,3.032,3.451l2.1.5c1.042.23,1.353.541,1.353.947s-.419.8-1.353.8a5.807,5.807,0,0,1-3.614-1.353L209,29.077A8.269,8.269,0,0,0,214.413,30.769Z" transform="translate(11.042 1.541)" fill="#fff"/>
  <path id="Path_23455" data-name="Path 23455" d="M222.266,22.464a2.057,2.057,0,1,0-2.057-2.043,2.017,2.017,0,0,0,2.057,2.043Z" transform="translate(11.52 1.537)" fill="#fff"/>
  <path id="Path_23456" data-name="Path 23456" d="M220.055,30.3h4.438l-.933-7.348a5.115,5.115,0,0,1-2.557,0Z" transform="translate(11.514 1.727)" fill="#fff"/>
  <path id="Path_23457" data-name="Path 23457" d="M226.307,30.5h3.6v-6.36c0-1.556.757-2.517,2.219-2.517s2.124.8,2.124,2.517V30.5h3.545V23.243c0-3.166-1.583-4.79-4.29-4.79a4.127,4.127,0,0,0-3.6,1.813v-.758a.761.761,0,0,0-.042-.328.76.76,0,0,0-.456-.456.761.761,0,0,0-.329-.042h-2.706Z" transform="translate(11.777 1.541)" fill="#fff"/>
  <path id="Path_23458" data-name="Path 23458" d="M248.842,18.684a.758.758,0,0,0-.826.825v.717a4.059,4.059,0,0,0-3.586-1.771,5.882,5.882,0,0,0,0,11.71,4.317,4.317,0,0,0,3.586-1.542v.784a2.705,2.705,0,0,1-2.882,2.7,5.2,5.2,0,0,1-3.6-1.352l-1.854,2.7a8.368,8.368,0,0,0,5.508,1.677c3.545,0,6.428-1.771,6.428-6.22V18.684Zm-3.465,8.357a2.705,2.705,0,1,1,1.914-.792A2.707,2.707,0,0,1,245.377,27.041Z" transform="translate(12.321 1.541)" fill="#fff"/>
  <path id="Path_23459" data-name="Path 23459" d="M260.9,18.454a4.438,4.438,0,0,0-3.748,1.771v-.717a.76.76,0,0,0-.042-.328.746.746,0,0,0-.177-.279.756.756,0,0,0-.606-.219H253.62V34.815h3.531V29.19a4.763,4.763,0,0,0,3.748,1.568,5.707,5.707,0,0,0,5.547-6.139,5.708,5.708,0,0,0-5.547-6.166Zm-.947,9.154a3.028,3.028,0,1,1,2.909-3.015,2.868,2.868,0,0,1-2.909,3.015Z" transform="translate(12.923 1.541)" fill="#fff"/>
  <path id="Path_23460" data-name="Path 23460" d="M277.562,18.684a.757.757,0,0,0-.607.219.748.748,0,0,0-.177.279.762.762,0,0,0-.042.328v.717a4.438,4.438,0,0,0-3.816-1.773,5.71,5.71,0,0,0-5.547,6.143,5.71,5.71,0,0,0,5.547,6.143,4.478,4.478,0,0,0,3.816-1.773V30.5h3.545V18.684Zm-3.694,8.931a3.032,3.032,0,1,1,2.011-.954A3.033,3.033,0,0,1,273.868,27.615Z" transform="translate(13.513 1.541)" fill="#fff"/>
  <path id="Path_23461" data-name="Path 23461" d="M286.845,30.768c3,0,4.831-1.57,4.831-4.059,0-1.7-1.042-2.869-3.193-3.342l-2.1-.474c-.812-.19-1.232-.447-1.232-.92s.392-.771,1.354-.771a4.722,4.722,0,0,1,3,1.218l1.772-2.6a7.56,7.56,0,0,0-4.776-1.353c-2.815,0-4.71,1.353-4.71,3.748a3.4,3.4,0,0,0,3.032,3.451l2.1.5c1.042.23,1.353.541,1.353.947s-.433.8-1.353.8a5.8,5.8,0,0,1-3.613-1.353l-1.773,2.6a8.268,8.268,0,0,0,5.413,1.664Z" transform="translate(14.122 1.541)" fill="#fff"/>
  <path id="Path_23462" data-name="Path 23462" d="M297.586,30.768c3,0,4.831-1.57,4.831-4.059,0-1.7-1.042-2.869-3.193-3.342l-2.111-.474c-.8-.189-1.218-.446-1.218-.92s.393-.771,1.354-.771a4.667,4.667,0,0,1,2.99,1.218l1.773-2.6a7.484,7.484,0,0,0-4.763-1.353c-2.815,0-4.709,1.353-4.709,3.748a3.4,3.4,0,0,0,3.031,3.451l2.1.5c1.042.23,1.353.541,1.353.947s-.419.8-1.353.8a5.8,5.8,0,0,1-3.613-1.353l-1.773,2.6a8.268,8.268,0,0,0,5.413,1.664Z" transform="translate(14.583 1.541)" fill="#fff"/>
</svg>
