<svg xmlns="http://www.w3.org/2000/svg" width="24" height="26" viewBox="0 0 24 26">
  <g id="XMLID_2_" transform="translate(-25.274)">
    <g id="Group_34850" data-name="Group 34850" transform="translate(25.274)">
      <g id="Group_34849" data-name="Group 34849" transform="translate(0)">
        <path id="Path_23548" data-name="Path 23548" d="M44.885,281.27a5.932,5.932,0,0,1-4.747,2.338H37.4a2.182,2.182,0,0,1-2.054-1.39,7.082,7.082,0,0,1-1.1-.421,7.428,7.428,0,0,1-2.063-1.474,8.579,8.579,0,0,0-6.908,8.3v.531a1.347,1.347,0,0,0,1.37,1.323H47.9a1.347,1.347,0,0,0,1.37-1.323v-.531A8.45,8.45,0,0,0,44.885,281.27Z" transform="translate(-25.274 -264.481)" fill="#505050"/>
        <path id="Path_23549" data-name="Path 23549" d="M93.194,13.15a1.6,1.6,0,0,0,1.39-.78l.022.055.006.016a6.022,6.022,0,0,0,3.491,3.49,2.247,2.247,0,0,1,1.88-.987h2.78a1.62,1.62,0,0,0,.762-.194,3.033,3.033,0,0,0,.9-.985,7.448,7.448,0,0,0,.7-1.4,1.54,1.54,0,0,0,.439.48V13.5a2.729,2.729,0,0,1-2.794,2.653h-2.78a.905.905,0,1,0,0,1.808h2.78a4.589,4.589,0,0,0,4.7-4.461v-.647a1.48,1.48,0,0,0,.634-1.205V7.873a1.482,1.482,0,0,0-.658-1.222,7.65,7.65,0,0,0-15.169,0,1.482,1.482,0,0,0-.658,1.222v3.77A1.549,1.549,0,0,0,93.194,13.15ZM99.851,1.808a5.61,5.61,0,0,1,5.677,4.881,1.53,1.53,0,0,0-.446.523A5.512,5.512,0,0,0,94.623,7.2l0,.009a1.529,1.529,0,0,0-.446-.523A5.611,5.611,0,0,1,99.851,1.808Z" transform="translate(-87.851)" fill="#505050"/>
      </g>
    </g>
  </g>
</svg>
