<svg xmlns="http://www.w3.org/2000/svg" width="26" height="24" viewBox="0 0 26 24">
  <g id="Layer_12" transform="translate(-2 -3.375)">
    <path id="Path_23573" data-name="Path 23573" d="M22.824,27.821c-2.868-.915-6.613-3.672-6.186-7.045a3.477,3.477,0,0,1,6.186-2.055,3.477,3.477,0,0,1,6.186,2.055C29.435,24.15,25.692,26.9,22.824,27.821Z" transform="translate(-1.043 -0.446)" fill="#505050"/>
    <path id="Path_23574" data-name="Path 23574" d="M13.936,19.947a5.072,5.072,0,0,1,7.845-4.089,5.173,5.173,0,0,1,2.785-.826,4.811,4.811,0,0,1,1.7.317V13.01A3.712,3.712,0,0,0,24.7,9.977L16.152,4.017a3.5,3.5,0,0,0-4.039,0L3.569,9.977A3.7,3.7,0,0,0,2,13.01V23.7a3.632,3.632,0,0,0,3.584,3.679H18.017C15.466,25.611,13.568,22.922,13.936,19.947Z" fill="#505050"/>
  </g>
</svg>
