<svg id="_x32_9_Change_Picture" xmlns="http://www.w3.org/2000/svg" width="150" height="150" viewBox="0 0 150 150">
  <g id="Group_34870" data-name="Group 34870">
    <path id="Path_23564" data-name="Path 23564" d="M40.406,48.813A16.406,16.406,0,1,0,24,32.406,16.427,16.427,0,0,0,40.406,48.813Z" transform="translate(32.25 21.5)" fill="#00adee"/>
    <path id="Path_23565" data-name="Path 23565" d="M58.844,32H35.406A16.427,16.427,0,0,0,19,48.406v4.688a7.04,7.04,0,0,0,7.031,7.031H68.219a7.04,7.04,0,0,0,7.031-7.031V48.406A16.427,16.427,0,0,0,58.844,32Z" transform="translate(25.531 43)" fill="#00adee"/>
    <circle id="Ellipse_638" data-name="Ellipse 638" cx="4.5" cy="4.5" r="4.5" transform="translate(122 127)" fill="#00adee"/>
    <path id="Path_23566" data-name="Path 23566" d="M83.844,53.031H78.221L77.734,50.6A5.977,5.977,0,0,0,72.125,46H62.75a5.977,5.977,0,0,0-5.609,4.6l-.488,2.435H51.031A7.052,7.052,0,0,0,44,60.063V81.156a7.052,7.052,0,0,0,7.031,7.031H83.844a7.052,7.052,0,0,0,7.031-7.031V60.063A7.052,7.052,0,0,0,83.844,53.031ZM67.438,78.813a9.375,9.375,0,1,1,9.375-9.375A9.384,9.384,0,0,1,67.438,78.813Z" transform="translate(59.125 61.813)" fill="#00adee"/>
    <path id="Path_23567" data-name="Path 23567" d="M11.719,72.656a60.938,60.938,0,1,1,113.637,30.469h5.895a10.359,10.359,0,0,1,6.246,2.21,72.645,72.645,0,1,0-39.059,35.231V127.828A60.862,60.862,0,0,1,11.719,72.656Z" fill="#d4e8ff"/>
    <path id="Path_23568" data-name="Path 23568" d="M102.634,100.75A10.856,10.856,0,0,1,110.315,94a56.435,56.435,0,1,0-21.284,19.2v-.727A11.732,11.732,0,0,1,100.75,100.75ZM96.063,86.688A11.732,11.732,0,0,1,84.344,98.406H42.156A11.732,11.732,0,0,1,30.438,86.688V82A21.106,21.106,0,0,1,50.116,60.977a21.094,21.094,0,1,1,26.269,0A21.106,21.106,0,0,1,96.063,82Z" transform="translate(9.406 9.406)" fill="#e4f0fe"/>
  </g>
</svg>
