<svg id="Upload_Image" data-name="Upload Image" xmlns="http://www.w3.org/2000/svg" width="40" height="40" viewBox="0 0 40 40">
  <path id="Upload_Image-2" data-name="Upload Image" d="M10.581,4.535a6.046,6.046,0,0,0-6.046,6.046V24.75L9.423,28.27A6.047,6.047,0,0,0,17,27.857L24.621,21A8.837,8.837,0,0,1,35.7,20.4l3.257,2.345V18.023a1.4,1.4,0,1,1,2.791,0V32.907a8.837,8.837,0,0,1-8.837,8.837H10.582a8.837,8.837,0,0,1-8.837-8.837V25.481q0-.017,0-.034V10.581a8.837,8.837,0,0,1,8.837-8.837H25.465a1.4,1.4,0,1,1,0,2.791ZM4.535,28.189v4.718a6.047,6.047,0,0,0,6.046,6.047H32.907a6.047,6.047,0,0,0,6.047-6.047V26.18l-4.888-3.519a6.047,6.047,0,0,0-7.578.412l-7.62,6.858a8.837,8.837,0,0,1-11.075.6ZM34.767,1.744a1.4,1.4,0,0,1,1.4,1.4V7.326h4.186a1.4,1.4,0,1,1,0,2.791H36.163V14.3a1.4,1.4,0,0,1-2.791,0V10.116H29.186a1.4,1.4,0,1,1,0-2.791h4.186V3.14A1.4,1.4,0,0,1,34.767,1.744ZM15.233,11.977a3.256,3.256,0,1,0,3.256,3.256A3.256,3.256,0,0,0,15.233,11.977ZM9.186,15.233a6.047,6.047,0,1,1,6.046,6.046A6.046,6.046,0,0,1,9.186,15.233Z" transform="translate(-1.744 -1.744)" fill="#a1a1a1" fillRule="evenodd"/>
</svg>
