<svg id="user-edit" xmlns="http://www.w3.org/2000/svg" width="25.998" height="26" viewBox="0 0 25.998 26">
  <path id="Path_23480" data-name="Path 23480" d="M7.179,7.833a5.333,5.333,0,1,1,5.333,5.333A5.333,5.333,0,0,1,7.179,7.833Zm13.4,10.24a.533.533,0,0,0-.169-.32,7.141,7.141,0,0,0-5.24-1.92H9.833c-5.413,0-7.333,3.96-7.333,7.36,0,3.04,1.613,4.64,4.667,4.64H14.1a.363.363,0,0,0,.28-.12.432.432,0,0,0,.12-.287v-2.26a2,2,0,0,1,.587-1.413l5.373-5.4A.412.412,0,0,0,20.576,18.073ZM16.5,25.167V28.5h3.333l6.052-6.025-3.359-3.359Zm11.611-6.785-1.493-1.493a1.333,1.333,0,0,0-1.88,0l-1.279,1.293,3.359,3.359,1.293-1.279a1.333,1.333,0,0,0,0-1.879Z" transform="translate(-2.5 -2.5)" fill="#fff"/>
</svg>
