<svg xmlns="http://www.w3.org/2000/svg" width="26" height="26" viewBox="0 0 26 26">
  <path id="user_4_" data-name="user (4)" d="M8.825,2.5A29.274,29.274,0,0,1,15,2a29.273,29.273,0,0,1,6.175.5,8.277,8.277,0,0,1,4.207,2.113A8.277,8.277,0,0,1,27.5,8.825,29.276,29.276,0,0,1,28,15a29.275,29.275,0,0,1-.5,6.175,8.277,8.277,0,0,1-2.114,4.207A8.277,8.277,0,0,1,21.175,27.5,29.275,29.275,0,0,1,15,28a29.276,29.276,0,0,1-6.175-.5,8.277,8.277,0,0,1-4.207-2.114A8.277,8.277,0,0,1,2.5,21.175,29.273,29.273,0,0,1,2,15a29.274,29.274,0,0,1,.5-6.175A8.277,8.277,0,0,1,4.618,4.618,8.277,8.277,0,0,1,8.825,2.5ZM15,7.2a5.2,5.2,0,1,0,5.2,5.2A5.2,5.2,0,0,0,15,7.2Zm8.291,14.682a1.607,1.607,0,0,1-.443,2.209,6.951,6.951,0,0,1-2.237.866A26.839,26.839,0,0,1,15,25.4a26.837,26.837,0,0,1-5.611-.442,7.01,7.01,0,0,1-2.2-.842,1.606,1.606,0,0,1-.448-2.227,5.383,5.383,0,0,1,2.291-2.034A13.979,13.979,0,0,1,15,18.9a14.318,14.318,0,0,1,5.955.916A5.3,5.3,0,0,1,23.291,21.882Z" transform="translate(-2 -2)" fill="#fff" fillRule="evenodd"/>
</svg>
