<svg xmlns="http://www.w3.org/2000/svg" width="40" height="40" viewBox="0 0 40 40">
  <path id="user_4_" data-name="user (4)" d="M12.5,2.776A45.037,45.037,0,0,1,22,2a45.036,45.036,0,0,1,9.5.776,12.733,12.733,0,0,1,6.473,3.252A12.734,12.734,0,0,1,41.224,12.5,45.04,45.04,0,0,1,42,22a45.039,45.039,0,0,1-.776,9.5,12.734,12.734,0,0,1-3.252,6.473A12.734,12.734,0,0,1,31.5,41.224,45.039,45.039,0,0,1,22,42a45.039,45.039,0,0,1-9.5-.776,12.734,12.734,0,0,1-6.473-3.252A12.733,12.733,0,0,1,2.776,31.5,45.036,45.036,0,0,1,2,22a45.037,45.037,0,0,1,.776-9.5A12.733,12.733,0,0,1,6.027,6.027,12.733,12.733,0,0,1,12.5,2.776ZM22,10a8,8,0,1,0,8,8A8,8,0,0,0,22,10ZM34.755,32.588a2.473,2.473,0,0,1-.681,3.4,10.694,10.694,0,0,1-3.442,1.333A41.29,41.29,0,0,1,22,38a41.288,41.288,0,0,1-8.632-.68,10.785,10.785,0,0,1-3.385-1.3A2.471,2.471,0,0,1,9.293,32.6a8.282,8.282,0,0,1,3.524-3.129C15.16,28.337,18.231,28,22,28s6.823.31,9.162,1.409A8.158,8.158,0,0,1,34.755,32.588Z" transform="translate(-2 -2)" fill="#034ea1" fillRule="evenodd"/>
</svg>
