<svg xmlns="http://www.w3.org/2000/svg" width="698.18" height="211.649" viewBox="0 0 698.18 211.649">
  <g id="Group_35388" data-name="Group 35388" transform="translate(-45.392 -151.887)">
    <path id="Path_20118" data-name="Path 20118" d="M44.6,25.7V15.583a1.419,1.419,0,0,0,1.824-2.172S44.6,11.8,44.6,11.8V4.758c-.032-5.426-7.928-6.167-8.974-.846l-1.562-1.37a4.8,4.8,0,0,0-6.332,0L15.384,13.407A1.421,1.421,0,0,0,17.2,15.584V25.7a4.089,4.089,0,0,0,4.086,4.086H40.521A4.088,4.088,0,0,0,44.6,25.7Zm-4.6-22.673a1.681,1.681,0,0,1,1.735,1.735V9.3l-3.35-2.953-.008-1.587A1.68,1.68,0,0,1,40.009,3.023Zm-6.6,23.914H28.655V23.619a2.222,2.222,0,0,1,2.651-2.109,2.112,2.112,0,0,1,2.109,2.109Zm2.851,0V23.619a5.025,5.025,0,0,0-5.5-4.96,4.966,4.966,0,0,0-4.96,4.96v3.318h-4.51A1.238,1.238,0,0,1,20.05,25.7V13.1L29.618,4.69a1.949,1.949,0,0,1,2.569,0L41.754,13.1V25.708a1.244,1.244,0,0,1-1.241,1.23Z" transform="translate(362.514 333.75)" fill="#e9efff" opacity="0.6"/>
    <path id="Path_22873" data-name="Path 22873" d="M29.7,25.413V15.3a1.419,1.419,0,0,0,1.824-2.172S29.7,11.521,29.7,11.521V4.475c-.032-5.426-7.928-6.167-8.974-.846L19.16,2.259a4.8,4.8,0,0,0-6.332,0L.476,13.123A1.421,1.421,0,0,0,2.295,15.3V25.417A4.089,4.089,0,0,0,6.38,29.5H25.612A4.088,4.088,0,0,0,29.7,25.413ZM25.1,2.74a1.681,1.681,0,0,1,1.735,1.735v4.54l-3.35-2.953-.008-1.587A1.68,1.68,0,0,1,25.1,2.74ZM18.5,26.654H13.746V23.336A2.222,2.222,0,0,1,16.4,21.226a2.112,2.112,0,0,1,2.109,2.109Zm2.851,0V23.336a5.025,5.025,0,0,0-5.5-4.96,4.966,4.966,0,0,0-4.96,4.96v3.318H6.377a1.238,1.238,0,0,1-1.235-1.235V12.813L14.71,4.406a1.949,1.949,0,0,1,2.569,0l9.566,8.411V25.424a1.244,1.244,0,0,1-1.241,1.23Z" transform="translate(605.871 282.65) rotate(-133)" fill="#e9efff" opacity="0.6"/>
    <path id="Path_22874" data-name="Path 22874" d="M29.7,25.413V15.3a1.419,1.419,0,0,0,1.824-2.172S29.7,11.521,29.7,11.521V4.475c-.032-5.426-7.928-6.167-8.974-.846L19.16,2.259a4.8,4.8,0,0,0-6.332,0L.476,13.123A1.421,1.421,0,0,0,2.295,15.3V25.417A4.089,4.089,0,0,0,6.38,29.5H25.612A4.088,4.088,0,0,0,29.7,25.413ZM25.1,2.74a1.681,1.681,0,0,1,1.735,1.735v4.54l-3.35-2.953-.008-1.587A1.68,1.68,0,0,1,25.1,2.74ZM18.5,26.654H13.746V23.336A2.222,2.222,0,0,1,16.4,21.226a2.112,2.112,0,0,1,2.109,2.109Zm2.851,0V23.336a5.025,5.025,0,0,0-5.5-4.96,4.966,4.966,0,0,0-4.96,4.96v3.318H6.377a1.238,1.238,0,0,1-1.235-1.235V12.813L14.71,4.406a1.949,1.949,0,0,1,2.569,0l9.566,8.411V25.424a1.244,1.244,0,0,1-1.241,1.23Z" transform="matrix(-0.208, 0.978, -0.978, -0.208, 690.169, 232.269)" fill="#e9efff" opacity="0.6"/>
    <path id="Path_22876" data-name="Path 22876" d="M29.7,25.413V15.3a1.419,1.419,0,0,0,1.824-2.172S29.7,11.521,29.7,11.521V4.475c-.032-5.426-7.928-6.167-8.974-.846L19.16,2.259a4.8,4.8,0,0,0-6.332,0L.476,13.123A1.421,1.421,0,0,0,2.295,15.3V25.417A4.089,4.089,0,0,0,6.38,29.5H25.612A4.088,4.088,0,0,0,29.7,25.413ZM25.1,2.74a1.681,1.681,0,0,1,1.735,1.735v4.54l-3.35-2.953-.008-1.587A1.68,1.68,0,0,1,25.1,2.74ZM18.5,26.654H13.746V23.336A2.222,2.222,0,0,1,16.4,21.226a2.112,2.112,0,0,1,2.109,2.109Zm2.851,0V23.336a5.025,5.025,0,0,0-5.5-4.96,4.966,4.966,0,0,0-4.96,4.96v3.318H6.377a1.238,1.238,0,0,1-1.235-1.235V12.813L14.71,4.406a1.949,1.949,0,0,1,2.569,0l9.566,8.411V25.424a1.244,1.244,0,0,1-1.241,1.23Z" transform="matrix(-0.208, 0.978, -0.978, -0.208, 223.268, 235.208)" fill="#e9efff" opacity="0.6"/>
    <path id="Path_22875" data-name="Path 22875" d="M29.7,25.413V15.3a1.419,1.419,0,0,0,1.824-2.172S29.7,11.521,29.7,11.521V4.475c-.032-5.426-7.928-6.167-8.974-.846L19.16,2.259a4.8,4.8,0,0,0-6.332,0L.476,13.123A1.421,1.421,0,0,0,2.295,15.3V25.417A4.089,4.089,0,0,0,6.38,29.5H25.612A4.088,4.088,0,0,0,29.7,25.413ZM25.1,2.74a1.681,1.681,0,0,1,1.735,1.735v4.54l-3.35-2.953-.008-1.587A1.68,1.68,0,0,1,25.1,2.74ZM18.5,26.654H13.746V23.336A2.222,2.222,0,0,1,16.4,21.226a2.112,2.112,0,0,1,2.109,2.109Zm2.851,0V23.336a5.025,5.025,0,0,0-5.5-4.96,4.966,4.966,0,0,0-4.96,4.96v3.318H6.377a1.238,1.238,0,0,1-1.235-1.235V12.813L14.71,4.406a1.949,1.949,0,0,1,2.569,0l9.566,8.411V25.424a1.244,1.244,0,0,1-1.241,1.23Z" transform="translate(608.287 189.057) rotate(-9)" fill="#b2e9ff" opacity="0.4"/>
    <path id="Path_22877" data-name="Path 22877" d="M29.7,25.413V15.3a1.419,1.419,0,0,0,1.824-2.172S29.7,11.521,29.7,11.521V4.475c-.032-5.426-7.928-6.167-8.974-.846L19.16,2.259a4.8,4.8,0,0,0-6.332,0L.476,13.123A1.421,1.421,0,0,0,2.295,15.3V25.417A4.089,4.089,0,0,0,6.38,29.5H25.612A4.088,4.088,0,0,0,29.7,25.413ZM25.1,2.74a1.681,1.681,0,0,1,1.735,1.735v4.54l-3.35-2.953-.008-1.587A1.68,1.68,0,0,1,25.1,2.74ZM18.5,26.654H13.746V23.336A2.222,2.222,0,0,1,16.4,21.226a2.112,2.112,0,0,1,2.109,2.109Zm2.851,0V23.336a5.025,5.025,0,0,0-5.5-4.96,4.966,4.966,0,0,0-4.96,4.96v3.318H6.377a1.238,1.238,0,0,1-1.235-1.235V12.813L14.71,4.406a1.949,1.949,0,0,1,2.569,0l9.566,8.411V25.424a1.244,1.244,0,0,1-1.241,1.23Z" transform="translate(141.385 190.659) rotate(-9)" fill="#e9efff" opacity="0.6"/>
    <path id="Path_22878" data-name="Path 22878" d="M29.7,25.413V15.3a1.419,1.419,0,0,0,1.824-2.172S29.7,11.521,29.7,11.521V4.475c-.032-5.426-7.928-6.167-8.974-.846L19.16,2.259a4.8,4.8,0,0,0-6.332,0L.476,13.123A1.421,1.421,0,0,0,2.295,15.3V25.417A4.089,4.089,0,0,0,6.38,29.5H25.612A4.088,4.088,0,0,0,29.7,25.413ZM25.1,2.74a1.681,1.681,0,0,1,1.735,1.735v4.54l-3.35-2.953-.008-1.587A1.68,1.68,0,0,1,25.1,2.74ZM18.5,26.654H13.746V23.336A2.222,2.222,0,0,1,16.4,21.226a2.112,2.112,0,0,1,2.109,2.109Zm2.851,0V23.336a5.025,5.025,0,0,0-5.5-4.96,4.966,4.966,0,0,0-4.96,4.96v3.318H6.377a1.238,1.238,0,0,1-1.235-1.235V12.813L14.71,4.406a1.949,1.949,0,0,1,2.569,0l9.566,8.411V25.424a1.244,1.244,0,0,1-1.241,1.23Z" transform="translate(141.513 277.236) rotate(-133)" fill="#b2e9ff" opacity="0.4"/>
    <g id="deal" transform="translate(477.387 306.759)">
      <path id="Path_22871" data-name="Path 22871" d="M159.8,326.594l-2.749-1a.488.488,0,0,0-.624.293l-.167.458-3.185-1.161a.471.471,0,0,0-.251-.022l-6.626,1.17a1.954,1.954,0,0,0-1.4,1.031l-3.039-1.109a1.931,1.931,0,0,0-1.49.066,1.954,1.954,0,0,0-1.107,1.483,1.993,1.993,0,0,0,1.331,2.141l10.012,3.644a.476.476,0,0,0,.167.03.491.491,0,0,0,.156-.026l2.8-.944.3.108-.167.458a.488.488,0,0,0,.293.625l2.749,1a.473.473,0,0,0,.166.03.487.487,0,0,0,.458-.321l2.668-7.331a.488.488,0,0,0-.293-.622Zm-6.322,5.075-2.8.944-9.851-3.586a1.031,1.031,0,0,1-.7-1.077.975.975,0,0,1,1.3-.78l3.163,1.151a2.108,2.108,0,0,0,.022.269,1.959,1.959,0,0,0,2.258,1.582l5.489-.968-.17-.961-5.487.968a.982.982,0,0,1-1.13-.788.9.9,0,0,1,0-.336.483.483,0,0,0,.008-.049.534.534,0,0,1,.034-.121.979.979,0,0,1,.747-.628l6.5-1.146,3.062,1.114-1.668,4.583-.458-.166A.489.489,0,0,0,153.477,331.668Zm3.2,2.087-1.833-.667,2.334-6.414,1.833.667Zm0,0" transform="translate(-130.8 -305.546)" fill="#e9efff"/>
      <path id="Path_22872" data-name="Path 22872" d="M11.634,7.865a3.821,3.821,0,0,0,.847,1.551.937.937,0,0,0-.015.118v2.655a1.463,1.463,0,0,0,1.463,1.463v4.876a.487.487,0,0,0,.269.439l.975.488a.488.488,0,0,0,.436,0l.975-.488a.487.487,0,0,0,.27-.439V13.652a1.463,1.463,0,0,0,1.463-1.463V9.534a.989.989,0,0,0-.016-.127,3.778,3.778,0,0,0,.748-1.23,1.781,1.781,0,0,0,1.819-.834,1.925,1.925,0,0,0-.306-2.376L16.593,1A3.391,3.391,0,0,0,14.18,0H9.053a.48.48,0,0,0-.192.04L5.543,1.463h-.39V.488A.488.488,0,0,0,4.665,0H.765A.488.488,0,0,0,.277.488v7.8a.488.488,0,0,0,.488.488h3.9a.488.488,0,0,0,.488-.488V7.313h.071c.349,1.17,1.917,1.95,3.342,1.95a3.89,3.89,0,0,0,3.068-1.4ZM4.178,7.8H1.252V.975H4.178Zm11.7,10.425-.488.244-.488-.244V13.652h.975Zm1.463-6.037a.488.488,0,0,1-.488.488H13.929a.488.488,0,0,1-.488-.488V10.2a3.836,3.836,0,0,0,1.052.419.982.982,0,1,0,.137-.98,2.891,2.891,0,0,1-.78-.333,3.828,3.828,0,0,1,1.542-.529,4.57,4.57,0,0,1,1.95.758ZM17.7,8.617A5.322,5.322,0,0,0,15.391,7.8a5.313,5.313,0,0,0-2.31.814,2.856,2.856,0,0,1-.572-1.3H14.9a1.9,1.9,0,0,0,1.7-1.019l1.365,1.365a1.757,1.757,0,0,0,.173.142,2.8,2.8,0,0,1-.44.816Zm-.874-3.478a1.932,1.932,0,0,0-.483-1.073,2.926,2.926,0,0,1,1.958,2.549ZM11,6.826C11,7.564,9.8,8.289,8.566,8.289S6.128,7.564,6.128,6.826a.488.488,0,0,0-.488-.488H5.153v-3.9H5.64a.481.481,0,0,0,.192-.04L9.151.975h5.027a2.422,2.422,0,0,1,1.726.714L19.87,5.656a.944.944,0,0,1,.174,1.161.878.878,0,0,1-.752.409h-.023a3.8,3.8,0,0,0,.023-.4,3.9,3.9,0,0,0-3.9-3.9,3.86,3.86,0,0,0-1.872.488H9.541v.975H14.9a.975.975,0,0,1,0,1.95H11.491A.488.488,0,0,0,11,6.826Zm0,0" transform="translate(-0.277 0)" fill="#e9efff"/>
    </g>
    <g id="deal-2" data-name="deal" transform="translate(247.583 306.759)">
      <path id="Path_22871-2" data-name="Path 22871" d="M159.8,326.594l-2.749-1a.488.488,0,0,0-.624.293l-.167.458-3.185-1.161a.471.471,0,0,0-.251-.022l-6.626,1.17a1.954,1.954,0,0,0-1.4,1.031l-3.039-1.109a1.931,1.931,0,0,0-1.49.066,1.954,1.954,0,0,0-1.107,1.483,1.993,1.993,0,0,0,1.331,2.141l10.012,3.644a.476.476,0,0,0,.167.03.491.491,0,0,0,.156-.026l2.8-.944.3.108-.167.458a.488.488,0,0,0,.293.625l2.749,1a.473.473,0,0,0,.166.03.487.487,0,0,0,.458-.321l2.668-7.331a.488.488,0,0,0-.293-.622Zm-6.322,5.075-2.8.944-9.851-3.586a1.031,1.031,0,0,1-.7-1.077.975.975,0,0,1,1.3-.78l3.163,1.151a2.108,2.108,0,0,0,.022.269,1.959,1.959,0,0,0,2.258,1.582l5.489-.968-.17-.961-5.487.968a.982.982,0,0,1-1.13-.788.9.9,0,0,1,0-.336.483.483,0,0,0,.008-.049.534.534,0,0,1,.034-.121.979.979,0,0,1,.747-.628l6.5-1.146,3.062,1.114-1.668,4.583-.458-.166A.489.489,0,0,0,153.477,331.668Zm3.2,2.087-1.833-.667,2.334-6.414,1.833.667Zm0,0" transform="translate(-130.8 -305.546)" fill="#b2e9ff"/>
      <path id="Path_22872-2" data-name="Path 22872" d="M11.634,7.865a3.821,3.821,0,0,0,.847,1.551.937.937,0,0,0-.015.118v2.655a1.463,1.463,0,0,0,1.463,1.463v4.876a.487.487,0,0,0,.269.439l.975.488a.488.488,0,0,0,.436,0l.975-.488a.487.487,0,0,0,.27-.439V13.652a1.463,1.463,0,0,0,1.463-1.463V9.534a.989.989,0,0,0-.016-.127,3.778,3.778,0,0,0,.748-1.23,1.781,1.781,0,0,0,1.819-.834,1.925,1.925,0,0,0-.306-2.376L16.593,1A3.391,3.391,0,0,0,14.18,0H9.053a.48.48,0,0,0-.192.04L5.543,1.463h-.39V.488A.488.488,0,0,0,4.665,0H.765A.488.488,0,0,0,.277.488v7.8a.488.488,0,0,0,.488.488h3.9a.488.488,0,0,0,.488-.488V7.313h.071c.349,1.17,1.917,1.95,3.342,1.95a3.89,3.89,0,0,0,3.068-1.4ZM4.178,7.8H1.252V.975H4.178Zm11.7,10.425-.488.244-.488-.244V13.652h.975Zm1.463-6.037a.488.488,0,0,1-.488.488H13.929a.488.488,0,0,1-.488-.488V10.2a3.836,3.836,0,0,0,1.052.419.982.982,0,1,0,.137-.98,2.891,2.891,0,0,1-.78-.333,3.828,3.828,0,0,1,1.542-.529,4.57,4.57,0,0,1,1.95.758ZM17.7,8.617A5.322,5.322,0,0,0,15.391,7.8a5.313,5.313,0,0,0-2.31.814,2.856,2.856,0,0,1-.572-1.3H14.9a1.9,1.9,0,0,0,1.7-1.019l1.365,1.365a1.757,1.757,0,0,0,.173.142,2.8,2.8,0,0,1-.44.816Zm-.874-3.478a1.932,1.932,0,0,0-.483-1.073,2.926,2.926,0,0,1,1.958,2.549ZM11,6.826C11,7.564,9.8,8.289,8.566,8.289S6.128,7.564,6.128,6.826a.488.488,0,0,0-.488-.488H5.153v-3.9H5.64a.481.481,0,0,0,.192-.04L9.151.975h5.027a2.422,2.422,0,0,1,1.726.714L19.87,5.656a.944.944,0,0,1,.174,1.161.878.878,0,0,1-.752.409h-.023a3.8,3.8,0,0,0,.023-.4,3.9,3.9,0,0,0-3.9-3.9,3.86,3.86,0,0,0-1.872.488H9.541v.975H14.9a.975.975,0,0,1,0,1.95H11.491A.488.488,0,0,0,11,6.826Zm0,0" transform="translate(-0.277 0)" fill="#b2e9ff"/>
    </g>
    <g id="Icon" transform="translate(310.434 184.05)" opacity="0.6">
      <path id="Shape" d="M34.584,15.484H2.65A2.737,2.737,0,0,1,0,12.673V2.811A2.737,2.737,0,0,1,2.65,0H34.584a2.737,2.737,0,0,1,2.65,2.811v9.862A2.737,2.737,0,0,1,34.584,15.484ZM2.65,2.589a.613.613,0,0,0-.53.242v9.824a.617.617,0,0,0,.53.242H34.584a.615.615,0,0,0,.53-.242V2.831a.611.611,0,0,0-.53-.242Z" transform="translate(0 11.629)" fill="#e9efff"/>
      <path id="Shape-2" data-name="Shape" d="M27.031,14.218H1.06A1.2,1.2,0,0,1,0,12.924V1.295A1.2,1.2,0,0,1,1.06,0H27.031a1.2,1.2,0,0,1,1.058,1.295V12.924A1.2,1.2,0,0,1,27.031,14.218ZM2.118,2.6h0v9.033H25.973V2.6Z" transform="translate(4.571)" fill="#e9efff"/>
      <path id="Path" d="M1044.077,221.283a1.2,1.2,0,0,1-1.059-1.294v-6.1a1.081,1.081,0,1,1,2.119,0v6.1A1.2,1.2,0,0,1,1044.077,221.283Z" transform="translate(-1043.017 -189.591)" fill="#e9efff"/>
      <path id="Path-2" data-name="Path" d="M1061.727,221.283a1.2,1.2,0,0,1-1.059-1.294v-6.1a1.081,1.081,0,1,1,2.12,0v6.1A1.2,1.2,0,0,1,1061.727,221.283Z" transform="translate(-1025.554 -189.591)" fill="#e9efff"/>
      <path id="Shape-3" data-name="Shape" d="M6.537,7.765H1.06A1.2,1.2,0,0,1,0,6.471V1.295A1.2,1.2,0,0,1,1.06,0H6.537A1.2,1.2,0,0,1,7.6,1.295V6.471A1.2,1.2,0,0,1,6.537,7.765ZM2.109,2.589V5.176H5.472V2.589Z" transform="translate(8.877 6.453)" fill="#e9efff"/>
      <path id="Shape-4" data-name="Shape" d="M6.537,7.765H1.06A1.2,1.2,0,0,1,0,6.471V1.295A1.2,1.2,0,0,1,1.06,0H6.537A1.2,1.2,0,0,1,7.6,1.295V6.471A1.2,1.2,0,0,1,6.537,7.765ZM2.111,2.589V5.176H5.472V2.589Z" transform="translate(20.714 6.453)" fill="#e9efff"/>
    </g>
    <g id="Icon-2" data-name="Icon" transform="translate(552.559 153.079) rotate(48)" opacity="0.4">
      <path id="Shape-5" data-name="Shape" d="M34.584,15.484H2.65A2.737,2.737,0,0,1,0,12.673V2.811A2.737,2.737,0,0,1,2.65,0H34.584a2.737,2.737,0,0,1,2.65,2.811v9.862A2.737,2.737,0,0,1,34.584,15.484ZM2.65,2.589a.613.613,0,0,0-.53.242v9.824a.617.617,0,0,0,.53.242H34.584a.615.615,0,0,0,.53-.242V2.831a.611.611,0,0,0-.53-.242Z" transform="translate(0 11.629)" fill="#b2e9ff"/>
      <path id="Shape-6" data-name="Shape" d="M27.031,14.218H1.06A1.2,1.2,0,0,1,0,12.924V1.295A1.2,1.2,0,0,1,1.06,0H27.031a1.2,1.2,0,0,1,1.058,1.295V12.924A1.2,1.2,0,0,1,27.031,14.218ZM2.118,2.6h0v9.033H25.973V2.6Z" transform="translate(4.571 0)" fill="#b2e9ff"/>
      <path id="Path-3" data-name="Path" d="M1.059,8.683A1.2,1.2,0,0,1,0,7.389v-6.1A1.2,1.2,0,0,1,1.059,0a1.2,1.2,0,0,1,1.06,1.294v6.1A1.2,1.2,0,0,1,1.059,8.683Z" transform="translate(0 23.009)" fill="#b2e9ff"/>
      <path id="Path-4" data-name="Path" d="M1.06,8.683A1.2,1.2,0,0,1,0,7.389v-6.1A1.2,1.2,0,0,1,1.06,0a1.2,1.2,0,0,1,1.06,1.294v6.1A1.2,1.2,0,0,1,1.06,8.683Z" transform="translate(35.114 23.009)" fill="#b2e9ff"/>
      <path id="Shape-7" data-name="Shape" d="M6.537,7.765H1.06A1.2,1.2,0,0,1,0,6.471V1.295A1.2,1.2,0,0,1,1.06,0H6.537A1.2,1.2,0,0,1,7.6,1.295V6.471A1.2,1.2,0,0,1,6.537,7.765ZM2.109,2.589V5.176H5.472V2.589Z" transform="translate(8.877 6.453)" fill="#b2e9ff"/>
      <path id="Shape-8" data-name="Shape" d="M6.537,7.765H1.06A1.2,1.2,0,0,1,0,6.471V1.295A1.2,1.2,0,0,1,1.06,0H6.537A1.2,1.2,0,0,1,7.6,1.295V6.471A1.2,1.2,0,0,1,6.537,7.765ZM2.111,2.589V5.176H5.472V2.589Z" transform="translate(20.714 6.453)" fill="#b2e9ff"/>
    </g>
    <g id="Icon-3" data-name="Icon" transform="translate(85.658 156.148) rotate(48)" opacity="0.4">
      <path id="Shape-9" data-name="Shape" d="M34.584,15.484H2.65A2.737,2.737,0,0,1,0,12.673V2.811A2.737,2.737,0,0,1,2.65,0H34.584a2.737,2.737,0,0,1,2.65,2.811v9.862A2.737,2.737,0,0,1,34.584,15.484ZM2.65,2.589a.613.613,0,0,0-.53.242v9.824a.617.617,0,0,0,.53.242H34.584a.615.615,0,0,0,.53-.242V2.831a.611.611,0,0,0-.53-.242Z" transform="translate(0 11.629)" fill="#b2e9ff"/>
      <path id="Shape-10" data-name="Shape" d="M27.031,14.218H1.06A1.2,1.2,0,0,1,0,12.924V1.295A1.2,1.2,0,0,1,1.06,0H27.031a1.2,1.2,0,0,1,1.058,1.295V12.924A1.2,1.2,0,0,1,27.031,14.218ZM2.118,2.6h0v9.033H25.973V2.6Z" transform="translate(4.571 0)" fill="#b2e9ff"/>
      <path id="Path-5" data-name="Path" d="M1.059,8.683A1.2,1.2,0,0,1,0,7.389v-6.1A1.2,1.2,0,0,1,1.059,0a1.2,1.2,0,0,1,1.06,1.294v6.1A1.2,1.2,0,0,1,1.059,8.683Z" transform="translate(0 23.009)" fill="#b2e9ff"/>
      <path id="Path-6" data-name="Path" d="M1.06,8.683A1.2,1.2,0,0,1,0,7.389v-6.1A1.2,1.2,0,0,1,1.06,0a1.2,1.2,0,0,1,1.06,1.294v6.1A1.2,1.2,0,0,1,1.06,8.683Z" transform="translate(35.114 23.009)" fill="#b2e9ff"/>
      <path id="Shape-11" data-name="Shape" d="M6.537,7.765H1.06A1.2,1.2,0,0,1,0,6.471V1.295A1.2,1.2,0,0,1,1.06,0H6.537A1.2,1.2,0,0,1,7.6,1.295V6.471A1.2,1.2,0,0,1,6.537,7.765ZM2.109,2.589V5.176H5.472V2.589Z" transform="translate(8.877 6.453)" fill="#b2e9ff"/>
      <path id="Shape-12" data-name="Shape" d="M6.537,7.765H1.06A1.2,1.2,0,0,1,0,6.471V1.295A1.2,1.2,0,0,1,1.06,0H6.537A1.2,1.2,0,0,1,7.6,1.295V6.471A1.2,1.2,0,0,1,6.537,7.765ZM2.111,2.589V5.176H5.472V2.589Z" transform="translate(20.714 6.453)" fill="#b2e9ff"/>
    </g>
    <g id="Icon-4" data-name="Icon" transform="translate(510.474 242.851) rotate(-9)" opacity="0.6">
      <path id="Shape-13" data-name="Shape" d="M34.584,15.484H2.65A2.737,2.737,0,0,1,0,12.673V2.811A2.737,2.737,0,0,1,2.65,0H34.584a2.737,2.737,0,0,1,2.65,2.811v9.862A2.737,2.737,0,0,1,34.584,15.484ZM2.65,2.589a.613.613,0,0,0-.53.242v9.824a.617.617,0,0,0,.53.242H34.584a.615.615,0,0,0,.53-.242V2.831a.611.611,0,0,0-.53-.242Z" transform="translate(0 11.629)" fill="#e9efff"/>
      <path id="Shape-14" data-name="Shape" d="M27.031,14.218H1.06A1.2,1.2,0,0,1,0,12.924V1.295A1.2,1.2,0,0,1,1.06,0H27.031a1.2,1.2,0,0,1,1.058,1.295V12.924A1.2,1.2,0,0,1,27.031,14.218ZM2.118,2.6h0v9.033H25.973V2.6Z" transform="translate(4.571 0)" fill="#e9efff"/>
      <path id="Path-7" data-name="Path" d="M1.059,8.683A1.2,1.2,0,0,1,0,7.389v-6.1A1.2,1.2,0,0,1,1.059,0a1.2,1.2,0,0,1,1.06,1.294v6.1A1.2,1.2,0,0,1,1.059,8.683Z" transform="translate(0 23.009)" fill="#e9efff"/>
      <path id="Path-8" data-name="Path" d="M1.06,8.683A1.2,1.2,0,0,1,0,7.389v-6.1A1.2,1.2,0,0,1,1.06,0a1.2,1.2,0,0,1,1.06,1.294v6.1A1.2,1.2,0,0,1,1.06,8.683Z" transform="translate(35.114 23.009)" fill="#e9efff"/>
      <path id="Shape-15" data-name="Shape" d="M6.537,7.765H1.06A1.2,1.2,0,0,1,0,6.471V1.295A1.2,1.2,0,0,1,1.06,0H6.537A1.2,1.2,0,0,1,7.6,1.295V6.471A1.2,1.2,0,0,1,6.537,7.765ZM2.109,2.589V5.176H5.472V2.589Z" transform="translate(8.877 6.453)" fill="#e9efff"/>
      <path id="Shape-16" data-name="Shape" d="M6.537,7.765H1.06A1.2,1.2,0,0,1,0,6.471V1.295A1.2,1.2,0,0,1,1.06,0H6.537A1.2,1.2,0,0,1,7.6,1.295V6.471A1.2,1.2,0,0,1,6.537,7.765ZM2.111,2.589V5.176H5.472V2.589Z" transform="translate(20.714 6.453)" fill="#e9efff"/>
    </g>
    <g id="Icon-5" data-name="Icon" transform="translate(43.572 245.79) rotate(-9)" opacity="0.6">
      <path id="Shape-17" data-name="Shape" d="M34.584,15.484H2.65A2.737,2.737,0,0,1,0,12.673V2.811A2.737,2.737,0,0,1,2.65,0H34.584a2.737,2.737,0,0,1,2.65,2.811v9.862A2.737,2.737,0,0,1,34.584,15.484ZM2.65,2.589a.613.613,0,0,0-.53.242v9.824a.617.617,0,0,0,.53.242H34.584a.615.615,0,0,0,.53-.242V2.831a.611.611,0,0,0-.53-.242Z" transform="translate(0 11.629)" fill="#e9efff"/>
      <path id="Shape-18" data-name="Shape" d="M27.031,14.218H1.06A1.2,1.2,0,0,1,0,12.924V1.295A1.2,1.2,0,0,1,1.06,0H27.031a1.2,1.2,0,0,1,1.058,1.295V12.924A1.2,1.2,0,0,1,27.031,14.218ZM2.118,2.6h0v9.033H25.973V2.6Z" transform="translate(4.571 0)" fill="#e9efff"/>
      <path id="Path-9" data-name="Path" d="M1.059,8.683A1.2,1.2,0,0,1,0,7.389v-6.1A1.2,1.2,0,0,1,1.059,0a1.2,1.2,0,0,1,1.06,1.294v6.1A1.2,1.2,0,0,1,1.059,8.683Z" transform="translate(0 23.009)" fill="#e9efff"/>
      <path id="Path-10" data-name="Path" d="M1.06,8.683A1.2,1.2,0,0,1,0,7.389v-6.1A1.2,1.2,0,0,1,1.06,0a1.2,1.2,0,0,1,1.06,1.294v6.1A1.2,1.2,0,0,1,1.06,8.683Z" transform="translate(35.114 23.009)" fill="#e9efff"/>
      <path id="Shape-19" data-name="Shape" d="M6.537,7.765H1.06A1.2,1.2,0,0,1,0,6.471V1.295A1.2,1.2,0,0,1,1.06,0H6.537A1.2,1.2,0,0,1,7.6,1.295V6.471A1.2,1.2,0,0,1,6.537,7.765ZM2.109,2.589V5.176H5.472V2.589Z" transform="translate(8.877 6.453)" fill="#e9efff"/>
      <path id="Shape-20" data-name="Shape" d="M6.537,7.765H1.06A1.2,1.2,0,0,1,0,6.471V1.295A1.2,1.2,0,0,1,1.06,0H6.537A1.2,1.2,0,0,1,7.6,1.295V6.471A1.2,1.2,0,0,1,6.537,7.765ZM2.111,2.589V5.176H5.472V2.589Z" transform="translate(20.714 6.453)" fill="#e9efff"/>
    </g>
    <g id="Icon-6" data-name="Icon" transform="translate(563.439 294.385) rotate(48)" opacity="0.4">
      <path id="Path-11" data-name="Path" d="M11.825,28.879q-1.5,0-3.066-.027c-4.137-.072-7.087-2-8.1-5.3a15.293,15.293,0,0,1-.508-3.127C.108,19.966.065,19.505,0,19.048a.592.592,0,0,1,.6-.613.653.653,0,0,1,.745.49c.065.47.109.943.153,1.417a14.458,14.458,0,0,0,.471,2.94c.865,2.817,3.284,4.4,6.818,4.46a133.609,133.609,0,0,0,15.184-.51c3.018-.293,5.373-3.156,5.366-6.518-.015-5.967-.308-12.028-.581-17.241A2.437,2.437,0,0,0,27.015,1.4a4.276,4.276,0,0,0-3.721.306,5.8,5.8,0,0,0-1.34,1.324c-.212.26-.428.519-.656.76a.776.776,0,0,1-.947.1.492.492,0,0,1-.118-.779c.209-.223.406-.462.6-.7A6.731,6.731,0,0,1,22.488.814,5.867,5.867,0,0,1,27.595.4,3.574,3.574,0,0,1,30.1,3.427c.276,5.224.57,11.3.583,17.287a7.537,7.537,0,0,1-6.556,7.622C20.362,28.7,16.312,28.879,11.825,28.879Z" transform="translate(4.499 0)" fill="#b2e9ff" stroke="#b2e9ff" strokeWidth="0.6"/>
      <path id="Path-12" data-name="Path" d="M36.061,1.6h-.012L.663,1.111A.618.618,0,0,1,0,.546.643.643,0,0,1,.687,0L36.071.493a.621.621,0,0,1,.664.566A.626.626,0,0,1,36.061,1.6Z" transform="translate(0 17.939)" fill="#b2e9ff" stroke="#b2e9ff" strokeWidth="0.6"/>
      <path id="Path-13" data-name="Path" d="M8.773,7.036a.779.779,0,0,1-.3-.058.515.515,0,0,1-.3-.744C9.881,3.387,8.6,2.171,7.476,1.5,6.085.672,3.816,1.167,2.069,2.675a5.533,5.533,0,0,0-.572.607c-.092.108-.184.217-.281.323a.775.775,0,0,1-.946.113.493.493,0,0,1-.136-.777c.088-.1.171-.2.255-.3a6.523,6.523,0,0,1,.7-.737C3.308-.007,6.327-.554,8.267.6,10.608,2,10.981,4.061,9.376,6.727A.691.691,0,0,1,8.773,7.036Z" transform="translate(18.889 3.133)" fill="#b2e9ff" stroke="#b2e9ff" strokeWidth="0.6"/>
      <path id="Path-14" data-name="Path" d="M12.368,6.291a.778.778,0,0,1-.334-.073L11.37,5.9c-.469-.226-.94-.45-1.42-.661Q6.332,3.65,2.707,2.073L.358,1.046A.512.512,0,0,1,.078.294.758.758,0,0,1,.99.063L3.34,1.09q3.627,1.582,7.246,3.17c.5.216.977.447,1.463.68l.656.312a.507.507,0,0,1,.251.757A.708.708,0,0,1,12.368,6.291Z" transform="translate(16.794 4.864)" fill="#b2e9ff" stroke="#b2e9ff" strokeWidth="0.6"/>
      <path id="Path-15" data-name="Path" d="M2.477,4.071a.7.7,0,0,1-.6-.307L.072.8a.513.513,0,0,1,.3-.745A.747.747,0,0,1,1.28.308l1.8,2.96a.513.513,0,0,1-.3.745A.8.8,0,0,1,2.477,4.071Z" transform="translate(29.685 27.311)" fill="#b2e9ff" stroke="#b2e9ff" strokeWidth="0.6"/>
      <path id="Path-16" data-name="Path" d="M.673,3.824a.762.762,0,0,1-.394-.107A.5.5,0,0,1,.13,2.941L2.529.229A.772.772,0,0,1,3.471.106.494.494,0,0,1,3.62.881L1.221,3.6A.734.734,0,0,1,.673,3.824Z" transform="translate(5.998 27.311)" fill="#b2e9ff" stroke="#b2e9ff" strokeWidth="0.6"/>
    </g>
    <g id="Icon-7" data-name="Icon" transform="translate(92.559 292.101) rotate(48)" opacity="0.4">
      <path id="Path-17" data-name="Path" d="M11.825,28.879q-1.5,0-3.066-.027c-4.137-.072-7.087-2-8.1-5.3a15.293,15.293,0,0,1-.508-3.127C.108,19.966.065,19.505,0,19.048a.592.592,0,0,1,.6-.613.653.653,0,0,1,.745.49c.065.47.109.943.153,1.417a14.458,14.458,0,0,0,.471,2.94c.865,2.817,3.284,4.4,6.818,4.46a133.609,133.609,0,0,0,15.184-.51c3.018-.293,5.373-3.156,5.366-6.518-.015-5.967-.308-12.028-.581-17.241A2.437,2.437,0,0,0,27.015,1.4a4.276,4.276,0,0,0-3.721.306,5.8,5.8,0,0,0-1.34,1.324c-.212.26-.428.519-.656.76a.776.776,0,0,1-.947.1.492.492,0,0,1-.118-.779c.209-.223.406-.462.6-.7A6.731,6.731,0,0,1,22.488.814,5.867,5.867,0,0,1,27.595.4,3.574,3.574,0,0,1,30.1,3.427c.276,5.224.57,11.3.583,17.287a7.537,7.537,0,0,1-6.556,7.622C20.362,28.7,16.312,28.879,11.825,28.879Z" transform="translate(4.499 0)" fill="#b2e9ff" stroke="#b2e9ff" strokeWidth="0.6"/>
      <path id="Path-18" data-name="Path" d="M36.061,1.6h-.012L.663,1.111A.618.618,0,0,1,0,.546.643.643,0,0,1,.687,0L36.071.493a.621.621,0,0,1,.664.566A.626.626,0,0,1,36.061,1.6Z" transform="translate(0 17.939)" fill="#b2e9ff" stroke="#b2e9ff" strokeWidth="0.6"/>
      <path id="Path-19" data-name="Path" d="M8.773,7.036a.779.779,0,0,1-.3-.058.515.515,0,0,1-.3-.744C9.881,3.387,8.6,2.171,7.476,1.5,6.085.672,3.816,1.167,2.069,2.675a5.533,5.533,0,0,0-.572.607c-.092.108-.184.217-.281.323a.775.775,0,0,1-.946.113.493.493,0,0,1-.136-.777c.088-.1.171-.2.255-.3a6.523,6.523,0,0,1,.7-.737C3.308-.007,6.327-.554,8.267.6,10.608,2,10.981,4.061,9.376,6.727A.691.691,0,0,1,8.773,7.036Z" transform="translate(18.889 3.133)" fill="#b2e9ff" stroke="#b2e9ff" strokeWidth="0.6"/>
      <path id="Path-20" data-name="Path" d="M12.368,6.291a.778.778,0,0,1-.334-.073L11.37,5.9c-.469-.226-.94-.45-1.42-.661Q6.332,3.65,2.707,2.073L.358,1.046A.512.512,0,0,1,.078.294.758.758,0,0,1,.99.063L3.34,1.09q3.627,1.582,7.246,3.17c.5.216.977.447,1.463.68l.656.312a.507.507,0,0,1,.251.757A.708.708,0,0,1,12.368,6.291Z" transform="translate(16.794 4.864)" fill="#b2e9ff" stroke="#b2e9ff" strokeWidth="0.6"/>
      <path id="Path-21" data-name="Path" d="M2.477,4.071a.7.7,0,0,1-.6-.307L.072.8a.513.513,0,0,1,.3-.745A.747.747,0,0,1,1.28.308l1.8,2.96a.513.513,0,0,1-.3.745A.8.8,0,0,1,2.477,4.071Z" transform="translate(29.685 27.311)" fill="#b2e9ff" stroke="#b2e9ff" strokeWidth="0.6"/>
      <path id="Path-22" data-name="Path" d="M.673,3.824a.762.762,0,0,1-.394-.107A.5.5,0,0,1,.13,2.941L2.529.229A.772.772,0,0,1,3.471.106.494.494,0,0,1,3.62.881L1.221,3.6A.734.734,0,0,1,.673,3.824Z" transform="translate(5.998 27.311)" fill="#b2e9ff" stroke="#b2e9ff" strokeWidth="0.6"/>
    </g>
    <g id="Icon-8" data-name="Icon" transform="translate(630.082 318.928) rotate(-9)" opacity="0.6">
      <path id="Path-23" data-name="Path" d="M11.825,28.879q-1.5,0-3.066-.027c-4.137-.072-7.087-2-8.1-5.3a15.293,15.293,0,0,1-.508-3.127C.108,19.966.065,19.505,0,19.048a.592.592,0,0,1,.6-.613.653.653,0,0,1,.745.49c.065.47.109.943.153,1.417a14.458,14.458,0,0,0,.471,2.94c.865,2.817,3.284,4.4,6.818,4.46a133.609,133.609,0,0,0,15.184-.51c3.018-.293,5.373-3.156,5.366-6.518-.015-5.967-.308-12.028-.581-17.241A2.437,2.437,0,0,0,27.015,1.4a4.276,4.276,0,0,0-3.721.306,5.8,5.8,0,0,0-1.34,1.324c-.212.26-.428.519-.656.76a.776.776,0,0,1-.947.1.492.492,0,0,1-.118-.779c.209-.223.406-.462.6-.7A6.731,6.731,0,0,1,22.488.814,5.867,5.867,0,0,1,27.595.4,3.574,3.574,0,0,1,30.1,3.427c.276,5.224.57,11.3.583,17.287a7.537,7.537,0,0,1-6.556,7.622C20.362,28.7,16.312,28.879,11.825,28.879Z" transform="translate(4.499 0)" fill="#e9efff" stroke="#e9efff" strokeWidth="0.6"/>
      <path id="Path-24" data-name="Path" d="M36.061,1.6h-.012L.663,1.111A.618.618,0,0,1,0,.546.643.643,0,0,1,.687,0L36.071.493a.621.621,0,0,1,.664.566A.626.626,0,0,1,36.061,1.6Z" transform="translate(0 17.939)" fill="#e9efff" stroke="#e9efff" strokeWidth="0.6"/>
      <path id="Path-25" data-name="Path" d="M8.773,7.036a.779.779,0,0,1-.3-.058.515.515,0,0,1-.3-.744C9.881,3.387,8.6,2.171,7.476,1.5,6.085.672,3.816,1.167,2.069,2.675a5.533,5.533,0,0,0-.572.607c-.092.108-.184.217-.281.323a.775.775,0,0,1-.946.113.493.493,0,0,1-.136-.777c.088-.1.171-.2.255-.3a6.523,6.523,0,0,1,.7-.737C3.308-.007,6.327-.554,8.267.6,10.608,2,10.981,4.061,9.376,6.727A.691.691,0,0,1,8.773,7.036Z" transform="translate(18.889 3.133)" fill="#e9efff" stroke="#e9efff" strokeWidth="0.6"/>
      <path id="Path-26" data-name="Path" d="M12.368,6.291a.778.778,0,0,1-.334-.073L11.37,5.9c-.469-.226-.94-.45-1.42-.661Q6.332,3.65,2.707,2.073L.358,1.046A.512.512,0,0,1,.078.294.758.758,0,0,1,.99.063L3.34,1.09q3.627,1.582,7.246,3.17c.5.216.977.447,1.463.68l.656.312a.507.507,0,0,1,.251.757A.708.708,0,0,1,12.368,6.291Z" transform="translate(16.794 4.864)" fill="#e9efff" stroke="#e9efff" strokeWidth="0.6"/>
      <path id="Path-27" data-name="Path" d="M2.477,4.071a.7.7,0,0,1-.6-.307L.072.8a.513.513,0,0,1,.3-.745A.747.747,0,0,1,1.28.308l1.8,2.96a.513.513,0,0,1-.3.745A.8.8,0,0,1,2.477,4.071Z" transform="translate(29.685 27.311)" fill="#e9efff" stroke="#e9efff" strokeWidth="0.6"/>
      <path id="Path-28" data-name="Path" d="M.673,3.824a.762.762,0,0,1-.394-.107A.5.5,0,0,1,.13,2.941L2.529.229A.772.772,0,0,1,3.471.106.494.494,0,0,1,3.62.881L1.221,3.6A.734.734,0,0,1,.673,3.824Z" transform="translate(5.998 27.311)" fill="#e9efff" stroke="#e9efff" strokeWidth="0.6"/>
    </g>
    <g id="Icon-9" data-name="Icon" transform="translate(163.18 321.997) rotate(-9)" opacity="0.6">
      <path id="Path-29" data-name="Path" d="M11.825,28.879q-1.5,0-3.066-.027c-4.137-.072-7.087-2-8.1-5.3a15.293,15.293,0,0,1-.508-3.127C.108,19.966.065,19.505,0,19.048a.592.592,0,0,1,.6-.613.653.653,0,0,1,.745.49c.065.47.109.943.153,1.417a14.458,14.458,0,0,0,.471,2.94c.865,2.817,3.284,4.4,6.818,4.46a133.609,133.609,0,0,0,15.184-.51c3.018-.293,5.373-3.156,5.366-6.518-.015-5.967-.308-12.028-.581-17.241A2.437,2.437,0,0,0,27.015,1.4a4.276,4.276,0,0,0-3.721.306,5.8,5.8,0,0,0-1.34,1.324c-.212.26-.428.519-.656.76a.776.776,0,0,1-.947.1.492.492,0,0,1-.118-.779c.209-.223.406-.462.6-.7A6.731,6.731,0,0,1,22.488.814,5.867,5.867,0,0,1,27.595.4,3.574,3.574,0,0,1,30.1,3.427c.276,5.224.57,11.3.583,17.287a7.537,7.537,0,0,1-6.556,7.622C20.362,28.7,16.312,28.879,11.825,28.879Z" transform="translate(4.499 0)" fill="#e9efff" stroke="#e9efff" strokeWidth="0.6"/>
      <path id="Path-30" data-name="Path" d="M36.061,1.6h-.012L.663,1.111A.618.618,0,0,1,0,.546.643.643,0,0,1,.687,0L36.071.493a.621.621,0,0,1,.664.566A.626.626,0,0,1,36.061,1.6Z" transform="translate(0 17.939)" fill="#e9efff" stroke="#e9efff" strokeWidth="0.6"/>
      <path id="Path-31" data-name="Path" d="M8.773,7.036a.779.779,0,0,1-.3-.058.515.515,0,0,1-.3-.744C9.881,3.387,8.6,2.171,7.476,1.5,6.085.672,3.816,1.167,2.069,2.675a5.533,5.533,0,0,0-.572.607c-.092.108-.184.217-.281.323a.775.775,0,0,1-.946.113.493.493,0,0,1-.136-.777c.088-.1.171-.2.255-.3a6.523,6.523,0,0,1,.7-.737C3.308-.007,6.327-.554,8.267.6,10.608,2,10.981,4.061,9.376,6.727A.691.691,0,0,1,8.773,7.036Z" transform="translate(18.889 3.133)" fill="#e9efff" stroke="#e9efff" strokeWidth="0.6"/>
      <path id="Path-32" data-name="Path" d="M12.368,6.291a.778.778,0,0,1-.334-.073L11.37,5.9c-.469-.226-.94-.45-1.42-.661Q6.332,3.65,2.707,2.073L.358,1.046A.512.512,0,0,1,.078.294.758.758,0,0,1,.99.063L3.34,1.09q3.627,1.582,7.246,3.17c.5.216.977.447,1.463.68l.656.312a.507.507,0,0,1,.251.757A.708.708,0,0,1,12.368,6.291Z" transform="translate(16.794 4.864)" fill="#e9efff" stroke="#e9efff" strokeWidth="0.6"/>
      <path id="Path-33" data-name="Path" d="M2.477,4.071a.7.7,0,0,1-.6-.307L.072.8a.513.513,0,0,1,.3-.745A.747.747,0,0,1,1.28.308l1.8,2.96a.513.513,0,0,1-.3.745A.8.8,0,0,1,2.477,4.071Z" transform="translate(29.685 27.311)" fill="#e9efff" stroke="#e9efff" strokeWidth="0.6"/>
      <path id="Path-34" data-name="Path" d="M.673,3.824a.762.762,0,0,1-.394-.107A.5.5,0,0,1,.13,2.941L2.529.229A.772.772,0,0,1,3.471.106.494.494,0,0,1,3.62.881L1.221,3.6A.734.734,0,0,1,.673,3.824Z" transform="translate(5.998 27.311)" fill="#e9efff" stroke="#e9efff" strokeWidth="0.6"/>
    </g>
    <g id="Icon-10" data-name="Icon" transform="matrix(0.07, 0.998, -0.998, 0.07, 467.86, 183.86)" opacity="0.6">
      <path id="Shape-21" data-name="Shape" d="M28.421,31.79H1.137A1.138,1.138,0,0,1,0,30.653V3.37A3.339,3.339,0,0,1,2.138.267,3.3,3.3,0,0,1,3.441,0a3.339,3.339,0,0,1,2.38,1l25.01,25.012h-.022a3.41,3.41,0,0,1-2.388,5.774Zm-4.546-4.548a1.138,1.138,0,0,1,1.137,1.137v1.137h3.432a1.142,1.142,0,0,0,1.024-.682,1.074,1.074,0,0,0-.24-1.205L4.161,2.585a1.137,1.137,0,0,0-1.887.784V6.781H3.411a1.137,1.137,0,1,1,0,2.274H2.274v2.274H3.411a1.136,1.136,0,1,1,0,2.272H2.274v2.274H3.411a1.137,1.137,0,1,1,0,2.274H2.274v2.274H3.411a1.137,1.137,0,1,1,0,2.274H2.274V24.97H3.411a1.136,1.136,0,1,1,0,2.272H2.274v2.274H4.548V28.379a1.137,1.137,0,0,1,2.274,0v1.137H9.1V28.379a1.137,1.137,0,1,1,2.274,0v1.137h2.272V28.379a1.137,1.137,0,1,1,2.274,0v1.137H18.19V28.379a1.137,1.137,0,0,1,2.274,0v1.137h2.274V28.379A1.138,1.138,0,0,1,23.875,27.242Z" transform="translate(0 0)" fill="#e9efff"/>
      <path id="Shape-22" data-name="Shape" d="M10.573,11.7H1.137A1.138,1.138,0,0,1,0,10.568V1.132a1.138,1.138,0,0,1,1.944-.8L11.368,9.76a1.137,1.137,0,0,1-.795,1.944Zm-8.3-7.833h0V9.431h5.56Z" transform="translate(6.822 13.266)" fill="#e9efff"/>
    </g>
    <g id="Icon-11" data-name="Icon" transform="translate(722.319 245.381) rotate(48)" opacity="0.4">
      <path id="Shape-23" data-name="Shape" d="M28.421,31.79H1.137A1.138,1.138,0,0,1,0,30.653V3.37A3.339,3.339,0,0,1,2.138.267,3.3,3.3,0,0,1,3.441,0a3.339,3.339,0,0,1,2.38,1l25.01,25.012h-.022a3.41,3.41,0,0,1-2.388,5.774Zm-4.546-4.548a1.138,1.138,0,0,1,1.137,1.137v1.137h3.432a1.142,1.142,0,0,0,1.024-.682,1.074,1.074,0,0,0-.24-1.205L4.161,2.585a1.137,1.137,0,0,0-1.887.784V6.781H3.411a1.137,1.137,0,1,1,0,2.274H2.274v2.274H3.411a1.136,1.136,0,1,1,0,2.272H2.274v2.274H3.411a1.137,1.137,0,1,1,0,2.274H2.274v2.274H3.411a1.137,1.137,0,1,1,0,2.274H2.274V24.97H3.411a1.136,1.136,0,1,1,0,2.272H2.274v2.274H4.548V28.379a1.137,1.137,0,0,1,2.274,0v1.137H9.1V28.379a1.137,1.137,0,1,1,2.274,0v1.137h2.272V28.379a1.137,1.137,0,1,1,2.274,0v1.137H18.19V28.379a1.137,1.137,0,0,1,2.274,0v1.137h2.274V28.379A1.138,1.138,0,0,1,23.875,27.242Z" transform="translate(0 0)" fill="#b2e9ff"/>
      <path id="Shape-24" data-name="Shape" d="M10.573,11.7H1.137A1.138,1.138,0,0,1,0,10.568V1.132a1.138,1.138,0,0,1,1.944-.8L11.368,9.76a1.137,1.137,0,0,1-.795,1.944Zm-8.3-7.833h0V9.431h5.56Z" transform="translate(6.822 13.266)" fill="#b2e9ff"/>
    </g>
    <g id="Icon-12" data-name="Icon" transform="translate(264.447 237.803) rotate(48)" opacity="0.6">
      <path id="Shape-25" data-name="Shape" d="M28.421,31.79H1.137A1.138,1.138,0,0,1,0,30.653V3.37A3.339,3.339,0,0,1,2.138.267,3.3,3.3,0,0,1,3.441,0a3.339,3.339,0,0,1,2.38,1l25.01,25.012h-.022a3.41,3.41,0,0,1-2.388,5.774Zm-4.546-4.548a1.138,1.138,0,0,1,1.137,1.137v1.137h3.432a1.142,1.142,0,0,0,1.024-.682,1.074,1.074,0,0,0-.24-1.205L4.161,2.585a1.137,1.137,0,0,0-1.887.784V6.781H3.411a1.137,1.137,0,1,1,0,2.274H2.274v2.274H3.411a1.136,1.136,0,1,1,0,2.272H2.274v2.274H3.411a1.137,1.137,0,1,1,0,2.274H2.274v2.274H3.411a1.137,1.137,0,1,1,0,2.274H2.274V24.97H3.411a1.136,1.136,0,1,1,0,2.272H2.274v2.274H4.548V28.379a1.137,1.137,0,0,1,2.274,0v1.137H9.1V28.379a1.137,1.137,0,1,1,2.274,0v1.137h2.272V28.379a1.137,1.137,0,1,1,2.274,0v1.137H18.19V28.379a1.137,1.137,0,0,1,2.274,0v1.137h2.274V28.379A1.138,1.138,0,0,1,23.875,27.242Z" transform="translate(0 0)" fill="#e9efff"/>
      <path id="Shape-26" data-name="Shape" d="M10.573,11.7H1.137A1.138,1.138,0,0,1,0,10.568V1.132a1.138,1.138,0,0,1,1.944-.8L11.368,9.76a1.137,1.137,0,0,1-.795,1.944Zm-8.3-7.833h0V9.431h5.56Z" transform="translate(6.822 13.266)" fill="#e9efff"/>
    </g>
    <g id="Icon-13" data-name="Icon" transform="translate(683.956 156.856) rotate(-9)" opacity="0.6">
      <path id="Shape-27" data-name="Shape" d="M28.421,31.79H1.137A1.138,1.138,0,0,1,0,30.653V3.37A3.339,3.339,0,0,1,2.138.267,3.3,3.3,0,0,1,3.441,0a3.339,3.339,0,0,1,2.38,1l25.01,25.012h-.022a3.41,3.41,0,0,1-2.388,5.774Zm-4.546-4.548a1.138,1.138,0,0,1,1.137,1.137v1.137h3.432a1.142,1.142,0,0,0,1.024-.682,1.074,1.074,0,0,0-.24-1.205L4.161,2.585a1.137,1.137,0,0,0-1.887.784V6.781H3.411a1.137,1.137,0,1,1,0,2.274H2.274v2.274H3.411a1.136,1.136,0,1,1,0,2.272H2.274v2.274H3.411a1.137,1.137,0,1,1,0,2.274H2.274v2.274H3.411a1.137,1.137,0,1,1,0,2.274H2.274V24.97H3.411a1.136,1.136,0,1,1,0,2.272H2.274v2.274H4.548V28.379a1.137,1.137,0,0,1,2.274,0v1.137H9.1V28.379a1.137,1.137,0,1,1,2.274,0v1.137h2.272V28.379a1.137,1.137,0,1,1,2.274,0v1.137H18.19V28.379a1.137,1.137,0,0,1,2.274,0v1.137h2.274V28.379A1.138,1.138,0,0,1,23.875,27.242Z" transform="translate(0)" fill="#e9efff"/>
      <path id="Shape-28" data-name="Shape" d="M10.573,11.7H1.137A1.138,1.138,0,0,1,0,10.568V1.132a1.138,1.138,0,0,1,1.944-.8L11.368,9.76a1.137,1.137,0,0,1-.795,1.944Zm-8.3-7.833h0V9.431h5.56Z" transform="translate(6.822 13.266)" fill="#e9efff"/>
    </g>
    <g id="Icon-14" data-name="Icon" transform="translate(217.054 159.925) rotate(-9)" opacity="0.4">
      <path id="Shape-29" data-name="Shape" d="M28.421,31.79H1.137A1.138,1.138,0,0,1,0,30.653V3.37A3.339,3.339,0,0,1,2.138.267,3.3,3.3,0,0,1,3.441,0a3.339,3.339,0,0,1,2.38,1l25.01,25.012h-.022a3.41,3.41,0,0,1-2.388,5.774Zm-4.546-4.548a1.138,1.138,0,0,1,1.137,1.137v1.137h3.432a1.142,1.142,0,0,0,1.024-.682,1.074,1.074,0,0,0-.24-1.205L4.161,2.585a1.137,1.137,0,0,0-1.887.784V6.781H3.411a1.137,1.137,0,1,1,0,2.274H2.274v2.274H3.411a1.136,1.136,0,1,1,0,2.272H2.274v2.274H3.411a1.137,1.137,0,1,1,0,2.274H2.274v2.274H3.411a1.137,1.137,0,1,1,0,2.274H2.274V24.97H3.411a1.136,1.136,0,1,1,0,2.272H2.274v2.274H4.548V28.379a1.137,1.137,0,0,1,2.274,0v1.137H9.1V28.379a1.137,1.137,0,1,1,2.274,0v1.137h2.272V28.379a1.137,1.137,0,1,1,2.274,0v1.137H18.19V28.379a1.137,1.137,0,0,1,2.274,0v1.137h2.274V28.379A1.138,1.138,0,0,1,23.875,27.242Z" transform="translate(0)" fill="#b2e9ff"/>
      <path id="Shape-30" data-name="Shape" d="M10.573,11.7H1.137A1.138,1.138,0,0,1,0,10.568V1.132a1.138,1.138,0,0,1,1.944-.8L11.368,9.76a1.137,1.137,0,0,1-.795,1.944Zm-8.3-7.833h0V9.431h5.56Z" transform="translate(6.822 13.266)" fill="#b2e9ff"/>
    </g>
  </g>
</svg>
