<svg id="user-edit" xmlns="http://www.w3.org/2000/svg" width="40" height="40.003" viewBox="0 0 40 40.003">
  <path id="Path_23480" data-name="Path 23480" d="M9.7,10.706A8.206,8.206,0,1,1,17.9,18.912,8.206,8.206,0,0,1,9.7,10.706ZM30.312,26.461a.821.821,0,0,0-.261-.492,10.988,10.988,0,0,0-8.062-2.954H13.783C5.454,23.015,2.5,29.107,2.5,34.339c0,4.677,2.482,7.139,7.18,7.139H20.348a.558.558,0,0,0,.431-.185.665.665,0,0,0,.185-.441V37.375a3.077,3.077,0,0,1,.9-2.175l8.267-8.308A.634.634,0,0,0,30.312,26.461ZM24.04,37.375V42.5h5.129l9.312-9.271-5.168-5.168ZM41.9,26.935l-2.3-2.3a2.051,2.051,0,0,0-2.893,0l-1.967,1.99,5.168,5.168,1.99-1.967a2.051,2.051,0,0,0,0-2.891Z" transform="translate(-2.5 -2.5)" fill="#034ea1"/>
</svg>
