<svg id="whatsapp" xmlns="http://www.w3.org/2000/svg" width="32" height="32" viewBox="0 0 32 32">
  <path id="Path_22927" data-name="Path 22927" d="M23.972,32H7.991A8,8,0,0,1,0,24V8A8,8,0,0,1,7.99,0H23.972a8,8,0,0,1,7.991,8V24a8,8,0,0,1-7.991,8" transform="translate(0.037 0)" fill="#d49230" fill-rule="evenodd"/>
  <path id="Path_22928" data-name="Path 22928" d="M14.976,9.019h8.986a4.511,4.511,0,0,0,.459-9C24.269.015,24.117,0,23.962,0H7.987A8,8,0,0,0,0,8.017V24.051A15,15,0,0,1,14.976,9.019" transform="translate(0 0)" fill="#d49230" fill-rule="evenodd"/>
  <path id="Path_22929" data-name="Path 22929" d="M40.017,24.017a8.017,8.017,0,1,0,8.017,8.017V16a8.017,8.017,0,0,1-8.017,8.017" transform="translate(-16.072 -8.051)" fill="#d49230" fill-rule="evenodd"/>
  <g id="briefcase" transform="translate(5.93 6.471)">
    <g id="Page-1_5_" transform="translate(0 0)">
      <g id="present_day_filled_5_">
        <path id="briefcase_x2C_-business_x2C_-travel_x2C_-industry_x2C_-corporate_x2C_-handbag" d="M426,827.471a29.687,29.687,0,0,1-10-1.588v-1.942a1.765,1.765,0,0,1,1.765-1.765h3.529v2.353a.588.588,0,0,0,1.176,0v-2.353h7.059v2.353a.588.588,0,0,0,1.177,0v-2.353h3.529A1.765,1.765,0,0,1,436,823.941v1.942A29.687,29.687,0,0,1,426,827.471Zm10,6.471a1.765,1.765,0,0,1-1.765,1.765H417.765A1.765,1.765,0,0,1,416,833.941v-6.813a33.672,33.672,0,0,0,20,0Zm-11.471-2.353h2.941a.588.588,0,1,0,0-1.176h-2.941a.588.588,0,1,0,0,1.176Zm-2.059-9.412h-1.176V821a2.353,2.353,0,0,1,2.353-2.353h4.706A2.353,2.353,0,0,1,430.706,821v1.177h-1.176V821a1.177,1.177,0,0,0-1.177-1.177h-4.706A1.177,1.177,0,0,0,422.471,821Z" transform="translate(-416 -818.647)" fill="#fff"/>
      </g>
    </g>
  </g>
</svg>
