<svg id="whatsapp" xmlns="http://www.w3.org/2000/svg" width="32" height="32" viewBox="0 0 32 32">
  <path id="Path_22927" data-name="Path 22927" d="M23.972,32H7.991A8,8,0,0,1,0,24V8A8,8,0,0,1,7.99,0H23.972a8,8,0,0,1,7.991,8V24a8,8,0,0,1-7.991,8" transform="translate(0.037 0)" fill="#5da242" fill-rule="evenodd"/>
  <path id="Path_22928" data-name="Path 22928" d="M14.976,9.019h8.986a4.511,4.511,0,0,0,.459-9C24.269.015,24.117,0,23.962,0H7.987A8,8,0,0,0,0,8.017V24.051A15,15,0,0,1,14.976,9.019" transform="translate(0 0)" fill="#5da242" fill-rule="evenodd"/>
  <path id="Path_22929" data-name="Path 22929" d="M40.017,24.017a8.017,8.017,0,1,0,8.017,8.017V16a8.017,8.017,0,0,1-8.017,8.017" transform="translate(-16.072 -8.051)" fill="#5da242" fill-rule="evenodd"/>
  <path id="Path_22909" data-name="Path 22909" d="M25.834,22.585a1.543,1.543,0,0,0-1.739,0l-.754.517a2.351,2.351,0,0,1-2.763-.076A25.792,25.792,0,0,1,18.4,21.152a25.771,25.771,0,0,1-1.878-2.176,2.351,2.351,0,0,1-.076-2.763l.517-.754a1.543,1.543,0,0,0,0-1.739l-2.158-3.18a2.092,2.092,0,0,0-2.7-.682h0A4.053,4.053,0,0,0,10.284,15.1a29.187,29.187,0,0,0,4.969,7.661L16.789,24.3a29.19,29.19,0,0,0,7.661,4.969A4.053,4.053,0,0,0,29.7,27.441h0a2.092,2.092,0,0,0-.682-2.7Z" transform="translate(-3.913 -3.621)" fill="#fff"/>
</svg>
