<svg xmlns="http://www.w3.org/2000/svg" width="60" height="59.183" viewBox="0 0 60 59.183">
  <g id="Solid" transform="translate(-25.924 -48)">
    <circle id="Ellipse_703" data-name="Ellipse 703" cx="1.855" cy="1.855" r="1.855" transform="translate(69.311 63.689)" fill="#fff"/>
    <path id="Path_24279" data-name="Path 24279" d="M96,395.7v.585a2.18,2.18,0,0,0,2.177,2.177h3.265v-2.177H98.177A4.327,4.327,0,0,1,96,395.7Z" transform="translate(-60.661 -300.958)" fill="#fff"/>
    <path id="Path_24280" data-name="Path 24280" d="M34.689,186.566a1.089,1.089,0,0,1,0-1.539l4.9-4.9a1.221,1.221,0,0,0-1.726-1.726l-4.9,4.9-1.539-1.539,1.858-1.858V176H30.016a2.18,2.18,0,0,0-2.177,2.177v9.8a1.088,1.088,0,0,1-.319.77l-1.6,1.6,4.343,7.817,4.422-4.422a5.075,5.075,0,0,0,0-7.169Z" transform="translate(0 -110.9)" fill="#fff"/>
    <path id="Path_24281" data-name="Path 24281" d="M173.819,400H152v2.177h21.95A5.733,5.733,0,0,1,173.819,400Z" transform="translate(-109.229 -304.791)" fill="#fff"/>
    <path id="Path_24282" data-name="Path 24282" d="M129.743,118.513v-9.124a3.265,3.265,0,1,1,6.531,0v1.276a3.261,3.261,0,0,1,3.84,1.323,3.263,3.263,0,0,1,4.868,2.844v.187a3.251,3.251,0,0,1,1.088-.187V82.177A2.18,2.18,0,0,0,143.893,80H98.177A2.18,2.18,0,0,0,96,82.177V94.788l.863-.863a3.4,3.4,0,1,1,4.8,4.8l-4.186,4.186a7.258,7.258,0,0,1-.712,9.42l-.77.77v6.08a2.18,2.18,0,0,0,2.177,2.177h28c.026-.045.05-.092.078-.136a5.764,5.764,0,0,1,2.344-2.143ZM106.885,84.354H117.77v2.177H106.885Zm-4.354,0h2.177v2.177h-2.177Zm-2.177,6.531V88.708H117.77v2.177Zm4.354,4.354V93.062H117.77v2.177Zm10.885,2.177v2.177H104.708V97.416Zm9.8,19.593H101.442v-2.177h2.177v-3.265H105.8v3.265h2.177v-5.442h2.177v5.442h2.177v-8.708H114.5v8.708h2.177v-5.442h2.177v5.442h2.177v-3.265h2.177v3.265h2.177Zm.932-15.115.1-2.055-.639-.639-2.054.1a1.083,1.083,0,0,1-1.061-.671l-.909-2.2a1.088,1.088,0,0,1,.276-1.225l1.526-1.378v-.9l-1.526-1.378a1.088,1.088,0,0,1-.276-1.225l.909-2.2a1.079,1.079,0,0,1,1.061-.671l2.055.1.639-.639-.1-2.055a1.088,1.088,0,0,1,.671-1.061l2.2-.909a1.088,1.088,0,0,1,1.225.276l1.378,1.526h.9l1.378-1.526A1.088,1.088,0,0,1,135.3,82.9l2.2.909a1.088,1.088,0,0,1,.671,1.061l-.1,2.055.639.639,2.055-.1a1.081,1.081,0,0,1,1.061.671l.909,2.2a1.088,1.088,0,0,1-.276,1.225l-1.526,1.378v.9l1.526,1.378a1.088,1.088,0,0,1,.276,1.225l-.909,2.2a1.086,1.086,0,0,1-1.061.671l-2.055-.1-.639.639.1,2.055a1.088,1.088,0,0,1-.671,1.061l-2.2.909a1.089,1.089,0,0,1-1.225-.276l-1.378-1.526h-.9l-1.378,1.526a1.088,1.088,0,0,1-1.225.276l-2.2-.909A1.088,1.088,0,0,1,126.321,101.893Z" transform="translate(-61.235 -27.646)" fill="#fff"/>
    <path id="Path_24283" data-name="Path 24283" d="M346.5,296.708a1.09,1.09,0,0,0-1.089,1.088v2.177h-2.177v-5.442a1.088,1.088,0,0,0-2.177,0v4.354h-2.177v-5.442a1.088,1.088,0,1,0-2.177,0V297.8h-2.177v-8.708a1.088,1.088,0,1,0-2.177,0v15.239h-2.177v-3.681l-.166.083a3.636,3.636,0,0,0-.393,6.275l1.161.77,1.81,1.21a4.351,4.351,0,0,1,1.943,3.626v2.6h10.885v-4.354a1.088,1.088,0,0,1,.115-.487,19.629,19.629,0,0,0,2.062-8.735V297.8A1.09,1.09,0,0,0,346.5,296.708Z" transform="translate(-261.665 -208.029)" fill="#fff"/>
    <path id="Path_24284" data-name="Path 24284" d="M307.529,134.639l1.188-1.315a1.088,1.088,0,0,1,.808-.359H311.4a1.088,1.088,0,0,1,.808.359l1.187,1.315.776-.321-.09-1.77a1.089,1.089,0,0,1,.317-.825l1.324-1.324a1.09,1.09,0,0,1,.825-.317l1.77.09.321-.776-1.315-1.187a1.088,1.088,0,0,1-.359-.808v-1.872a1.089,1.089,0,0,1,.359-.808l1.315-1.188-.321-.776-1.77.09a1.089,1.089,0,0,1-.825-.317l-1.324-1.324a1.089,1.089,0,0,1-.317-.825l.09-1.77-.776-.322-1.187,1.315a1.089,1.089,0,0,1-.808.359h-1.872a1.089,1.089,0,0,1-.808-.359l-1.188-1.315-.776.322.09,1.77a1.088,1.088,0,0,1-.317.825L305.2,122.53a1.088,1.088,0,0,1-.825.317l-1.77-.09-.322.776,1.315,1.188a1.088,1.088,0,0,1,.359.808V127.4a1.088,1.088,0,0,1-.359.808l-1.315,1.187.322.776,1.77-.09a1.09,1.09,0,0,1,.825.317l1.324,1.324a1.087,1.087,0,0,1,.317.825l-.09,1.77Zm-1.1-8.175a4.032,4.032,0,1,1,4.032,4.032A4.032,4.032,0,0,1,306.428,126.464Z" transform="translate(-239.453 -60.877)" fill="#fff"/>
    <rect id="Rectangle_10567" data-name="Rectangle 10567" width="28.301" height="2.177" transform="translate(42.711 48)" fill="#fff"/>
    <rect id="Rectangle_10568" data-name="Rectangle 10568" width="2.177" height="2.177" transform="translate(72.991 48)" fill="#fff"/>
  </g>
</svg>
