<svg xmlns="http://www.w3.org/2000/svg" width="60" height="61.237" viewBox="0 0 60 61.237">
  <g id="Group_35550" data-name="Group 35550" transform="translate(-6.18)">
    <path id="Path_24285" data-name="Path 24285" d="M66.18,35.071a10.759,10.759,0,0,0-6.15-1.717c-3.838,0-7.041,1.6-7.786,3.734h-.32c-.727-2.145-3.939-3.762-7.794-3.762a10.733,10.733,0,0,0-6.153,1.724V53.093a8.143,8.143,0,0,1-16.287,0,1.8,1.8,0,1,1,3.593,0,4.551,4.551,0,0,0,9.1,0V35.08a10.736,10.736,0,0,0-6.155-1.725c-3.838,0-7.041,1.6-7.786,3.734h-.32c-.727-2.145-3.939-3.762-7.795-3.762A10.762,10.762,0,0,0,6.18,35.041c1.172-12.793,13.209-22.962,28.2-23.719V9.979a1.8,1.8,0,0,1,3.593,0v1.343C52.982,12.081,65.024,22.265,66.18,35.071ZM25.631,2.874S22.1,5.373,21.6,6.327a1.954,1.954,0,0,0,3.455,1.824C25.559,7.2,25.631,2.874,25.631,2.874ZM33.545,0s-3.528,2.5-4.031,3.452a1.954,1.954,0,0,0,3.455,1.824C33.473,4.322,33.545,0,33.545,0Zm9.332,0s-3.528,2.5-4.031,3.452A1.953,1.953,0,0,0,42.3,5.276C42.8,4.322,42.877,0,42.877,0Zm7.431,2.673s-3.528,2.5-4.031,3.452a1.954,1.954,0,0,0,3.455,1.824C50.235,6.995,50.308,2.673,50.308,2.673Z" fill="#fff"/>
  </g>
</svg>
