<svg id="Group_35553" data-name="Group 35553" xmlns="http://www.w3.org/2000/svg" width="60" height="50.391" viewBox="0 0 60 50.391">
  <circle id="Ellipse_704" data-name="Ellipse 704" cx="3" cy="3" r="3" transform="translate(11.925 23.525)" fill="#fff"/>
  <path id="Path_24286" data-name="Path 24286" d="M98.889,319A3.894,3.894,0,0,0,95,322.889v2.946h7.778v-2.946A3.894,3.894,0,0,0,98.889,319Z" transform="translate(-83.877 -286.451)" fill="#fff"/>
  <path id="Path_24287" data-name="Path 24287" d="M46.027,143.156A17.575,17.575,0,0,1,29.184,121H5.27A5.293,5.293,0,0,0,0,126.3v30.641a5.293,5.293,0,0,0,5.27,5.3H48.955a5.293,5.293,0,0,0,5.27-5.3V141.094A17.255,17.255,0,0,1,46.027,143.156Zm-16.982.471H35.6a1.768,1.768,0,0,1,0,3.536H29.045a1.768,1.768,0,0,1,0-3.536Zm-6.676,9.31a1.762,1.762,0,0,1-1.757,1.768H9.369a1.762,1.762,0,0,1-1.757-1.768v-4.714a7.43,7.43,0,0,1,2.8-5.816,6.441,6.441,0,1,1,9.156,0,7.43,7.43,0,0,1,2.8,5.816Zm16.045,1.768H29.045a1.768,1.768,0,0,1,0-3.536h9.369a1.768,1.768,0,0,1,0,3.536Z" transform="translate(0 -111.857)" fill="#fff"/>
  <path id="Path_24288" data-name="Path 24288" d="M288.024,41a14.024,14.024,0,1,0,14.024,14.024A14.04,14.04,0,0,0,288.024,41Zm6.013,10.611-6.54,7.373a1.768,1.768,0,0,1-2.939-.341l-2.705-3.806a1.768,1.768,0,0,1,3.162-1.581l1.484,1.768,4.823-5.677a1.768,1.768,0,1,1,2.716,2.263Z" transform="translate(-242.049 -41)" fill="#fff"/>
</svg>
