<svg id="New_Text_Document_8_" data-name="New Text Document (8)" xmlns="http://www.w3.org/2000/svg" width="50" height="60" viewBox="0 0 50 60">
  <path id="Path_24228" data-name="Path 24228" d="M115.679,11.755a1.826,1.826,0,0,0,1.776-1.872V1.862a1.778,1.778,0,1,0-3.551,0V9.883A1.826,1.826,0,0,0,115.679,11.755Zm-8.863-.548a1.712,1.712,0,0,0,2.511,0,1.945,1.945,0,0,0,0-2.647l-1.9-2.005a1.712,1.712,0,0,0-2.511,0,1.945,1.945,0,0,0,0,2.647Zm17.726,0,1.9-2.005a1.945,1.945,0,0,0,0-2.647,1.712,1.712,0,0,0-2.511,0l-1.9,2.005a1.945,1.945,0,0,0,0,2.647A1.712,1.712,0,0,0,124.542,11.207Zm12.572,17.378a2.842,2.842,0,0,0,0-3.871,2.5,2.5,0,0,0-3.672,0l-6.183,6.519a2.847,2.847,0,0,0,0,3.871,2.506,2.506,0,0,0,3.672,0l6.182-6.518h0Zm0,13.038,4.637-4.889h0a2.842,2.842,0,0,0,0-3.871,2.5,2.5,0,0,0-3.672,0l-4.638,4.889a2.848,2.848,0,0,0,0,3.872,2.5,2.5,0,0,0,3.672,0Zm9.275-.612a2.5,2.5,0,0,0-3.672,0l-3.091,3.259a2.842,2.842,0,0,0,0,3.871,2.5,2.5,0,0,0,3.671,0l3.092-3.26h0A2.843,2.843,0,0,0,146.389,41.011Z" transform="translate(-97.149 0)" fill="#fff"/>
  <path id="Path_24229" data-name="Path 24229" d="M84.234,85.46c0-.012,0-.023,0-.035a6.18,6.18,0,0,1-4.4-1.77,5.97,5.97,0,0,1-1.8-4.314,6.2,6.2,0,0,1-4.4-1.766,5.972,5.972,0,0,1,0-8.551L90.689,52.3a2.526,2.526,0,0,0,.007-3.606,2.64,2.64,0,0,0-3.689-.005L65.018,70.258l.291.285a12.341,12.341,0,0,1,0,17.672,1.8,1.8,0,0,1-2.518,0,1.723,1.723,0,0,1,0-2.47,8.892,8.892,0,0,0,0-12.732l-1.55-1.522a1.735,1.735,0,0,1-.475-.84l-2.037-8.659a4.674,4.674,0,0,0-6.145-3.262,1.749,1.749,0,0,0-1.167,1.642l.024,24.708-4.579,4.49a1.723,1.723,0,0,0,0,2.47l9.59,9.407a1.8,1.8,0,0,0,1.259.511H75.276a4.811,4.811,0,0,0,3.39-1.378l9.62-9.436a6.151,6.151,0,0,1-2.247-1.409,5.947,5.947,0,0,1-1.8-4.274Z" transform="translate(-46.34 -41.956)" fill="#fff"/>
</svg>
