<svg xmlns="http://www.w3.org/2000/svg" width="155.919" height="125.663" viewBox="0 0 155.919 125.663">
  <g id="Group_35935" data-name="Group 35935" transform="translate(0 -0.001)">
    <g id="Group_35935-2" data-name="Group 35935" transform="translate(0 0.001)">
      <path id="Path_24428" data-name="Path 24428" d="M132.615,73.022l-32.545-32.54V19.021a4.845,4.845,0,1,0-9.689,0V30.8L67.422,7.84a4.842,4.842,0,0,0-6.844,0L16.146,52.277a38.108,38.108,0,0,1,10.33,3.361L64.007,18.109l61.766,61.762a4.841,4.841,0,0,0,6.842-6.849Z" transform="translate(21.882 -6.424)" fill="#00adee"/>
      <path id="Path_24429" data-name="Path 24429" d="M110.715,67.416,59.383,16.081a4.833,4.833,0,0,0-6.844,0L22.085,46.539A38.338,38.338,0,0,1,39.867,78.875a38.1,38.1,0,0,1-3.625,16.258l8.54,8.542c.266.264.511.542.751.831A11.637,11.637,0,0,0,48.12,97.2V78.8a8.674,8.674,0,0,1,7.843-8.616A8.674,8.674,0,0,1,63.806,78.8V97.2A11.735,11.735,0,0,0,75.514,108.9h25.053A11.721,11.721,0,0,0,112.275,97.2V72.141a11.46,11.46,0,0,0-.217-2.219A4.946,4.946,0,0,0,110.715,67.416Z" transform="translate(29.931 4.74)" fill="#00adee"/>
      <path id="Path_24430" data-name="Path 24430" d="M57.645,77.467a31.513,31.513,0,1,0-10.634,9.9L59.595,99.958A7.26,7.26,0,0,0,69.861,89.691ZM31.468,81.82A21.786,21.786,0,1,1,53.255,60.034,21.811,21.811,0,0,1,31.468,81.82Z" transform="translate(0 23.581)" fill="#00adee"/>
    </g>
  </g>
</svg>
