<svg id="employee" xmlns="http://www.w3.org/2000/svg" width="26" height="22.671" viewBox="0 0 26 22.671">
  <ellipse id="Ellipse_641" data-name="Ellipse 641" cx="5.078" cy="5.016" rx="5.078" ry="5.016" transform="translate(4.824 0)" fill="#505050"/>
  <path id="Path_23590" data-name="Path 23590" d="M8.5,12.5H7.3l-.63,4.646L7.9,18.669l1.233-1.522Z" transform="translate(2.001 2.046)" fill="#505050"/>
  <path id="Path_23591" data-name="Path 23591" d="M7.2,11.661H8.444l.254-1.5H6.942Z" transform="translate(2.083 1.38)" fill="#505050"/>
  <path id="Path_23592" data-name="Path 23592" d="M7.116,17.931l.747-5.506L7.48,10.156H6.094A6.057,6.057,0,0,0,0,16.175v4.364a.757.757,0,0,0,.762.752H9.536L7.276,18.5A.746.746,0,0,1,7.116,17.931Z" transform="translate(0 1.38)" fill="#505050"/>
  <path id="Path_23593" data-name="Path 23593" d="M12.741,10.317a6.171,6.171,0,0,0-1.4-.161H9.955l-.383,2.269.747,5.506a.746.746,0,0,1-.16.57L7.9,21.291h3.952a3.712,3.712,0,0,1-.764-2.257V13.417A3.748,3.748,0,0,1,12.741,10.317Z" transform="translate(2.37 1.38)" fill="#505050"/>
  <path id="Path_23594" data-name="Path 23594" d="M20.258,11.6h-.432V10.349a1.769,1.769,0,0,0-1.777-1.756H16.018a1.769,1.769,0,0,0-1.777,1.756V11.6h-.432a2.271,2.271,0,0,0-2.285,2.257v.5h11.02v-.5A2.271,2.271,0,0,0,20.258,11.6Zm-1.955,0H15.764V10.349a.253.253,0,0,1,.254-.251h2.031a.253.253,0,0,1,.254.251Z" transform="translate(3.457 0.936)" fill="#505050"/>
  <path id="Path_23595" data-name="Path 23595" d="M11.523,17.869a2.271,2.271,0,0,0,2.285,2.257h6.449a2.271,2.271,0,0,0,2.285-2.257V14.258H11.523Z" transform="translate(3.457 2.545)" fill="#505050"/>
</svg>
