<svg id="gender-symbols" xmlns="http://www.w3.org/2000/svg" width="26" height="25.681" viewBox="0 0 26 25.681">
  <path id="Path_23576" data-name="Path 23576" d="M7.155,14.007a.8.8,0,0,1-.574-.769V7.967A.8.8,0,0,1,7.951,7.4l.439.439A.806.806,0,0,0,9.7,6.961c-.087-.211.18.094-4.139-4.225L1.6,6.7A.805.805,0,0,0,2.739,7.839c.417-.417.592-.674,1.007-.674a.8.8,0,0,1,.8.8v5.27a.8.8,0,0,1-.574.769,5.565,5.565,0,1,0,7.155,5.333,5.6,5.6,0,0,0-3.974-5.333ZM5.564,22.871A3.531,3.531,0,1,1,9.1,19.34,3.535,3.535,0,0,1,5.564,22.871Z" transform="translate(0 0.777)" fill="#505050"/>
  <path id="Path_23577" data-name="Path 23577" d="M17.914,16.024V11.667a.8.8,0,0,1,.574-.769,5.564,5.564,0,1,0-3.181,0,.8.8,0,0,1,.574.769v4.357a.8.8,0,0,1-.8.8H12.243v2.033h2.835a.8.8,0,0,1,.8.8V22.5h2.033V19.662a.8.8,0,0,1,.8-.8h2.836V16.827H18.716a.8.8,0,0,1-.8-.8ZM16.9,9.1a3.531,3.531,0,1,1,3.531-3.531A3.535,3.535,0,0,1,16.9,9.1Z" transform="translate(3.538 0)" fill="#505050"/>
</svg>
