<svg xmlns="http://www.w3.org/2000/svg" width="24" height="24" viewBox="0 0 24 24">
  <g id="New_Text_Document_2_" data-name="New Text Document (2)" transform="translate(-14.998 -30.222)">
    <path id="Path_23575" data-name="Path 23575" d="M39,38.714a.874.874,0,0,1-.29.656l-8.675,7.642a.757.757,0,0,1-.847.114.857.857,0,0,1-.457-.769V43.294A13.174,13.174,0,0,0,17.008,53.586a.785.785,0,0,1-1.542,0A16.549,16.549,0,0,1,15,49.667,15.949,15.949,0,0,1,19.253,38.7a14.024,14.024,0,0,1,9.476-4.519v-3.11a.857.857,0,0,1,.457-.769.757.757,0,0,1,.847.113l8.675,7.642a.873.873,0,0,1,.29.656Z" transform="translate(0 0)" fill="#fff" fill-rule="evenodd"/>
  </g>
</svg>
