<svg id="translate" xmlns="http://www.w3.org/2000/svg" width="26" height="25.681" viewBox="0 0 26 25.681">
  <path id="Path_23578" data-name="Path 23578" d="M19.831,3H9.227a.594.594,0,0,0-.176.027l-.134.043a.53.53,0,0,0-.353.677l0,.005,5.61,15.716-3.694,4.047a.52.52,0,0,0,.053.755.572.572,0,0,0,.368.132h8.929a2.734,2.734,0,0,0,2.79-2.675V5.675A2.735,2.735,0,0,0,19.831,3Z" transform="translate(3.379 1.28)" fill="#dae3fe"/>
  <path id="Path_23579" data-name="Path 23579" d="M15,14.564a.535.535,0,0,0-.487-.314H9.16a.535.535,0,0,0-.5.723l1.605,4.28a.535.535,0,0,0,.406.338.593.593,0,0,0,.1.009.535.535,0,0,0,.4-.183l3.745-4.28A.535.535,0,0,0,15,14.564Z" transform="translate(3.517 6.081)" fill="#707070"/>
  <g id="Group_35007" data-name="Group 35007" transform="translate(17.426 10.7)">
    <path id="Path_23580" data-name="Path 23580" d="M17.634,8.451H10.976a.476.476,0,1,1,0-.951h6.658a.476.476,0,0,1,0,.951Z" transform="translate(-10.5 -6.549)" fill="#505050"/>
    <path id="Path_23581" data-name="Path 23581" d="M13.226,8.652a.476.476,0,0,1-.476-.476V7.226a.476.476,0,0,1,.951,0v.951A.476.476,0,0,1,13.226,8.652Z" transform="translate(-9.897 -6.75)" fill="#505050"/>
    <path id="Path_23582" data-name="Path 23582" d="M12.1,14.158a.476.476,0,0,1-.276-.863c2.083-1.48,3.6-4.5,3.6-5.32a.476.476,0,1,1,.951,0c0,1.254-1.833,4.552-4,6.094A.476.476,0,0,1,12.1,14.158Z" transform="translate(-10.198 -6.549)" fill="#505050"/>
    <path id="Path_23583" data-name="Path 23583" d="M15.905,14.606a.476.476,0,0,1-.322-.125c-.344-.316-3.384-3.124-3.923-4.452a.476.476,0,1,1,.882-.359c.389.959,2.793,3.291,3.686,4.108a.476.476,0,0,1-.322.827Z" transform="translate(-10.198 -6.046)" fill="#505050"/>
  </g>
  <path id="Path_23584" data-name="Path 23584" d="M18.7,20.692,11.742.362A.535.535,0,0,0,11.235,0H2.675A2.675,2.675,0,0,0,0,2.675V18.726A2.675,2.675,0,0,0,2.675,21.4H18.191a.535.535,0,0,0,.506-.708Z" fill="#505050"/>
  <g id="Group_35008" data-name="Group 35008" transform="translate(4.231 6.456)">
    <path id="Path_23585" data-name="Path 23585" d="M8.883,13.05a.535.535,0,0,1-.5-.355L6.208,6.614l-2.171,6.08a.535.535,0,0,1-1.007-.36L5.7,4.845a.556.556,0,0,1,1.007,0l2.675,7.49a.535.535,0,0,1-.321.684A.542.542,0,0,1,8.883,13.05Z" transform="translate(-3.005 -4.525)" fill="#fafafa"/>
    <path id="Path_23586" data-name="Path 23586" d="M6.8,8.57H4.66a.535.535,0,0,1,0-1.07H6.8a.535.535,0,0,1,0,1.07Z" transform="translate(-2.528 -3.256)" fill="#fafafa"/>
  </g>
</svg>
