<svg xmlns="http://www.w3.org/2000/svg" width="20" height="20" viewBox="0 0 20 20">
  <g id="file_5_" data-name="file (5)" transform="translate(-1)">
    <path id="Path_23760" data-name="Path 23760" d="M131.793,5.078a.587.587,0,0,1-.589-.586V0h-8.438A1.764,1.764,0,0,0,121,1.758v6.55c.194-.017.39-.027.589-.027a6.478,6.478,0,0,1,4.992,2.344h6.39a.586.586,0,1,1,0,1.172h-5.615a6.374,6.374,0,0,1,.681,2.344h4.933a.586.586,0,1,1,0,1.172h-4.933A6.442,6.442,0,0,1,125.308,20h9.233a1.764,1.764,0,0,0,1.766-1.758V5.078Zm1.177,3.2h-8.635a.586.586,0,1,1,0-1.172h8.635a.586.586,0,1,1,0,1.172Z" transform="translate(-115.307)" fill="#505050"/>
    <path id="Path_23761" data-name="Path 23761" d="M411,8.783V12.35h3.567Z" transform="translate(-393.911 -8.44)" fill="#505050"/>
    <path id="Path_23762" data-name="Path 23762" d="M6.28,242a5.28,5.28,0,1,0,5.28,5.28A5.286,5.286,0,0,0,6.28,242Zm2.175,6.625a.587.587,0,1,1-.83.83L6.28,248.109l-1.345,1.345a.587.587,0,0,1-.83-.83L5.45,247.28,4.1,245.935a.587.587,0,0,1,.83-.83L6.28,246.45,7.625,245.1a.587.587,0,0,1,.83.83L7.109,247.28Z" transform="translate(0 -232.559)" fill="#505050"/>
  </g>
</svg>
