<svg id="Component_372_1" data-name="Component 372 – 1" xmlns="http://www.w3.org/2000/svg" xmlns:xlink="http://www.w3.org/1999/xlink" width="52" height="52" viewBox="0 0 52 52">
  <defs>
    <clipPath id="clip-path">
      <rect id="Rectangle_10498" data-name="Rectangle 10498" width="35" height="35" transform="translate(-0.263 0.443)" fill="#fff"/>
    </clipPath>
  </defs>
  <rect id="Rectangle_10497" data-name="Rectangle 10497" width="52" height="52" rx="26" fill="#00adee"/>
  <g id="Mask_Group_150" data-name="Mask Group 150" transform="translate(8.263 8.557)" clip-path="url(#clip-path)">
    <g id="customer-support" transform="translate(0.951 1.386)">
      <path id="Path_24191" data-name="Path 24191" d="M31.719,15.311a14.721,14.721,0,0,0-4.26-9.9A14.422,14.422,0,0,0,17.137,1.085,14.684,14.684,0,0,0,2.555,15.311,3.471,3.471,0,0,0,.513,18.479v3.892a3.452,3.452,0,0,0,3.429,3.467A2.233,2.233,0,0,0,6.16,23.6v-6.34a2.23,2.23,0,0,0-2-2.221A13.081,13.081,0,0,1,17.137,2.693a12.853,12.853,0,0,1,9.2,3.854,13.119,13.119,0,0,1,3.777,8.487,2.229,2.229,0,0,0-2,2.221v6.34a2.228,2.228,0,0,0,2.028,2.223v1.6a3.258,3.258,0,0,1-3.237,3.272h-2.4a2.4,2.4,0,0,0-.561-.914,2.371,2.371,0,0,0-1.7-.714H19.776a2.35,2.35,0,0,0-1.007.223,2.445,2.445,0,0,0-.694,3.928,2.375,2.375,0,0,0,1.7.714h2.471A2.418,2.418,0,0,0,24.51,32.3h2.4a4.859,4.859,0,0,0,4.827-4.88V25.532a3.471,3.471,0,0,0,2.028-3.161V18.478a3.471,3.471,0,0,0-2.042-3.167ZM4.569,17.255v6.34a.632.632,0,0,1-.628.635A1.851,1.851,0,0,1,2.1,22.371V18.479A1.851,1.851,0,0,1,3.941,16.62.632.632,0,0,1,4.569,17.255ZM23.044,31.668a.822.822,0,0,1-.8.653H19.775a.805.805,0,0,1-.577-.243.828.828,0,0,1,.239-1.331.783.783,0,0,1,.338-.075h2.471a.8.8,0,0,1,.577.243.837.837,0,0,1,.222.753Zm9.126-9.3a1.851,1.851,0,0,1-1.839,1.859.632.632,0,0,1-.628-.635v-6.34a.632.632,0,0,1,.628-.635,1.851,1.851,0,0,1,1.839,1.859Z" transform="translate(-0.513 -1.085)" fill="#fff" stroke="#fff" strokeWidth="0.4"/>
      <path id="Path_24192" data-name="Path 24192" d="M26.37,26.455a3.392,3.392,0,0,0,3.37-3.407V16.106a3.4,3.4,0,0,0-.988-2.408,3.328,3.328,0,0,0-2.381-1h-10.3a3.392,3.392,0,0,0-3.37,3.407v6.942a3.392,3.392,0,0,0,3.37,3.407h.063v1.8a1.666,1.666,0,0,0,1.03,1.552,1.646,1.646,0,0,0,.62.123,1.609,1.609,0,0,0,1.164-.5l2.96-2.976ZM21.02,25.08l-3.2,3.221a.04.04,0,0,1-.055.013.054.054,0,0,1-.037-.061v-2.6a.8.8,0,0,0-.8-.8h-.858a1.791,1.791,0,0,1-1.779-1.8V16.106a1.791,1.791,0,0,1,1.779-1.8h10.3a1.758,1.758,0,0,1,1.257.528,1.8,1.8,0,0,1,.522,1.271v6.942a1.791,1.791,0,0,1-1.779,1.8H21.581a.791.791,0,0,0-.561.234Z" transform="translate(-4.596 -4.892)" fill="#fff" stroke="#fff" strokeWidth="0.4"/>
      <path id="Path_24193" data-name="Path 24193" d="M19.112,21.356a1.186,1.186,0,1,0,1.174,1.186A1.182,1.182,0,0,0,19.112,21.356Z" transform="translate(-6.351 -7.729)" fill="#fff" stroke="#fff" strokeWidth="0.4"/>
      <path id="Path_24194" data-name="Path 24194" d="M24.921,21.356a1.186,1.186,0,1,0,1.174,1.186A1.182,1.182,0,0,0,24.921,21.356Z" transform="translate(-8.297 -7.729)" fill="#fff" stroke="#fff" strokeWidth="0.4"/>
      <path id="Path_24195" data-name="Path 24195" d="M30.73,21.356A1.186,1.186,0,1,0,31.9,22.543,1.182,1.182,0,0,0,30.73,21.356Z" transform="translate(-10.244 -7.729)" fill="#fff" stroke="#fff" strokeWidth="0.4"/>
    </g>
  </g>
</svg>
