<svg id="calendar2" xmlns="http://www.w3.org/2000/svg" width="40" height="38" viewBox="0 0 40 38">
  <path id="Path_20871" data-name="Path 20871" d="M36.639,2H32.9V5.8a1.246,1.246,0,1,1-2.492,0V2H10.47V5.8a1.246,1.246,0,1,1-2.492,0V2H4.24C2.371,2,1,3.647,1,5.8v4.56H40.875V5.8c0-2.153-2.243-3.8-4.237-3.8ZM1,13.02V36.2C1,38.48,2.371,40,4.364,40h32.4C38.757,40,41,38.353,41,36.2V13.02ZM12.09,34.3H9.1a.991.991,0,0,1-1-1.013V30.12a.991.991,0,0,1,1-1.013h3.115a.991.991,0,0,1,1,1.013v3.167A1.1,1.1,0,0,1,12.09,34.3Zm0-11.4H9.1a.991.991,0,0,1-1-1.013V18.72a.991.991,0,0,1,1-1.013h3.115a.991.991,0,0,1,1,1.013v3.167A1.1,1.1,0,0,1,12.09,22.9Zm9.969,11.4H18.944a.991.991,0,0,1-1-1.013V30.12a.991.991,0,0,1,1-1.013h3.115a.991.991,0,0,1,1,1.013v3.167A.925.925,0,0,1,22.059,34.3Zm0-11.4H18.944a.991.991,0,0,1-1-1.013V18.72a.991.991,0,0,1,1-1.013h3.115a.991.991,0,0,1,1,1.013v3.167A.925.925,0,0,1,22.059,22.9Zm9.969,11.4H28.913a.991.991,0,0,1-1-1.013V30.12a.991.991,0,0,1,1-1.013h3.115a.991.991,0,0,1,1,1.013v3.167A.925.925,0,0,1,32.028,34.3Zm0-11.4H28.913a.991.991,0,0,1-1-1.013V18.72a.991.991,0,0,1,1-1.013h3.115a.991.991,0,0,1,1,1.013v3.167A.925.925,0,0,1,32.028,22.9Z" transform="translate(-1 -2)" fill="#00adee"/>
</svg>
