<svg id="printed" xmlns="http://www.w3.org/2000/svg" width="20.495" height="20" viewBox="0 0 20.495 20">
  <g id="Group_35145" data-name="Group 35145" transform="translate(0 0)">
    <path id="Path_23770" data-name="Path 23770" d="M3.342,5.565H16.262A4.232,4.232,0,0,1,20.5,9.787V24.9a.667.667,0,0,1-.668.667H6.015a.667.667,0,0,1-.668-.667V16.232H.668A.668.668,0,0,1,0,15.565V8.9A3.341,3.341,0,0,1,3.342,5.565ZM14.48,22.9h2.673a.667.667,0,1,0,0-1.333H14.48a.667.667,0,1,0,0,1.333Zm0-2.667h2.673a.667.667,0,1,0,0-1.333H14.48a.667.667,0,1,0,0,1.333Zm-.668-4.667a.667.667,0,0,0,.668.667h2.673a.667.667,0,0,0,.668-.667V10.232a.667.667,0,0,0-.668-.667H14.48a.667.667,0,0,0-.668.667v5.333ZM8.02,22.232a.667.667,0,0,0,.668.667h3.119a.667.667,0,0,0,.668-.667v-4a.667.667,0,0,0-.668-.667H8.688a.667.667,0,0,0-.668.667v4Zm.668-6h3.119a.667.667,0,1,0,0-1.333H8.688a.667.667,0,1,0,0,1.333Zm0-2.667h3.119a.667.667,0,1,0,0-1.333H8.688a.667.667,0,1,0,0,1.333Zm0-2.667h3.119a.667.667,0,1,0,0-1.333H8.688a.667.667,0,1,0,0,1.333Zm-7.351,4h4.01V13.563H3.388a.667.667,0,1,1,0-1.333H5.347V10.9H3.388a.667.667,0,1,1,0-1.333H5.347V8.9a2,2,0,0,0-4.01,0Z" transform="translate(0 -5.565)" fill="#505050"/>
  </g>
</svg>
