<svg xmlns="http://www.w3.org/2000/svg" width="35.999" height="36" viewBox="0 0 35.999 36">
  <g id="help" transform="translate(-0.001 0)">
    <path id="Subtraction_1" data-name="Subtraction 1" d="M-1396-6456a17.879,17.879,0,0,1-12.727-5.272A17.881,17.881,0,0,1-1414-6474a17.881,17.881,0,0,1,5.272-12.727A17.879,17.879,0,0,1-1396-6492a17.882,17.882,0,0,1,12.728,5.273A17.88,17.88,0,0,1-1378-6474a17.9,17.9,0,0,1-5.278,12.722A17.906,17.906,0,0,1-1396-6456Zm.068-10.97a2,2,0,0,0-2,2,2,2,0,0,0,2,2,2,2,0,0,0,2-2A2,2,0,0,0-1395.932-6466.97Zm-.068-14.072a3.343,3.343,0,0,1,3.34,3.338c0,.98-.978,1.958-2.014,2.992a7.76,7.76,0,0,0-2.994,5.356,1.671,1.671,0,0,0,1.668,1.67,1.672,1.672,0,0,0,1.67-1.67c0-.975.973-1.95,2-2.982l.012-.012a7.757,7.757,0,0,0,2.993-5.354,6.686,6.686,0,0,0-6.678-6.679,6.685,6.685,0,0,0-6.677,6.679,1.671,1.671,0,0,0,1.668,1.67,1.672,1.672,0,0,0,1.67-1.67A3.342,3.342,0,0,1-1396-6481.042Z" transform="translate(1414 6492)" fill="#034ea1"/>
  </g>
</svg>
