<svg xmlns="http://www.w3.org/2000/svg" width="16" height="15" viewBox="0 0 16 15">
  <path id="Path_20118" data-name="Path 20118" d="M29.751,13.2V8.062a.717.717,0,0,0,.912-1.1l-.912-.816V2.558a2.262,2.262,0,0,0-4.485-.43l-.781-.7a2.37,2.37,0,0,0-3.165,0L15.146,6.956a.718.718,0,0,0,.909,1.107v5.143A2.062,2.062,0,0,0,18.1,15.283H27.71A2.061,2.061,0,0,0,29.751,13.2Zm-2.3-11.528a.848.848,0,0,1,.867.882V4.867l-1.675-1.5,0-.807A.848.848,0,0,1,27.455,1.676Zm-3.3,12.159H21.779V12.148A1.116,1.116,0,0,1,23.1,11.076a1.065,1.065,0,0,1,1.054,1.072Zm1.425,0V12.148a2.616,2.616,0,0,0-5.229,0v1.687H18.1a.624.624,0,0,1-.617-.628V6.8l4.783-4.274a.962.962,0,0,1,1.284,0L28.327,6.8v6.41a.627.627,0,0,1-.62.625H25.579Z" transform="translate(-14.909 -0.283)" fill="#505050"/>
</svg>
