<svg xmlns="http://www.w3.org/2000/svg" width="17" height="20" viewBox="0 0 17 20">
  <g id="house_12_" data-name="house (12)" transform="translate(-12.09 -4)">
    <path id="Path_23771" data-name="Path 23771" d="M24.686,7.43h4.891a1.382,1.382,0,0,0,.882-.3.956.956,0,0,0,.364-.734V5.037A1.157,1.157,0,0,0,29.577,4H24.686A1.157,1.157,0,0,0,23.44,5.037V6.393a.956.956,0,0,0,.364.734,1.382,1.382,0,0,0,.882.3Z" transform="translate(-6.542)" fill="#505050"/>
    <path id="Path_23772" data-name="Path 23772" d="M26.87,7.78H25.1V8.812a1.94,1.94,0,0,1-2.087,1.746H18.169a1.94,1.94,0,0,1-2.088-1.746V7.78H14.31a2.066,2.066,0,0,0-2.22,1.857V24.567a2.064,2.064,0,0,0,2.22,1.857H26.87a2.064,2.064,0,0,0,2.22-1.857V9.637A2.066,2.066,0,0,0,26.87,7.78ZM16.381,14.131c.055-.1,3.569-2.4,3.569-2.4a1.188,1.188,0,0,1,1.281,0c2.608,1.724,3.557,2.317,3.569,2.4a.316.316,0,0,1-.094.443.491.491,0,0,1-.537.011l-.162-.107v2.878a1,1,0,0,1-1.08.9H18.255a1,1,0,0,1-1.08-.9V14.478l-.162.107a.491.491,0,0,1-.536-.012.317.317,0,0,1-.1-.441Zm4.227,11.3H15.13a.363.363,0,1,1,0-.714h5.477a.363.363,0,1,1,0,.714Zm5.46-1.428H15.113a.363.363,0,1,1,0-.714H26.067a.363.363,0,1,1,0,.714ZM14.7,21.454a.4.4,0,0,1,.427-.357h5.477a.363.363,0,1,1,0,.714H15.13A.4.4,0,0,1,14.7,21.454Zm11.365-1.018H15.113a.363.363,0,1,1,0-.714H26.067a.363.363,0,1,1,0,.714Z" transform="translate(0 -2.424)" fill="#505050"/>
    <path id="Path_23773" data-name="Path 23773" d="M31.574,31.345c-.23,0-.565-.03-.574.237V32.7h.863v-1.12a.22.22,0,0,0-.085-.169.318.318,0,0,0-.2-.068Z" transform="translate(-10.841 -17.58)" fill="#505050"/>
    <path id="Path_23774" data-name="Path 23774" d="M26.229,25.642h1.065V24.523a.955.955,0,0,1,.452-.754,1.391,1.391,0,0,1,.984-.2,1.068,1.068,0,0,1,1.152.954v1.119h1.065a.213.213,0,0,0,.229-.19V21.993L28.7,20.367a.2.2,0,0,0-.224,0L26,21.993v3.459A.213.213,0,0,0,26.229,25.642Z" transform="translate(-7.998 -10.509)" fill="#505050"/>
  </g>
</svg>
