<svg id="Bus_Station" data-name="Bus Station" xmlns="http://www.w3.org/2000/svg" width="45" height="40" viewBox="0 0 45 40">
  <path id="Path_20684" data-name="Path 20684" d="M13.381,10A5.168,5.168,0,0,0,8.57,5.018,5.423,5.423,0,0,0,2.641,8.852a4.941,4.941,0,0,0,3.486,5.841V43.317A1.744,1.744,0,0,0,7.94,44.983a1.744,1.744,0,0,0,1.813-1.666V14.693A5.045,5.045,0,0,0,13.381,10Z" transform="translate(-2.499 -4.984)" fill="#b1d6ff"/>
  <path id="Path_20685" data-name="Path 20685" d="M35.369,5H20.123c-4.208.006-7.618,3.731-7.623,8.328V34.981a4.989,4.989,0,0,0,3.049,4.69v1.972A3.2,3.2,0,0,0,18.6,44.974h3.049A3.2,3.2,0,0,0,24.7,41.643V39.977h6.1v1.666a3.2,3.2,0,0,0,3.049,3.331h3.049a3.2,3.2,0,0,0,3.049-3.331V39.671a4.989,4.989,0,0,0,3.049-4.69V13.328c-.005-4.6-3.415-8.322-7.623-8.328ZM18.6,33.315a1.531,1.531,0,1,1,1.525,1.666A1.6,1.6,0,0,1,18.6,33.315Zm15.246,0a1.531,1.531,0,1,1,1.525,1.666A1.6,1.6,0,0,1,33.844,33.315Zm6.1-8.328a1.6,1.6,0,0,1-1.525,1.666H17.074a1.6,1.6,0,0,1-1.525-1.666V14.993A3.2,3.2,0,0,1,18.6,11.662h18.3a3.2,3.2,0,0,1,3.049,3.331Z" transform="translate(2.008 -4.974)" fill="#b1d6ff"/>
</svg>
