<svg id="upload" xmlns="http://www.w3.org/2000/svg" width="22" height="22" viewBox="0 0 22 22">
  <path id="Path_22503" data-name="Path 22503" d="M22,13a1,1,0,0,0-1,1v4.213A2.79,2.79,0,0,1,18.213,21H5.787A2.79,2.79,0,0,1,3,18.213V14a1,1,0,0,0-2,0v4.213A4.792,4.792,0,0,0,5.787,23H18.213A4.792,4.792,0,0,0,23,18.213V14A1,1,0,0,0,22,13Z" transform="translate(-1 -1)" fill="#00adee"/>
  <path id="Path_22504" data-name="Path 22504" d="M6.707,10.293,11,14.586V2a1,1,0,1,1,2,0V14.586l4.293-4.293a1,1,0,1,1,1.414,1.414l-6,6a1,1,0,0,1-1.414,0l-6-6a1,1,0,1,1,1.414-1.414Z" transform="translate(-1 -1)" fill="#00adee"/>
</svg>
