<svg id="switch_Icon" xmlns="http://www.w3.org/2000/svg" width="30" height="30" viewBox="0 0 30 30">
  <path id="Path_20118" data-name="Path 20118" d="M30.656,13.76V8.4a.753.753,0,0,0,.967-1.152s-.967-.852-.967-.852V2.656A2.4,2.4,0,0,0,25.9,2.208l-.828-.727a2.546,2.546,0,0,0-3.358,0l-6.55,5.761A.753.753,0,0,0,16.125,8.4v5.364a2.169,2.169,0,0,0,2.167,2.167h10.2A2.168,2.168,0,0,0,30.656,13.76ZM28.22,1.736a.892.892,0,0,1,.92.92V5.064L27.363,3.5l0-.841A.891.891,0,0,1,28.22,1.736Zm-3.5,12.682H22.2v-1.76A1.178,1.178,0,0,1,23.6,11.54a1.12,1.12,0,0,1,1.119,1.119Zm1.512,0v-1.76a2.665,2.665,0,0,0-2.917-2.63,2.633,2.633,0,0,0-2.63,2.63v1.76H18.29a.656.656,0,0,1-.655-.655V7.078L22.709,2.62a1.034,1.034,0,0,1,1.362,0l5.073,4.46v6.686a.66.66,0,0,1-.658.652H26.229Z" transform="translate(-1.884 -0.237)" fill="#034ea1"/>
  <path id="Path_20119" data-name="Path 20119" d="M23.342,4.159a2.235,2.235,0,0,0,0,4.47A2.235,2.235,0,0,0,23.342,4.159Zm0,2.959a.724.724,0,0,1,0-1.447A.724.724,0,0,1,23.342,7.118Z" transform="translate(-1.433 -0.206)" fill="#034ea1"/>
  <path id="Path_20120" data-name="Path 20120" d="M31.081,21.334a.756.756,0,0,0-.756.756v3.474a1.7,1.7,0,0,1-1.7,1.694H23.259L25.1,25.5a.756.756,0,0,0-1.014-1.121c-.016,0-3.211,3.063-3.236,3.088a.8.8,0,0,0,0,1.088l3.208,3.061a.756.756,0,0,0,1.072-1.066c-.021-.023-1.846-1.755-1.871-1.781H28.63a3.21,3.21,0,0,0,3.207-3.206V22.09A.758.758,0,0,0,31.081,21.334Z" transform="translate(-1.84 -1.844)" fill="#034ea1"/>
  <path id="Path_20121" data-name="Path 20121" d="M1.007,10.751A.756.756,0,0,0,1.763,10V6.521a1.7,1.7,0,0,1,1.7-1.694H8.829L6.987,6.585A.756.756,0,0,0,8,7.707c.017-.005,3.209-3.07,3.237-3.089.348-.227.262-.84,0-1.09L8.03.464A.756.756,0,0,0,6.958,1.53c.019.023,1.847,1.761,1.87,1.786H3.46A3.21,3.21,0,0,0,.253,6.521V10A.755.755,0,0,0,1.007,10.751Z" transform="translate(-0.248 -0.237)" fill="#d1d1d1"/>
  <path id="Path_20122" data-name="Path 20122" d="M6.814,24.233a3.566,3.566,0,0,0,0-7.131A3.566,3.566,0,0,0,6.814,24.233Zm2.058-3.57a2.054,2.054,0,0,1-4.108.008A2.054,2.054,0,0,1,8.872,20.663Z" transform="translate(-0.224 -1.328)" fill="#d1d1d1"/>
  <path id="Path_20123" data-name="Path 20123" d="M.309,30.752a.756.756,0,0,0,1.4.572,5.574,5.574,0,0,1,10.566,0,.756.756,0,1,0,1.4-.571A7.084,7.084,0,0,0,.309,30.752Z" transform="translate(-0.248 -1.808)" fill="#d1d1d1"/>
</svg>
