<svg xmlns="http://www.w3.org/2000/svg" xmlns:xlink="http://www.w3.org/1999/xlink" width="40" height="40" viewBox="0 0 40 40">
  <defs>
    <clipPath id="clip-path">
      <rect id="Rectangle_10285" data-name="Rectangle 10285" width="40" height="40" fill="#034ea1" stroke="#707070" strokeWidth="1"/>
    </clipPath>
  </defs>
  <g id="Mask_Group_60" data-name="Mask Group 60" clip-path="url(#clip-path)">
    <g id="train_1_" data-name="train (1)" transform="translate(0.12 0.374)">
      <g id="Group_33777" data-name="Group 33777">
        <g id="Group_33776" data-name="Group 33776">
          <path id="Path_22437" data-name="Path 22437" d="M7.323,16.115l0-8.169L4.464,8.58v6.741l2.857.794Z" transform="translate(4.107 7.944)" fill="#034ea1"/>
          <path id="Path_22438" data-name="Path 22438" d="M1.964,13.321A6.61,6.61,0,0,0,2.2,15.047l3.437,1.936a11.735,11.735,0,0,1-.1-1.518V12.673l-3.571-.995v1.643Z" transform="translate(1.607 11.677)" fill="#034ea1"/>
          <path id="Path_22439" data-name="Path 22439" d="M5.535,8.421l-3.571.793v4.241l3.571.992Z" transform="translate(1.607 8.42)" fill="#034ea1"/>
          <path id="Path_22440" data-name="Path 22440" d="M2.368,6.964a6.318,6.318,0,0,0-.4,2.286v1.173l3.571-.794V8.536A9.96,9.96,0,0,1,5.9,5.75Z" transform="translate(1.607 5.749)" fill="#034ea1"/>
          <path id="Path_22441" data-name="Path 22441" d="M2.321,8.357a8.451,8.451,0,0,1,.171-1.714l-1.35.464A1.429,1.429,0,0,0,.179,8.458v1.866l2.143-.476Z" transform="translate(-0.179 6.642)" fill="#034ea1"/>
          <path id="Path_22442" data-name="Path 22442" d="M20.986,14.642h2.083a1.626,1.626,0,0,0,1.523-1.076,39.371,39.371,0,0,0,1.884-7.5H9.984a39.415,39.415,0,0,0,1.885,7.5,1.626,1.626,0,0,0,1.523,1.076h2.083a2.843,2.843,0,0,1,5.511,0Z" transform="translate(9.625 6.071)" fill="#034ea1"/>
          <path id="Path_22443" data-name="Path 22443" d="M3.376,11.471l15.84-5.445a4.107,4.107,0,0,1,.753-.5c.043-.022.086-.043.129-.064a4.651,4.651,0,0,1,1.246-.382c.06-.01.12-.019.182-.026A5.967,5.967,0,0,1,22.32,5h6.955l8.889-5H14L.179,11.057v1.571a2.824,2.824,0,0,1,.5-.234Z" transform="translate(-0.179)" fill="#034ea1"/>
          <path id="Path_22444" data-name="Path 22444" d="M10.918,7.812c.005-.079.012-.153.018-.23.013-.164.027-.326.046-.483.01-.084.021-.166.034-.248.021-.143.046-.286.071-.429.015-.075.029-.151.046-.224.035-.154.075-.3.118-.444.014-.048.026-.1.041-.143a5.66,5.66,0,0,1,.2-.532c.019-.042.04-.081.059-.122.059-.125.12-.246.186-.357.03-.052.062-.1.094-.152s.065-.111.1-.162L5.164,6.613A7.039,7.039,0,0,0,4.468,10v.776l2.547-.566A1.428,1.428,0,0,1,8.753,11.6v8.169a1.427,1.427,0,0,1-1.814,1.375l-2.471-.686v2.393A8.715,8.715,0,0,0,4.774,25.3l6.214,3.5a4.63,4.63,0,0,1-.071-.588,3.358,3.358,0,0,1-.021-.353V8.571C10.9,8.309,10.9,8.058,10.918,7.812Z" transform="translate(4.103 4.285)" fill="#034ea1"/>
          <path id="Path_22445" data-name="Path 22445" d="M13.489,10.714h2.473a1.429,1.429,0,0,0-2.473,0Z" transform="translate(13.13 9.999)" fill="#034ea1"/>
          <path id="Path_22446" data-name="Path 22446" d="M26.913,6.232c0-.076.009-.151.012-.226.021-.416.035-.827.037-1.229-.007-.016-.021-.041-.031-.061-.017-.036-.036-.071-.062-.119-.016-.028-.039-.061-.059-.091-.031-.049-.065-.1-.1-.154-.027-.036-.061-.071-.093-.112s-.1-.11-.154-.166c-.041-.04-.086-.08-.131-.119a2.372,2.372,0,0,0-.214-.164c-.054-.038-.109-.075-.17-.111a2.971,2.971,0,0,0-.286-.143c-.066-.031-.131-.062-.2-.089a3.372,3.372,0,0,0-.4-.111l-.021-.006c-.066-.015-.124-.035-.193-.047a4.264,4.264,0,0,0-.738-.067H12.678a4.45,4.45,0,0,0-.643.049l-.089.012a3.579,3.579,0,0,0-.509.125l-.086.03a3.092,3.092,0,0,0-.414.181l-.05.029a2.76,2.76,0,0,0-.331.219l-.017.013c-.06.047-.106.1-.158.143a2.57,2.57,0,0,0-.561.766c0,.4.016.811.037,1.225,0,.071.008.146.012.22.024.42.056.844.1,1.274H26.814C26.857,7.071,26.892,6.65,26.913,6.232Zm-3.521-.161h-10a.714.714,0,1,1,0-1.428h10a.714.714,0,1,1,0,1.428Z" transform="translate(9.463 3.214)" fill="#034ea1"/>
          <path id="Path_22447" data-name="Path 22447" d="M2.321,8.977.179,9.453v2.456l2.143.595Z" transform="translate(-0.179 8.976)" fill="#034ea1"/>
          <path id="Path_22448" data-name="Path 22448" d="M.906,13.808l1.453.819c-.024-.265-.037-.536-.037-.811V11.78l-2.143-.6v1.38A1.428,1.428,0,0,0,.906,13.808Z" transform="translate(-0.179 11.182)" fill="#034ea1"/>
          <path id="Path_22449" data-name="Path 22449" d="M12.432,12.979a.385.385,0,0,0-.394-.261,5.642,5.642,0,0,0-2.3.454c.143.826,2.017,1.164,2.607,1.249a.357.357,0,0,0,.333-.129.381.381,0,0,0,.071-.373Z" transform="translate(9.375 12.715)" fill="#034ea1"/>
          <path id="Path_22450" data-name="Path 22450" d="M17.3,12.979l-.314.941a.381.381,0,0,0,.071.372.353.353,0,0,0,.334.129c.589-.086,2.463-.424,2.606-1.249a5.642,5.642,0,0,0-2.3-.454A.386.386,0,0,0,17.3,12.979Z" transform="translate(16.605 12.715)" fill="#034ea1"/>
          <path id="Path_22451" data-name="Path 22451" d="M20.535,16.071H12.679a.714.714,0,0,0-.714.714v2.857h9.285V16.786A.714.714,0,0,0,20.535,16.071Z" transform="translate(11.606 16.069)" fill="#034ea1"/>
          <path id="Path_22452" data-name="Path 22452" d="M30.181,4.667a1.785,1.785,0,0,0-.376-.286c-.009.281-.023.56-.04.839v.071c-.039.62-.1,1.231-.168,1.828v.012a40.358,40.358,0,0,1-2.066,8.607,3.057,3.057,0,0,1-2.872,2.023H14.982a3.057,3.057,0,0,1-2.867-2.021A40.359,40.359,0,0,1,10.05,7.134V7.119c-.071-.6-.129-1.208-.168-1.828V5.22c-.017-.278-.031-.557-.04-.838l-.021.009c-.026.015-.053.035-.079.053s-.066.04-.1.065a1.808,1.808,0,0,0-.185.158c-.485.473-1.066,1.518-1.066,3.809V27.76a3.366,3.366,0,0,0,.056.59c.008.041.014.082.023.123a2.933,2.933,0,0,0,.162.512c.016.037.036.071.053.109a2.755,2.755,0,0,0,.245.417c.016.024.03.049.048.071a3.1,3.1,0,0,0,.369.4c.946.874,2.568,1.351,4.758,1.351V28.474a2.143,2.143,0,0,1,2.143-2.143h7.856a2.143,2.143,0,0,1,2.143,2.143v2.838c3.188-.163,5-1.436,5-3.553V8.476C31.248,6.184,30.668,5.14,30.181,4.667ZM15.107,23.546a1.786,1.786,0,0,1-1.373.643,1.9,1.9,0,0,1-.261-.019c-3.172-.463-3.838-1.759-3.838-2.765,0-1.388,2.085-1.68,3.653-1.778a1.8,1.8,0,0,1,1.838,1.234l.314.941A1.806,1.806,0,0,1,15.107,23.546Zm11.06.624,0,0a1.911,1.911,0,0,1-.262.019,1.785,1.785,0,0,1-1.373-.643,1.808,1.808,0,0,1-.332-1.741l.314-.941a1.807,1.807,0,0,1,1.838-1.234c1.571.1,3.653.39,3.653,1.778C30,22.411,29.338,23.708,26.167,24.17Z" transform="translate(8.035 4.38)" fill="#034ea1"/>
          <path id="Path_22453" data-name="Path 22453" d="M33.748,24.032H22.32c-2.82,0-4.526-.695-5.564-1.581L8.107,17.58.2,13.126.179,13.11v1.949l19.484,11.83h18.87l-4.311-2.874C34.06,24.019,33.914,24.032,33.748,24.032Z" transform="translate(-0.179 13.108)" fill="#034ea1"/>
          <path id="Path_22454" data-name="Path 22454" d="M.179,16.852l11.654,8.227H16.91L.179,14.92Z" transform="translate(-0.179 14.918)" fill="#034ea1"/>
        </g>
      </g>
    </g>
  </g>
</svg>
