<svg id="Upload_Image" data-name="Upload Image" xmlns="http://www.w3.org/2000/svg" width="36" height="36" viewBox="0 0 36 36">
  <path id="Upload_Image-2" data-name="Upload Image" d="M9.7,4.256A5.442,5.442,0,0,0,4.256,9.7V22.45l4.4,3.167a5.442,5.442,0,0,0,6.82-.371l6.858-6.172a7.954,7.954,0,0,1,9.968-.543l2.932,2.111V16.4a1.256,1.256,0,1,1,2.512,0v13.4a7.953,7.953,0,0,1-7.953,7.953H9.7a7.953,7.953,0,0,1-7.953-7.953V23.107q0-.015,0-.031V9.7A7.953,7.953,0,0,1,9.7,1.744h13.4a1.256,1.256,0,1,1,0,2.512ZM4.256,25.545v4.246A5.442,5.442,0,0,0,9.7,35.232H29.791a5.442,5.442,0,0,0,5.442-5.442V23.736l-4.4-3.167a5.442,5.442,0,0,0-6.82.371l-6.858,6.172a7.954,7.954,0,0,1-9.968.543Zm27.209-23.8A1.256,1.256,0,0,1,32.721,3V6.767h3.767a1.256,1.256,0,1,1,0,2.512H32.721v3.767a1.256,1.256,0,0,1-2.512,0V9.279H26.442a1.256,1.256,0,1,1,0-2.512h3.767V3A1.256,1.256,0,0,1,31.465,1.744ZM13.884,10.953a2.93,2.93,0,1,0,2.93,2.93A2.93,2.93,0,0,0,13.884,10.953Zm-5.442,2.93a5.442,5.442,0,1,1,5.442,5.442A5.442,5.442,0,0,1,8.442,13.884Z" transform="translate(-1.744 -1.744)" fill="#a1a1a1" fillRule="evenodd"/>
</svg>
