<svg xmlns="http://www.w3.org/2000/svg" width="28" height="28" viewBox="0 0 28 28">
  <g id="Layer_2" data-name="Layer 2" transform="translate(-1.25 -1.25)">
    <path id="Path_47881" data-name="Path 47881" d="M25.157,14.094a.985.985,0,0,1-.969-.817,11.913,11.913,0,0,0-.648-2.33.985.985,0,0,1,1.836-.715,14.156,14.156,0,0,1,.753,2.712.984.984,0,0,1-.8,1.136,1.033,1.033,0,0,1-.168.014ZM23.269,9.242a.984.984,0,0,1-.829-.451,12.177,12.177,0,0,0-1.507-1.9.984.984,0,1,1,1.411-1.37,14.187,14.187,0,0,1,1.751,2.2.984.984,0,0,1-.826,1.516ZM19.634,5.5a.969.969,0,0,1-.553-.172,12.371,12.371,0,0,0-2.126-1.161.984.984,0,1,1,.769-1.806,14.069,14.069,0,0,1,2.466,1.348.984.984,0,0,1-.555,1.8Zm-4.8-2.028a1.1,1.1,0,0,1-.194-.018,12.3,12.3,0,0,0-2.41-.24.984.984,0,0,1,0-1.967,14.2,14.2,0,0,1,2.8.278.984.984,0,0,1-.195,1.947Z" transform="translate(2.992)" fill="#505050"/>
    <path id="Path_47882" data-name="Path 47882" d="M15.287,29.25a14,14,0,1,1,0-28,.977.977,0,1,1,0,1.953A12.048,12.048,0,1,0,27.3,16.456a.979.979,0,0,1,1.948.193,13.967,13.967,0,0,1-13.961,12.6Z" transform="translate(0 0)" fill="#505050"/>
    <path id="Path_47883" data-name="Path 47883" d="M14.43,4a10.394,10.394,0,1,0,10.43,10.393A10.412,10.412,0,0,0,14.43,4Zm6,14.876a.98.98,0,0,1-1.369.195l-5.215-3.9a.959.959,0,0,1-.391-.78V7.9a.978.978,0,0,1,1.956,0v6l4.824,3.612a.972.972,0,0,1,.2,1.364Z" transform="translate(0.856 0.856)" fill="#505050"/>
  </g>
</svg>
