<svg id="Layer_2" data-name="Layer 2" xmlns="http://www.w3.org/2000/svg" width="30" height="30" viewBox="0 0 30 30">
  <g id="_01.Add" data-name="01.Add">
    <path id="Path_47981" data-name="Path 47981" d="M23.092,0H6.908A6.928,6.928,0,0,0,0,6.908V23.092A6.928,6.928,0,0,0,6.908,30H23.092A6.928,6.928,0,0,0,30,23.092V6.908A6.928,6.928,0,0,0,23.092,0ZM21.16,16.293H16.607a.264.264,0,0,0-.266.266v4.559a1.34,1.34,0,1,1-2.68,0V16.559a.264.264,0,0,0-.266-.266H8.84a1.34,1.34,0,0,1,0-2.68h4.553a.264.264,0,0,0,.266-.266V8.793a1.34,1.34,0,1,1,2.68,0v4.553a.264.264,0,0,0,.266.272H21.16a1.34,1.34,0,0,1,0,2.68Z" fill="#fff"/>
  </g>
</svg>
