<svg xmlns="http://www.w3.org/2000/svg" width="26.877" height="26.877" viewBox="0 0 26.877 26.877">
  <g id="Area" transform="translate(0.3 0.3)">
    <path id="Path_21224" data-name="Path 21224" d="M3,5.92V26.357a2.923,2.923,0,0,0,2.92,2.92H26.357a2.923,2.923,0,0,0,2.92-2.92V5.92A2.923,2.923,0,0,0,26.357,3H5.92A2.923,2.923,0,0,0,3,5.92ZM26.36,26.357H5.92V5.92H26.357Z" transform="translate(-3 -3)" fill="#6495cc" stroke="#f8fbff" stroke-width="0.6"/>
    <path id="Path_21225" data-name="Path 21225" d="M20.31,15.318h3.327V7H15.318v3.327H20.31ZM15.318,20.31H10.327V15.318H7v8.318h8.318Z" transform="translate(-2.18 -2.18)" fill="#6495cc" stroke="#f8fbff" stroke-width="0.6"/>
  </g>
</svg>
