<svg xmlns="http://www.w3.org/2000/svg" width="33.108" height="27.134" viewBox="0 0 33.108 27.134">
  <g id="Icon" transform="translate(0.35 0.389)">
    <path id="Path" d="M1128.949,225.608q1.377,0,2.813-.023c3.8-.06,6.5-1.691,7.434-4.474a11.99,11.99,0,0,0,.466-2.64c.04-.389.079-.778.135-1.164.037-.258-.206-.489-.546-.518a.6.6,0,0,0-.684.414c-.059.4-.1.8-.14,1.2a11.277,11.277,0,0,1-.432,2.482c-.794,2.378-3.014,3.715-6.257,3.766a133.233,133.233,0,0,1-13.936-.431,5.5,5.5,0,0,1-4.924-5.5c.014-5.038.283-10.156.533-14.557a2.107,2.107,0,0,1,1.6-1.752,4.226,4.226,0,0,1,3.415.258,5.133,5.133,0,0,1,1.23,1.118c.195.219.393.438.6.641a.759.759,0,0,0,.87.082.4.4,0,0,0,.108-.658c-.192-.188-.372-.39-.553-.591a5.982,5.982,0,0,0-1.516-1.344,5.8,5.8,0,0,0-4.686-.353,3.086,3.086,0,0,0-2.3,2.559c-.254,4.411-.522,9.541-.535,14.6a6.562,6.562,0,0,0,6.017,6.435C1121.114,225.456,1124.83,225.608,1128.949,225.608Z" transform="translate(-1110.55 -201.224)" fill="#6495cc" stroke="#6495cc" stroke-width="0.7"/>
    <path id="Path-2" data-name="Path" d="M1109.973,211.529h.011l31.217-.4c.329,0,.591-.208.585-.454s-.277-.427-.606-.438l-31.216.4c-.329,0-.591.208-.586.454A.54.54,0,0,0,1109.973,211.529Z" transform="translate(-1109.377 -195.116)" fill="#6495cc" stroke="#6495cc" stroke-width="0.7"/>
    <path id="Path-3" data-name="Path" d="M1119.981,208.451a.486.486,0,0,0,.21-.046.435.435,0,0,0,.214-.6c-1.2-2.287-.3-3.264.487-3.8.976-.667,2.569-.27,3.795.942a4.267,4.267,0,0,1,.4.488c.065.087.13.174.2.259a.494.494,0,0,0,.664.091.429.429,0,0,0,.1-.624c-.062-.078-.12-.159-.179-.238a5.009,5.009,0,0,0-.492-.592c-1.556-1.54-3.675-1.979-5.036-1.048-1.643,1.123-1.9,2.777-.778,4.918A.471.471,0,0,0,1119.981,208.451Z" transform="translate(-1111.732 -200.282)" fill="#6495cc" stroke="#6495cc" stroke-width="0.7"/>
    <path id="Path-4" data-name="Path" d="M1118.293,208.723a.488.488,0,0,0,.234-.059l.466-.254c.329-.181.66-.361,1-.531q2.539-1.278,5.083-2.545l1.648-.825a.435.435,0,0,0,.2-.6.492.492,0,0,0-.641-.185l-1.65.825q-2.546,1.271-5.085,2.547c-.347.174-.686.359-1.026.546l-.461.25a.433.433,0,0,0-.176.608A.477.477,0,0,0,1118.293,208.723Z" transform="translate(-1111.048 -199.532)" fill="#6495cc" stroke="#6495cc" stroke-width="0.7"/>
    <path id="Path-5" data-name="Path" d="M1124.772,218.222a.478.478,0,0,0,.425-.247l1.263-2.378a.433.433,0,0,0-.212-.6.487.487,0,0,0-.635.2l-1.263,2.378a.433.433,0,0,0,.212.6A.5.5,0,0,0,1124.772,218.222Z" transform="translate(-1121.562 -191.827)" fill="#6495cc" stroke="#6495cc" stroke-width="0.7"/>
    <path id="Path-6" data-name="Path" d="M1114.551,218.023a.484.484,0,0,0,.277-.086.429.429,0,0,0,.1-.624l-1.684-2.178a.492.492,0,0,0-.661-.1.428.428,0,0,0-.1.623l1.684,2.18A.486.486,0,0,0,1114.551,218.023Z" transform="translate(-1088.03 -191.827)" fill="#6495cc" stroke="#6495cc" stroke-width="0.7"/>
  </g>
</svg>
