<svg xmlns="http://www.w3.org/2000/svg" xmlns:xlink="http://www.w3.org/1999/xlink" width="44" height="44" viewBox="0 0 44 44">
  <defs>
    <filter id="Path_47945" x="0" y="0" width="44" height="44" filterUnits="userSpaceOnUse">
      <feOffset dx="2" input="SourceAlpha"/>
      <feGaussianBlur stdDeviation="3" result="blur"/>
      <feFlood flood-opacity="0.4"/>
      <feComposite operator="in" in2="blur"/>
      <feComposite in="SourceGraphic"/>
    </filter>
  </defs>
  <g id="Group_36655" data-name="Group 36655" transform="translate(-14 -4)">
    <path id="Path_47941" data-name="Path 47941" d="M10.826,2.812a3.829,3.829,0,0,1,4.348,0l7.15,4.925A3.884,3.884,0,0,1,24,10.936v9.322a3.863,3.863,0,0,1-3.85,3.876H5.85A3.863,3.863,0,0,1,2,20.259V10.936a3.884,3.884,0,0,1,1.676-3.2Z" transform="translate(27 9.865)" fill="#9bc3ef" fill-rule="evenodd"/>
    <g transform="matrix(1, 0, 0, 1, 14, 4)" filter="url(#Path_47945)">
      <path id="Path_47945-2" data-name="Path 47945" d="M12.431,2.935a4.525,4.525,0,0,1,5.139,0l8.45,5.821A4.59,4.59,0,0,1,28,12.537V23.554a4.566,4.566,0,0,1-4.55,4.581H6.55A4.566,4.566,0,0,1,2,23.554V12.537A4.59,4.59,0,0,1,3.981,8.756Z" transform="translate(5 6.86)" fill="#034ea1" fill-rule="evenodd"/>
    </g>
    <g id="Layer_7" transform="translate(24.57 20)">
      <path id="Path_47942" data-name="Path 47942" d="M12.271,2h-6V4.367A1.48,1.48,0,0,1,4.792,5.843H2.43v7.364a1.711,1.711,0,0,0,1.712,1.712h5.2a1.546,1.546,0,0,1-.192-.735v-2.14a1.566,1.566,0,0,1,.683-1.294l1.752-1.195a1.567,1.567,0,0,1,1.764,0l.638.435V3.712A1.711,1.711,0,0,0,12.271,2ZM7.747,11.832H5.2A.415.415,0,0,1,5.2,11H7.747a.415.415,0,0,1,0,.831Zm3.008-2.958H5.2a.415.415,0,1,1,0-.831h5.554a.415.415,0,0,1,0,.831Z" transform="translate(0 0)" fill="#fff"/>
      <path id="Path_47943" data-name="Path 47943" d="M4.792,5.013a.649.649,0,0,0,.651-.646V2H5.415a1.652,1.652,0,0,0-1.167.484L2.914,3.818A1.652,1.652,0,0,0,2.43,4.985v.028Z" fill="#fff"/>
      <path id="Path_47944" data-name="Path 47944" d="M20.858,19.713l-1.752,1.195a.735.735,0,0,0-.321.608v2.14a.736.736,0,0,0,.735.735h3.5a.736.736,0,0,0,.735-.735v-2.14a.736.736,0,0,0-.321-.608l-1.752-1.195A.736.736,0,0,0,20.858,19.713Z" transform="translate(-8.809 -9.472)" fill="#fff"/>
    </g>
  </g>
</svg>
