<svg id="Group_36644" data-name="Group 36644" xmlns="http://www.w3.org/2000/svg" width="30" height="30" viewBox="0 0 30 30">
  <path id="Path_47884" data-name="Path 47884" d="M29.363,13.8c-.557-1.321-.824-1.986-1.405-3.279l1.208-2.539L25.977,4.81l-2.506,1.2c-1.307-.557-1.972-.824-3.279-1.382L19.246,2H14.731l-.937,2.614C12.468,5.171,11.8,5.438,10.515,6L8,4.81,4.81,7.981l1.2,2.525c-.557,1.307-.824,1.972-1.382,3.279L2,14.731v4.515l2.614.937c.557,1.326.824,1.991,1.382,3.279L4.81,25.977c1.6,1.611,1.6,1.611,3.208,3.208l2.506-1.2c1.307.557,1.972.824,3.279,1.405L14.74,32h4.515l.937-2.614c1.321-.557,1.986-.824,3.279-1.405l2.506,1.185c1.611-1.6,1.611-1.6,3.208-3.208l-1.2-2.506c.557-1.307.824-1.972,1.405-3.279L32,19.237V14.731ZM16.988,25.077a8.094,8.094,0,1,1,8.094-8.089,8.094,8.094,0,0,1-8.094,8.089Z" transform="translate(-2 -2)" fill="#034ea1"/>
  <path id="Path_47885" data-name="Path 47885" d="M33.411,37.036a6.519,6.519,0,0,1-10.631,0A5.581,5.581,0,0,1,25.542,33.8a4.454,4.454,0,0,0,5.1,0,5.566,5.566,0,0,1,2.767,3.236Z" transform="translate(-13.107 -18.947)" fill="#034ea1"/>
  <path id="Path_47886" data-name="Path 47886" d="M33.723,24.077a2.5,2.5,0,1,1-.733-1.767,2.5,2.5,0,0,1,.733,1.767Z" transform="translate(-16.233 -12.43)" fill="#034ea1"/>
</svg>
