<svg xmlns="http://www.w3.org/2000/svg" width="19.999" height="20" viewBox="0 0 19.999 20">
  <g id="Layer_x0020_1" transform="translate(-0.491 -0.491)">
    <g id="_512297464" transform="translate(0.491 0.491)">
      <path id="_512297152" d="M18.967,10.49a8.476,8.476,0,1,1-8.476-8.477,8.486,8.486,0,0,1,8.476,8.477ZM.768,8.134A9.975,9.975,0,0,0,.491,10.25h.7a.24.24,0,0,1,0,.48h-.7a9.978,9.978,0,0,0,.278,2.116l.674-.181a.24.24,0,1,1,.124.464l-.674.181a9.945,9.945,0,0,0,.819,1.971l.6-.347a.24.24,0,1,1,.24.416l-.6.347a10.068,10.068,0,0,0,1.3,1.691l.489-.489a.24.24,0,0,1,.339.34l-.489.489a10.067,10.067,0,0,0,1.691,1.3l.348-.6a.24.24,0,0,1,.416.24l-.348.6a9.942,9.942,0,0,0,1.971.819l.181-.675a.24.24,0,1,1,.463.124l-.181.675a9.974,9.974,0,0,0,2.117.278v-.7a.24.24,0,0,1,.48,0v.7a9.978,9.978,0,0,0,2.116-.278l-.181-.674a.24.24,0,0,1,.464-.124l.181.674a9.945,9.945,0,0,0,1.971-.819l-.348-.6a.24.24,0,1,1,.416-.24l.347.6a10.068,10.068,0,0,0,1.691-1.3l-.489-.489a.24.24,0,1,1,.339-.339l.489.489a10.068,10.068,0,0,0,1.3-1.691l-.6-.347a.24.24,0,1,1,.24-.416l.6.348a9.941,9.941,0,0,0,.819-1.971l-.675-.181a.24.24,0,1,1,.124-.464l.675.181a9.973,9.973,0,0,0,.278-2.116h-.7a.24.24,0,1,1,0-.48h.7a9.97,9.97,0,0,0-.278-2.116l-.674.181a.238.238,0,0,1-.062.008.24.24,0,0,1-.062-.472l.674-.181A9.939,9.939,0,0,0,19.268,5.7l-.6.348a.24.24,0,1,1-.24-.416l.6-.347a10.069,10.069,0,0,0-1.3-1.691l-.489.489a.24.24,0,1,1-.34-.339l.49-.49a10.065,10.065,0,0,0-1.691-1.3l-.347.6a.241.241,0,0,1-.208.12h0a.24.24,0,0,1-.208-.36l.348-.6A9.941,9.941,0,0,0,13.311.893l-.181.675a.24.24,0,0,1-.464-.124l.181-.675A9.975,9.975,0,0,0,10.731.491v.7a.24.24,0,0,1-.48,0v-.7A9.967,9.967,0,0,0,8.134.769l.181.674a.24.24,0,1,1-.464.124L7.671.893A9.942,9.942,0,0,0,5.7,1.713l.348.6a.24.24,0,0,1-.416.24l-.347-.6a10.064,10.064,0,0,0-1.691,1.3l.489.489a.24.24,0,1,1-.339.339l-.489-.489a10.065,10.065,0,0,0-1.3,1.691l.6.347a.24.24,0,1,1-.24.416l-.6-.348A9.943,9.943,0,0,0,.893,7.67l.675.181a.24.24,0,0,1-.062.472.243.243,0,0,1-.063-.008L.768,8.134Z" transform="translate(-0.491 -0.491)" fill="#999" fill-rule="evenodd"/>
      <path id="_512296744" d="M2.489,10.213a2.151,2.151,0,0,0,.972,1.736,3.587,3.587,0,0,0,1.605.624.24.24,0,0,1,.206.238v1.242a.378.378,0,0,0,.756,0V12.81a.24.24,0,0,1,.206-.238,3.587,3.587,0,0,0,1.605-.624,2.151,2.151,0,0,0,.972-1.736c0-1.537-1.489-2.065-3.065-2.624-1.231-.436-2.5-.888-2.5-1.843A1.418,1.418,0,0,1,3.9,4.621,2.987,2.987,0,0,1,5.651,4.1a2.986,2.986,0,0,1,1.748.52,1.418,1.418,0,0,1,.659,1.125.378.378,0,1,0,.756,0A2.151,2.151,0,0,0,7.841,4.01a3.586,3.586,0,0,0-1.605-.624.24.24,0,0,1-.206-.238V1.906a.378.378,0,0,0-.756,0V3.148a.24.24,0,0,1-.206.238,3.587,3.587,0,0,0-1.605.624,2.151,2.151,0,0,0-.972,1.736C2.489,7.233,3.951,7.751,5.5,8.3c1.258.446,2.559.907,2.559,1.913A1.418,1.418,0,0,1,7.4,11.338a2.987,2.987,0,0,1-1.748.52,2.987,2.987,0,0,1-1.748-.52,1.418,1.418,0,0,1-.658-1.125.378.378,0,1,0-.756,0Z" transform="translate(4.349 2.021)" fill="#999" fill-rule="evenodd"/>
      <path id="_512296816" d="M9.931,14.108v1.038a.858.858,0,0,1-1.716,0V14.108A4.007,4.007,0,0,1,6.6,13.431a2.618,2.618,0,0,1-1.17-2.124.858.858,0,1,1,1.716,0,.958.958,0,0,0,.461.737,2.507,2.507,0,0,0,1.466.428,2.505,2.505,0,0,0,1.465-.428A.958.958,0,0,0,11,11.306c0-.667-1.139-1.07-2.24-1.46a9.476,9.476,0,0,1-2.238-1.01,2.322,2.322,0,0,1-1.09-2A2.618,2.618,0,0,1,6.6,4.715a4.008,4.008,0,0,1,1.614-.677V3A.858.858,0,0,1,9.931,3V4.038a4.011,4.011,0,0,1,1.614.677,2.618,2.618,0,0,1,1.17,2.124.858.858,0,1,1-1.716,0,.958.958,0,0,0-.461-.737,2.5,2.5,0,0,0-1.465-.428A2.506,2.506,0,0,0,7.607,6.1a.958.958,0,0,0-.461.737c0,.617,1.11,1.01,2.184,1.391A9.522,9.522,0,0,1,11.6,9.259a2.384,2.384,0,0,1,1.111,2.047,2.618,2.618,0,0,1-1.17,2.124,4.009,4.009,0,0,1-1.614.677ZM9.073,1.076a8,8,0,1,0,8,8A8.006,8.006,0,0,0,9.073,1.076Z" transform="translate(0.927 0.927)" fill="#999" fill-rule="evenodd"/>
    </g>
  </g>
</svg>
