<svg id="Dashbord_fild" data-name="Dashbord fild" xmlns="http://www.w3.org/2000/svg" width="28" height="28" viewBox="0 0 28 28">
  <path id="Path_24682" data-name="Path 24682" d="M10.792,0H2.042A2.044,2.044,0,0,0,0,2.042v5.25A2.044,2.044,0,0,0,2.042,9.333h8.75a2.044,2.044,0,0,0,2.042-2.042V2.042A2.044,2.044,0,0,0,10.792,0Zm0,0" fill="#034ea1"/>
  <path id="Path_24683" data-name="Path 24683" d="M10.792,213.332H2.042A2.044,2.044,0,0,0,0,215.374v12.25a2.044,2.044,0,0,0,2.042,2.042h8.75a2.044,2.044,0,0,0,2.042-2.042v-12.25A2.044,2.044,0,0,0,10.792,213.332Zm0,0" transform="translate(0 -201.665)" fill="#034ea1"/>
  <path id="Path_24684" data-name="Path 24684" d="M288.124,341.332h-8.75a2.044,2.044,0,0,0-2.042,2.042v5.25a2.044,2.044,0,0,0,2.042,2.042h8.75a2.044,2.044,0,0,0,2.042-2.042v-5.25A2.044,2.044,0,0,0,288.124,341.332Zm0,0" transform="translate(-262.165 -322.665)" fill="#034ea1"/>
  <path id="Path_24685" data-name="Path 24685" d="M288.124,0h-8.75a2.044,2.044,0,0,0-2.042,2.042v12.25a2.044,2.044,0,0,0,2.042,2.042h8.75a2.044,2.044,0,0,0,2.042-2.042V2.042A2.044,2.044,0,0,0,288.124,0Zm0,0" transform="translate(-262.165)" fill="#034ea1"/>
</svg>
