<svg xmlns="http://www.w3.org/2000/svg" width="27.079" height="27.079" viewBox="0 0 27.079 27.079">
  <g id="Layer_x0020_1" transform="translate(0 0)">
    <g id="_512297464" transform="translate(0 0)">
      <path id="_512297152" d="M25.507,14.03A11.477,11.477,0,1,1,14.03,2.553,11.49,11.49,0,0,1,25.507,14.03ZM.867,10.839a13.505,13.505,0,0,0-.376,2.866h.945a.325.325,0,0,1,0,.65H.491A13.51,13.51,0,0,0,.868,17.22l.913-.245a.325.325,0,1,1,.168.628l-.912.244a13.465,13.465,0,0,0,1.109,2.668l.815-.47a.325.325,0,1,1,.325.563l-.814.47a13.632,13.632,0,0,0,1.761,2.29l.663-.663a.325.325,0,0,1,.459.46l-.663.663a13.63,13.63,0,0,0,2.29,1.761l.471-.815a.325.325,0,0,1,.563.325l-.471.816a13.461,13.461,0,0,0,2.668,1.11l.245-.914a.325.325,0,1,1,.627.168l-.245.914a13.5,13.5,0,0,0,2.866.376v-.945a.325.325,0,0,1,.65,0v.945a13.51,13.51,0,0,0,2.865-.377l-.245-.913a.325.325,0,0,1,.628-.168l.245.913a13.465,13.465,0,0,0,2.668-1.11l-.471-.815a.325.325,0,1,1,.563-.325l.47.814a13.632,13.632,0,0,0,2.29-1.761l-.663-.663a.325.325,0,1,1,.46-.46l.663.663a13.631,13.631,0,0,0,1.761-2.289l-.814-.47a.325.325,0,1,1,.325-.563l.815.471a13.46,13.46,0,0,0,1.109-2.668l-.914-.245a.325.325,0,1,1,.169-.628l.913.245a13.5,13.5,0,0,0,.376-2.865h-.945a.325.325,0,1,1,0-.65h.944a13.5,13.5,0,0,0-.376-2.865l-.913.245a.322.322,0,0,1-.084.011.325.325,0,0,1-.084-.639l.913-.245a13.457,13.457,0,0,0-1.109-2.668l-.815.471a.325.325,0,1,1-.325-.563l.814-.47a13.633,13.633,0,0,0-1.761-2.29l-.662.663a.325.325,0,1,1-.46-.46l.663-.663a13.628,13.628,0,0,0-2.29-1.761l-.47.815a.326.326,0,0,1-.282.163h0a.325.325,0,0,1-.281-.487l.471-.816a13.46,13.46,0,0,0-2.669-1.109l-.245.913a.325.325,0,0,1-.628-.168l.245-.914A13.506,13.506,0,0,0,14.355.491v.944a.325.325,0,0,1-.65,0V.491A13.5,13.5,0,0,0,10.84.868l.245.913a.325.325,0,1,1-.628.168l-.245-.913A13.461,13.461,0,0,0,7.544,2.145l.471.815a.325.325,0,0,1-.563.325l-.47-.814a13.626,13.626,0,0,0-2.29,1.761l.663.662a.325.325,0,1,1-.459.46l-.663-.663a13.628,13.628,0,0,0-1.761,2.29l.814.47a.325.325,0,1,1-.325.563l-.815-.471a13.462,13.462,0,0,0-1.109,2.668l.913.245a.325.325,0,0,1-.084.639.329.329,0,0,1-.085-.011l-.914-.245Z" transform="translate(-0.491 -0.491)" fill="#999" fill-rule="evenodd"/>
      <path id="_512296744" d="M2.489,13.287a2.913,2.913,0,0,0,1.316,2.35,4.857,4.857,0,0,0,2.174.845.325.325,0,0,1,.279.322v1.682a.512.512,0,0,0,1.024,0V16.8a.325.325,0,0,1,.279-.322,4.856,4.856,0,0,0,2.174-.845,2.912,2.912,0,0,0,1.316-2.35c0-2.081-2.016-2.8-4.15-3.553-1.666-.591-3.39-1.2-3.39-2.5A1.92,1.92,0,0,1,4.4,5.715a4.044,4.044,0,0,1,2.367-.7,4.043,4.043,0,0,1,2.367.7,1.92,1.92,0,0,1,.892,1.523.511.511,0,1,0,1.023,0,2.912,2.912,0,0,0-1.316-2.35,4.856,4.856,0,0,0-2.174-.845.325.325,0,0,1-.279-.322V2.04a.512.512,0,0,0-1.024,0V3.721a.325.325,0,0,1-.279.322,4.857,4.857,0,0,0-2.174.845,2.913,2.913,0,0,0-1.316,2.35c0,2.014,1.979,2.716,4.074,3.459,1.7.6,3.465,1.228,3.465,2.59a1.92,1.92,0,0,1-.892,1.523,4.044,4.044,0,0,1-2.367.7,4.044,4.044,0,0,1-2.367-.7,1.92,1.92,0,0,1-.892-1.523.512.512,0,1,0-1.023,0Z" transform="translate(6.769 3.277)" fill="#999" fill-rule="evenodd"/>
      <path id="_512296816" d="M13.065,18.72v1.406a1.162,1.162,0,0,1-2.324,0V18.72A5.426,5.426,0,0,1,8.556,17.8a3.545,3.545,0,0,1-1.584-2.876,1.162,1.162,0,1,1,2.323,0,1.3,1.3,0,0,0,.624,1,3.394,3.394,0,0,0,1.985.58,3.392,3.392,0,0,0,1.984-.58,1.3,1.3,0,0,0,.624-1c0-.9-1.542-1.449-3.032-1.977a12.83,12.83,0,0,1-3.031-1.368,3.144,3.144,0,0,1-1.476-2.7A3.545,3.545,0,0,1,8.556,6a5.427,5.427,0,0,1,2.185-.917V3.68a1.162,1.162,0,0,1,2.324,0V5.086A5.43,5.43,0,0,1,15.25,6a3.545,3.545,0,0,1,1.584,2.876,1.162,1.162,0,1,1-2.323,0,1.3,1.3,0,0,0-.624-1A3.391,3.391,0,0,0,11.9,7.3a3.393,3.393,0,0,0-1.985.58,1.3,1.3,0,0,0-.624,1c0,.835,1.5,1.368,2.957,1.883a12.893,12.893,0,0,1,3.078,1.393,3.228,3.228,0,0,1,1.5,2.772A3.545,3.545,0,0,1,15.25,17.8a5.428,5.428,0,0,1-2.185.917ZM11.9,1.076A10.827,10.827,0,1,0,22.73,11.9,10.839,10.839,0,0,0,11.9,1.076Z" transform="translate(1.636 1.636)" fill="#999" fill-rule="evenodd"/>
    </g>
  </g>
</svg>
