<svg id="Glyph" xmlns="http://www.w3.org/2000/svg" width="20" height="18" viewBox="0 0 20 18">
  <path id="Path_21222" data-name="Path 21222" d="M15.909,5.427a2.727,2.727,0,1,1,2.727,2.7A2.714,2.714,0,0,1,15.909,5.427Zm-13.636.9H13.182a.9.9,0,1,0,0-1.8H2.273a.9.9,0,1,0,0,1.8Zm5.455,2.7a2.726,2.726,0,0,0-2.564,1.8H2.273a.9.9,0,1,0,0,1.8H5.164a2.732,2.732,0,0,0,3.186,1.73,2.7,2.7,0,0,0-.623-5.33Zm12.727,1.8H13.182a.9.9,0,1,0,0,1.8h7.273a.9.9,0,1,0,0-1.8Zm-10.909,6.3H2.273a.9.9,0,1,0,0,1.8H9.545a.9.9,0,1,0,0-1.8Zm10.909,0H17.564a2.7,2.7,0,1,0,0,1.8h2.891a.9.9,0,1,0,0-1.8Z" transform="translate(-1.364 -2.727)" fill="#505050"/>
</svg>
