<svg id="Glyph" xmlns="http://www.w3.org/2000/svg" width="30" height="28" viewBox="0 0 30 28">
  <path id="Path_21222" data-name="Path 21222" d="M23.182,6.927a4.092,4.092,0,1,1,8.182,0,4.092,4.092,0,1,1-8.182,0ZM2.727,8.327H19.091a1.4,1.4,0,0,0,0-2.8H2.727a1.4,1.4,0,0,0,0,2.8Zm8.182,4.2a4.1,4.1,0,0,0-3.845,2.8H2.727a1.4,1.4,0,0,0,0,2.8H7.064a4.074,4.074,0,0,0,4.78,2.692,4.192,4.192,0,0,0,3.141-4.574A4.131,4.131,0,0,0,10.909,12.527ZM30,15.327H19.091a1.4,1.4,0,0,0,0,2.8H30a1.4,1.4,0,0,0,0-2.8Zm-16.364,9.8H2.727a1.4,1.4,0,0,0,0,2.8H13.636a1.4,1.4,0,0,0,0-2.8Zm16.364,0H25.664a4.08,4.08,0,0,0-4.549-2.739,4.22,4.22,0,0,0,0,8.279,4.08,4.08,0,0,0,4.549-2.739H30a1.4,1.4,0,0,0,0-2.8Z" transform="translate(-1.364 -2.727)" fill="#505050"/>
</svg>
