<svg xmlns="http://www.w3.org/2000/svg" width="28" height="24" viewBox="0 0 28 24">
  <g id="Group_36571" data-name="Group 36571" transform="translate(0 -6.348)">
    <path id="Path_24689" data-name="Path 24689" d="M16.9,10.467a5.193,5.193,0,0,1,2.368,3.85,4.023,4.023,0,0,0,1.735.4,4.183,4.183,0,1,0-4.1-4.246Zm-2.69,8.564A4.183,4.183,0,1,0,10.1,14.849,4.145,4.145,0,0,0,14.207,19.031Zm1.742.285H12.464a5.314,5.314,0,0,0-5.258,5.356v4.34l.011.068.294.094a23.534,23.534,0,0,0,7.149,1.174A14.453,14.453,0,0,0,20.9,29.154l.274-.141h.029V24.672A5.312,5.312,0,0,0,15.948,19.316ZM22.742,15H19.285a5.2,5.2,0,0,1-1.562,3.59,6.349,6.349,0,0,1,4.463,6.09v1.338A13.939,13.939,0,0,0,27.7,24.837l.274-.142H28V20.353A5.313,5.313,0,0,0,22.742,15ZM7,14.714a4.025,4.025,0,0,0,2.184-.646,5.2,5.2,0,0,1,1.91-3.3c0-.078.012-.156.012-.235A4.145,4.145,0,0,0,7,6.349a4.183,4.183,0,0,0,0,8.365Zm3.688,3.875a5.2,5.2,0,0,1-1.561-3.57C9,15.009,8.873,15,8.742,15H5.258A5.313,5.313,0,0,0,0,20.353v4.341l.011.067.294.094a24.252,24.252,0,0,0,5.921,1.134V24.678A6.35,6.35,0,0,1,10.689,18.589Z" transform="translate(0 0)" fill="#505050"/>
  </g>
</svg>
