<svg xmlns="http://www.w3.org/2000/svg" width="40" height="34.286" viewBox="0 0 40 34.286">
  <g id="Group_36583" data-name="Group 36583" transform="translate(0 -6.348)">
    <path id="Path_24689" data-name="Path 24689" d="M24.138,12.233a7.419,7.419,0,0,1,3.383,5.5A5.747,5.747,0,0,0,30,18.3a5.976,5.976,0,1,0-5.861-6.065ZM20.3,24.467a5.976,5.976,0,1,0-5.867-5.975A5.922,5.922,0,0,0,20.3,24.467Zm2.488.407H17.806a7.591,7.591,0,0,0-7.511,7.651v6.2l.015.1.419.134a33.621,33.621,0,0,0,10.213,1.677,20.647,20.647,0,0,0,8.918-1.705l.392-.2h.042v-6.2A7.589,7.589,0,0,0,22.783,24.874Zm9.706-6.168H27.55a7.426,7.426,0,0,1-2.231,5.129,9.07,9.07,0,0,1,6.375,8.7v1.911a19.913,19.913,0,0,0,7.873-1.684l.392-.2H40v-6.2A7.59,7.59,0,0,0,32.489,18.706ZM10,18.3a5.75,5.75,0,0,0,3.12-.922A7.422,7.422,0,0,1,15.85,12.66c.006-.112.016-.223.016-.336A5.921,5.921,0,0,0,10,6.35,5.976,5.976,0,0,0,10,18.3Zm5.268,5.536a7.43,7.43,0,0,1-2.23-5.1c-.183-.014-.364-.028-.551-.028H7.511A7.59,7.59,0,0,0,0,26.356v6.2l.015.1.419.135a34.645,34.645,0,0,0,8.459,1.619V32.534A9.072,9.072,0,0,1,15.27,23.835Z" fill="#034ea1"/>
  </g>
</svg>
