<svg xmlns="http://www.w3.org/2000/svg" width="18.45" height="20" viewBox="0 0 18.45 20">
  <g id="Group_35993" data-name="Group 35993" transform="translate(-6.17 -4)">
    <path id="Path_47811" data-name="Path 47811" d="M12.427,48.861a3.277,3.277,0,0,1-4.345,0C7.1,49.443,5.587,51.11,6.4,52.312a1.352,1.352,0,0,0,1.1.566H13.01a1.352,1.352,0,0,0,1.1-.566C14.921,51.111,13.4,49.439,12.427,48.861Z" transform="translate(0 -28.878)" fill="#999"/>
    <path id="Path_47812" data-name="Path 47812" d="M11.692,40.022a1.346,1.346,0,0,0,.263.157c-.022-.011-.041-.027-.063-.039a2.67,2.67,0,0,0,2.5-.03.64.64,0,0,1-.085.051c.03-.015.058-.036.087-.052l.065-.039c.033-.021.068-.037.1-.06a.627.627,0,0,0-.1.057A2.367,2.367,0,0,0,15.583,38a2.472,2.472,0,0,0-4.943,0A2.377,2.377,0,0,0,11.692,40.022Z" transform="translate(-2.857 -20.316)" fill="#999"/>
    <path id="Path_47813" data-name="Path 47813" d="M41.439,48.861a3.275,3.275,0,0,1-4.345,0c-.974.579-2.5,2.25-1.679,3.452a1.352,1.352,0,0,0,1.1.566h5.513a1.352,1.352,0,0,0,1.1-.566C43.932,51.11,42.418,49.443,41.439,48.861Z" transform="translate(-18.73 -28.878)" fill="#999"/>
    <path id="Path_47814" data-name="Path 47814" d="M39.652,38a2.375,2.375,0,0,0,1.041,2.019,1.282,1.282,0,0,0,.231.142c-.022-.012-.042-.027-.063-.04a2.67,2.67,0,0,0,2.5.008c-.029.015-.055.037-.085.05a.71.71,0,0,0,.1-.059c.042-.023.083-.048.123-.073a.66.66,0,0,1,.067-.04c-.016.012-.034.019-.05.03A2.374,2.374,0,0,0,44.6,38a2.472,2.472,0,0,0-4.943,0Z" transform="translate(-21.587 -20.32)" fill="#999"/>
    <path id="Path_47815" data-name="Path 47815" d="M33.214,17.125a.363.363,0,0,0,.256-.616l-.605-.605a4.469,4.469,0,1,0-3.073,1.221Zm-5.48-5.952h2.99a.36.36,0,1,1,0,.721h-2.99a.36.36,0,1,1,0-.721Zm0,1.5H32.22a.36.36,0,1,1,0,.721H27.734a.36.36,0,1,1,0-.721Z" transform="translate(-12.429 -2.668)" fill="#999"/>
    <path id="Path_47816" data-name="Path 47816" d="M14.663,12.346a.362.362,0,0,0,.252.616H18.2a4.151,4.151,0,0,1-.234-.367,5.22,5.22,0,0,1,3.138-7.62,4.474,4.474,0,0,0-5.837,6.766Z" transform="translate(-4.91)" fill="#999"/>
  </g>
</svg>
