<svg xmlns="http://www.w3.org/2000/svg" width="27.999" height="30" viewBox="0 0 27.999 30">
  <path id="Path_24686" data-name="Path 24686" d="M40.979,25.222v1.5A3.179,3.179,0,0,1,39.27,29.55a3.469,3.469,0,0,1-3.416,0l-6.942-3.838A3.179,3.179,0,0,1,27.2,22.879V3.272A3.35,3.35,0,0,1,30.621,0H45.91a3.35,3.35,0,0,1,3.417,3.272V7.4a1.123,1.123,0,0,1-2.244,0V3.272A1.151,1.151,0,0,0,45.91,2.148h-13.4L39.27,5.885a3.179,3.179,0,0,1,1.708,2.833V23.074H45.91a1.15,1.15,0,0,0,1.173-1.123V18.327a1.123,1.123,0,0,1,2.244,0V21.95a3.35,3.35,0,0,1-3.417,3.272ZM51.374,13.685l-1.235,1.183a1.042,1.042,0,0,0,0,1.519,1.158,1.158,0,0,0,1.587,0l3.15-3.017a1.042,1.042,0,0,0,0-1.519l-3.15-3.016a1.158,1.158,0,0,0-1.587,0,1.042,1.042,0,0,0,0,1.519l1.235,1.183H43.1a1.075,1.075,0,1,0,0,2.148h8.276Z" transform="translate(-27.204)" fill="#505050" fill-rule="evenodd"/>
</svg>
