<svg id="marker" xmlns="http://www.w3.org/2000/svg" width="14" height="20" viewBox="0 0 14 20">
  <path id="Path_58" data-name="Path 58" d="M86.284,0h-.032C82.4,0,79.268,2.809,79.268,6.262c0,2.263,1.149,5.25,3.416,8.878a49.126,49.126,0,0,0,3.4,4.77.262.262,0,0,0,.2.091h.007a.26.26,0,0,0,.2-.1c.017-.023,1.708-2.314,3.377-5.117,2.253-3.783,3.395-6.65,3.395-8.521C93.268,2.809,90.135,0,86.284,0Zm3.224,6.415a3.259,3.259,0,0,1-6.479,0,3.259,3.259,0,0,1,6.479,0Z" transform="translate(-79.268)" fill="#999"/>
</svg>
