<svg xmlns="http://www.w3.org/2000/svg" width="28" height="28" viewBox="0 0 28 28">
  <g id="Group_36562" data-name="Group 36562" transform="translate(0 -31.622)">
    <path id="Path_24687" data-name="Path 24687" d="M19.361,31.622H3.166A3.425,3.425,0,0,0,0,35.251V51.518a.82.82,0,0,0,1.3.765l4.51-3.688A2.022,2.022,0,0,1,7.1,48.122h9.92a3.425,3.425,0,0,0,3.166-3.629V32.562A.887.887,0,0,0,19.361,31.622Zm-3.985,11.39H5.9a.949.949,0,0,1,0-1.88h9.478a.949.949,0,0,1,0,1.88Zm0-4.388H5.9a.949.949,0,0,1,0-1.88h9.478a.949.949,0,0,1,0,1.88Z" transform="translate(0 0)" fill="#505050"/>
    <path id="Path_24688" data-name="Path 24688" d="M163.151,151.592v16.266a.82.82,0,0,1-1.3.765l-4.51-3.688a2.022,2.022,0,0,0-1.288-.473h-9.92a3.426,3.426,0,0,1-3.166-3.63V159.05h9.2c2.651,0,4.807-2.472,4.807-5.51v-5.578h3.012A3.426,3.426,0,0,1,163.151,151.592Z" transform="translate(-135.151 -109.177)" fill="#505050"/>
  </g>
</svg>
