<svg xmlns="http://www.w3.org/2000/svg" width="28" height="24" viewBox="0 0 28 24">
  <path id="Path_23530" data-name="Path 23530" d="M0,6A3.775,3.775,0,0,1,3.5,2h21A3.775,3.775,0,0,1,28,6V22a3.775,3.775,0,0,1-3.5,4H3.5A3.775,3.775,0,0,1,0,22ZM4.375,8A.944.944,0,0,0,3.5,9v2a.944.944,0,0,0,.875,1h3.5a.944.944,0,0,0,.875-1V9a.944.944,0,0,0-.875-1Zm0,6a1.009,1.009,0,0,0,0,2h8.75a1.009,1.009,0,0,0,0-2Zm0,4a1.009,1.009,0,0,0,0,2h1.75a1.009,1.009,0,0,0,0-2Zm5.25,0a1.009,1.009,0,0,0,0,2h1.75a1.009,1.009,0,0,0,0-2Zm5.25,0a1.009,1.009,0,0,0,0,2h1.75a1.009,1.009,0,0,0,0-2Zm5.25,0a1.009,1.009,0,0,0,0,2h1.75a1.009,1.009,0,0,0,0-2Z" transform="translate(0 -2)" fill="#505050"/>
</svg>
