<svg xmlns="http://www.w3.org/2000/svg" width="40" height="33.333" viewBox="0 0 40 33.333">
  <path id="Path_23569" data-name="Path 23569" d="M0,7.556A5.3,5.3,0,0,1,5,2H35a5.3,5.3,0,0,1,5,5.556V29.778a5.3,5.3,0,0,1-5,5.556H5a5.3,5.3,0,0,1-5-5.556Zm6.25,2.778A1.325,1.325,0,0,0,5,11.722V14.5a1.325,1.325,0,0,0,1.25,1.389h5A1.325,1.325,0,0,0,12.5,14.5V11.722a1.325,1.325,0,0,0-1.25-1.389Zm0,8.333a1.4,1.4,0,0,0,0,2.778h12.5a1.4,1.4,0,0,0,0-2.778Zm0,5.556A1.4,1.4,0,0,0,6.25,27h2.5a1.4,1.4,0,0,0,0-2.778Zm7.5,0a1.4,1.4,0,0,0,0,2.778h2.5a1.4,1.4,0,0,0,0-2.778Zm7.5,0a1.4,1.4,0,0,0,0,2.778h2.5a1.4,1.4,0,0,0,0-2.778Zm7.5,0a1.4,1.4,0,0,0,0,2.778h2.5a1.4,1.4,0,0,0,0-2.778Z" transform="translate(0 -2)" fill="#034ea1"/>
</svg>
