<svg xmlns="http://www.w3.org/2000/svg" width="28" height="28" viewBox="0 0 28 28">
  <g id="Icon" transform="translate(-1.25 -1.25)">
    <path id="Path_23538" data-name="Path 23538" d="M28.273,21.25H2.227a.977.977,0,1,0,0,1.953H28.273a.977.977,0,1,0,0-1.953Z" transform="translate(0 6.047)" fill="#034ea1" fill-rule="evenodd"/>
    <path id="Path_23539" data-name="Path 23539" d="M7.483,29.25a.977.977,0,0,1-.977-.977V18.506a.977.977,0,0,1,.977-.977h6.512a.977.977,0,0,1,.977.977v9.767a.977.977,0,0,1-.977.977H17.25a.977.977,0,0,0,.977-.977V2.227a.977.977,0,0,0-.977-.977H4.227a.977.977,0,0,0-.977.977V28.273a.977.977,0,0,0,.977.977Zm5.535-9.767V27.3H8.459V19.483ZM9.11,14.6V13.3a.977.977,0,0,0-1.953,0v1.3a.977.977,0,1,0,1.953,0Zm5.209,0V13.3a.977.977,0,0,0-1.953,0v1.3a.977.977,0,1,0,1.953,0Zm0-6.512v-1.3a.977.977,0,0,0-1.953,0v1.3a.977.977,0,0,0,1.953,0Zm-5.209,0v-1.3a.977.977,0,0,0-1.953,0v1.3a.977.977,0,0,0,1.953,0Z" transform="translate(0.605 0)" fill="#034ea1" fill-rule="evenodd"/>
    <path id="Path_23540" data-name="Path 23540" d="M15.8,5.25h5.535a.977.977,0,0,1,.977.977V27.064a.977.977,0,0,1-.977.977H15.582a2.27,2.27,0,0,0,.219-.977ZM17.754,17.3v1.3a.977.977,0,0,0,1.953,0V17.3a.977.977,0,1,0-1.953,0Zm1.953-5.209v-1.3a.977.977,0,0,0-1.953,0v1.3a.977.977,0,1,0,1.953,0Z" transform="translate(4.333 1.209)" fill="#034ea1" fill-rule="evenodd"/>
  </g>
</svg>
