<svg id="Component_551_1" data-name="Component 551 – 1" xmlns="http://www.w3.org/2000/svg" width="48" height="48" viewBox="0 0 48 48">
  <rect id="Rectangle_9673" data-name="Rectangle 9673" width="46" height="46" rx="23" transform="translate(1 1)" fill="#fefefe"/>
  <path id="right_1_" data-name="right (1)" d="M5.643,5.643C9.225,1.955,15.054.161,23.986,0h.028c8.932.161,14.762,1.955,18.343,5.643C46.045,9.225,47.839,15.054,48,23.986v.028c-.161,8.933-1.955,14.762-5.643,18.343C38.776,46.046,32.947,47.839,24.014,48h-.028c-8.932-.161-14.761-1.954-18.343-5.642C1.955,38.776.161,32.947,0,24.014v-.028C.161,15.054,1.955,9.225,5.643,5.643ZM13,24.009a.772.772,0,0,0,.226.555l6.8,6.8a.771.771,0,1,0,1.091-1.09l-5.5-5.5h18.62a.771.771,0,1,0,0-1.542H15.65l5.5-5.5a.771.771,0,1,0-1.09-1.091l-6.726,6.725A.771.771,0,0,0,13,24Z" transform="translate(0)" fill="#034ea1"/>
</svg>
