<svg xmlns="http://www.w3.org/2000/svg" width="24" height="24.001" viewBox="0 0 24 24.001">
  <path id="Subtraction_2" data-name="Subtraction 2" d="M-20725.43-14752h-17.145a3.421,3.421,0,0,1-2.422-1,3.378,3.378,0,0,1-1.008-2.392v-12.486a.215.215,0,0,1,.063-.15.223.223,0,0,1,.156-.062h23.57a.214.214,0,0,1,.152.063.2.2,0,0,1,.059.15v12.486a3.329,3.329,0,0,1-1,2.392A3.475,3.475,0,0,1-20725.43-14752Zm-11.609-3.657a.549.549,0,0,0-.543.554.549.549,0,0,0,.543.555h6.074a.553.553,0,0,0,.551-.555.553.553,0,0,0-.551-.554h-.148v-.625a4.172,4.172,0,0,0-1.711-3.345.55.55,0,0,1-.227-.449.545.545,0,0,1,.227-.45,4.169,4.169,0,0,0,1.711-3.345v-.625h.148a.552.552,0,0,0,.551-.554.552.552,0,0,0-.551-.554h-6.074a.548.548,0,0,0-.543.554.548.548,0,0,0,.543.554h.145v.625a4.175,4.175,0,0,0,1.719,3.345.558.558,0,0,1,.227.454.545.545,0,0,1-.227.445,4.178,4.178,0,0,0-1.719,3.345v.625Zm5.586,0h-5.1v-.625a3.837,3.837,0,0,1,1.578-3.069.89.89,0,0,0,.367-.726.89.89,0,0,0-.371-.724,3.847,3.847,0,0,1-1.574-3.07v-.625h5.1v.625a3.836,3.836,0,0,1-1.574,3.07.9.9,0,0,0-.367.728.883.883,0,0,0,.367.722,3.834,3.834,0,0,1,1.574,3.069v.624Zm-3.887-6.118h0l.043.048.031.035c.043.048.086.1.129.142a1.637,1.637,0,0,0,.645.4.472.472,0,0,1,.32.457v1.233a1.943,1.943,0,0,1-.941,1.649,1.724,1.724,0,0,0-.227.158,1.858,1.858,0,0,0-.754,1.42v.1h4.188v-.1a1.852,1.852,0,0,0-.758-1.42,1.875,1.875,0,0,0-.223-.158,1.945,1.945,0,0,1-.945-1.649v-1.233a.475.475,0,0,1,.328-.457,1.7,1.7,0,0,0,.641-.4c.066-.068.133-.144.191-.217l0-.006Zm13.125-8.068h-23.57a.227.227,0,0,1-.156-.067.235.235,0,0,1-.062-.153v-.662a3.55,3.55,0,0,1,1.008-2.486,3.362,3.362,0,0,1,2.422-1.029h.859v-.879a.875.875,0,0,1,.07-.346.912.912,0,0,1,.2-.292.812.812,0,0,1,.293-.187.85.85,0,0,1,.3-.055h.039a.881.881,0,0,1,.816.9v.854h12v-.879a.81.81,0,0,1,.07-.346.789.789,0,0,1,.191-.292.858.858,0,0,1,.3-.187.834.834,0,0,1,.3-.055h.035a.881.881,0,0,1,.816.9v.854h.859a3.4,3.4,0,0,1,2.426,1.029,3.541,3.541,0,0,1,1,2.486v.662a.215.215,0,0,1-.059.153A.218.218,0,0,1-20722.215-14769.842Z" transform="translate(20746.004 14775.999)" fill="#999"/>
</svg>
