<svg xmlns="http://www.w3.org/2000/svg" width="25.999" height="28" viewBox="0 0 25.999 28">
  <g id="XMLID_2_" transform="translate(-25.274)">
    <g id="Group_34850" data-name="Group 34850" transform="translate(25.274)">
      <g id="Group_34849" data-name="Group 34849" transform="translate(0)">
        <path id="Path_23548" data-name="Path 23548" d="M46.519,281.349a6.426,6.426,0,0,1-5.142,2.533H38.414a2.364,2.364,0,0,1-2.225-1.505,7.671,7.671,0,0,1-1.2-.457,8.046,8.046,0,0,1-2.235-1.6,9.293,9.293,0,0,0-7.483,8.995v.576a1.459,1.459,0,0,0,1.484,1.433H49.789a1.459,1.459,0,0,0,1.484-1.433v-.576A9.154,9.154,0,0,0,46.519,281.349Z" transform="translate(-25.274 -263.327)" fill="#505050"/>
        <path id="Path_23549" data-name="Path 23549" d="M93.326,14.245a1.733,1.733,0,0,0,1.506-.845l.023.06.007.018a6.524,6.524,0,0,0,3.781,3.781,2.435,2.435,0,0,1,2.037-1.07h3.012a1.755,1.755,0,0,0,.825-.211,3.286,3.286,0,0,0,.973-1.067,8.068,8.068,0,0,0,.753-1.512,1.668,1.668,0,0,0,.475.52v.7a2.957,2.957,0,0,1-3.026,2.874H100.68a.98.98,0,1,0,0,1.958h3.012a4.971,4.971,0,0,0,5.088-4.832v-.7a1.6,1.6,0,0,0,.687-1.306V8.529a1.606,1.606,0,0,0-.713-1.323,8.287,8.287,0,0,0-16.433,0,1.606,1.606,0,0,0-.713,1.323v4.084A1.678,1.678,0,0,0,93.326,14.245Zm7.211-12.287a6.078,6.078,0,0,1,6.15,5.288,1.657,1.657,0,0,0-.483.567A5.972,5.972,0,0,0,94.874,7.8l0,.01a1.657,1.657,0,0,0-.483-.567A6.078,6.078,0,0,1,100.538,1.958Z" transform="translate(-87.538)" fill="#505050"/>
      </g>
    </g>
  </g>
</svg>
