<svg xmlns="http://www.w3.org/2000/svg" width="26" height="28" viewBox="0 0 26 28">
  <g id="Layer_5" data-name="Layer 5" transform="translate(-6.25 -3.25)">
    <path id="Path_24690" data-name="Path 24690" d="M33.322,8.427v22.86a1.239,1.239,0,0,1-1.282,1.177H11.532a1.239,1.239,0,0,1-1.282-1.177v-.672H29.11a2.119,2.119,0,0,0,2.2-2.017V7.25h.732a1.239,1.239,0,0,1,1.282,1.177Z" transform="translate(-1.072 -1.213)" fill="#505050"/>
    <path id="Path_24691" data-name="Path 24691" d="M12.75,10.75h4.026v3.831H12.75Z" transform="translate(-1.739 -2.465)" fill="#505050"/>
    <path id="Path_24692" data-name="Path 24692" d="M28.04,3.25H7.532A1.234,1.234,0,0,0,6.25,4.427v22.86a1.234,1.234,0,0,0,1.282,1.177H28.04a1.234,1.234,0,0,0,1.282-1.177V4.427A1.234,1.234,0,0,0,28.04,3.25ZM9.912,7.788a.528.528,0,0,1,.549-.5h5.127a.528.528,0,0,1,.549.5v4.707a.528.528,0,0,1-.549.5H10.462a.528.528,0,0,1-.549-.5Zm.549,7.564h6.592a.506.506,0,1,1,0,1.009H10.462a.506.506,0,1,1,0-1.009ZM25.11,24.429H17.786a.506.506,0,1,1,0-1.009H25.11a.506.506,0,1,1,0,1.009Zm0-2.689H10.462a.506.506,0,1,1,0-1.009H25.11a.506.506,0,1,1,0,1.009Zm0-2.689H10.462a.506.506,0,1,1,0-1.009H25.11a.506.506,0,1,1,0,1.009Zm0-6.724H18.518a.506.506,0,1,1,0-1.009H25.11a.506.506,0,1,1,0,1.009Zm0-3.362H18.518a.506.506,0,1,1,0-1.009H25.11a.506.506,0,1,1,0,1.009Z" transform="translate(0)" fill="#505050"/>
  </g>
</svg>
