<svg xmlns="http://www.w3.org/2000/svg" width="26" height="25.999" viewBox="0 0 26 25.999">
  <g id="edit" transform="translate(0 -0.001)">
    <path id="Path_21131" data-name="Path 21131" d="M20.992,12.839a1.1,1.1,0,0,0-1.1,1.1v8.839a1.106,1.106,0,0,1-1.1,1.1H3.315a1.106,1.106,0,0,1-1.1-1.1V7.315a1.106,1.106,0,0,1,1.1-1.1h8.839a1.1,1.1,0,0,0,0-2.21H3.315A3.319,3.319,0,0,0,0,7.315V22.782A3.319,3.319,0,0,0,3.315,26.1H18.782A3.319,3.319,0,0,0,22.1,22.782V13.944A1.1,1.1,0,0,0,20.992,12.839Z" transform="translate(0 -0.097)" fill="#fff"/>
    <path id="Path_21132" data-name="Path 21132" d="M9.633,13.471a.659.659,0,0,0-.178.332l-.92,4.6a.65.65,0,0,0,.639.778.615.615,0,0,0,.128-.013l4.6-.92a.647.647,0,0,0,.333-.178L24.527,7.776l-4.6-4.6Z" transform="translate(-2.184 0.481)" fill="#fff"/>
    <path id="Path_21133" data-name="Path 21133" d="M24.749.952a3.255,3.255,0,0,0-4.6,0l-1.8,1.8,4.6,4.6,1.8-1.8a3.252,3.252,0,0,0,0-4.6Z" transform="translate(0.299)" fill="#fff"/>
  </g>
</svg>
