<svg xmlns="http://www.w3.org/2000/svg" xmlns:xlink="http://www.w3.org/1999/xlink" width="110" height="105" viewBox="0 0 110 105">
  <defs>
    <clipPath id="clip-path">
      <path id="path1434" d="M0-682.665H110v105H0Z" transform="translate(0 682.665)"/>
    </clipPath>
  </defs>
  <g id="g1428" transform="translate(-7 -8.001)">
    <g id="g1430" transform="translate(7 8.001)">
      <g id="g1432" clip-path="url(#clip-path)">
        <g id="Group_35947" data-name="Group 35947" transform="translate(5.612 5.585)">
          <g id="g1438" transform="translate(3.298)">
            <path id="path1440" d="M-439.1-122.705c-.452,0-.9.016-1.346.043a25.369,25.369,0,0,0-24.974-20.671,25.369,25.369,0,0,0-24.974,20.671c-.445-.027-.894-.043-1.346-.043a21.544,21.544,0,0,0-21.6,21.491,21.544,21.544,0,0,0,21.6,21.491h52.64a21.544,21.544,0,0,0,21.6-21.491,21.544,21.544,0,0,0-21.6-21.491" transform="translate(513.332 143.333)" fill="#d4e8ff"/>
          </g>
          <g id="g1442" transform="translate(47.358)">
            <path id="path1444" d="M-178.49-122.705c-.452,0-.9.016-1.346.043a25.369,25.369,0,0,0-24.974-20.671,25.707,25.707,0,0,0-3.856.291,25.359,25.359,0,0,1,21.118,20.38c.445-.027.894-.043,1.346-.043a21.544,21.544,0,0,1,21.6,21.491,21.544,21.544,0,0,1-21.6,21.491h7.713a21.544,21.544,0,0,0,21.6-21.491,21.544,21.544,0,0,0-21.6-21.491" transform="translate(208.666 143.333)" fill="#b1d6ff"/>
          </g>
          <g id="g1458" transform="translate(3.298 8.174)">
            <path id="path1460" d="M-172.809,0a25.152,25.152,0,0,0-6.274,12.5c-.445-.027-.894-.043-1.346-.043a21.544,21.544,0,0,0-21.6,21.491,21.544,21.544,0,0,0,21.6,21.491h6.074" transform="translate(202.025)" fill="none" stroke="#00adee" stroke-linecap="round" stroke-linejoin="round" stroke-width="2"/>
          </g>
          <g id="g1462" transform="translate(37.995)">
            <path id="path1464" d="M-200.222-378.388h5.688a21.544,21.544,0,0,0,21.6-21.491,21.544,21.544,0,0,0-21.6-21.491c-.452,0-.9.016-1.346.043A25.369,25.369,0,0,0-220.854-442a25.368,25.368,0,0,0-13.219,3.69" transform="translate(234.073 441.999)" fill="none" stroke="#00adee" stroke-linecap="round" stroke-linejoin="round" stroke-width="2"/>
          </g>
          <g id="g1466" transform="translate(77.534 28.304)">
            <path id="path1468" d="M0,0A13.865,13.865,0,0,1,13.883,13.816" fill="none" stroke="#00adee" stroke-linecap="round" stroke-linejoin="round" stroke-width="2"/>
          </g>
          <g id="g1486" transform="translate(13.951 3.838)">
            <path id="path1488" d="M0,0V9.692" fill="none" stroke="#00adee" stroke-linecap="round" stroke-linejoin="round" stroke-width="2"/>
          </g>
          <g id="g1490" transform="translate(9.082 8.684)">
            <path id="path1492" d="M-30.26,0H-40" transform="translate(39.999)" fill="none" stroke="#00adee" stroke-linecap="round" stroke-linejoin="round" stroke-width="2"/>
          </g>
          <g id="g1494" transform="translate(85.343 3.838)">
            <path id="path1496" d="M0,0V8.059" fill="none" stroke="#00adee" stroke-linecap="round" stroke-linejoin="round" stroke-width="2"/>
          </g>
          <g id="g1498" transform="translate(81.294 7.868)">
            <path id="path1500" d="M-31.9,0H-40" transform="translate(39.999)" fill="none" stroke="#00adee" stroke-linecap="round" stroke-linejoin="round" stroke-width="2"/>
          </g>
          <g id="g1502" transform="translate(4.541 69.08)">
            <path id="path1504" d="M0,0V9.039" fill="none" stroke="#00adee" stroke-linecap="round" stroke-linejoin="round" stroke-width="2"/>
          </g>
          <g id="g1506" transform="translate(0 73.599)">
            <path id="path1508" d="M-30.916,0H-40" transform="translate(39.997)" fill="none" stroke="#00adee" stroke-linecap="round" stroke-linejoin="round" stroke-width="2"/>
          </g>
          <g id="g1510" transform="translate(94.589 69.08)">
            <path id="path1512" d="M0,0V9.039" fill="none" stroke="#00adee" stroke-linecap="round" stroke-linejoin="round" stroke-width="2"/>
          </g>
          <g id="g1514" transform="translate(90.047 73.599)">
            <path id="path1516" d="M-30.915,0H-40" transform="translate(39.997)" fill="none" stroke="#00adee" stroke-linecap="round" stroke-linejoin="round" stroke-width="2"/>
          </g>
          <g id="g1518" transform="translate(82.987 85.582)">
            <path id="path1520" d="M0,0V8.144" fill="none" stroke="#00adee" stroke-linecap="round" stroke-linejoin="round" stroke-width="2"/>
          </g>
          <g id="g1522" transform="translate(78.895 89.654)">
            <path id="path1524" d="M-31.815,0H-40" transform="translate(39.997)" fill="none" stroke="#00adee" stroke-linecap="round" stroke-linejoin="round" stroke-width="2"/>
          </g>
          <g id="g1526" transform="translate(16.656 85.582)">
            <path id="path1528" d="M0,0V8.144" fill="none" stroke="#00adee" stroke-linecap="round" stroke-linejoin="round" stroke-width="2"/>
          </g>
          <g id="g1530" transform="translate(12.565 89.654)">
            <path id="path1532" d="M-31.815,0H-40" transform="translate(39.997)" fill="none" stroke="#00adee" stroke-linecap="round" stroke-linejoin="round" stroke-width="2"/>
          </g>
          <g id="Layer_7" transform="translate(28.117 40.119)">
            <path id="Path_47929" data-name="Path 47929" d="M37.02,2H15.938v8.319a5.2,5.2,0,0,1-5.206,5.189H2.43V41.39a6.014,6.014,0,0,0,6.016,6.016H26.708a5.433,5.433,0,0,1-.675-2.585V37.3a5.5,5.5,0,0,1,2.4-4.547l6.159-4.2a5.507,5.507,0,0,1,6.2,0l2.243,1.529V8.016A6.014,6.014,0,0,0,37.02,2Zm-15.9,34.557H12.181a1.459,1.459,0,1,1,0-2.919h8.935a1.459,1.459,0,1,1,0,2.919ZM31.689,26.163H12.17a1.459,1.459,0,1,1,0-2.919h19.52a1.459,1.459,0,0,1,0,2.919Z" transform="translate(0 0)" fill="#00adee"/>
            <path id="Path_47930" data-name="Path 47930" d="M10.733,12.589a2.282,2.282,0,0,0,2.287-2.27V2h-.1a5.806,5.806,0,0,0-4.1,1.7L4.133,8.389a5.806,5.806,0,0,0-1.7,4.1v.1Z" transform="translate(0 0)" fill="#00adee"/>
            <path id="Path_47931" data-name="Path 47931" d="M26.071,20.034l-6.157,4.2a2.583,2.583,0,0,0-1.129,2.136v7.521a2.586,2.586,0,0,0,2.585,2.585H33.685a2.586,2.586,0,0,0,2.585-2.585V26.368a2.587,2.587,0,0,0-1.129-2.136l-6.157-4.2A2.587,2.587,0,0,0,26.071,20.034Z" transform="translate(10.167 10.932)" fill="#00adee"/>
          </g>
        </g>
      </g>
    </g>
  </g>
</svg>
