<svg xmlns="http://www.w3.org/2000/svg" width="50.492" height="60.59" viewBox="0 0 50.492 60.59">
  <g id="New_Text_Document_10_" data-name="New Text Document (10)" transform="translate(-70.821 -30.82)">
    <path id="Path_24208" data-name="Path 24208" d="M92.663,39.513a1.9,1.9,0,1,1-1.928,1.9A1.913,1.913,0,0,1,92.663,39.513Zm-7.03-3.89a10.039,10.039,0,0,1,14.06,0,.991.991,0,0,0,1.386,0,.957.957,0,0,0,0-1.366,12.02,12.02,0,0,0-16.831,0,.956.956,0,0,0,0,1.366A.99.99,0,0,0,85.633,35.623ZM79.247,70.334V67.716a.39.39,0,0,0-.392-.387H72.538a1.7,1.7,0,1,0,0,3.392h6.317a.39.39,0,0,0,.392-.387Zm-2.213,4.014a1.708,1.708,0,0,0,1.717,1.7h4.221a1.7,1.7,0,1,0,0-3.392H78.751A1.708,1.708,0,0,0,77.034,74.349Zm20-35.138a.965.965,0,0,0,.693-1.649,7.244,7.244,0,0,0-10.128,0,.957.957,0,0,0,0,1.366.991.991,0,0,0,1.386,0,5.262,5.262,0,0,1,7.357,0,.984.984,0,0,0,.693.283Zm15.584,35.455a3.788,3.788,0,0,1-3.772-3.19,2.238,2.238,0,0,0-2.251-1.844l-.547.013H96.6a.626.626,0,0,0-.634.619v1.393a2.035,2.035,0,0,0,2.043,2.019h5.477a2.577,2.577,0,0,1,2.594,2.557v8.81a5.345,5.345,0,0,1-5.369,5.3H87.561a.386.386,0,0,0-.122.754,7.186,7.186,0,0,0,1.831.309l13-.007c3,0,3.4-.727,3.831-1.5a3.244,3.244,0,0,1,3.383-1.9h3.135a.39.39,0,0,0,.392-.387V75.052A.39.39,0,0,0,112.619,74.665Zm8.3-2.813h-5.559a.39.39,0,0,0-.392.387V89.912a.39.39,0,0,0,.392.387h5.559a.39.39,0,0,0,.392-.387V72.239A.39.39,0,0,0,120.921,71.852ZM82.972,83.3H78.751a1.693,1.693,0,1,0,0,3.385h4.221a1.693,1.693,0,1,0,0-3.385Zm17.739,5.108H85.639a.386.386,0,0,1-.257-.679,3.593,3.593,0,0,0,.965-4.172.38.38,0,0,1,0-.3.388.388,0,0,1,.218-.212,3.612,3.612,0,0,0,0-6.744.388.388,0,0,1-.218-.212.38.38,0,0,1,0-.3,3.639,3.639,0,0,0-3.377-5.064H81.6a.39.39,0,0,1-.392-.387V52.2a3.39,3.39,0,0,1,3.409-3.365H100.71a3.39,3.39,0,0,1,3.41,3.365V67.319a.39.39,0,0,1-.392.387H96.6a2.581,2.581,0,0,0-2.594,2.557v1.393a3.98,3.98,0,0,0,4,3.951h5.477a.632.632,0,0,1,.634.626v8.81A3.39,3.39,0,0,1,100.71,88.408ZM91.683,59.482a.959.959,0,0,0,.286.685.99.99,0,0,0,1.388,0,.959.959,0,0,0,.286-.685v-7.6a.98.98,0,0,0-1.96,0Zm.98,6.966a7.34,7.34,0,0,0,3.577-13.81.991.991,0,0,0-1.33.384.959.959,0,0,0,.389,1.312,5.495,5.495,0,1,1-5.27,0,.959.959,0,0,0,.388-1.312.991.991,0,0,0-1.33-.384,7.34,7.34,0,0,0,3.577,13.81ZM86.92,79.672a1.708,1.708,0,0,0-1.717-1.7H78.751a1.693,1.693,0,1,0,0,3.385H85.2A1.7,1.7,0,0,0,86.92,79.672Z" transform="translate(0 0)" fill="#fff"/>
  </g>
</svg>
