<svg xmlns="http://www.w3.org/2000/svg" width="53.512" height="60.201" viewBox="0 0 53.512 60.201">
  <g id="New_Text_Document_9_" data-name="New Text Document (9)" transform="translate(-18.509)">
    <path id="Path_24230" data-name="Path 24230" d="M113.489,398.749h7.037V384l-7.037,9.589Z" transform="translate(-84.288 -338.549)" fill="#fff"/>
    <path id="Path_24231" data-name="Path 24231" d="M70.077,67.675l-4.613-2.817a10.153,10.153,0,0,1-9.056,5.777A10.428,10.428,0,0,1,46.225,60H42.606a3.945,3.945,0,0,0-3.724,2.8l-.067.21a4.235,4.235,0,0,0,.846,4.085l6.64,7.477L41.289,85.848l-9.965-1.341L18.509,105.29l3.968,6.217L36.043,92.315l5.106,1.364v19.5h3.394v-8.863H58.119v8.863h3.394V77.8l7.81-2.689a4.086,4.086,0,0,0,2.7-3.894,4.139,4.139,0,0,0-1.943-3.539ZM58.119,100.769H44.543V97.224H58.119Zm0-7.09H52.166L58.12,81.238Z" transform="translate(0 -52.977)" fill="#fff"/>
    <circle id="Ellipse_693" data-name="Ellipse 693" cx="7.023" cy="7.023" r="7.023" transform="translate(49.253)" fill="#fff"/>
  </g>
</svg>
