<svg id="New_Text_Document_11_" data-name="New Text Document (11)" xmlns="http://www.w3.org/2000/svg" width="52" height="60" viewBox="0 0 52 60">
  <path id="Path_24209" data-name="Path 24209" d="M85.926,15.462c-.074-1.578-.074-3.084-.074-4.59A2.185,2.185,0,0,0,83.636,8.72c-9.236,0-16.255-2.582-22.092-8.1a2.265,2.265,0,0,0-3.1,0C52.6,6.138,45.585,8.72,36.35,8.72a2.185,2.185,0,0,0-2.217,2.152c0,1.506,0,3.012-.074,4.59-.3,15.061-.739,35.717,25.195,44.4l.739.143.739-.143C86.591,51.179,86.222,30.595,85.926,15.462ZM58.22,36.333a2.255,2.255,0,0,1-1.552.574h-.074a2.244,2.244,0,0,1-1.552-.717L48.171,28.8,51.5,25.933l5.394,5.809L68.859,20.7l3.029,3.156Z" transform="translate(-33.992 0)" fill="#fff"/>
</svg>
