<svg xmlns="http://www.w3.org/2000/svg" width="56.104" height="59.404" viewBox="0 0 56.104 59.404">
  <g id="New_Text_Document_5_" data-name="New Text Document (5)" transform="translate(-9.536 -8.285)">
    <path id="Path_24211" data-name="Path 24211" d="M16.25,22.36A14.08,14.08,0,1,0,30.323,8.285,14.1,14.1,0,0,0,16.25,22.36Z" transform="translate(2.327)" fill="#fff"/>
    <path id="Path_24212" data-name="Path 24212" d="M52.135,36.094a23.158,23.158,0,0,0-9.8-7.987,16.439,16.439,0,0,1-18.693.011A23.475,23.475,0,0,0,9.536,49.611a1.207,1.207,0,0,0,1.211,1.213H41.405a10,10,0,0,1-.06-1.213A13.89,13.89,0,0,1,52.133,36.1Z" transform="translate(0 6.96)" fill="#fff"/>
    <path id="Path_24213" data-name="Path 24213" d="M45.509,35.324A11.438,11.438,0,1,0,56.953,46.756,11.455,11.455,0,0,0,45.509,35.324ZM50.152,45.1,45.1,50.151a1.252,1.252,0,0,1-.86.352,1.274,1.274,0,0,1-.861-.352l-2.509-2.522a1.209,1.209,0,0,1,1.71-1.71l1.661,1.661,4.206-4.208a1.207,1.207,0,0,1,1.71,0,1.224,1.224,0,0,1,0,1.724Z" transform="translate(8.686 9.489)" fill="#fff"/>
  </g>
</svg>
