<svg xmlns="http://www.w3.org/2000/svg" width="59.224" height="50.764" viewBox="0 0 59.224 50.764">
  <g id="New_Text_Document_6_" data-name="New Text Document (6)" transform="translate(-0.162 -5.4)">
    <path id="Path_24214" data-name="Path 24214" d="M18.091,53.446a8.424,8.424,0,0,0-1.205-.764A7.691,7.691,0,0,0,16.7,50.2a10.5,10.5,0,0,0-2.132-4.012,3.891,3.891,0,0,0-1.205,3.534c-.649-.669-1.3-1.337-1.854-2.006a5.025,5.025,0,0,0,.556-2.388,8.909,8.909,0,0,0-.834-4.3A3.752,3.752,0,0,0,9.1,44.181c-.464-.764-.834-1.624-1.205-2.388a5.7,5.7,0,0,0,1.3-2.2,8.355,8.355,0,0,0,.278-4.3A3.878,3.878,0,0,0,6.5,37.877a14.669,14.669,0,0,1-.556-2.77A4.885,4.885,0,0,0,7.8,33.292a8.634,8.634,0,0,0,1.391-4.107,3.757,3.757,0,0,0-3.616,1.91c0-.955.093-2.006.185-2.961a6.482,6.482,0,0,0,2.411-1.242,8.763,8.763,0,0,0,2.411-3.534,3.761,3.761,0,0,0-4.08.955c.278-.955.556-2.006.927-2.961a5.27,5.27,0,0,0,2.689-.573,8.375,8.375,0,0,0,3.245-2.866,3.661,3.661,0,0,0-4.265-.1,26.328,26.328,0,0,1,1.762-2.675,4.838,4.838,0,0,0,2.874.191,9.371,9.371,0,0,0,4.08-1.91,3.788,3.788,0,0,0-4.265-1.242,22.271,22.271,0,0,1,4.358-3.343A.982.982,0,0,0,18.277,7.5a1.029,1.029,0,0,0-1.391-.382,26.219,26.219,0,0,0-4.729,3.63c.742-1.91.834-3.63,0-4.967a7.722,7.722,0,0,0-3.152,4.68,3.992,3.992,0,0,0,.464,3.152,27.036,27.036,0,0,0-1.947,2.961c.185-2.006-.278-3.725-1.391-4.68a8.381,8.381,0,0,0-1.669,5.54A4.127,4.127,0,0,0,5.76,20.3a23.55,23.55,0,0,0-1.113,3.343c-.371-1.91-1.205-3.439-2.6-4.107a8.758,8.758,0,0,0-.185,5.731,4.317,4.317,0,0,0,2.04,2.388,21.384,21.384,0,0,0-.185,3.439C2.886,29.375,1.681,28.229.2,28.038a8.629,8.629,0,0,0,1.3,5.54A4.043,4.043,0,0,0,4,35.3c.093,1.146.371,2.2.556,3.248a4.768,4.768,0,0,0-4.08-1.91A7.771,7.771,0,0,0,3.164,41.6a3.485,3.485,0,0,0,2.689.955,26.652,26.652,0,0,0,1.3,2.866c-1.576-.669-3.06-1.051-4.358-.478a8.507,8.507,0,0,0,3.894,4.2,4.137,4.137,0,0,0,2.781.287,24.83,24.83,0,0,0,2.04,2.388,4.361,4.361,0,0,0-3.987.573,9.1,9.1,0,0,0,5.1,3.057,4.156,4.156,0,0,0,2.689-.382c.371.287.834.573,1.205.86a1.4,1.4,0,0,0,2.04-.573A1.415,1.415,0,0,0,18.091,53.446Zm36.9-14.9a19.835,19.835,0,0,0,.556-3.248,4.3,4.3,0,0,0,2.5-1.719,8.629,8.629,0,0,0,1.3-5.54c-1.483.191-2.689,1.433-3.523,3.057,0-1.146-.093-2.292-.185-3.439a4.344,4.344,0,0,0,2.04-2.388,8.2,8.2,0,0,0-.185-5.731c-1.391.669-2.225,2.2-2.6,4.107A20.116,20.116,0,0,0,53.787,20.3a4.127,4.127,0,0,0,1.3-2.866,8.381,8.381,0,0,0-1.669-5.54c-1.205.955-1.576,2.77-1.391,4.68-.742-1.051-1.391-2.006-2.132-2.961a3.925,3.925,0,0,0,.464-3.152A9.133,9.133,0,0,0,47.019,5.4c-.834,1.242-.742,3.057,0,4.967a26.219,26.219,0,0,0-4.729-3.63,1.029,1.029,0,0,0-1.391.382.982.982,0,0,0,.371,1.337A25.423,25.423,0,0,1,45.628,11.8a3.788,3.788,0,0,0-4.265,1.242,9.371,9.371,0,0,0,4.08,1.91,4.838,4.838,0,0,0,2.874-.191,22.093,22.093,0,0,1,1.762,2.675,3.661,3.661,0,0,0-4.265.1A9.23,9.23,0,0,0,49.059,20.4a4.742,4.742,0,0,0,2.689.573,27.44,27.44,0,0,1,.927,2.961,3.761,3.761,0,0,0-4.08-.955,8.763,8.763,0,0,0,2.411,3.534,5.328,5.328,0,0,0,2.411,1.242c.093.955.185,2.006.185,2.961a3.757,3.757,0,0,0-3.616-1.91,9.764,9.764,0,0,0,1.391,4.107,4.885,4.885,0,0,0,1.854,1.815c-.185.955-.371,1.815-.556,2.77a3.6,3.6,0,0,0-2.967-2.579,9.393,9.393,0,0,0,.278,4.3,4.753,4.753,0,0,0,1.3,2.2A18.979,18.979,0,0,1,50.079,43.8a3.752,3.752,0,0,0-2.132-3.152,8.908,8.908,0,0,0-.834,4.3,5.025,5.025,0,0,0,.556,2.388c-.556.669-1.205,1.337-1.854,2.006A3.673,3.673,0,0,0,44.608,45.8a10.5,10.5,0,0,0-2.132,4.012A7.691,7.691,0,0,0,42.29,52.3a5.233,5.233,0,0,1-1.205.764,1.542,1.542,0,0,0-.556,1.91,1.4,1.4,0,0,0,2.04.573,13.558,13.558,0,0,0,1.205-.86,4.156,4.156,0,0,0,2.689.382,9.1,9.1,0,0,0,5.1-3.057,4.361,4.361,0,0,0-3.987-.573,24.83,24.83,0,0,0,2.04-2.388,4.813,4.813,0,0,0,2.781-.287,8.12,8.12,0,0,0,3.894-4.2,4.5,4.5,0,0,0-4.172.669c.464-.955.927-1.91,1.3-2.866a4.224,4.224,0,0,0,2.689-.955,8.5,8.5,0,0,0,2.689-4.967,5.933,5.933,0,0,0-3.8,2.1Z" transform="translate(0 0)" fill="#fff"/>
    <path id="Path_24215" data-name="Path 24215" d="M41.17,47.508,39.278,36.014l7.929-8.17a1,1,0,0,0,.27-.95.89.89,0,0,0-.721-.665L35.763,24.52,30.9,14.07a1.035,1.035,0,0,0-.811-.57.866.866,0,0,0-.811.57L24.41,24.52l-10.993,1.71a.939.939,0,0,0-.451,1.615l7.929,8.17L19,47.508a.952.952,0,0,0,1.352,1.045l9.731-5.51,9.822,5.415c.09.1.27.1.451.1a1.236,1.236,0,0,0,.541-.19A.9.9,0,0,0,41.17,47.508Z" transform="translate(-0.41 -0.266)" fill="#fff"/>
  </g>
</svg>
