<svg xmlns="http://www.w3.org/2000/svg" width="49" height="57" viewBox="0 0 49 57">
  <g id="Group_35735" data-name="Group 35735" transform="translate(-1383 15930)">
    <path id="daniil-silantev-sN4u56baSB0-unsplash" d="M42.75,0,57,24.5,42.75,49H14.25L0,24.5,14.25,0Z" transform="translate(1432 -15930) rotate(90)" fill="#793f90"/>
    <path id="search_2_" data-name="search (2)" d="M17.184,23.412l-2.521-2.459A8.067,8.067,0,1,0,13.3,22.459l2.473,2.413-.084.087a.735.735,0,0,0,.016,1.036l4.427,4.3a.735.735,0,0,0,1.036-.016l1.6-1.647a.735.735,0,0,0-.016-1.036l-4.427-4.3a.735.735,0,0,0-1.036.016ZM4.5,16.182a.677.677,0,1,1-.795-1.1l3.954-2.873a.677.677,0,0,1,.806.009l3.942,2.864a.677.677,0,1,1-.795,1.1l-.41-.3v3.725a.971.971,0,0,1-.968.968H9V17.35a.457.457,0,0,0-.455-.455H7.575a.457.457,0,0,0-.455.455v3.227H5.88a.971.971,0,0,1-.968-.968V15.884Zm3.557-6.22A6.368,6.368,0,1,1,1.69,16.33,6.368,6.368,0,0,1,8.058,9.962Z" transform="translate(1396.521 -15919.497)" fill="#fff" stroke="#793f90" strokeWidth="0.2" fill-rule="evenodd"/>
  </g>
</svg>
