<svg xmlns="http://www.w3.org/2000/svg" width="49" height="58" viewBox="0 0 49 58">
  <g id="Group_35734" data-name="Group 35734" transform="translate(-1383 15734)">
    <path id="daniil-silantev-sN4u56baSB0-unsplash" d="M43.5,0,58,24.5,43.5,49h-29L0,24.5,14.5,0Z" transform="translate(1432 -15734) rotate(90)" fill="#f67e3b"/>
    <g id="communication" transform="translate(1394.127 -15716.007)">
      <path id="Path_23029" data-name="Path 23029" d="M16.091,0H3.256A3.256,3.256,0,0,0,0,3.256V12.17H2.585l3.031,2.164V12.165H12.8A3.256,3.256,0,0,0,16.053,8.91Z" transform="translate(0.479 0.479)" fill="none" stroke="#fff" strokeWidth="0.7"/>
      <path id="Path_23031" data-name="Path 23031" d="M6.095,15.292a.479.479,0,0,1-.278-.086L2.9,13.123H.479A.479.479,0,0,1,0,12.644V3.734A3.739,3.739,0,0,1,3.734,0H16.57a.479.479,0,0,1,.479.479V5.63a.479.479,0,1,1-.958,0V.958H3.734A2.777,2.777,0,0,0,.958,3.734V12.17H3.064a.479.479,0,0,1,.278.086L5.64,13.9V12.644a.479.479,0,0,1,.479-.479H13.3a2.777,2.777,0,0,0,2.777-2.777V8.646a.479.479,0,1,1,.958,0v.747A3.739,3.739,0,0,1,13.3,13.128H6.6v1.695a.467.467,0,0,1-.5.469Z" transform="translate(0 0)" fill="#fff" stroke="#fff" strokeWidth="0.7"/>
      <path id="Path_23032" data-name="Path 23032" d="M9.4,15.478a.49.49,0,0,1-.479-.5v-1.77H.479a.49.49,0,0,1-.479-.5V7.742a.49.49,0,0,1,.479-.5.49.49,0,0,1,.479.5v4.471H9.379a.49.49,0,0,1,.479.5v1.31l2.3-1.71a.465.465,0,0,1,.278-.1h.886a2.841,2.841,0,0,0,2.777-2.9V1H3.744A2.846,2.846,0,0,0,.967,3.9v.645a.49.49,0,0,1-.479.5.49.49,0,0,1-.479-.5V3.9A3.825,3.825,0,0,1,3.744,0H16.57a.49.49,0,0,1,.479.5V9.312a3.825,3.825,0,0,1-3.734,3.9H12.6L9.676,15.388a.465.465,0,0,1-.278.09Z" transform="translate(8.354 6.535)" fill="#fff" stroke="#fff" strokeWidth="0.7"/>
      <path id="Path_23033" data-name="Path 23033" d="M.958,1.915A.958.958,0,1,1,1.915.958.958.958,0,0,1,.958,1.915Z" transform="translate(2.99 4.662)" fill="#fff" stroke="#fff" strokeWidth="0.7"/>
      <path id="Path_23034" data-name="Path 23034" d="M.958,1.915A.958.958,0,1,1,1.915.958.958.958,0,0,1,.958,1.915Z" transform="translate(6.988 4.662)" fill="#fff" stroke="#fff" strokeWidth="0.7"/>
      <path id="Path_23035" data-name="Path 23035" d="M.958,1.915A.958.958,0,1,1,1.915.958.958.958,0,0,1,.958,1.915Z" transform="translate(10.994 4.662)" fill="#fff" stroke="#fff" strokeWidth="0.7"/>
      <g id="Group_34762" data-name="Group 34762" transform="translate(11.907 14.575)">
        <path id="Path_23036" data-name="Path 23036" d="M.958,2A.98.98,0,0,1,0,1,.98.98,0,0,1,.958,0a.98.98,0,0,1,.958,1A.98.98,0,0,1,.958,2Z" fill="#fff" stroke="#fff" strokeWidth="0.7"/>
        <path id="Path_23037" data-name="Path 23037" d="M.958,2A.98.98,0,0,1,0,1,.98.98,0,0,1,.958,0a.98.98,0,0,1,.958,1A.98.98,0,0,1,.958,2Z" transform="translate(4.022)" fill="#fff" stroke="#fff" strokeWidth="0.7"/>
        <path id="Path_23038" data-name="Path 23038" d="M.958,2A.98.98,0,0,1,0,1,.98.98,0,0,1,.958,0a.98.98,0,0,1,.958,1A.98.98,0,0,1,.958,2Z" transform="translate(8.029)" fill="#fff" stroke="#fff" strokeWidth="0.7"/>
      </g>
    </g>
  </g>
</svg>
