<svg xmlns="http://www.w3.org/2000/svg" width="49" height="58" viewBox="0 0 49 58">
  <g id="Group_35736" data-name="Group 35736" transform="translate(-1383 15603)">
    <path id="daniil-silantev-sN4u56baSB0-unsplash" d="M43.5,0,58,24.5,43.5,49h-29L0,24.5,14.5,0Z" transform="translate(1432 -15603) rotate(90)" fill="#dc286e"/>
    <g id="Business-Management-Operation-Smartphone-Hand" transform="translate(1396.453 -15585.385)">
      <path id="Path_22972" data-name="Path 22972" d="M0,0H.754V.754H0Z" transform="translate(7.04 1.509)" fill="#fff" stroke="#fff" strokeWidth="0.2"/>
      <path id="Path_22973" data-name="Path 22973" d="M0,0H3.018V.754H0Z" transform="translate(8.543 1.509)" fill="#fff" stroke="#fff" strokeWidth="0.2"/>
      <path id="Path_22974" data-name="Path 22974" d="M2.641,0H1.132a1.132,1.132,0,0,0,0,2.263H2.641A1.132,1.132,0,0,0,2.641,0Zm0,1.509H1.132a.377.377,0,1,1,0-.754H2.641a.377.377,0,1,1,0,.754Z" transform="translate(8.166 15.05)" fill="#fff" stroke="#fff" strokeWidth="0.2"/>
      <path id="Path_22975" data-name="Path 22975" d="M1.021,5.659h.754V1.288l.488.488L2.8,1.242,1.665.11a.377.377,0,0,0-.533,0L0,1.242l.533.533.488-.488Z" transform="translate(0 4.137)" fill="#fff" stroke="#fff" strokeWidth="0.2"/>
      <path id="Path_22976" data-name="Path 22976" d="M1.021,1.288V5.658h.754V1.288l.488.488L2.8,1.242,1.665.11a.377.377,0,0,0-.533,0L0,1.242l.533.533Z" transform="translate(17.301 4.137)" fill="#fff" stroke="#fff" strokeWidth="0.2"/>
      <path id="Path_22977" data-name="Path 22977" d="M19.568,16.56a1.483,1.483,0,0,0-.967.354,1.51,1.51,0,0,0-1.291-.73,1.483,1.483,0,0,0-.967.354,1.5,1.5,0,0,0-.914-.681V2.634A2.637,2.637,0,0,0,12.795,0H5.268A2.637,2.637,0,0,0,2.634,2.634V9.522a1.139,1.139,0,0,0-.546.542L.38,13.771A4.172,4.172,0,0,0,0,15.5v7.079H.753V15.5a3.4,3.4,0,0,1,.312-1.415l1.569-3.406v5.5a2.605,2.605,0,0,0,.162.9l-.373.644.651.376,2.258-3.91a.753.753,0,0,1,.455-.354.775.775,0,0,1,.572.075.756.756,0,0,1,.275,1.031L4.941,17.877a.388.388,0,0,0,0,.384L5.75,19.6a1.877,1.877,0,0,1,.271.967v2.01h.753v-2.01A2.644,2.644,0,0,0,6.4,19.213l-.237-.4H8.482a1.518,1.518,0,0,0,.151,1.144l1.622,2.808.651-.376L9.284,19.586a.753.753,0,0,1,.847-1.106.731.731,0,0,1,.455.354l.753,1.3a.385.385,0,0,0,.425.177.376.376,0,0,0,.278-.365V12.8a.753.753,0,1,1,1.505,0v6.022a.376.376,0,1,0,.753,0V17.312a.753.753,0,1,1,1.505,0v1.505a.376.376,0,1,0,.753,0V17.689a.753.753,0,1,1,1.505,0v1.129a.376.376,0,1,0,.753,0v-.753a.753.753,0,1,1,1.505,0v4.516h.753V18.065a1.505,1.505,0,0,0-1.505-1.505Zm-4.892-.7a1.5,1.5,0,0,0-.376.154V12.8a1.505,1.505,0,1,0-3.011,0v5.269h-.38a1.537,1.537,0,0,0-.583-.312,1.519,1.519,0,0,0-1.144.151,1.6,1.6,0,0,0-.222.162H5.709l0,0,1.584-2.74a1.506,1.506,0,1,0-2.608-1.505L3.387,16.055V2.634A1.882,1.882,0,0,1,5.268.753h7.526a1.882,1.882,0,0,1,1.882,1.882Z" transform="translate(1.021)" fill="#fff" stroke="#fff" strokeWidth="0.2"/>
      <path id="Path_22978" data-name="Path 22978" d="M1.132,1.132h.754a.377.377,0,0,1,.377.377h.754A1.132,1.132,0,0,0,1.886.377V0H1.132V.377a1.132,1.132,0,1,0,0,2.263h.754a.377.377,0,0,1,0,.754H1.132a.377.377,0,0,1-.377-.377H0A1.132,1.132,0,0,0,1.132,4.15v.377h.754V4.15a1.132,1.132,0,0,0,0-2.263H1.132a.377.377,0,1,1,0-.754Z" transform="translate(8.543 6.018)" fill="#fff" stroke="#fff" strokeWidth="0.2"/>
      <path id="Path_22979" data-name="Path 22979" d="M3.772,0A3.772,3.772,0,1,0,7.545,3.772,3.772,3.772,0,0,0,3.772,0Zm0,6.79A3.018,3.018,0,1,1,6.79,3.772,3.018,3.018,0,0,1,3.772,6.79Z" transform="translate(6.28 4.511)" fill="#fff" stroke="#fff" strokeWidth="0.2"/>
      <path id="Path_22980" data-name="Path 22980" d="M0,0H.754V.754H0Z" transform="translate(18.322 10.537)" fill="#fff" stroke="#fff" strokeWidth="0.2"/>
      <path id="Path_22981" data-name="Path 22981" d="M0,0H.754V.754H0Z" transform="translate(18.322 12.042)" fill="#fff" stroke="#fff" strokeWidth="0.2"/>
      <path id="Path_22982" data-name="Path 22982" d="M0,0H.754V.754H0Z" transform="translate(1.021 10.537)" fill="#fff" stroke="#fff" strokeWidth="0.2"/>
    </g>
  </g>
</svg>
