<svg xmlns="http://www.w3.org/2000/svg" width="49" height="57" viewBox="0 0 49 57">
  <g id="Group_35563" data-name="Group 35563" transform="translate(-1383 15996)">
    <path id="daniil-silantev-sN4u56baSB0-unsplash" d="M42.75,0,57,24.5,42.75,49H14.25L0,24.5,14.25,0Z" transform="translate(1432 -15996) rotate(90)" fill="#798b42"/>
    <g id="download" transform="translate(1396.516 -15977.961)">
      <path id="Path_23017" data-name="Path 23017" d="M6.041,0A.938.938,0,0,0,5.035.849v9.832L1.719,7.886a1.144,1.144,0,0,0-1.424,0,.758.758,0,0,0,0,1.2L5.33,13.33a1.144,1.144,0,0,0,1.424,0l5.035-4.243a.758.758,0,0,0,0-1.2,1.144,1.144,0,0,0-1.424,0L7.048,10.681V.849A.938.938,0,0,0,6.041,0Z" transform="translate(5.194)" fill="#fff"/>
      <path id="Path_23018" data-name="Path 23018" d="M4.576.936A.862.862,0,0,0,3.431.061C.739,1.176,0,3.495,0,8c0,7.292,1.939,8.856,10.983,8.856S21.967,15.289,21.967,8c0-4.5-.739-6.82-3.431-7.935A.862.862,0,0,0,17.39.936a1.1,1.1,0,0,0,.654.977,3.381,3.381,0,0,1,.7.427c.858.692,1.39,2.013,1.39,5.656s-.532,4.964-1.39,5.656a5.538,5.538,0,0,1-2.541.963,30.863,30.863,0,0,1-5.221.331,30.863,30.863,0,0,1-5.221-.331,5.538,5.538,0,0,1-2.541-.963C2.362,12.96,1.831,11.639,1.831,8s.532-4.964,1.39-5.656a3.376,3.376,0,0,1,.7-.427A1.1,1.1,0,0,0,4.576.936Z" transform="translate(0 4.069)" fill="#fff"/>
    </g>
  </g>
</svg>
