<svg xmlns="http://www.w3.org/2000/svg" width="49" height="57" viewBox="0 0 49 57">
  <g id="Group_35564" data-name="Group 35564" transform="translate(-1383 15930)">
    <path id="daniil-silantev-sN4u56baSB0-unsplash" d="M42.75,0,57,24.5,42.75,49H14.25L0,24.5,14.25,0Z" transform="translate(1432 -15930) rotate(90)" fill="#793f90"/>
    <g id="Outline" transform="translate(1397.031 -15912.469)">
      <g id="Group_34756" data-name="Group 34756" transform="translate(0 0)">
        <path id="Path_23003" data-name="Path 23003" d="M10.969,0,0,7.251V8.9L10.969,1.649,21.938,8.9V7.251Z" transform="translate(0)" fill="#fff"/>
      </g>
      <g id="Group_34758" data-name="Group 34758" transform="translate(1.697 3.046)">
        <g id="Group_34757" data-name="Group 34757">
          <path id="Path_23004" data-name="Path 23004" d="M9.272,1.689l7.762,5.073v10.76H1.51V6.763ZM9.272,0,0,6.06V18.892H18.543V6.06Z" fill="#fff"/>
        </g>
      </g>
      <g id="Group_34759" data-name="Group 34759" transform="translate(6.883 10.451)">
        <path id="Path_23005" data-name="Path 23005" d="M0,0H1.984V.6H.738v.741H1.9v.6H.738v1.3H0V0Z" transform="translate(0 0.054)" fill="#fff"/>
        <path id="Path_23006" data-name="Path 23006" d="M3.12,1.642A1.547,1.547,0,0,1,1.527,3.351,1.514,1.514,0,0,1,0,1.7,1.571,1.571,0,0,1,1.579,0,1.513,1.513,0,0,1,3.12,1.642ZM.775,1.686c0,.636.3,1.083.789,1.083s.78-.472.78-1.1c0-.583-.279-1.083-.785-1.083S.775,1.055.775,1.686Z" transform="translate(2.387)" fill="#fff"/>
        <path id="Path_23007" data-name="Path 23007" d="M0,.068A6.353,6.353,0,0,1,.978,0a1.659,1.659,0,0,1,1.05.255.826.826,0,0,1,.3.679.86.86,0,0,1-.573.8v.014a.818.818,0,0,1,.433.606c.1.366.2.79.265.915H1.7a4.073,4.073,0,0,1-.226-.756c-.087-.4-.226-.515-.525-.52H.727V3.268H0Zm.727,1.4h.289c.366,0,.582-.184.582-.467C1.6.7,1.4.55,1.06.545A1.831,1.831,0,0,0,.728.569v.9Z" transform="translate(5.986 0.029)" fill="#fff"/>
      </g>
      <g id="Group_34760" data-name="Group 34760" transform="translate(5.618 14.659)">
        <path id="Path_23008" data-name="Path 23008" d="M0,.068A6.353,6.353,0,0,1,.978,0a1.659,1.659,0,0,1,1.05.255.826.826,0,0,1,.3.679.86.86,0,0,1-.573.8v.014a.818.818,0,0,1,.433.606c.1.366.2.79.265.915H1.7a4.073,4.073,0,0,1-.226-.756c-.087-.4-.226-.515-.525-.52H.727V3.268H0Zm.727,1.4h.289c.366,0,.582-.184.582-.467,0-.3-.2-.448-.539-.452A1.831,1.831,0,0,0,.727.569v.9Z" fill="#fff"/>
        <path id="Path_23009" data-name="Path 23009" d="M1.931,1.873H.738v.771H2.071v.6H0V0H2V.6H.737v.674H1.93v.6Z" transform="translate(2.854 0.024)" fill="#fff"/>
        <path id="Path_23010" data-name="Path 23010" d="M0,3.246V0H.857L1.531,1.19A9.408,9.408,0,0,1,2.061,2.3h.014A12.215,12.215,0,0,1,2.013.949V0h.674V3.246h-.77L1.223,1.994A11.979,11.979,0,0,1,.66.848L.646.853c.019.428.029.885.029,1.415v.978Z" transform="translate(5.423 0.023)" fill="#fff"/>
        <path id="Path_23011" data-name="Path 23011" d="M.872.616H0V0H2.494V.616H1.608V3.245H.872Z" transform="translate(8.498 0.025)" fill="#fff"/>
      </g>
    </g>
  </g>
</svg>
