<svg xmlns="http://www.w3.org/2000/svg" width="49" height="58" viewBox="0 0 49 58">
  <g id="Group_35565" data-name="Group 35565" transform="translate(-1383 15865)">
    <path id="daniil-silantev-sN4u56baSB0-unsplash" d="M43.5,0,58,24.5,43.5,49h-29L0,24.5,14.5,0Z" transform="translate(1432 -15865) rotate(90)" fill="#dc286e"/>
    <g id="_6aced409b13ae1acb647df2d9ecbd8a5" data-name="6aced409b13ae1acb647df2d9ecbd8a5" transform="translate(1395.526 -15845.707)">
      <path id="Path_22955" data-name="Path 22955" d="M10.355,12.95a.407.407,0,1,1-.768.182V13.09A3.254,3.254,0,0,0,6.33,10.26a3.233,3.233,0,0,0-3.255,2.83v.042a.406.406,0,1,1-.812,0,.4.4,0,0,1,.044-.182A4.1,4.1,0,0,1,4.738,9.766a2.847,2.847,0,1,1,3.192,0,4.1,4.1,0,0,1,2.424,3.181ZM8.364,7.388A2.035,2.035,0,1,0,6.33,9.441,2.043,2.043,0,0,0,8.364,7.388Zm12.368,3.137v-8.4A1.209,1.209,0,0,0,19.519.923H2.141A1.208,1.208,0,0,0,.93,2.129V15.907a1.208,1.208,0,0,0,1.211,1.206h11.2a4.986,4.986,0,0,0,.616.923H1.818A1.813,1.813,0,0,1,0,16.228V1.808A1.813,1.813,0,0,1,1.818,0H19.861a1.814,1.814,0,0,1,1.82,1.808v9.5a5.219,5.219,0,0,0-.948-.78Zm-8.911,1.029v-.923h2.307v.923Zm0-6.466H17.5v.923H11.822V5.089Zm5.677,3.7H11.824V7.861H17.5v.923Zm1.219,7.6,1.219,1.2c.12.12.374-.153.494-.273l.053-.055a.306.306,0,0,0,0-.434l-1.022-1.029a1.632,1.632,0,0,0-.217-2.021,1.6,1.6,0,0,0-2.274,0,1.627,1.627,0,0,0-.155,2.134,1.505,1.505,0,0,0,1.9.477Zm-.181-5.1a4.063,4.063,0,1,1-4.069,4.062A4.07,4.07,0,0,1,18.536,11.287Z" transform="translate(0 0)" fill="#fff" stroke="#fff" strokeWidth="0.5"/>
    </g>
  </g>
</svg>
