<svg xmlns="http://www.w3.org/2000/svg" width="49" height="57" viewBox="0 0 49 57">
  <g id="Group_35742" data-name="Group 35742" transform="translate(-1383 15472)">
    <path id="daniil-silantev-sN4u56baSB0-unsplash" d="M42.75,0,57,24.5,42.75,49H14.25L0,24.5,14.25,0Z" transform="translate(1432 -15472) rotate(90)" fill="#234e70"/>
    <g id="pay-day_2_" data-name="pay-day (2)" transform="translate(1396.751 -15454.518)">
      <path id="Path_23575" data-name="Path 23575" d="M86.631,353.469H72.971a.674.674,0,0,0,0,1.348h13.66a.674.674,0,0,0,0-1.348Zm0,0" transform="translate(-69.052 -338.297)" fill="#fff"/>
      <path id="Path_23576" data-name="Path 23576" d="M129.836,417.734h-8.662a.674.674,0,0,0,0,1.348h8.662a.674.674,0,0,0,0-1.348Zm0,0" transform="translate(-115.114 -399.933)" fill="#fff"/>
      <path id="Path_23577" data-name="Path 23577" d="M18.667,1.383H17.9V.646a.673.673,0,0,0-1.344,0v.737H13.581V.646a.673.673,0,0,0-1.344,0v.737H9.262V.646a.673.673,0,0,0-1.344,0v.737H4.943V.646A.673.673,0,0,0,3.6.646v.737H2.831A2.781,2.781,0,0,0,0,4.1V19.316a2.781,2.781,0,0,0,2.831,2.72H18.667a2.781,2.781,0,0,0,2.831-2.72V4.1a2.781,2.781,0,0,0-2.832-2.72Zm1.488,17.933a1.461,1.461,0,0,1-1.487,1.429H2.831a1.461,1.461,0,0,1-1.487-1.429V4.1A1.461,1.461,0,0,1,2.831,2.674H3.6v.737a.673.673,0,0,0,1.344,0V2.674H7.918v.737a.673.673,0,0,0,1.344,0V2.674h2.975v.737a.673.673,0,0,0,1.344,0V2.674h2.975v.737a.673.673,0,0,0,1.344,0V2.674h.768A1.461,1.461,0,0,1,20.155,4.1Zm0,0" fill="#fff"/>
      <path id="Path_23578" data-name="Path 23578" d="M178.672,117.786h1.8a.589.589,0,0,1,0,1.179h-2.346a.674.674,0,1,0,0,1.348h.77v.77a.674.674,0,1,0,1.348,0v-.77h.228a1.937,1.937,0,1,0,0-3.874h-1.8a.589.589,0,1,1,0-1.178h2.346a.674.674,0,1,0,0-1.348h-.77v-.77a.674.674,0,0,0-1.348,0v.77h-.228a1.937,1.937,0,1,0,0,3.874Zm0,0" transform="translate(-168.825 -107.772)" fill="#fff"/>
    </g>
  </g>
</svg>
