<svg xmlns="http://www.w3.org/2000/svg" width="49" height="57" viewBox="0 0 49 57">
  <g id="Group_35738" data-name="Group 35738" transform="translate(-1383 15450)">
    <path id="daniil-silantev-sN4u56baSB0-unsplash" d="M42.75,0,57,24.5,42.75,49H14.25L0,24.5,14.25,0Z" transform="translate(1432 -15450) rotate(90)" fill="#f67e3b"/>
    <g id="hand-over" transform="translate(1397.922 -15433.229)">
      <path id="Path_23012" data-name="Path 23012" d="M1.162,7.646.447,6.93a1.525,1.525,0,0,1,0-2.157L4.773.447a1.525,1.525,0,0,1,2.157,0l5.407,5.407a1.525,1.525,0,0,1,0,2.157L8.011,12.337a1.525,1.525,0,0,1-2.157,0L2.3,8.782" transform="translate(3.955)" fill="none" stroke="#fff" stroke-linecap="round" stroke-linejoin="round" strokeWidth="1"/>
      <rect id="Rectangle_10394" data-name="Rectangle 10394" width="7.622" height="6.093" transform="translate(10.888 11.241) rotate(-135)" fill="none" stroke="#fff" stroke-linecap="round" stroke-linejoin="round" strokeWidth="1"/>
      <path id="Path_23013" data-name="Path 23013" d="M6.088,3.926,2.161,0,0,2.161,2.161,4.322H3.584a.738.738,0,0,1,.738.738V6.483L5.4,7.564H6.827a.738.738,0,0,1,.738.738V9.725l1.428,1.428,1.639.216a.738.738,0,0,0,.738-.738l-.216-1.639-3.93-3.93" transform="translate(13.051 9.097)" fill="none" stroke="#fff" stroke-linecap="round" stroke-linejoin="round" strokeWidth="1"/>
      <ellipse id="Ellipse_632" data-name="Ellipse 632" cx="1.548" cy="1.548" rx="1.548" ry="1.548" transform="translate(7.719 3.764)" fill="none" stroke="#fff" stroke-linecap="round" stroke-linejoin="round" strokeWidth="1"/>
      <path id="Path_23014" data-name="Path 23014" d="M9.347,5.015a4.679,4.679,0,1,0-1.72,3.3" transform="translate(0 1.842)" fill="none" stroke="#fff" stroke-linecap="round" stroke-linejoin="round" strokeWidth="1"/>
      <line id="Line_388" data-name="Line 388" x2="0.967" transform="translate(7.623 21.459)" fill="none" stroke="#fff" stroke-linecap="round" stroke-linejoin="round" strokeWidth="1"/>
      <path id="Path_23015" data-name="Path 23015" d="M0,0V4.6H6.141V.017" transform="translate(1.481 16.862)" fill="none" stroke="#fff" stroke-linecap="round" stroke-linejoin="round" strokeWidth="1"/>
      <rect id="Rectangle_10395" data-name="Rectangle 10395" width="2.042" height="3.063" transform="translate(3.519 18.396)" fill="none" stroke="#fff" stroke-linecap="round" stroke-linejoin="round" strokeWidth="1"/>
      <line id="Line_389" data-name="Line 389" x1="1.015" transform="translate(0.466 21.459)" fill="none" stroke="#fff" stroke-linecap="round" stroke-linejoin="round" strokeWidth="1"/>
      <g id="Group_34761" data-name="Group 34761" transform="translate(0 12.629)">
        <path id="Path_23016" data-name="Path 23016" d="M.994,4.615,4.54,1.828,8.086,4.615,9.08,3.349,5.037.172a.8.8,0,0,0-.994,0L0,3.349Z" transform="translate(0)" fill="none" stroke="#fff" stroke-linecap="round" stroke-linejoin="round" strokeWidth="1"/>
      </g>
      <line id="Line_390" data-name="Line 390" y1="6.867" transform="translate(4.54 9.887)" fill="none" stroke="#fff" stroke-linecap="round" stroke-linejoin="round" strokeWidth="1"/>
    </g>
  </g>
</svg>
