<svg xmlns="http://www.w3.org/2000/svg" width="49" height="57" viewBox="0 0 49 57">
  <g id="Group_35737" data-name="Group 35737" transform="translate(-1383 15537)">
    <path id="daniil-silantev-sN4u56baSB0-unsplash" d="M42.75,0,57,24.5,42.75,49H14.25L0,24.5,14.25,0Z" transform="translate(1432 -15537) rotate(90)" fill="#793f90"/>
    <g id="contract_2_" data-name="contract (2)" transform="translate(1397.922 -15519.05)">
      <g id="Group_34747" data-name="Group 34747" transform="translate(3.07 6.857)">
        <g id="Group_34746" data-name="Group 34746" transform="translate(0 0)">
          <path id="Path_22956" data-name="Path 22956" d="M9.03,0H.336a.336.336,0,1,0,0,.671H9.03A.336.336,0,0,0,9.03,0Z" transform="translate(0 0)" fill="#fff" stroke="#fff" strokeWidth="0.5"/>
        </g>
      </g>
      <g id="Group_34749" data-name="Group 34749" transform="translate(3.07 9.063)">
        <g id="Group_34748" data-name="Group 34748" transform="translate(0 0)">
          <path id="Path_22957" data-name="Path 22957" d="M9.03,0H.336a.336.336,0,1,0,0,.671H9.03A.336.336,0,0,0,9.03,0Z" transform="translate(0 0)" fill="#fff" stroke="#fff" strokeWidth="0.5"/>
        </g>
      </g>
      <g id="Group_34751" data-name="Group 34751" transform="translate(3.07 11.268)">
        <g id="Group_34750" data-name="Group 34750" transform="translate(0 0)">
          <path id="Path_22958" data-name="Path 22958" d="M9.03,0H.336a.336.336,0,1,0,0,.671H9.03A.336.336,0,0,0,9.03,0Z" transform="translate(0 0)" fill="#fff" stroke="#fff" strokeWidth="0.5"/>
        </g>
      </g>
      <g id="Group_34753" data-name="Group 34753" transform="translate(0 0)">
        <g id="Group_34752" data-name="Group 34752" transform="translate(0 0)">
          <path id="Path_22959" data-name="Path 22959" d="M22.319,2.885A1.808,1.808,0,0,0,21.657.454L21.308.249a1.808,1.808,0,0,0-2.472.64L15.529,6.5V4.849a.337.337,0,0,0-.1-.237h0L10.991.172a.341.341,0,0,0-.238-.1h-2.2a.336.336,0,0,0,0,.672h1.865V4.332a.854.854,0,0,0,.853.853h3.586v3.57l-2.778,4.718H3.411a.336.336,0,0,0,0,.672h8.272l-.667,1.133a.694.694,0,0,0,.075.809L10.433,17.2a.9.9,0,0,0,.318,1.228l.125.074a.9.9,0,0,0,1.228-.318l.656-1.113a.683.683,0,0,0,.74-.32l1.356-2.3v5.794a.183.183,0,0,1-.181.181H.853a.183.183,0,0,1-.181-.181V1.221A.475.475,0,0,1,1.147.746H6.983a.336.336,0,0,0,0-.672H1.147A1.148,1.148,0,0,0,0,1.221V20.246a.854.854,0,0,0,.853.853H14.676a.854.854,0,0,0,.853-.853V13.31l.712-1.208a.336.336,0,0,0-.579-.341l-2.716,4.613a.058.058,0,0,1-.08.021l-1.219-.718a.072.072,0,0,1-.025-.1l4.332-7.356,1.332.784-.825,1.4a.336.336,0,1,0,.579.341l.833-1.414a.707.707,0,0,0,.836-.31l3.26-5.535a1.338,1.338,0,0,1,.129,1.538L19.852,8.834a.336.336,0,0,0,.579.341l2.243-3.808A2.011,2.011,0,0,0,22.319,2.885ZM11.271,4.513a.183.183,0,0,1-.181-.181V1.222l3.291,3.291h-3.11Zm.381,11.947.513.3-.639,1.085a.228.228,0,0,1-.308.08l-.125-.074a.228.228,0,0,1-.08-.308ZM21.717,2.586l-3.59,6.1a.034.034,0,0,1-.046.012L15.829,7.368a.023.023,0,0,1-.011-.015.022.022,0,0,1,0-.018l3.6-6.105a1.135,1.135,0,0,1,1.552-.4l.348.205A1.135,1.135,0,0,1,21.717,2.586Z" transform="translate(0 0)" fill="#fff" stroke="#fff" strokeWidth="0.5"/>
        </g>
      </g>
      <g id="Group_34755" data-name="Group 34755" transform="translate(4.382 15.773)">
        <g id="Group_34754" data-name="Group 34754" transform="translate(0 0)">
          <path id="Path_22960" data-name="Path 22960" d="M5.327,1.357,4.5.723A.485.485,0,0,0,3.9.738l-.508.433L2.3.151A.553.553,0,0,0,1.565.133L.118,1.367a.336.336,0,1,0,.436.511L1.92.712,3,1.723a.569.569,0,0,0,.76.018l.461-.393.7.54a.336.336,0,1,0,.41-.532Z" transform="translate(0 0)" fill="#fff" stroke="#fff" strokeWidth="0.5"/>
        </g>
      </g>
    </g>
  </g>
</svg>
