<svg xmlns="http://www.w3.org/2000/svg" width="49" height="58" viewBox="0 0 49 58">
  <g id="Group_35740" data-name="Group 35740" transform="translate(-1383 15603)">
    <path id="daniil-silantev-sN4u56baSB0-unsplash" d="M43.5,0,58,24.5,43.5,49h-29L0,24.5,14.5,0Z" transform="translate(1432 -15603) rotate(90)" fill="#dc286e"/>
    <g id="money-bag" transform="translate(1388.836 -15589.77)">
      <path id="Path_23579" data-name="Path 23579" d="M10.166,20.135a.791.791,0,0,0-1.118,0L7.541,21.646a.789.789,0,0,0,0,1.122l4.556,4.561a.793.793,0,0,0,1.127,0l1.512-1.516a.787.787,0,0,0,.086-1.008c1.162-.161,2.625-.364,3.867-.533a4.84,4.84,0,1,0,7.629-5.311l1.266-1.27a1.774,1.774,0,0,0,.529-1.273,1.857,1.857,0,0,0-2.251-1.782,13.7,13.7,0,0,0-3.36-5.41c-.235-.334-.738-.576-.761-.9a1.2,1.2,0,0,0-.4-.89L22.053,4.5c.125-1.082-2.042-.2-2.191-.1a3.1,3.1,0,0,1-2.834,0c-.177-.133-2.316-.966-2.191.1l.714,2.943a1.2,1.2,0,0,0-.4.89c-.021.332-.554.594-.758.9a16.4,16.4,0,0,0-2.767,3.853.421.421,0,1,0,.758.368A15.962,15.962,0,0,1,15.57,9.24a1.2,1.2,0,0,0,.791.3H20.53a1.2,1.2,0,0,0,.794-.305c.177.173.365.365.56.572a12.567,12.567,0,0,1,3.2,5.229c-.03.026-.063.046-.091.074l-2.9,2.912c-.521.242-.377-.214-.728-.491a1.784,1.784,0,0,0-1.27-.523H14.4a2.122,2.122,0,0,0-1.469.616l-.488.489a3.49,3.49,0,0,1-.7-2.784.421.421,0,0,0-.829-.147,4.32,4.32,0,0,0,.932,3.527l-1.549,1.552ZM15.792,4.864c1.068.22,1.267.738,2.653.728,1.386.01,1.585-.508,2.653-.728l-.55,2.266c-.039,0-4.166,0-4.206,0ZM20.53,8.7H16.361a.365.365,0,1,1,0-.729H20.53a.365.365,0,0,1,0,.729Zm5.061,7.007a1,1,0,0,1,1.674.717.941.941,0,0,1-.281.675L25.6,18.485a4.809,4.809,0,0,0-2.182-.6Zm-12.07,2.513a1.271,1.271,0,0,1,.877-.369h5.7a.934.934,0,0,1,.881.6,4.81,4.81,0,0,0-1.544,1.3l-2.77,0a.421.421,0,1,0,0,.842l2.25,0c-.149.428-.722,1.284-.051,1.521a.422.422,0,0,0,.507-.314,3.977,3.977,0,0,1,2.243-2.726,4,4,0,1,1-2.228,4.633.492.492,0,0,0-.114-.188.443.443,0,0,0-.352-.126c-1.53.208-3.518.484-4.833.667l-2.01-2.01a.421.421,0,0,0-.594.6L14.1,25.261l-1.428,1.453-4.5-4.5,1.439-1.443c.266.25.591.752.984.389l2.931-2.935Z" transform="translate(0 0)" fill="#fff" stroke="#fff" strokeWidth="0.4"/>
      <path id="Path_23580" data-name="Path 23580" d="M41.641,47.857a.426.426,0,0,0,.6,0l2.13-2.13a.426.426,0,1,0-.6-.6l-1.829,1.829-.764-.764a.426.426,0,1,0-.6.6Z" transform="translate(-19.265 -23.822)" fill="#fff" stroke="#fff" strokeWidth="0.4"/>
    </g>
  </g>
</svg>
