<svg xmlns="http://www.w3.org/2000/svg" width="49" height="57" viewBox="0 0 49 57">
  <g id="Group_35566" data-name="Group 35566" transform="translate(-1383 15799)">
    <path id="daniil-silantev-sN4u56baSB0-unsplash" d="M42.75,0,57,24.5,42.75,49H14.25L0,24.5,14.25,0Z" transform="translate(1432 -15799) rotate(90)" fill="#234e70"/>
    <g id="booking_1_" data-name="booking (1)" transform="translate(1396.473 -15781.527)">
      <path id="Path_23055" data-name="Path 23055" d="M19.678,1.384H17.9V.646a.646.646,0,1,0-1.292,0v.738h-2.86V.646a.646.646,0,1,0-1.292,0v.738H9.6V.646A.646.646,0,1,0,8.3.646v.738H5.445V.646a.646.646,0,1,0-1.292,0v.738H2.376A2.379,2.379,0,0,0,0,3.76V19.678a2.379,2.379,0,0,0,2.376,2.376h17.3a2.379,2.379,0,0,0,2.376-2.376V3.76a2.379,2.379,0,0,0-2.376-2.376ZM2.376,2.676H4.152v.738a.646.646,0,0,0,1.292,0V2.676H8.3v.738a.646.646,0,1,0,1.292,0V2.676h2.86v.738a.646.646,0,1,0,1.292,0V2.676h2.86v.738a.646.646,0,1,0,1.292,0V2.676h1.776A1.085,1.085,0,0,1,20.762,3.76V5.537H1.292V3.76A1.085,1.085,0,0,1,2.376,2.676Zm17.3,18.086H2.376a1.085,1.085,0,0,1-1.084-1.084V6.829h19.47V19.678A1.085,1.085,0,0,1,19.678,20.762Z" transform="translate(0)" fill="#fff"/>
      <path id="Path_23056" data-name="Path 23056" d="M3.427,0H.649A.649.649,0,0,0,0,.648V3.427a.649.649,0,0,0,.649.649H3.427a.649.649,0,0,0,.649-.649V.648A.649.649,0,0,0,3.427,0ZM2.779,2.778H1.3V1.3H2.779Z" transform="translate(3.126 8.989)" fill="#fff"/>
      <path id="Path_23057" data-name="Path 23057" d="M3.427,0H.648A.648.648,0,0,0,0,.648V3.427a.648.648,0,0,0,.648.649H3.427a.649.649,0,0,0,.648-.649V.648A.648.648,0,0,0,3.427,0ZM2.778,2.778H1.3V1.3H2.778Z" transform="translate(14.853 8.989)" fill="#fff"/>
      <path id="Path_23058" data-name="Path 23058" d="M3.427,0H.649A.649.649,0,0,0,0,.648V3.427a.649.649,0,0,0,.649.648H3.427a.649.649,0,0,0,.649-.648V.648A.649.649,0,0,0,3.427,0ZM2.779,2.778H1.3V1.3H2.779Z" transform="translate(3.126 14.521)" fill="#fff"/>
      <path id="Path_23059" data-name="Path 23059" d="M3.427,0H.648A.649.649,0,0,0,0,.648V3.427a.648.648,0,0,0,.648.648H3.427a.648.648,0,0,0,.648-.648V.648A.649.649,0,0,0,3.427,0ZM2.778,2.778H1.3V1.3H2.778Z" transform="translate(14.853 14.521)" fill="#fff"/>
      <path id="Path_23060" data-name="Path 23060" d="M3.427,0H.649A.649.649,0,0,0,0,.648V3.427a.649.649,0,0,0,.649.648H3.427a.649.649,0,0,0,.649-.648V.648A.649.649,0,0,0,3.427,0ZM2.779,2.778H1.3V1.3H2.779Z" transform="translate(8.989 14.521)" fill="#fff"/>
      <path id="Path_23061" data-name="Path 23061" d="M3.137.19,1.631,1.7l-.524-.524a.648.648,0,0,0-.917.917l.982.982a.648.648,0,0,0,.917,0L4.054,1.107A.649.649,0,0,0,3.137.19Z" transform="translate(8.905 9.396)" fill="#fff"/>
    </g>
  </g>
</svg>
