<svg xmlns="http://www.w3.org/2000/svg" width="49" height="57" viewBox="0 0 49 57">
  <g id="Group_35735" data-name="Group 35735" transform="translate(-1383 15668)">
    <path id="daniil-silantev-sN4u56baSB0-unsplash" d="M42.75,0,57,24.5,42.75,49H14.25L0,24.5,14.25,0Z" transform="translate(1432 -15668) rotate(90)" fill="#798b42"/>
    <g id="g11253" transform="translate(1395.694 -15647.537)">
      <g id="g11255" transform="translate(-1.566 0)">
        <g id="g11263" transform="translate(1.709 0)">
          <path id="path11265" d="M21.076,0H1.865A1.824,1.824,0,0,0,0,1.781V7.836A1.824,1.824,0,0,0,1.865,9.616H21.076a1.824,1.824,0,0,0,1.865-1.781V1.781A1.824,1.824,0,0,0,21.076,0" transform="translate(0 0)" fill="#798b42"/>
        </g>
        <g id="g11267" transform="translate(6.81 8.722)">
          <path id="path11269" d="M5.059,5.674h0l-.415-1.55a.989.989,0,0,1,1.91-.512l.415,1.55-.264-.985a.989.989,0,0,1,1.91-.512l.264.984-.1-.382a.989.989,0,1,1,1.91-.512l.174.649-.068-.254L11.53,6.9a4.97,4.97,0,0,1-3.514,6.086,5.721,5.721,0,0,1-6.41-2.622L.163,7.912A1.172,1.172,0,0,1,2,6.487L3.612,8.1,1.822,1.246A.99.99,0,1,1,3.734.734l1.1,4.088Z" transform="translate(0 0)" fill="#798b42"/>
        </g>
        <g id="g11307" transform="translate(0 0)">
          <path id="path11309" d="M10.657,0H2.121A1.973,1.973,0,0,0,0,1.781V7.836A1.973,1.973,0,0,0,2.121,9.616H8.139" fill="none" stroke="#fff" stroke-linecap="round" stroke-linejoin="round" strokeWidth="1"/>
        </g>
        <g id="g11311" transform="translate(10.691 0)">
          <path id="path11313" d="M0,9.616H13.842a2.032,2.032,0,0,0,2.213-1.781V1.781A2.032,2.032,0,0,0,13.842,0H4.936" fill="none" stroke="#fff" stroke-linecap="round" stroke-linejoin="round" strokeWidth="1"/>
        </g>
        <g id="g11315" transform="translate(6.81 8.722)">
          <path id="path11317" d="M10.794,4.15,11.53,6.9a4.97,4.97,0,0,1-3.514,6.086,5.721,5.721,0,0,1-6.41-2.622L.163,7.912A1.172,1.172,0,0,1,2,6.487L3.612,8.1,1.822,1.246A.99.99,0,1,1,3.734.734l1.1,4.088" transform="translate(0 0)" fill="none" stroke="#fff" stroke-linecap="round" stroke-linejoin="round" strokeWidth="1"/>
        </g>
        <g id="g11319" transform="translate(15.528 11.718)">
          <path id="path11321" d="M2.1,1.369,1.926.726a.98.98,0,0,0-1.892.507l.1.379" transform="translate(0 0)" fill="none" stroke="#fff" stroke-linecap="round" stroke-linejoin="round" strokeWidth="1"/>
        </g>
        <g id="g11323" transform="translate(13.476 11.627)">
          <path id="path11325" d="M2.187,1.7,1.926.726a.98.98,0,0,0-1.892.507l.261.975" transform="translate(0 0)" fill="none" stroke="#fff" stroke-linecap="round" stroke-linejoin="round" strokeWidth="1"/>
        </g>
        <g id="g11327" transform="translate(11.433 11.575)">
          <path id="path11329" d="M2.338,2.262,1.926.726a.98.98,0,1,0-1.892.507L.445,2.769" transform="translate(0 0)" fill="none" stroke="#fff" stroke-linecap="round" stroke-linejoin="round" strokeWidth="1"/>
        </g>
        <g id="g11331" transform="translate(12.661 0)">
          <path id="path11333" d="M0,0H0" fill="none" stroke="#fff" stroke-linecap="round" stroke-linejoin="round" strokeWidth="1"/>
        </g>
        <text id="Accept" transform="translate(13.179 6.808)" fill="#fff" font-size="5.5" font-family="Roboto-Medium, Roboto" font-weight="500" letter-spacing="-0.003em"><tspan x="-10" y="0">ACCEPT</tspan></text>
      </g>
    </g>
  </g>
</svg>
