<svg id="deal" xmlns="http://www.w3.org/2000/svg" width="32" height="32" viewBox="0 0 32 32">
  <path id="Path_22871" data-name="Path 22871" d="M161.814,326.734l-3.017-1.1a.535.535,0,0,0-.685.321l-.183.5-3.5-1.275a.518.518,0,0,0-.275-.024l-7.272,1.284a2.145,2.145,0,0,0-1.532,1.131l-3.336-1.217a2.119,2.119,0,0,0-1.636.072,2.145,2.145,0,0,0-1.215,1.627,2.187,2.187,0,0,0,1.46,2.35l10.989,4a.523.523,0,0,0,.183.033.537.537,0,0,0,.171-.028l3.069-1.036.327.119-.183.5a.535.535,0,0,0,.321.686l3.018,1.1a.518.518,0,0,0,.182.033.535.535,0,0,0,.5-.352l2.928-8.046a.535.535,0,0,0-.322-.682Zm-6.939,5.57-3.069,1.036L140.994,329.4a1.131,1.131,0,0,1-.768-1.182,1.07,1.07,0,0,1,1.427-.856l3.472,1.263a2.315,2.315,0,0,0,.024.295,2.15,2.15,0,0,0,2.478,1.737l6.025-1.062-.186-1.054-6.022,1.062a1.078,1.078,0,0,1-1.24-.864.99.99,0,0,1,0-.369.53.53,0,0,0,.009-.054.588.588,0,0,1,.037-.133,1.075,1.075,0,0,1,.82-.689l7.13-1.257,3.361,1.223-1.83,5.03-.5-.182A.537.537,0,0,0,154.875,332.3Zm3.507,2.291-2.011-.732,2.562-7.04,2.012.732Zm0,0" transform="translate(-130.167 -303.815)" fill="#d1d1d1"/>
  <path id="Path_22872" data-name="Path 22872" d="M12.742,8.632a4.193,4.193,0,0,0,.93,1.7,1.028,1.028,0,0,0-.016.13v2.914a1.605,1.605,0,0,0,1.605,1.605v5.351a.535.535,0,0,0,.3.482l1.07.535a.535.535,0,0,0,.478,0l1.07-.535a.535.535,0,0,0,.3-.482V14.984a1.605,1.605,0,0,0,1.605-1.605V10.464a1.085,1.085,0,0,0-.018-.139,4.146,4.146,0,0,0,.82-1.35,1.955,1.955,0,0,0,2-.916,2.113,2.113,0,0,0-.336-2.608L18.184,1.1A3.722,3.722,0,0,0,15.536,0H9.909A.527.527,0,0,0,9.7.043L6.056,1.605H5.628V.535A.535.535,0,0,0,5.093,0H.812A.535.535,0,0,0,.277.535V9.1a.535.535,0,0,0,.535.535H5.093A.535.535,0,0,0,5.628,9.1V8.027h.078c.383,1.284,2.1,2.141,3.668,2.141a4.27,4.27,0,0,0,3.368-1.535Zm-8.184-.07H1.347V1.07H4.558ZM17.4,20l-.535.268L16.331,20v-5.02H17.4Zm1.605-6.626a.535.535,0,0,1-.535.535H15.261a.535.535,0,0,1-.535-.535V11.194a4.21,4.21,0,0,0,1.154.46,1.077,1.077,0,1,0,.15-1.075,3.174,3.174,0,0,1-.856-.366,4.2,4.2,0,0,1,1.693-.581,5.016,5.016,0,0,1,2.141.832Zm.4-3.921a5.841,5.841,0,0,0-2.539-.9,5.831,5.831,0,0,0-2.535.893A3.135,3.135,0,0,1,13.7,8.027h2.628A2.087,2.087,0,0,0,18.2,6.908l1.5,1.5a1.928,1.928,0,0,0,.189.156,3.07,3.07,0,0,1-.483.9ZM18.446,5.64a2.121,2.121,0,0,0-.53-1.177,3.211,3.211,0,0,1,2.149,2.8Zm-6.4,1.852c0,.81-1.326,1.605-2.676,1.605S6.7,8.3,6.7,7.492a.535.535,0,0,0-.535-.535H5.628V2.676h.535a.528.528,0,0,0,.211-.043L10.016,1.07h5.517a2.659,2.659,0,0,1,1.894.783l4.354,4.354a1.036,1.036,0,0,1,.191,1.274.963.963,0,0,1-.826.449h-.025a4.17,4.17,0,0,0,.025-.439,4.286,4.286,0,0,0-4.281-4.281,4.236,4.236,0,0,0-2.055.535H10.444v1.07h5.886a1.07,1.07,0,0,1,0,2.141H12.585a.535.535,0,0,0-.535.535Zm0,0" transform="translate(-0.277 0)" fill="#d1d1d1"/>
</svg>
