<svg id="Component_282_74" data-name="Component 282 – 74" xmlns="http://www.w3.org/2000/svg" width="40" height="40" viewBox="0 0 40 40">
  <g id="cancel_1_" data-name="cancel (1)">
    <g id="Group_34858" data-name="Group 34858">
      <g id="Group_34857" data-name="Group 34857">
        <path id="Path_23560" data-name="Path 23560" d="M34.064,5.78a20,20,0,1,0,0,28.284A20,20,0,0,0,34.064,5.78ZM31.707,31.707a16.666,16.666,0,1,1,0-23.569A16.665,16.665,0,0,1,31.707,31.707Z" transform="translate(0.078 0.078)" fill="#e21b1b"/>
        <path id="Path_23561" data-name="Path 23561" d="M28.171,11.672a1.667,1.667,0,0,0-2.357,0l-5.893,5.893-5.893-5.893a1.667,1.667,0,1,0-2.357,2.357l5.893,5.893-5.89,5.89a1.667,1.667,0,1,0,2.357,2.357l5.89-5.89,5.892,5.892a1.667,1.667,0,0,0,2.357-2.357l-5.892-5.892,5.893-5.893A1.667,1.667,0,0,0,28.171,11.672Z" transform="translate(0.078 0.078)" fill="#e21b1b"/>
      </g>
    </g>
  </g>
</svg>
