<svg id="Component_282_74" data-name="Component 282 – 74" xmlns="http://www.w3.org/2000/svg" width="40" height="39.999" viewBox="0 0 40 39.999">
  <g id="cancel" transform="translate(0 0)">
    <g id="Group_34859" data-name="Group 34859">
      <path id="Path_23562" data-name="Path 23562" d="M34.149,5.852a20,20,0,1,0,0,28.3A20.032,20.032,0,0,0,34.149,5.852ZM28.252,25.9a1.667,1.667,0,1,1-2.358,2.358L20,22.358l-5.893,5.894a1.667,1.667,0,0,1-2.358-2.358L17.642,20l-5.894-5.894a1.667,1.667,0,1,1,2.358-2.358L20,17.642l5.894-5.894a1.667,1.667,0,1,1,2.358,2.358L22.358,20Z" fill="#e21b1b"/>
    </g>
  </g>
</svg>
