<svg xmlns="http://www.w3.org/2000/svg" width="16.5" height="16.5" viewBox="0 0 16.5 16.5">
  <g id="info" transform="translate(0.25 0.25)">
    <g id="Group_11499" data-name="Group 11499">
      <g id="Group_11498" data-name="Group 11498">
        <path id="Path_21344" data-name="Path 21344" d="M200.958,218.657a.846.846,0,0,1-.51-.115.53.53,0,0,1-.146-.435,2.259,2.259,0,0,1,.047-.4,4.358,4.358,0,0,1,.1-.443l.467-1.606a2.428,2.428,0,0,0,.095-.486c0-.178.024-.3.024-.372a1.04,1.04,0,0,0-.368-.826,1.546,1.546,0,0,0-1.044-.316,2.709,2.709,0,0,0-.791.131q-.419.13-.882.312l-.134.522c.091-.032.2-.067.328-.107a1.342,1.342,0,0,1,.372-.055.759.759,0,0,1,.5.123.573.573,0,0,1,.131.431,1.873,1.873,0,0,1-.044.4q-.042.208-.107.439l-.471,1.613a4.618,4.618,0,0,0-.091.455,2.825,2.825,0,0,0-.028.4,1.032,1.032,0,0,0,.4.819,1.582,1.582,0,0,0,1.06.324,2.44,2.44,0,0,0,.791-.115q.336-.115.9-.328l.127-.5a2.184,2.184,0,0,1-.312.1A1.5,1.5,0,0,1,200.958,218.657Z" transform="translate(-191.869 -206.972)" fill="#00adee"/>
        <path id="Path_21345" data-name="Path 21345" d="M250.785,128.37a1.306,1.306,0,0,0-1.843,0,1.3,1.3,0,0,0-.115,1.71,1.158,1.158,0,0,0,.115.126,1.289,1.289,0,0,0,1.843,0,1.3,1.3,0,0,0,.108-1.717A1.162,1.162,0,0,0,250.785,128.37Z" transform="translate(-241.203 -124.325)" fill="#00adee"/>
        <path id="Path_21346" data-name="Path 21346" d="M8,0a8,8,0,1,0,8,8A8,8,0,0,0,8,0ZM8,15.273A7.273,7.273,0,1,1,15.273,8,7.273,7.273,0,0,1,8,15.273Z" fill="#00adee" stroke="#00adee" strokeWidth="0.5"/>
      </g>
    </g>
  </g>
</svg>
