<svg xmlns="http://www.w3.org/2000/svg" width="32.5" height="32.5" viewBox="0 0 32.5 32.5">
  <g id="places-to-visit" transform="translate(0.25 0.25)">
    <path id="Path_21049" data-name="Path 21049" d="M7.694,18.536a.471.471,0,0,0-.471-.471H4.112a1.729,1.729,0,0,0-1.727,1.727V22.6a.471.471,0,0,0,.942,0V19.793a.786.786,0,0,1,.785-.785H7.223A.471.471,0,0,0,7.694,18.536Z" transform="translate(-0.193 -1.564)" fill="#00adee" stroke="#00adee" strokeWidth="0.5"/>
    <path id="Path_21050" data-name="Path 21050" d="M30.475,18.065H27.243a.471.471,0,0,0,0,.942h3.233a.784.784,0,0,1,.781.785V31.9a.784.784,0,0,1-.781.785H4.1a.784.784,0,0,1-.781-.785V25a.469.469,0,1,0-.937,0v6.9A1.725,1.725,0,0,0,4.1,33.626H30.475A1.725,1.725,0,0,0,32.193,31.9V19.793A1.725,1.725,0,0,0,30.475,18.065Z" transform="translate(-0.193 -1.626)" fill="#00adee" stroke="#00adee" strokeWidth="0.5"/>
    <path id="Path_21051" data-name="Path 21051" d="M7.883,11.2,5.39,12.651A.83.83,0,0,0,5.8,14.2H8.774V25.637H6.8a.471.471,0,0,0,0,.942H27.363a.471.471,0,0,0,0-.942H25.39V14.2h2.969a.831.831,0,0,0,.415-1.547l-7.06-4.124a.467.467,0,0,0-.64.171.472.472,0,0,0,.17.644l6.7,3.914h-2.9l-7.388-4.23a1.181,1.181,0,0,0-1.171,0L14.06,10.42V8.677l2.9-1.693a.244.244,0,0,1,.246,0L19.41,8.272a.467.467,0,0,0,.64-.171.472.472,0,0,0-.17-.644L17.676,6.169a1.179,1.179,0,0,0-1.187,0L14.06,7.587V2.237A2.23,2.23,0,0,0,11.842,0H2.218A2.23,2.23,0,0,0,0,2.237V8.959A2.23,2.23,0,0,0,2.218,11.2H7.883ZM6.22,13.257,9.748,11.2h.758a1.273,1.273,0,0,1,.842.319l.317.28L9.118,13.257Zm12.705,12.38H15.239V20.729a.157.157,0,0,1,.156-.157h3.374a.157.157,0,0,1,.156.157v4.908ZM13.6,12.888a.777.777,0,0,0,.459-.715v-.668l2.891-1.659a.245.245,0,0,1,.243,0L24.453,14V25.637h-4.59V20.729a1.1,1.1,0,0,0-1.093-1.1H15.4a1.1,1.1,0,0,0-1.093,1.1v4.908H9.711V14l2.7-1.55.353.312a.772.772,0,0,0,.512.2A.783.783,0,0,0,13.6,12.888ZM.937,8.959V2.237A1.289,1.289,0,0,1,2.218.942h9.625a1.289,1.289,0,0,1,1.281,1.294v9.59l-1.157-1.02a2.207,2.207,0,0,0-1.46-.553H2.218A1.289,1.289,0,0,1,.937,8.959Z" transform="translate(0 0)" fill="#00adee" stroke="#00adee" strokeWidth="0.5"/>
    <path id="Path_21052" data-name="Path 21052" d="M7.235,9.148a3.918,3.918,0,0,0,2.517-.914l2.485-2.077a.471.471,0,0,0,0-.723L9.753,3.358a3.923,3.923,0,0,0-5.036,0L2.235,5.435a.471.471,0,0,0,0,.723L4.717,8.233a3.917,3.917,0,0,0,2.519.915ZM5.321,4.082h0a2.981,2.981,0,0,1,3.827,0L11.2,5.8,9.148,7.511a2.981,2.981,0,0,1-3.827,0L3.271,5.8Z" transform="translate(-0.168 -0.198)" fill="#00adee" stroke="#00adee" strokeWidth="0.5"/>
    <path id="Path_21053" data-name="Path 21053" d="M7.555,7.512A1.557,1.557,0,1,0,6,5.955,1.559,1.559,0,0,0,7.555,7.512Zm0-2.172a.615.615,0,1,1-.615.615A.616.616,0,0,1,7.555,5.34Z" transform="translate(-0.517 -0.357)" fill="#00adee" stroke="#00adee" strokeWidth="0.5"/>
  </g>
</svg>
