<svg xmlns="http://www.w3.org/2000/svg" xmlns:xlink="http://www.w3.org/1999/xlink" width="150" height="150" viewBox="0 0 150 150">
  <defs>
    <clipPath id="clip-path">
      <path id="path1434" d="M0-682.665H150v150H0Z" transform="translate(0 682.665)"/>
    </clipPath>
  </defs>
  <g id="g1428" transform="translate(0 682.665)">
    <g id="g1430" transform="translate(0 -682.665)">
      <g id="g1432" clip-path="url(#clip-path)">
        <g id="g1438" transform="translate(2.197 2.197)">
          <path id="path1440" d="M-400.539-111.839c-.687,0-1.368.024-2.045.065a38.6,38.6,0,0,0-37.945-31.559,38.6,38.6,0,0,0-37.945,31.559c-.676-.042-1.358-.065-2.045-.065a32.813,32.813,0,0,0-32.813,32.812A32.813,32.813,0,0,0-480.52-46.214h79.98a32.813,32.813,0,0,0,32.813-32.812,32.813,32.813,0,0,0-32.812-32.812" transform="translate(513.332 143.333)" fill="#d4e8ff"/>
        </g>
        <g id="g1442" transform="translate(69.141 2.197)">
          <path id="path1444" d="M-162.817-111.839c-.687,0-1.368.024-2.045.065a38.6,38.6,0,0,0-37.945-31.559,38.867,38.867,0,0,0-5.859.444,38.616,38.616,0,0,1,32.086,31.116c.676-.042,1.358-.065,2.045-.065a32.813,32.813,0,0,1,32.813,32.812,32.813,32.813,0,0,1-32.812,32.812h11.719A32.813,32.813,0,0,0-130-79.026a32.813,32.813,0,0,0-32.812-32.812" transform="translate(208.666 143.333)" fill="#b1d6ff"/>
        </g>
        <g id="g1446" transform="translate(44.426 62.44)">
          <path id="path1448" d="M-7.865-303.13H33.359l17.708-17.628v-65.519a2.215,2.215,0,0,0-2.215-2.215H-7.865a2.215,2.215,0,0,0-2.215,2.215v80.933a2.215,2.215,0,0,0,2.215,2.215" transform="translate(10.08 388.492)" fill="#e4f0fe"/>
        </g>
        <g id="g1450" transform="translate(87.865 62.441)">
          <path id="path1452" d="M-55.021,0H-66.739a2.215,2.215,0,0,1,2.215,2.215V67.733l-5.99,17.629,17.709-17.629V2.215A2.215,2.215,0,0,0-55.021,0" transform="translate(70.514)" fill="#b1d6ff"/>
        </g>
        <g id="g1454" transform="translate(87.865 130.03)">
          <path id="path1456" d="M0-63.111V-78.669a2.215,2.215,0,0,1,2.215-2.215H17.708Z" transform="translate(0 80.884)" fill="#b1d6ff"/>
        </g>
        <g id="g1458" transform="translate(2.197 14.677)">
          <path id="path1460" d="M-157.634,0a38.47,38.47,0,0,0-9.533,19.08c-.677-.042-1.358-.065-2.045-.065a32.813,32.813,0,0,0-32.812,32.813,32.813,32.813,0,0,0,32.813,32.812h9.229" transform="translate(202.025)" fill="none" stroke="#00adee" stroke-linecap="round" stroke-linejoin="round" stroke-width="5"/>
        </g>
        <g id="g1462" transform="translate(54.916 2.197)">
          <path id="path1464" d="M-182.641-344.88H-174a32.813,32.813,0,0,0,32.813-32.812A32.813,32.813,0,0,0-174-410.5c-.687,0-1.368.024-2.045.065A38.6,38.6,0,0,0-213.988-442a38.4,38.4,0,0,0-20.084,5.634" transform="translate(234.073 441.999)" fill="none" stroke="#00adee" stroke-linecap="round" stroke-linejoin="round" stroke-width="5"/>
        </g>
        <g id="g1466" transform="translate(114.99 45.41)">
          <path id="path1468" d="M0,0A21.118,21.118,0,0,1,21.094,21.094" fill="none" stroke="#00adee" stroke-linecap="round" stroke-linejoin="round" stroke-width="5"/>
        </g>
        <g id="g1470" transform="translate(44.426 62.441)">
          <path id="path1472" d="M-217.139-159.112V-201.7a2.215,2.215,0,0,0-2.215-2.215h-56.717a2.215,2.215,0,0,0-2.215,2.215v80.933a2.215,2.215,0,0,0,2.215,2.215h41.224l17.708-17.629V-147.43" transform="translate(278.286 203.918)" fill="none" stroke="#00adee" stroke-linecap="round" stroke-linejoin="round" stroke-width="5"/>
        </g>
        <g id="g1474" transform="translate(87.865 130.03)">
          <path id="path1476" d="M0-63.111V-78.669a2.215,2.215,0,0,1,2.215-2.215H17.708Z" transform="translate(0 80.884)" fill="none" stroke="#00adee" stroke-linecap="round" stroke-linejoin="round" stroke-width="5"/>
        </g>
        <g id="g1486" transform="translate(21.387 8.057)">
          <path id="path1488" d="M0,0V8.789" fill="none" stroke="#00adee" stroke-linecap="round" stroke-linejoin="round" stroke-width="5"/>
        </g>
        <g id="g1490" transform="translate(16.992 12.451)">
          <path id="path1492" d="M-31.21,0H-40" transform="translate(39.999)" fill="none" stroke="#00adee" stroke-linecap="round" stroke-linejoin="round" stroke-width="5"/>
        </g>
        <g id="g1494" transform="translate(128.613 8.057)">
          <path id="path1496" d="M0,0V8.789" fill="none" stroke="#00adee" stroke-linecap="round" stroke-linejoin="round" stroke-width="5"/>
        </g>
        <g id="g1498" transform="translate(124.219 12.451)">
          <path id="path1500" d="M-31.21,0H-40" transform="translate(39.999)" fill="none" stroke="#00adee" stroke-linecap="round" stroke-linejoin="round" stroke-width="5"/>
        </g>
        <g id="g1502" transform="translate(6.592 107.666)">
          <path id="path1504" d="M0,0V8.789" fill="none" stroke="#00adee" stroke-linecap="round" stroke-linejoin="round" stroke-width="5"/>
        </g>
        <g id="g1506" transform="translate(2.197 112.06)">
          <path id="path1508" d="M-31.209,0H-40" transform="translate(39.997)" fill="none" stroke="#00adee" stroke-linecap="round" stroke-linejoin="round" stroke-width="5"/>
        </g>
        <g id="g1510" transform="translate(143.408 107.666)">
          <path id="path1512" d="M0,0V8.789" fill="none" stroke="#00adee" stroke-linecap="round" stroke-linejoin="round" stroke-width="5"/>
        </g>
        <g id="g1514" transform="translate(139.014 112.06)">
          <path id="path1516" d="M-31.209,0H-40" transform="translate(39.997)" fill="none" stroke="#00adee" stroke-linecap="round" stroke-linejoin="round" stroke-width="5"/>
        </g>
        <g id="g1518" transform="translate(125.097 132.861)">
          <path id="path1520" d="M0,0V8.789" fill="none" stroke="#00adee" stroke-linecap="round" stroke-linejoin="round" stroke-width="5"/>
        </g>
        <g id="g1522" transform="translate(120.703 137.256)">
          <path id="path1524" d="M-31.209,0H-40" transform="translate(39.997)" fill="none" stroke="#00adee" stroke-linecap="round" stroke-linejoin="round" stroke-width="5"/>
        </g>
        <g id="g1526" transform="translate(24.316 132.861)">
          <path id="path1528" d="M0,0V8.789" fill="none" stroke="#00adee" stroke-linecap="round" stroke-linejoin="round" stroke-width="5"/>
        </g>
        <g id="g1530" transform="translate(19.922 137.256)">
          <path id="path1532" d="M-31.209,0H-40" transform="translate(39.997)" fill="none" stroke="#00adee" stroke-linecap="round" stroke-linejoin="round" stroke-width="5"/>
        </g>
        <g id="multimedia" transform="translate(54.595 84.714)">
          <path id="Path_24177" data-name="Path 24177" d="M36.535,18.271A18.268,18.268,0,1,0,18.268,36.541,18.269,18.269,0,0,0,36.535,18.271Zm0,0" fill="#00adee"/>
          <path id="Path_24178" data-name="Path 24178" d="M80.271,54.629a18.27,18.27,0,0,1-25.65,25.654,18.27,18.27,0,1,0,25.65-25.654Zm0,0" transform="translate(-50.723 -50.73)" fill="#009ad4"/>
          <path id="Path_24179" data-name="Path 24179" d="M179.934,161.637V147.3a1.07,1.07,0,0,1,1.651-.9l11.077,7.169a1.07,1.07,0,0,1,0,1.8l-11.077,7.169a1.07,1.07,0,0,1-1.651-.9Zm0,0" transform="translate(-167.092 -135.791)" fill="#ddf2fe"/>
          <path id="Path_24180" data-name="Path 24180" d="M192.658,153.57,181.581,146.4a1.07,1.07,0,0,0-1.651.9v.568l3.6,2.476a5.089,5.089,0,0,1-.109,8.457l-3.488,2.27v.568a1.07,1.07,0,0,0,1.651.9l11.077-7.169A1.07,1.07,0,0,0,192.658,153.57Zm0,0" transform="translate(-167.089 -135.791)" fill="#f8fbff"/>
        </g>
      </g>
    </g>
  </g>
</svg>
