<svg xmlns="http://www.w3.org/2000/svg" xmlns:xlink="http://www.w3.org/1999/xlink" width="70.5" height="70.5" viewBox="0 0 70.5 70.5">
  <defs>
    <clipPath id="clip-path">
      <path id="path1434" d="M0-682.665H70.5v70.5H0Z" transform="translate(0 682.665)"/>
    </clipPath>
  </defs>
  <g id="g1428" transform="translate(0 682.665)">
    <g id="g1430" transform="translate(0 -682.665)">
      <g id="g1432" clip-path="url(#clip-path)">
        <g id="g1438" transform="translate(8.617 8.033)">
          <path id="path1440" d="M-472.069-131.812c-.251,0-.5.009-.748.024A14.119,14.119,0,0,0-486.7-143.333a14.119,14.119,0,0,0-13.881,11.545c-.247-.015-.5-.024-.748-.024a12,12,0,0,0-12,12,12,12,0,0,0,12,12h29.259a12,12,0,0,0,12-12,12,12,0,0,0-12-12" transform="translate(513.332 143.333)" fill="#d4e8ff"/>
        </g>
        <g id="g1442" transform="translate(33.106 8.033)">
          <path id="path1444" d="M-191.893-131.812c-.251,0-.5.009-.748.024a14.119,14.119,0,0,0-13.881-11.545,14.22,14.22,0,0,0-2.144.162,14.127,14.127,0,0,1,11.738,11.383c.247-.015.5-.024.748-.024a12,12,0,0,1,12,12,12,12,0,0,1-12,12h4.287a12,12,0,0,0,12-12,12,12,0,0,0-12-12" transform="translate(208.666 143.333)" fill="#b1d6ff"/>
        </g>
        <g id="g1446" transform="translate(24.065 30.071)">
          <path id="path1448" d="M-9.27-357.265H5.811l6.478-6.449v-23.969a.81.81,0,0,0-.81-.81H-9.27a.81.81,0,0,0-.81.81v29.607a.81.81,0,0,0,.81.81" transform="translate(10.08 388.492)" fill="#e4f0fe"/>
        </g>
        <g id="g1450" transform="translate(39.956 30.071)">
          <path id="path1452" d="M-64.846,0h-4.287a.81.81,0,0,1,.81.81V24.779l-2.191,6.449,6.478-6.449V.81a.81.81,0,0,0-.81-.81" transform="translate(70.515 0)" fill="#b1d6ff"/>
        </g>
        <g id="g1454" transform="translate(39.956 54.797)">
          <path id="path1456" d="M0-74.382v-5.691a.81.81,0,0,1,.81-.81H6.478Z" transform="translate(0 80.884)" fill="#b1d6ff"/>
        </g>
        <g id="g1458" transform="translate(8.617 12.598)">
          <path id="path1460" d="M-185.786,0a14.073,14.073,0,0,0-3.487,6.98c-.248-.015-.5-.024-.748-.024a12,12,0,0,0-12,12,12,12,0,0,0,12,12h3.376" transform="translate(202.025 0)" fill="none" stroke="#00adee" stroke-linecap="round" stroke-linejoin="round" strokeWidth="2"/>
        </g>
        <g id="g1462" transform="translate(27.903 8.033)">
          <path id="path1464" d="M-215.257-406.47h3.162a12,12,0,0,0,12-12,12,12,0,0,0-12-12c-.251,0-.5.009-.748.024A14.119,14.119,0,0,0-226.725-442a14.048,14.048,0,0,0-7.347,2.061" transform="translate(234.073 441.999)" fill="none" stroke="#00adee" stroke-linecap="round" stroke-linejoin="round" strokeWidth="2"/>
        </g>
        <g id="g1466" transform="translate(49.879 23.841)">
          <path id="path1468" d="M0,0A7.725,7.725,0,0,1,7.717,7.717" transform="translate(0 0)" fill="none" stroke="#00adee" stroke-linecap="round" stroke-linejoin="round" strokeWidth="2"/>
        </g>
        <g id="g1470" transform="translate(24.065 30.071)">
          <path id="path1472" d="M-255.917-187.527v-15.581a.81.81,0,0,0-.81-.81h-20.749a.81.81,0,0,0-.81.81V-173.5a.81.81,0,0,0,.81.81H-262.4l6.478-6.449v-4.114" transform="translate(278.286 203.918)" fill="none" stroke="#00adee" stroke-linecap="round" stroke-linejoin="round" strokeWidth="2"/>
        </g>
        <g id="g1474" transform="translate(39.956 54.797)">
          <path id="path1476" d="M0-74.382v-5.691a.81.81,0,0,1,.81-.81H6.478Z" transform="translate(0 80.884)" fill="none" stroke="#00adee" stroke-linecap="round" stroke-linejoin="round" strokeWidth="2"/>
        </g>
        <g id="g1478" transform="translate(35.25 39.115)">
          <path id="path1480" d="M0-154.52v-13.506" transform="translate(0 168.026)" fill="none" stroke="#00adee" stroke-linecap="round" stroke-linejoin="round" strokeWidth="2"/>
        </g>
        <g id="g1482" transform="translate(31.235 38.749)">
          <path id="path1484" d="M-91.871-40.374-95.886-43.9-99.9-40.374" transform="translate(99.901 43.903)" fill="none" stroke="#00adee" stroke-linecap="round" stroke-linejoin="round" strokeWidth="2"/>
        </g>
        <g id="g1486" transform="translate(14.538 10.176)">
          <path id="path1488" d="M0,0V5.413" transform="translate(0 0)" fill="none" stroke="#00adee" stroke-linecap="round" stroke-linejoin="round" strokeWidth="2"/>
        </g>
        <g id="g1490" transform="translate(11.832 12.883)">
          <path id="path1492" d="M-34.585,0H-40" transform="translate(39.998 0)" fill="none" stroke="#00adee" stroke-linecap="round" stroke-linejoin="round" strokeWidth="2"/>
        </g>
        <g id="g1494" transform="translate(54.22 10.176)">
          <path id="path1496" d="M0,0V4.5" transform="translate(0 0)" fill="none" stroke="#00adee" stroke-linecap="round" stroke-linejoin="round" strokeWidth="2"/>
        </g>
        <g id="g1498" transform="translate(51.969 12.427)">
          <path id="path1500" d="M-35.5,0H-40" transform="translate(39.999 0)" fill="none" stroke="#00adee" stroke-linecap="round" stroke-linejoin="round" strokeWidth="2"/>
        </g>
        <g id="g1502" transform="translate(9.308 46.616)">
          <path id="path1504" d="M0,0V5.049" transform="translate(0 0)" fill="none" stroke="#00adee" stroke-linecap="round" stroke-linejoin="round" strokeWidth="2"/>
        </g>
        <g id="g1506" transform="translate(6.784 49.14)">
          <path id="path1508" d="M-34.949,0H-40" transform="translate(39.997 0)" fill="none" stroke="#00adee" stroke-linecap="round" stroke-linejoin="round" strokeWidth="2"/>
        </g>
        <g id="g1510" transform="translate(59.359 46.616)">
          <path id="path1512" d="M0,0V5.049" transform="translate(0 0)" fill="none" stroke="#00adee" stroke-linecap="round" stroke-linejoin="round" strokeWidth="2"/>
        </g>
        <g id="g1514" transform="translate(56.835 49.14)">
          <path id="path1516" d="M-34.949,0H-40" transform="translate(39.998 0)" fill="none" stroke="#00adee" stroke-linecap="round" stroke-linejoin="round" strokeWidth="2"/>
        </g>
        <g id="g1518" transform="translate(52.91 55.833)">
          <path id="path1520" d="M0,0V4.549" transform="translate(0 0)" fill="none" stroke="#00adee" stroke-linecap="round" stroke-linejoin="round" strokeWidth="2"/>
        </g>
        <g id="g1522" transform="translate(50.636 58.107)">
          <path id="path1524" d="M-35.449,0H-40" transform="translate(39.997 0)" fill="none" stroke="#00adee" stroke-linecap="round" stroke-linejoin="round" strokeWidth="2"/>
        </g>
        <g id="g1526" transform="translate(16.042 55.833)">
          <path id="path1528" d="M0,0V4.549" transform="translate(0 0)" fill="none" stroke="#00adee" stroke-linecap="round" stroke-linejoin="round" strokeWidth="2"/>
        </g>
        <g id="g1530" transform="translate(13.767 58.107)">
          <path id="path1532" d="M-35.449,0H-40" transform="translate(39.998 0)" fill="none" stroke="#00adee" stroke-linecap="round" stroke-linejoin="round" strokeWidth="2"/>
        </g>
      </g>
    </g>
  </g>
</svg>
