<svg xmlns="http://www.w3.org/2000/svg" width="44" height="40" viewBox="0 0 44 40">
  <g id="Group_35539" data-name="Group 35539" transform="translate(0 -0.001)">
    <g id="Polygon_6" data-name="Polygon 6" transform="translate(0 0.001)" fill="#e4f0fe">
      <path d="M 31.52182197570801 37.5 L 12.47817802429199 37.5 L 2.853180170059204 20.00000381469727 L 12.47817802429199 2.5 L 31.52182197570801 2.5 L 41.14682006835938 19.99999618530273 L 31.52182197570801 37.5 Z" stroke="none"/>
      <path d="M 13.95635986328125 5 L 5.706352233886719 20 L 13.95635414123535 35 L 30.04364585876465 35 L 38.29364395141602 19.99999809265137 L 30.04364776611328 5 L 13.95635986328125 5 M 12.18254470825195 0 L 31.81745529174805 0 C 32.54684448242188 0 33.21838760375977 0.3970680236816406 33.56988906860352 1.036167144775391 L 43.46989059448242 19.03616714477539 C 43.79997634887695 19.63632202148438 43.79997634887695 20.36367797851562 43.46989059448242 20.96383285522461 L 33.56988906860352 38.96383285522461 C 33.21838760375977 39.60293197631836 32.54684448242188 40 31.81745529174805 40 L 12.18254470825195 40 C 11.45315551757812 40 10.78161239624023 39.60293197631836 10.43011093139648 38.96383285522461 L 0.5301094055175781 20.96383285522461 C 0.2000236511230469 20.36366653442383 0.2000236511230469 19.63632202148438 0.5301094055175781 19.03615570068359 L 10.43011093139648 1.036167144775391 C 10.78161239624023 0.3970680236816406 11.45316696166992 0 12.18254470825195 0 Z" stroke="none" fill="#034ea1"/>
    </g>
  </g>
</svg>
