<svg xmlns="http://www.w3.org/2000/svg" width="22.882" height="20.8" viewBox="0 0 22.882 20.8">
  <g id="house_edit" data-name="house edit" transform="translate(0.4 0.4)">
    <path id="Path_20874" data-name="Path 20874" d="M11.118,19.7H4.208a1.382,1.382,0,0,1-1.386-1.373V9.132L9.866,3a1.914,1.914,0,0,1,2.5,0l7.192,6.265.007.006,1.676,1.462a.528.528,0,0,0,.74-.047.516.516,0,0,0-.047-.733L20.457,8.66V3.421a2.755,2.755,0,0,0-5.507,0v.444L13.064,2.22a2.972,2.972,0,0,0-3.888,0L.3,9.949a.516.516,0,0,0-.047.733.528.528,0,0,0,.74.046l.785-.684v8.281A2.425,2.425,0,0,0,4.21,20.736h6.908a.519.519,0,1,0,0-1.038ZM16,3.421a1.707,1.707,0,0,1,3.412,0V7.747L16,4.772Z" transform="translate(-0.119 -0.736)" fill="#fff" stroke="#fff" stroke-width="0.8"/>
    <path id="Path_20875" data-name="Path 20875" d="M8.369,4.341a2.475,2.475,0,1,0,2.475,2.475A2.475,2.475,0,0,0,8.369,4.341ZM9.818,6.816a1.449,1.449,0,1,1-1.449-1.45,1.451,1.451,0,0,1,1.449,1.45Z" transform="translate(2.63 0.917)" fill="#fff" stroke="#fff" stroke-width="0.8"/>
    <path id="Path_20876" data-name="Path 20876" d="M17.378,11.292h0L15.043,8.957a.969.969,0,0,0-1.338,0l-4.051,4.05a.946.946,0,0,0-.273.636L9.3,16.056a.946.946,0,0,0,.914.977h.064l2.411-.081a.946.946,0,0,0,.639-.273l4.05-4.05a.946.946,0,0,0,0-1.337ZM12.65,15.929l-2.33.079.056-2.276L14.37,9.74l2.224,2.218Z" transform="translate(4.346 2.965)" fill="#fff" stroke="#fff" stroke-width="0.8"/>
  </g>
</svg>
