<svg xmlns="http://www.w3.org/2000/svg" width="23.018" height="21.327" viewBox="0 0 23.018 21.327">
  <g id="house_delete" data-name="house delete" transform="translate(0.349 0.3)">
    <path id="Path_20877" data-name="Path 20877" d="M11.413,21.2H4.4a1.417,1.417,0,0,1-1.407-1.423V10.247l7.147-6.358a1.912,1.912,0,0,1,2.541,0l7.3,6.492.007.006,1.7,1.515a.527.527,0,0,0,.751-.049.542.542,0,0,0-.048-.759l-1.5-1.336V4.329a2.794,2.794,0,0,0-5.588,0v.46L13.387,3.084a2.968,2.968,0,0,0-3.945,0l-9.01,8.01a.543.543,0,0,0-.047.76.528.528,0,0,0,.751.048l.8-.709v8.582a2.487,2.487,0,0,0,2.47,2.5h7.01a.538.538,0,0,0,0-1.076ZM16.365,4.329a1.731,1.731,0,0,1,3.462,0V8.812L16.365,5.728Z" transform="translate(-0.253 -1.547)" fill="#d50000" stroke="#d50000" stroke-width="0.6"/>
    <path id="Path_20878" data-name="Path 20878" d="M14.977,9.115a2.6,2.6,0,1,0,2.6,2.6,2.6,2.6,0,0,0-2.6-2.6Zm1.521,2.6a1.521,1.521,0,1,1-1.521-1.522A1.522,1.522,0,0,1,16.5,11.713Z" transform="translate(-3.817 -3.689)" fill="#d50000" stroke="#d50000" stroke-width="0.6"/>
    <path id="Path_20879" data-name="Path 20879" d="M23.32,17.312a4.714,4.714,0,1,0,4.714,4.714,4.714,4.714,0,0,0-4.714-4.714Zm0,8.351a3.638,3.638,0,1,1,3.638-3.638h0a3.642,3.642,0,0,1-3.638,3.637Z" transform="translate(-5.713 -6.013)" fill="#d50000" stroke="#d50000" stroke-width="0.6"/>
    <path id="Path_20880" data-name="Path 20880" d="M26.028,23.133H22.513a.538.538,0,1,0,0,1.076h3.515a.538.538,0,0,0,0-1.076Z" transform="translate(-6.665 -7.656)" fill="#d50000" stroke="#d50000" stroke-width="0.6"/>
  </g>
</svg>
