<svg xmlns="http://www.w3.org/2000/svg" width="54.43" height="54.433" viewBox="0 0 54.43 54.433">
  <path id="Vector" d="M.093,34.487a2.749,2.749,0,0,1,.272-2.071l3.008-5.2-3.008-5.2A2.733,2.733,0,0,1,1.36,18.29l5.2-3.008V9.29A2.725,2.725,0,0,1,9.289,6.565h5.992l3.008-5.2A2.725,2.725,0,0,1,22.012.366l5.2,3.008L32.421.368A2.706,2.706,0,0,1,34.489.1a2.747,2.747,0,0,1,1.654,1.27l3.006,5.2h5.992a2.725,2.725,0,0,1,2.725,2.725v5.995l5.2,3.008a2.725,2.725,0,0,1,.995,3.722l-3.008,5.2,3.006,5.2a2.725,2.725,0,0,1-.995,3.725l-5.2,3.008v5.992a2.725,2.725,0,0,1-2.725,2.725H39.146l-3.006,5.2a2.728,2.728,0,0,1-3.722.995l-5.2-3.008-5.2,3.006a2.735,2.735,0,0,1-3.725-.995l-3.008-5.2H9.289a2.725,2.725,0,0,1-2.725-2.725V39.149l-5.2-3.008A2.709,2.709,0,0,1,.093,34.487Zm27.121-4.545c5.45,0,5.45,1.839,5.45,2.725,0,1.131-1.689,2.725-5.45,2.725-5.017,0-5.42-2.335-5.45-2.725h-5.45c0,2.5,1.8,6.957,8.175,7.957v2.943h5.45V40.61c5.371-.9,8.175-4.436,8.175-7.943,0-3.055-1.417-8.175-10.9-8.175-5.45,0-5.45-1.706-5.45-2.725,0-1.322,1.91-2.725,5.45-2.725,3.229,0,3.777,1.738,3.815,2.774l2.725-.049h2.725a8.179,8.179,0,0,0-6.54-7.845V10.9h-5.45v2.924c-5.371.9-8.175,4.436-8.175,7.943,0,3.055,1.417,8.175,10.9,8.175Z" fill="#00adee"/>
</svg>
