<svg xmlns="http://www.w3.org/2000/svg" width="49.048" height="54.498" viewBox="0 0 49.048 54.498">
  <g id="Union" transform="translate(11.472 12.671)">
    <path id="Path" d="M49.048,13.161V41.309c0,8.447-4.687,13.188-13.1,13.188H13.107C4.823,54.5,0,49.757,0,41.309V13.161C0,4.85,4.823,0,13.107,0H35.944c8.417,0,13.1,4.85,13.1,13.161Z" transform="translate(-11.472 -12.671)" fill="#00adee"/>
    <path id="Path-2" data-name="Path" d="M23.489,4.254H2.125A2.127,2.127,0,0,1,2.125,0H23.489a2.127,2.127,0,0,1,0,4.254Z" transform="translate(0.245 12.341)" fill="#fff"/>
    <path id="Path-3" data-name="Path" d="M23.734,4.289H2.371A2.117,2.117,0,0,1,.327,3.308a2.166,2.166,0,0,1,0-2.289A2.137,2.137,0,0,1,2.371.011H23.734a2.138,2.138,0,0,1,1.907,2.153,2.133,2.133,0,0,1-1.907,2.125Z" transform="translate(0 24.758)" fill="#fff"/>
    <path id="Path-4" data-name="Path" d="M2.125.027V0H10.27a2.139,2.139,0,0,1,0,4.278H2.125a2.125,2.125,0,0,1,0-4.251Z" transform="translate(0.245)" fill="#fff"/>
  </g>
</svg>
