<svg id="check_2_" data-name="check (2)" xmlns="http://www.w3.org/2000/svg" width="18" height="18" viewBox="0 0 18 18">
  <g id="_x32_">
    <path id="Path_23090" data-name="Path 23090" d="M13.5,1.5a3,3,0,0,1,3,3v9a3,3,0,0,1-3,3h-9a3,3,0,0,1-3-3v-9a3,3,0,0,1,3-3Zm0-1.5h-9A4.5,4.5,0,0,0,0,4.5v9A4.5,4.5,0,0,0,4.5,18h9A4.5,4.5,0,0,0,18,13.5v-9A4.5,4.5,0,0,0,13.5,0Z" fill="#008208"/>
  </g>
  <g id="_x31_" transform="translate(5.338 6.6)">
    <path id="Path_23091" data-name="Path 23091" d="M6.223,10.625a.625.625,0,0,1-.437-.179L4,8.7A.625.625,0,0,1,4.875,7.8L6.223,9.125l4.026-3.946a.625.625,0,0,1,.876.892L6.661,10.446a.625.625,0,0,1-.437.179Z" transform="translate(-3.813 -5)" fill="#008208"/>
  </g>
</svg>
