<svg id="close" xmlns="http://www.w3.org/2000/svg" width="18" height="18" viewBox="0 0 18 18">
  <g id="_x33_">
    <path id="Path_22758" data-name="Path 22758" d="M13.5,1.5a3,3,0,0,1,3,3v9a3,3,0,0,1-3,3h-9a3,3,0,0,1-3-3v-9a3,3,0,0,1,3-3Zm0-1.5h-9A4.5,4.5,0,0,0,0,4.5v9A4.5,4.5,0,0,0,4.5,18h9A4.5,4.5,0,0,0,18,13.5v-9A4.5,4.5,0,0,0,13.5,0Z" fill="#d50000"/>
  </g>
  <path id="Path_22759" data-name="Path 22759" d="M9.128,8.067l2.121-2.121a.75.75,0,1,0-1.061-1.06L8.067,7.007,5.945,4.885a.75.75,0,1,0-1.061,1.06L7.007,8.067,4.886,10.188a.75.75,0,1,0,1.06,1.061L8.067,9.128l2.121,2.121a.75.75,0,1,0,1.061-1.061Z" transform="translate(0.933 0.933)" fill="#d50000"/>
</svg>
