<svg id="edit" xmlns="http://www.w3.org/2000/svg" width="18" height="18" viewBox="0 0 18 18">
  <path id="Path_21131" data-name="Path 21131" d="M14.684,10.183a.773.773,0,0,0-.773.773v6.183a.774.774,0,0,1-.773.773H2.319a.774.774,0,0,1-.773-.773V6.319a.774.774,0,0,1,.773-.773H8.5A.773.773,0,1,0,8.5,4H2.319A2.321,2.321,0,0,0,0,6.319v10.82a2.321,2.321,0,0,0,2.319,2.319h10.82a2.321,2.321,0,0,0,2.319-2.319V10.956A.772.772,0,0,0,14.684,10.183Z" transform="translate(0 -1.457)" fill="#202020"/>
  <path id="Path_21132" data-name="Path 21132" d="M9.291,10.3a.456.456,0,0,0-.123.23l-.636,3.183a.45.45,0,0,0,.442.538.425.425,0,0,0,.088-.009l3.182-.636a.448.448,0,0,0,.23-.123l7.122-7.122L16.413,3.177Z" transform="translate(-3.911 -0.803)" fill="#202020"/>
  <path id="Path_21133" data-name="Path 21133" d="M22.777.659a2.252,2.252,0,0,0-3.182,0L18.349,1.9l3.182,3.182,1.246-1.246a2.25,2.25,0,0,0,0-3.182Z" transform="translate(-5.435 -0.001)" fill="#202020"/>
</svg>
