<svg id="search-file" xmlns="http://www.w3.org/2000/svg" width="18" height="18" viewBox="0 0 18 18">
  <path id="Path_21231" data-name="Path 21231" d="M2.25,4.327A2.077,2.077,0,0,1,4.327,2.25H18.173A2.077,2.077,0,0,1,20.25,4.327V11.25a.692.692,0,1,1-1.385,0V4.327a.692.692,0,0,0-.692-.692H4.327a.692.692,0,0,0-.692.692V18.173a.692.692,0,0,0,.692.692H11.25a.692.692,0,0,1,0,1.385H4.327A2.077,2.077,0,0,1,2.25,18.173Z" transform="translate(-2.25 -2.25)" fill="#fff" fill-rule="evenodd"/>
  <path id="Path_21232" data-name="Path 21232" d="M15.147,13.409a1.738,1.738,0,1,0,1.738,1.738A1.738,1.738,0,0,0,15.147,13.409Zm-2.9,1.738a2.9,2.9,0,1,1,2.9,2.9A2.9,2.9,0,0,1,12.25,15.147Z" transform="translate(-1.588 -1.588)" fill="#fff" fill-rule="evenodd"/>
  <path id="Path_21233" data-name="Path 21233" d="M17.877,17.467a.579.579,0,0,1,.814-.091l1.931,1.545a.579.579,0,1,1-.724.9l-1.931-1.545A.579.579,0,0,1,17.877,17.467Z" transform="translate(-2.84 -2.726)" fill="#fff" fill-rule="evenodd"/>
  <path id="Path_21234" data-name="Path 21234" d="M6.25,7.829c0-.32.345-.579.771-.579H17.3c.426,0,.771.259.771.579s-.345.579-.771.579H7.021C6.6,8.409,6.25,8.149,6.25,7.829Z" transform="translate(-3.16 -2.572)" fill="#fff" fill-rule="evenodd"/>
  <path id="Path_21235" data-name="Path 21235" d="M6.25,11.829a.579.579,0,0,1,.579-.579h3.09a.579.579,0,0,1,0,1.159H6.829A.579.579,0,0,1,6.25,11.829Z" transform="translate(-2.321 -2.829)" fill="#fff" fill-rule="evenodd"/>
</svg>
